<?xml version="1.0" encoding="utf-8"?>
<!-- Generator: Adobe Illustrator 22.0.1, SVG Export Plug-In . SVG Version: 6.00 Build 0)  -->
<svg version="1.1" id="Layer_1" xmlns="http://www.w3.org/2000/svg" xmlns:xlink="http://www.w3.org/1999/xlink" x="0px" y="0px"
	 viewBox="0 0 1500 760" style="enable-background:new 0 0 1500 760;" xml:space="preserve">
<style type="text/css">
	.st0{display:none;fill:#FFFFFF;}
	.st1{fill:#464C4D;}
</style>
<rect class="st0" width="1500" height="760"/>
<path class="st1" d="M394.6,498c0.1-0.2,0.1-0.3,0.1-0.5s-0.1-0.4-0.2-0.6c-2.3-3.8-4.6-7.8-6.7-11.6c-0.2-0.3-0.5-0.5-0.9-0.5
	s-0.7,0.2-0.9,0.6c-1,1.8-2.2,3.8-3.3,5.7c-1.3,2.1-2.4,4.2-3.4,5.9c-0.2,0.3-0.2,0.7,0,1s0.5,0.5,0.9,0.5c1,0,2,0,3,0
	c1.9,0,3.8,0.1,5.7,0.1c1.7,0,3.3,0,4.7-0.1C394.1,498.5,394.5,498.3,394.6,498z M383.3,496.4c-0.4,0-0.8,0-1.2,0
	c0.8-1.3,1.6-2.8,2.5-4.3c0.8-1.4,1.6-2.7,2.4-4.1c1.6,2.8,3.2,5.7,4.9,8.4c-0.9,0-1.8,0-2.8,0C387.1,496.5,385.2,496.5,383.3,496.4
	z"/>
<path class="st1" d="M918.6,238c0.1-0.2,0.1-0.3,0.1-0.5s-0.1-0.4-0.2-0.6c-2.3-3.8-4.6-7.8-6.7-11.6c-0.2-0.3-0.5-0.5-0.9-0.5
	s-0.7,0.2-0.9,0.6c-1,1.8-2.2,3.8-3.3,5.7c-1.3,2.1-2.4,4.2-3.4,5.9c-0.2,0.3-0.2,0.7,0,1s0.5,0.5,0.9,0.5c1,0,2,0,3,0
	c1.9,0,3.8,0.1,5.7,0.1c1.7,0,3.3,0,4.7-0.1C918.1,238.5,918.5,238.3,918.6,238z M907.3,236.4c-0.4,0-0.8,0-1.2,0
	c0.8-1.3,1.6-2.8,2.5-4.3c0.8-1.4,1.6-2.7,2.4-4.1c1.6,2.8,3.2,5.7,4.9,8.4c-0.9,0-1.8,0-2.8,0C911.1,236.5,909.2,236.5,907.3,236.4
	z"/>
<path class="st1" d="M294.3,595.3c0-3.1-2.5-5.6-5.6-5.6c-1.2,0-2.4,0.5-3.3,1.3c-1,1-1.6,2.1-1.7,3.3c-0.1,3.3,2.4,6.2,5.5,6.2
	C292,600.4,294.3,598,294.3,595.3z M285.9,594.5v-0.2c0-0.8,0.6-1.5,1-1.8c0.5-0.5,1.2-0.7,1.8-0.7c1.8,0,3.4,1.6,3.4,3.5
	c0,1.6-1.3,3-2.9,3C287.5,598.3,285.9,596.5,285.9,594.5z"/>
<path class="st1" d="M1232.4,315.5c0-5.4-4.5-9.9-9.8-9.9c-2.1,0-4.2,0.8-5.8,2.3c-1.8,1.7-2.9,3.8-3,5.8
	c-0.2,5.8,4.3,10.9,9.7,10.9C1228.3,324.5,1232.4,320.4,1232.4,315.5z M1217.5,314.1v-0.3c0.1-1.5,1.1-2.6,1.8-3.2
	c0.9-0.8,2.1-1.3,3.2-1.3c3.2,0,6,2.9,6,6.2c0,2.9-2.4,5.3-5.1,5.3C1220.3,320.7,1217.5,317.6,1217.5,314.1z"/>
<g>
	<path class="st1" d="M325.1,304.9c0.6,0,1.1-0.5,1.1-1.1s-0.5-1.1-1.1-1.1c-0.8,0-1.5,0-2.3,0.1c-0.7,0-1.4,0.1-2.1,0.1
		c-0.3,0-0.7,0-1,0c-0.6,0-1.1,0.4-1.1,1s0.4,1.1,1,1.1c0.4,0,0.8,0,1.2,0c0.8,0,1.5,0,2.2-0.1C323.7,304.9,324.4,304.9,325.1,304.9
		z"/>
	<path class="st1" d="M342.9,304.2c0-0.6-0.5-1.1-1.1-1.1h-5.3c-0.6,0-1.1,0.5-1.1,1.1s0.5,1.1,1.1,1.1h5.3
		C342.4,305.3,342.9,304.8,342.9,304.2z"/>
	<path class="st1" d="M331,314c0-0.2,0.1-0.4,0.1-0.8c0-0.7-0.1-1.5-0.2-2.2s-0.1-1.3-0.1-1.9s-0.5-1.1-1.1-1.1s-1.1,0.5-1.1,1.1
		c0,0.7,0.1,1.5,0.2,2.2s0.1,1.3,0.1,1.9c-0.1,0.2-0.2,0.4-0.2,0.6c0,0.7,0.5,1.2,1.1,1.2C330.3,315,330.8,314.8,331,314z"/>
	<path class="st1" d="M328.8,295.8c0,0.6,0,1.2,0,1.8c0.1,0.6,0.6,1,1.2,1c0.6-0.1,1-0.6,1-1.2c0-0.5,0-1,0-1.5c0-0.3,0-0.7,0-1
		c0-0.6,0-1.5-0.4-2.3c-0.2-0.6-0.8-0.8-1.4-0.6c-0.6,0.2-0.8,0.8-0.6,1.4c0.2,0.4,0.2,0.9,0.2,1.6
		C328.8,295.2,328.8,295.5,328.8,295.8z"/>
	<path class="st1" d="M327.6,299.7c0-0.3-0.1-0.5-0.3-0.8c-0.6-0.6-1.1-1.1-1.7-1.5c-0.5-0.5-1-0.9-1.5-1.4
		c-0.2-0.2-0.5-0.5-0.7-0.8c-0.4-0.4-1.1-0.5-1.5-0.1s-0.5,1.1-0.1,1.5c0.3,0.3,0.5,0.6,0.8,0.9c0.5,0.5,1.1,1,1.6,1.5
		s1.1,0.9,1.6,1.5c0.4,0.4,1.1,0.4,1.5,0C327.5,300.3,327.6,300,327.6,299.7z"/>
	<path class="st1" d="M333.5,308.8l3.8,3.8c0.4,0.4,1.1,0.4,1.5,0c0.2-0.2,0.3-0.5,0.3-0.8s-0.1-0.5-0.3-0.8l-3.8-3.8
		c-0.4-0.4-1.1-0.4-1.5,0C333.1,307.7,333.1,308.4,333.5,308.8z"/>
	<path class="st1" d="M325.5,309c0.4-0.5,0.8-1,1.3-1.5c0.2-0.2,0.3-0.5,0.3-0.8s-0.1-0.5-0.3-0.8c-0.4-0.4-1.1-0.4-1.5,0
		c-0.5,0.5-1,1.1-1.4,1.6s-0.8,1-1.3,1.5c-0.2,0-0.4,0.1-0.5,0.3c-0.5,0.5-0.5,1.2-0.1,1.6c0.6,0.6,1.3,0.4,2.1-0.4
		C324.6,310.1,325,309.5,325.5,309z"/>
	<path class="st1" d="M335.4,296c-0.2,0.2-0.4,0.4-0.7,0.6c-0.2,0.2-0.5,0.4-0.7,0.7c-0.2,0.2-0.4,0.4-0.6,0.6
		c-0.4,0.5-0.3,1.1,0.1,1.5c0.5,0.4,1.1,0.3,1.5-0.1c0.1-0.2,0.3-0.3,0.4-0.5c0.2-0.2,0.4-0.4,0.6-0.6s0.5-0.4,0.7-0.7
		c0.4-0.4,1-1.1,1.4-1.9c0.1-0.1,0.1-0.3,0.1-0.5c0-0.4-0.2-0.8-0.6-1c-0.5-0.2-1.2,0-1.4,0.5C336.2,295.1,335.9,295.5,335.4,296z"
		/>
</g>
<g>
	<path class="st1" d="M1221.1,429.9c0.6,0,1.1-0.5,1.1-1.1s-0.5-1.1-1.1-1.1c-0.8,0-1.5,0-2.3,0.1c-0.7,0-1.4,0.1-2.1,0.1
		c-0.3,0-0.7,0-1,0c-0.6,0-1.1,0.4-1.1,1s0.4,1.1,1,1.1c0.4,0,0.8,0,1.2,0c0.8,0,1.5,0,2.2-0.1
		C1219.7,429.9,1220.4,429.9,1221.1,429.9z"/>
	<path class="st1" d="M1238.9,429.2c0-0.6-0.5-1.1-1.1-1.1h-5.3c-0.6,0-1.1,0.5-1.1,1.1s0.5,1.1,1.1,1.1h5.3
		C1238.4,430.3,1238.9,429.8,1238.9,429.2z"/>
	<path class="st1" d="M1227,439c0-0.2,0.1-0.4,0.1-0.8c0-0.7-0.1-1.5-0.2-2.2s-0.1-1.3-0.1-1.9s-0.5-1.1-1.1-1.1s-1.1,0.5-1.1,1.1
		c0,0.7,0.1,1.5,0.2,2.2s0.1,1.3,0.1,1.9c-0.1,0.2-0.2,0.4-0.2,0.6c0,0.7,0.5,1.2,1.1,1.2C1226.3,440,1226.8,439.8,1227,439z"/>
	<path class="st1" d="M1224.8,420.8c0,0.6,0,1.2,0,1.8c0.1,0.6,0.6,1,1.2,1c0.6-0.1,1-0.6,1-1.2c0-0.5,0-1,0-1.5c0-0.3,0-0.7,0-1
		c0-0.6,0-1.5-0.4-2.3c-0.2-0.6-0.8-0.8-1.4-0.6c-0.6,0.2-0.8,0.8-0.6,1.4c0.2,0.4,0.2,0.9,0.2,1.6
		C1224.8,420.2,1224.8,420.5,1224.8,420.8z"/>
	<path class="st1" d="M1223.6,424.7c0-0.3-0.1-0.5-0.3-0.8c-0.6-0.6-1.1-1.1-1.7-1.5c-0.5-0.5-1-0.9-1.5-1.4
		c-0.2-0.2-0.5-0.5-0.7-0.8c-0.4-0.4-1.1-0.5-1.5-0.1s-0.5,1.1-0.1,1.5c0.3,0.3,0.5,0.6,0.8,0.9c0.5,0.5,1.1,1,1.6,1.5
		s1.1,0.9,1.6,1.5c0.4,0.4,1.1,0.4,1.5,0C1223.5,425.3,1223.6,425,1223.6,424.7z"/>
	<path class="st1" d="M1229.5,433.8l3.8,3.8c0.4,0.4,1.1,0.4,1.5,0c0.2-0.2,0.3-0.5,0.3-0.8s-0.1-0.5-0.3-0.8l-3.8-3.8
		c-0.4-0.4-1.1-0.4-1.5,0C1229.1,432.7,1229.1,433.4,1229.5,433.8z"/>
	<path class="st1" d="M1221.5,434c0.4-0.5,0.8-1,1.3-1.5c0.2-0.2,0.3-0.5,0.3-0.8s-0.1-0.5-0.3-0.8c-0.4-0.4-1.1-0.4-1.5,0
		c-0.5,0.5-1,1.1-1.4,1.6s-0.8,1-1.3,1.5c-0.2,0-0.4,0.1-0.5,0.3c-0.5,0.5-0.5,1.2-0.1,1.6c0.6,0.6,1.3,0.4,2.1-0.4
		C1220.6,435.1,1221,434.5,1221.5,434z"/>
	<path class="st1" d="M1231.4,421c-0.2,0.2-0.4,0.4-0.7,0.6c-0.2,0.2-0.5,0.4-0.7,0.7c-0.2,0.2-0.4,0.4-0.6,0.6
		c-0.4,0.5-0.3,1.1,0.1,1.5c0.5,0.4,1.1,0.3,1.5-0.1c0.1-0.2,0.3-0.3,0.4-0.5c0.2-0.2,0.4-0.4,0.6-0.6s0.5-0.4,0.7-0.7
		c0.4-0.4,1-1.1,1.4-1.9c0.1-0.1,0.1-0.3,0.1-0.5c0-0.4-0.2-0.8-0.6-1c-0.5-0.2-1.2,0-1.4,0.5C1232.2,420.1,1231.9,420.5,1231.4,421
		z"/>
</g>
<path class="st1" d="M1153,234.1c0.6,0.4,1.2,0.7,1.8,1.1c2.7,1.6,5.5,3.3,8.4,4.6c0.1,0.1,0.3,0.1,0.4,0.1c0.2,0,0.4-0.1,0.6-0.2
	c0.3-0.2,0.5-0.6,0.4-0.9c-0.1-1.1-0.2-2.3-0.3-3.4c-0.3-3.4-0.5-6.9-0.6-10.3c0-0.4-0.3-0.8-0.6-0.9c-0.4-0.2-0.8-0.1-1.1,0.2
	c-2.4,2-6.3,5.4-9.3,8.2c-0.2,0.2-0.4,0.6-0.3,0.9C1152.6,233.6,1152.8,233.9,1153,234.1z M1161.8,227.3c0.1,2.8,0.3,5.5,0.5,8.2
	c0,0.5,0.1,1.1,0.1,1.6c-2.2-1.1-4.4-2.4-6.5-3.7c-0.2-0.1-0.4-0.3-0.6-0.4C1157.5,231,1159.9,228.9,1161.8,227.3z"/>
<path class="st1" d="M1021.1,173.2c0,0.3,0.1,0.6,0.3,0.7c0.2,0.2,0.5,0.3,0.7,0.3c0,0,0,0,0.1,0c3.1-0.2,6.2-0.4,9.3-0.5l3.5-0.2
	c0.6,0,1-0.5,1-1s0-1,0-1.5c0-3.2-0.3-6.6-0.8-10.4c-0.1-0.6-0.6-1-1.2-0.9h-0.4c-4,0.4-8.2,0.9-12.3,1.2c-0.6,0-1,0.5-1,1.1
	c0.1,1.3,0.2,2.5,0.2,3.8C1020.8,168.2,1021,170.7,1021.1,173.2z M1033.3,161.8c0.4,3.2,0.6,6.2,0.6,9.1c0,0.2,0,0.3,0,0.5l-2.5,0.2
	c-2.7,0.2-5.4,0.3-8.2,0.5c-0.1-2.1-0.2-4.3-0.4-6.4c-0.1-0.9-0.1-1.8-0.2-2.7C1026.2,162.6,1029.8,162.2,1033.3,161.8z"/>
<path class="st1" d="M1078.1,467.2c0,0.3,0.1,0.6,0.3,0.7c0.2,0.2,0.5,0.3,0.7,0.3c0,0,0,0,0.1,0c3.1-0.2,6.2-0.4,9.3-0.5l3.5-0.2
	c0.6,0,1-0.5,1-1s0-1,0-1.5c0-3.2-0.3-6.6-0.8-10.4c-0.1-0.6-0.6-1-1.2-0.9h-0.4c-4,0.4-8.2,0.9-12.3,1.2c-0.6,0-1,0.5-1,1.1
	c0.1,1.3,0.2,2.5,0.2,3.8C1077.8,462.2,1078,464.7,1078.1,467.2z M1090.3,455.8c0.4,3.2,0.6,6.2,0.6,9.1c0,0.2,0,0.3,0,0.5l-2.5,0.2
	c-2.7,0.2-5.4,0.3-8.2,0.5c-0.1-2.1-0.2-4.3-0.4-6.4c-0.1-0.9-0.1-1.8-0.2-2.7C1083.2,456.6,1086.8,456.2,1090.3,455.8z"/>
<path class="st1" d="M308,388c0.3,0,0.6-0.1,0.8-0.4c0.2-0.2,0.3-0.4,0.3-0.7v-0.1v-0.2c-0.3-3.4-0.6-6.6-0.8-9.9c0-0.6-0.5-1-1.1-1
	c-2.8,0-6.2,0-9.6,0.2c-0.6,0-1,0.5-1,1.1c0.1,3.8,0.1,7.5,0.1,10.3c0,0.3,0.1,0.6,0.3,0.8c0.2,0.2,0.5,0.3,0.8,0.3
	c1.9-0.1,3.9-0.1,5.8-0.2C305.1,388,306.5,388,308,388z M298.7,377.8c2.6-0.1,5.1-0.1,7.4-0.1c0.2,2.7,0.4,5.5,0.6,8.1
	c-1.1,0-2.1,0.1-3.2,0.1c-1.6,0-3.2,0.1-4.8,0.1C298.8,383.7,298.8,380.8,298.7,377.8z"/>
</svg>
