<?xml version="1.0" encoding="utf-8"?>
<!-- Generator: Adobe Illustrator 22.1.0, SVG Export Plug-In . SVG Version: 6.00 Build 0)  -->
<svg version="1.1" id="Layer_1" xmlns="http://www.w3.org/2000/svg" xmlns:xlink="http://www.w3.org/1999/xlink" x="0px" y="0px"
	 viewBox="0 0 361.3 250.3" style="enable-background:new 0 0 361.3 250.3;" xml:space="preserve">
<style type="text/css">
	.st0{fill:#FFFFFF;opacity:0;}
	.st1{fill:#FFCB05;}
	.st0:hover {
            fill: #ffffff;
            opacity: 1;
            cursor: pointer;
        }
</style>
<g>
	<path class="st0" d="M54,142.7c-2.8-1.3-4.4-3.9-3.7-7.1c0.6-2.6-2.5-3.9-4.1-2.6c-0.8-0.1-1.6,0.1-2.2,0.6
		c-1.7,1.5-6.3,0.3-8.6,0.8c-1.3,0.3-2.1,1.8-1.7,3.1c1,3.5-0.5,5-1.9,8c-0.7,1.4-1.2,3.2-0.2,4.6c1,1.4,2.9,1.6,4.5,1.8
		c1.4,0.2,2.6,0.1,3.7,0.9c1.3,0.9,1.6,2.1,2.6,3.3c1.3,1.8,3.8,1.5,4.6-0.6c0.8-2.1,1.4-5,3.4-6.4c1.4-1,2.9-1.3,4.1-2.6
		C55.6,145.5,55.5,143.4,54,142.7z"/>
	<path class="st0" d="M105.4,103.8c-1-0.5-2.1-0.4-3,0.3c-1.5,1.1-0.6,1.7-2.8,1.2c-2.9-0.6-4.2,3.3-2.1,4.5
		c-0.5,0.3-0.9,0.5-1.4,0.9c-2.2,1.7-1,5.2,1.9,4.6c1.4-0.3,1.5,1.1,2,2c0.6,1.1,1.7,1.9,3,1.8c1.3-0.1,2.3-0.9,2.7-2.1
		c0.3-0.7-0.1-3.5,1-3.6c1.5-0.2,3-1.5,2.4-3.2C108.6,108.1,107.5,104.8,105.4,103.8z M103,110.1c0,0.1-0.1,0.1-0.1,0.1
		c0,0,0-0.1,0-0.1C102.9,110.1,102.9,110.1,103,110.1C103,110.1,103,110.1,103,110.1z"/>
	<path class="st0" d="M212.1,46.3c-0.4,0.4-0.7,1-1.3,0.5c-0.8-0.7-2,0.2-1.7,1c-0.2,0.2-0.3,0.4-0.3,0.7c-0.1,0.8-1.1,1-1,1.9
		c0,0.6,0.4,1.1,1,1.3c0.4,0.2,0.8,0.2,1.2,0.2c0.5,0.1,0.3,0,0.6,0.4c0.3,0.6,0.7,1.1,1.4,1.1c0.7,0,1.1-0.4,1.3-1
		c0.1-0.3,0-0.7,0.2-1c0.2-0.2,0.7-0.4,0.9-0.6c1.5-1.2,0.1-2.9-0.5-4.3C213.4,45.9,212.5,45.9,212.1,46.3z"/>
	<path class="st0" d="M257.5,63.5c-0.3-0.3-1-0.9-1.2-1.3c-0.1-0.3-0.1-0.8-0.1-1.1c-0.1-0.8-1.2-0.9-1.7-0.4
		c-0.6,0.6-1.5,0.4-2.3,0.1c-0.9-0.3-1.4,0.6-1.2,1.3c-0.4,0.5-0.4,1.2,0.2,1.5c0,0,0,0,0,0c0,0,0,0,0,0.1c-0.1,0.2-0.3,0.4-0.5,0.6
		c-1.1,0.8-0.2,2.2,1,1.7c-0.4,0.2,0.3,0,0.5,0c0.3,0,0.7,0,1,0c0,0,0,0.1,0,0.1c0.1,0.4,0.2,0.8,0.4,1.2c0.3,0.8,1.4,1,1.8,0.2
		c0.3-0.5,0.6-1,0.7-1.5c0.1-0.2,0.1-0.5,0.2-0.6c0.1-0.2,0.4-0.2,0.7-0.3C257.8,64.9,258,64.1,257.5,63.5z M253.2,66
		C253.2,66,253.1,65.6,253.2,66L253.2,66z"/>
	<path class="st0" d="M133.9,26.4c2.7,0.8,5.4,1.4,7.9,2.7c0.1,0,0.1,0.1,0.2,0.1c0,0.4,0.3,0.8,0.7,1c1.1,0.4,1.8,0.3,2.9-0.1
		c2.5-1,4.2-2.7,7-3.5c1.1-0.3,0.9-2-0.3-2c-0.5,0-1,0-1.5,0c-0.1-0.1-0.2-0.1-0.3-0.2c-4.6-1.7-9.1-2.1-13.9-1.3
		c-0.1,0-0.2,0.1-0.3,0.2c-1.7-0.2-3.3-0.3-4.9,0c-0.7,0.1-0.9,0.9-0.6,1.5C131.4,25.9,132.8,26,133.9,26.4z M143.5,27.5
		c0,0-0.1,0.1-0.1,0.1c-0.1,0-0.1-0.1-0.2-0.1C143.3,27.5,143.4,27.5,143.5,27.5z M138.6,25.6c-0.1,0-0.3-0.1-0.4-0.1
		C138.4,25.5,138.5,25.5,138.6,25.6C138.7,25.6,138.7,25.6,138.6,25.6z"/>
	<path class="st0" d="M130.6,65.6c-4.7-0.6-10.1,0.1-14.4-2c-2.3-1.1-4.3,2.4-2,3.5c0,0,0,0,0.1,0c-0.1,0.1-0.1,0.3-0.2,0.5
		c0,0.2-0.1,0.4-0.1,0.6c-0.3,1.7,1.4,2.8,2.7,2.4c3.4,1.3,6.8,1.3,10.5,1.4c2.5,0,6.7,1.4,7.9-1.6C136.6,66.6,133.3,66,130.6,65.6z
		"/>
	<path class="st0" d="M167.8,48.9c-3.7,1.2-7.4,2.4-11.2,3.3c0-0.1-0.1-0.2-0.1-0.3c-3.2-5.8-6.8-13.1-12.2-17.3
		c-0.3-0.2-0.5-0.4-0.8-0.6c0-0.4-0.2-0.8-0.5-1.2c-1.9-2.4-5.1-3.6-8.4-4.3c-0.2-0.4-0.6-0.7-1.1-0.9c-2.3-0.7-4.5-1-6.8-1
		c-0.4-0.1-0.8-0.2-1.2-0.3c-2-0.5-3.1,1.9-2.1,3.2c0.1,2.2,0.7,4.3,0.6,6.4c-0.1,3.2-1.2,6.1-2.7,8.9c-2.6,4.7-6.2,8.8-11.4,10.5
		c-1.7,0.6-2.1,3.6,0,3.9c0.8,0.1,1.6,0.3,2.4,0.4c0.5,1.1,1.4,1.9,2.9,2.2c2,0.4,4,0.8,6.1,1.2c0.4,0.4,0.9,0.7,1.5,0.9
		c3.6,1.4,8.2,1.2,12,1.5c4.2,0.3,8.2,0.1,12.1-1.5c0.1,0,0.1-0.1,0.2-0.1c1.6,0,3.2,0,4.8,0.1c0.2,0,0.5,0,0.7-0.1
		c0,0.2,0.1,0.5,0.1,0.7c0.1,0.7,0.5,1.2,0.9,1.7c0,0.2,0,0.4,0,0.6c0,0.6,0.1,1.3,0.1,1.9c-0.6,1.6-0.3,3.5,1,4.7
		c1.8,1.6,4.6,1.8,6.4,0c1.1-1.2,1.7-2.7,1.6-4.3c0,0,0,0,0-0.1c3.2-4.1,6.4-8.2,9.3-12.5c0.1-0.1,0.2-0.3,0.2-0.4
		C174.8,53.2,172.4,47.4,167.8,48.9z M127.6,31.5c-0.1,0-0.1,0.1-0.2,0.1c0-0.1,0-0.1,0-0.2C127.4,31.4,127.5,31.5,127.6,31.5z"/>
	<path class="st0" d="M180.6,207c-0.7-1.4-2.2-2-3.8-2.4c-1.4-3-6.2-5.6-9-3.8c-4.4,0.5-7.1,2.3-10.6,4.4c-0.9-0.8-2-1.2-3.2-1.1
		c-1.1,0.1-2.1,0.7-2.4,1.8c-0.4,1.3-0.1,2.6-0.2,4c-0.2,2,2.2,3,3.8,2.2c1.4-0.8,3.7-0.4,6.1,0.3c0,1.3,0.7,2.5,2.4,2.3
		c1-0.1,2-0.3,2.9-0.5c1,0.3,1.9,0.6,2.6,0.7c3.4,0.5,6.8,0.2,9.5-1.9C180.3,211.6,181.7,209.1,180.6,207z M172.2,210.1
		c0,0,0.1-0.1,0.1-0.1c0.4,0,0.7,0,1,0C173,210,172.6,210.1,172.2,210.1z"/>
	<path class="st0" d="M234.1,166c-1.8-2.6-3.6-5.1-5.6-7.5c-1.2-1.5-2.9-0.9-3.7,0.4c-1.3,0-2.6,0.7-3.3,1.8c-1,1.5-1,3.2-0.5,4.8
		c-0.6,0.9-0.7,2-0.2,3c0.9,1.7,3.4,2.8,4.9,3.8c0.8,0.5,2,0.4,2.9-0.2c0.5,0.3,1,0.5,1.5,0.8c1.8,1.1,4.4,2.1,5.6-0.4
		C236.8,170.1,235.4,167.8,234.1,166z"/>
	<path class="st0" d="M179.2,180.4c-1.7-2.9-2-6.9-1.4-10.4c0.1-0.7,0.3-1.4,0.5-2c0,0,0-0.1,0-0.1c1.3-1.5,0.7-4.4-1.7-4.1
		c-5.3,0.5-11.8,1.8-16.1,5.2c-2.7,2.2-3.4,5.2-7.2,3.4c-1.3-0.6-4.1-1.7-5-2.4c-2-1.7-5.8,0.6-3.9,3c1.4,1.8,2,5.8,1.9,8.7
		c-0.2,0.5-0.4,1-0.6,1.5c-0.6,2,1.8,4.1,3.7,2.8c1.1-0.8,1.6-1.6,1.7-2.6c0.9-1.2,2.7-2.4,4.5-3c0,0.6,0.2,1.2,0.7,1.9
		c2.2,3.9,10,4.9,13.9,5.4c2.9,0.4,10.2,1.4,10.8-3.1C181.2,182.8,180,181.7,179.2,180.4z M150.8,177c0-0.1,0-0.2,0-0.3
		c0.1,0.1,0.2,0.1,0.3,0.2C151,176.9,150.9,176.9,150.8,177z"/>
</g>
<g>
	<path class="st1" d="M113.3,110.9c-0.6-0.4-1.2-0.9-1.8-1.3c-1-0.7-2.1-1.5-3.2-2.2c0-1.3,0-2.5,0.1-3.7c0-1,0.1-2,0.1-3.2
		c0-0.6-0.4-1.2-1-1.4c-0.6-0.2-1.2-0.1-1.7,0.4c-0.7,0.8-1.5,1.4-2.4,2.1c-0.8,0.6-1.5,1.2-2.3,2c-1.2-0.5-2.3-1-3.5-1.5
		c-0.8-0.3-1.6-0.7-2.4-1c-0.5-0.2-1.2-0.1-1.6,0.3c-0.4,0.4-0.6,1-0.4,1.6c0.4,1.1,0.8,2.1,1.2,3.1c0.4,1.1,0.8,2.1,1.1,3.2
		c-1,0.8-1.8,1.6-2.7,2.4c-0.8,0.8-1.5,1.5-2.4,2.2c-0.5,0.4-0.7,1-0.5,1.6c0.2,0.6,0.7,1,1.4,1c0.8,0,1.5,0,2.2,0.1
		c1.9,0,3.6,0.1,5.4,0.4c0.9,1.8,1.8,3.5,2.7,5.3c0.3,0.5,0.8,0.8,1.3,0.8c0,0,0,0,0.1,0c0.6,0,1.1-0.4,1.3-0.9c1.1-2.7,2-4.8,3-7
		c0.4-0.1,0.7-0.2,1.1-0.3c1.4-0.4,2.8-0.8,4.2-1c0.6-0.1,1-0.6,1.2-1.2C114,111.9,113.8,111.3,113.3,110.9z M107.8,111.8
		c-0.6,0.2-1.2,0.3-1.8,0.5c-0.4,0.1-0.8,0.4-1,0.8c-0.8,1.6-1.4,3.1-2.1,4.8c-0.5-1-1-2-1.5-3c-0.2-0.4-0.6-0.7-1.1-0.8
		c-1.8-0.4-3.5-0.5-5.1-0.5c0.9-0.9,1.8-1.8,2.9-2.6c0.5-0.3,0.7-1,0.6-1.5c-0.3-1.6-0.9-3-1.4-4.3c1.2,0.5,2.5,1,3.7,1.6
		c0.6,0.3,1.3,0.1,1.8-0.4c0.8-0.9,1.6-1.6,2.6-2.4c0,1.3-0.1,2.6-0.1,4.2c0,0.5,0.3,1,0.7,1.3c1,0.6,1.9,1.3,2.9,2
		C108.5,111.6,108.1,111.7,107.8,111.8z"/>
	<path class="st1" d="M62.1,144.9c-1-0.7-2-1.4-3.1-2.2c-1.7-1.2-3.5-2.5-5.4-3.8c0-2.3,0.1-4.2,0.1-6.2c0.1-1.7,0.1-3.4,0.1-5.4
		c0-1.1-0.6-2-1.6-2.4c-1-0.4-2.1-0.1-2.8,0.7c-1.2,1.4-2.6,2.4-4,3.5c-1.3,1-2.6,2-3.8,3.3c-2-0.8-3.9-1.7-5.9-2.5
		c-1.4-0.6-2.7-1.1-4.1-1.7c-0.9-0.4-2-0.2-2.7,0.5c-0.7,0.7-1,1.7-0.7,2.6c0.6,1.9,1.3,3.6,1.9,5.2c0.7,1.8,1.4,3.5,1.9,5.3
		c-1.7,1.3-3.1,2.7-4.5,4.1c-1.3,1.3-2.6,2.6-4,3.7c-0.8,0.7-1.2,1.8-0.8,2.8c0.3,1,1.3,1.7,2.3,1.7c1.3,0,2.5,0.1,3.7,0.1
		c3.2,0.1,6,0.1,9.2,0.6c1.5,3,3,5.9,4.5,8.9c0.4,0.8,1.3,1.4,2.3,1.4c0,0,0.1,0,0.1,0c1,0,1.9-0.7,2.2-1.6
		c1.8-4.6,3.3-8.1,5.1-11.9c0.6-0.2,1.2-0.3,1.9-0.5c2.3-0.6,4.7-1.3,7.1-1.8c1-0.2,1.8-1,2-2C63.3,146.5,62.9,145.4,62.1,144.9z
		 M52.7,146.3c-1,0.3-2,0.5-3,0.8c-0.7,0.2-1.3,0.7-1.7,1.4c-1.3,2.8-2.4,5.3-3.6,8.1c-0.8-1.7-1.7-3.4-2.5-5
		c-0.3-0.7-1-1.2-1.8-1.4c-3.1-0.6-5.9-0.8-8.7-0.9c1.6-1.6,3.1-3.1,4.9-4.3c0.8-0.6,1.3-1.6,1-2.6c-0.6-2.7-1.5-5-2.4-7.2
		c2.1,0.9,4.2,1.8,6.2,2.7c1,0.5,2.3,0.2,3-0.7c1.3-1.6,2.8-2.7,4.4-4c0,2.2-0.1,4.4-0.1,7.2c0,0.8,0.4,1.6,1.1,2.1
		c1.6,1.1,3.3,2.2,4.9,3.4C54,146,53.3,146.1,52.7,146.3z"/>
	<path class="st1" d="M259.7,64.2c-0.3-0.2-0.6-0.4-0.9-0.6c-0.5-0.4-1.1-0.8-1.6-1.1c0-0.7,0-1.2,0-1.8c0-0.5,0-1,0-1.6
		c0-0.3-0.2-0.6-0.5-0.7c-0.3-0.1-0.6,0-0.8,0.2c-0.4,0.4-0.8,0.7-1.2,1.1c-0.4,0.3-0.8,0.6-1.1,1c-0.6-0.3-1.2-0.5-1.8-0.7
		c-0.4-0.2-0.8-0.3-1.2-0.5c-0.3-0.1-0.6-0.1-0.8,0.1c-0.2,0.2-0.3,0.5-0.2,0.8c0.2,0.6,0.4,1.1,0.6,1.6c0.2,0.5,0.4,1,0.6,1.6
		c-0.5,0.4-0.9,0.8-1.3,1.2c-0.4,0.4-0.8,0.8-1.2,1.1c-0.2,0.2-0.3,0.5-0.2,0.8c0.1,0.3,0.4,0.5,0.7,0.5c0.4,0,0.7,0,1.1,0
		c1,0,1.8,0,2.7,0.2c0.4,0.9,0.9,1.8,1.3,2.7c0.1,0.3,0.4,0.4,0.7,0.4c0,0,0,0,0,0c0.3,0,0.6-0.2,0.7-0.5c0.5-1.4,1-2.4,1.5-3.5
		c0.2,0,0.4-0.1,0.6-0.2c0.7-0.2,1.4-0.4,2.1-0.5c0.3-0.1,0.5-0.3,0.6-0.6C260,64.7,259.9,64.4,259.7,64.2z M256.9,64.6
		c-0.3,0.1-0.6,0.2-0.9,0.2c-0.2,0.1-0.4,0.2-0.5,0.4c-0.4,0.8-0.7,1.6-1.1,2.4c-0.3-0.5-0.5-1-0.7-1.5c-0.1-0.2-0.3-0.4-0.5-0.4
		c-0.9-0.2-1.8-0.2-2.6-0.3c0.5-0.5,0.9-0.9,1.5-1.3c0.3-0.2,0.4-0.5,0.3-0.8c-0.2-0.8-0.4-1.5-0.7-2.2c0.6,0.3,1.2,0.5,1.9,0.8
		c0.3,0.1,0.7,0,0.9-0.2c0.4-0.5,0.8-0.8,1.3-1.2c0,0.7,0,1.3,0,2.1c0,0.3,0.1,0.5,0.3,0.6c0.5,0.3,1,0.7,1.5,1
		C257.3,64.5,257.1,64.6,256.9,64.6z"/>
	<path class="st1" d="M217.2,49.7c-0.3-0.2-0.6-0.4-0.9-0.6c-0.5-0.4-1.1-0.8-1.6-1.1c0-0.7,0-1.2,0-1.8c0-0.5,0-1,0-1.6
		c0-0.3-0.2-0.6-0.5-0.7c-0.3-0.1-0.6,0-0.8,0.2c-0.4,0.4-0.8,0.7-1.2,1.1c-0.4,0.3-0.8,0.6-1.1,1c-0.6-0.3-1.2-0.5-1.8-0.7
		c-0.4-0.2-0.8-0.3-1.2-0.5c-0.3-0.1-0.6-0.1-0.8,0.1c-0.2,0.2-0.3,0.5-0.2,0.8c0.2,0.6,0.4,1.1,0.6,1.6c0.2,0.5,0.4,1,0.6,1.6
		c-0.5,0.4-0.9,0.8-1.3,1.2c-0.4,0.4-0.8,0.8-1.2,1.1c-0.2,0.2-0.3,0.5-0.2,0.8c0.1,0.3,0.4,0.5,0.7,0.5c0.4,0,0.7,0,1.1,0
		c1,0,1.8,0,2.7,0.2c0.4,0.9,0.9,1.8,1.3,2.7c0.1,0.3,0.4,0.4,0.7,0.4c0,0,0,0,0,0c0.3,0,0.6-0.2,0.7-0.5c0.5-1.4,1-2.4,1.5-3.5
		c0.2,0,0.4-0.1,0.6-0.2c0.7-0.2,1.4-0.4,2.1-0.5c0.3-0.1,0.5-0.3,0.6-0.6C217.6,50.2,217.5,49.9,217.2,49.7z M214.4,50.1
		c-0.3,0.1-0.6,0.2-0.9,0.2c-0.2,0.1-0.4,0.2-0.5,0.4c-0.4,0.8-0.7,1.6-1.1,2.4c-0.3-0.5-0.5-1-0.7-1.5c-0.1-0.2-0.3-0.4-0.5-0.4
		c-0.9-0.2-1.8-0.2-2.6-0.3c0.5-0.5,0.9-0.9,1.5-1.3c0.3-0.2,0.4-0.5,0.3-0.8c-0.2-0.8-0.4-1.5-0.7-2.2c0.6,0.3,1.2,0.5,1.9,0.8
		c0.3,0.1,0.7,0,0.9-0.2c0.4-0.5,0.8-0.8,1.3-1.2c0,0.7,0,1.3,0,2.1c0,0.3,0.1,0.5,0.3,0.6c0.5,0.3,1,0.7,1.5,1
		C214.8,50,214.6,50.1,214.4,50.1z"/>
	<path class="st1" d="M244,103.1c5.3-0.1,10.6-0.2,16-0.3c0,1-0.1,2-0.1,3c0,9.7,5.6,16.9,12.2,25.4c1.1,1.4,2.2,2.9,3.3,4.4
		c0.8-0.1,1.6-0.2,2.3-0.4c0.6-0.1,1.2,0.1,1.5,0.6c-1.6-2.2-3.3-4.4-4.8-6.4c-6.5-8.3-11.6-14.9-11.6-23.5c0-1,0-2,0.1-3
		c0-0.5,0-1,0-1.5c0-0.4-0.2-0.8-0.4-1.1c-0.3-0.3-0.7-0.4-1.1-0.4c-5.3,0.1-10.6,0.2-16,0.3c0,0.5,0,1,0,1.6
		C245.5,102.4,244.8,103,244,103.1z"/>
	<path class="st1" d="M132.4,137.9c1.3-0.3,2.5-0.5,3.7-0.6c2.7-3.7,5.5-7.1,8-10.2c6.8-8.4,12.2-15.1,12.2-20.8c0-0.5,0-1,0-1.5
		c21.6-0.8,43.4-1.1,64.6-1.4c7.6-0.1,15.4-0.2,23.2-0.3c-0.8,0-1.5-0.7-1.5-1.5c0-0.5,0-1,0-1.5c-7.3,0.1-14.6,0.2-21.8,0.3
		c-21.7,0.3-44.1,0.6-66.2,1.5c-0.4,0-0.8,0.2-1.1,0.5c-0.3,0.3-0.4,0.7-0.4,1.1c0.1,1.1,0.1,2,0.1,2.8c0,4.6-5.3,11.2-11.5,18.9
		c-3.2,4-6.8,8.4-10.2,13.2C131.7,138.2,132,138,132.4,137.9z"/>
	<path class="st1" d="M278.5,138.1c-0.3,0.1-0.7,0.1-1,0.2c7.6,10.6,15,24.3,15,46.2c0,14.2-2.9,26.7-8.6,37.2
		c0.3-0.4,0.7-0.6,1.2-0.6c0,0,1.2,0,1.2,0c0.4,0,0.8,0,1.2,0c5.2-10.5,8-22.7,8-36.5c0-0.6,0-1.1,0-1.7c0-3,0-4.1-0.2-5.5
		c-0.8-10.4-3.3-18.8-6.5-26c-0.6-1.2-1.5-3.2-2.7-5.3c-2.1-3.8-4.3-7.1-6.6-10.2c0.1,0.2,0.2,0.3,0.2,0.5
		C279.8,137.1,279.3,137.9,278.5,138.1z"/>
	<path class="st1" d="M130.8,223.6c0.7-0.5,0.8-1.4,0.4-2.1c-0.2-0.2-0.3-0.4-0.4-0.6c-11.7-17.1-11.8-38.7-11.8-39.6
		c0-15.9,6.9-29.4,14.8-40.6c-0.2,0-0.4,0.1-0.6,0.1c-0.8,0.2-1.6-0.3-1.8-1.1c-0.1-0.4,0-0.8,0.2-1.1
		c-8.2,11.6-15.6,25.8-15.6,42.7c0,0.9,0.1,22.1,11.3,39.7c0.5,0.8,1,1.6,1.5,2.3C129.2,223.9,130.1,224.1,130.8,223.6z"/>
	<path class="st1" d="M131.2,139.7c0.2,0.8,1,1.3,1.8,1.1c0.2,0,0.4-0.1,0.6-0.1c2-0.4,3.9-0.6,5.7-0.6c3.2,0,5.1,0.6,7,1.2
		c2.2,0.7,4.5,1.4,8.7,1.4c5.4,0,10.7-1.5,15.4-2.8c3.6-1,7-2,9.6-2c3.7,0,8,1.5,11.8,2.9c3.2,1.1,5.9,2.1,8,2.1
		c1.6,0,4.1-0.9,7.3-2.1c3.6-1.3,8.1-3,10.8-3c1.4,0,3,0.4,5,1c3.3,0.9,7.5,2.1,13.4,2.1c5.6,0,8.5-1,11-1.8
		c2.3-0.8,4.4-1.5,8.4-1.5c2.6,0,5.4,0.3,8.1,0.6c2.8,0.3,5.7,0.6,8.6,0.6c1.8,0,3.5-0.1,5.1-0.4c0.3-0.1,0.7-0.1,1-0.2
		c0.8-0.2,1.3-1,1.1-1.8c0-0.2-0.1-0.4-0.2-0.5c0,0,0,0,0-0.1c-0.3-0.5-0.9-0.7-1.5-0.6c-0.7,0.2-1.5,0.3-2.3,0.4
		c-1,0.1-2,0.2-3,0.2c-2.7,0-5.5-0.3-8.2-0.6c-2.8-0.3-5.7-0.6-8.5-0.6c-4.5,0-6.9,0.8-9.3,1.6c-2.5,0.8-5,1.7-10.1,1.7
		c-5.5,0-9.4-1.1-12.6-2c-2.2-0.6-4-1.1-5.8-1.1c-3.3,0-7.9,1.7-11.9,3.2c-2.6,0.9-5.2,1.9-6.3,1.9c-1.5,0-4.2-0.9-7-1.9
		c-4.1-1.4-8.7-3.1-12.8-3.1c-3,0-6.6,1-10.4,2.1c-4.5,1.3-9.6,2.7-14.6,2.7c-3.7,0-5.7-0.6-7.8-1.3c-2.1-0.6-4.2-1.3-7.9-1.3
		c-1,0-2.1,0.1-3.2,0.2c-1.2,0.1-2.4,0.3-3.7,0.6c-0.4,0.1-0.6,0.3-0.9,0.5c0,0.1-0.1,0.1-0.1,0.2
		C131.2,138.9,131.2,139.3,131.2,139.7z"/>
	<path class="st1" d="M194.1,173.2c-4-5.1-9.1-11.4-19.5-11.4c-7.7,0-15.5,3.9-20.7,10.2c-1.9-1.1-3.7-2.3-5.5-3.5
		c-1-0.7-2-1.4-3.1-2c-0.5-0.3-1.1-0.3-1.6,0c-0.5,0.3-0.8,0.8-0.7,1.4c0.1,2.5,0.2,5.1,0.3,7.5c0.1,4.1,0.2,8.3,0.7,12.4
		c0.1,0.5,0.4,1,0.9,1.2c0.5,0.2,1.1,0.1,1.5-0.2c2.6-2.1,5.4-4,8.4-5.9c5.2,4.4,11.3,6.7,17.3,6.7c10.4,0,17.9-4.5,22.9-13.6
		c0.3-0.5,0.2-1.2-0.1-1.7L194.1,173.2z M182.9,184.2c0.2,0.3,0.5,0.5,0.7,0.8c0.6,0.6,0.6,1.5,0,2.1c-0.3,0.3-0.7,0.4-1.1,0.4
		c-0.4,0-0.8-0.1-1.1-0.4c-0.5-0.5-1-1.1-1.5-1.7c-2.4,0.8-5,1.2-7.9,1.2c-5.6,0-11.4-2.4-16.2-6.7c-0.3-0.3-0.6-0.4-1-0.4
		c-0.3,0-0.5,0.1-0.8,0.2c-2.7,1.6-5.2,3.3-7.5,5c-0.3-3.2-0.3-6.4-0.4-9.5c0-1.5-0.1-3.1-0.1-4.7c0.2,0.1,0.4,0.3,0.6,0.4
		c2.2,1.5,4.5,3,6.9,4.3c0.7,0.3,1.5,0.2,1.9-0.4c4.5-6.1,12-10,19.1-10c1.2,0,2.2,0.1,3.3,0.3c0.1-0.5,0.3-1.1,0.5-1.6
		c0.3-0.8,1.1-1.2,1.9-1c0.8,0.3,1.2,1.1,1,1.9c-0.2,0.5-0.3,1-0.4,1.4c2.7,1,4.8,2.5,6.6,4.3c0.5-0.4,1-0.7,1.5-1.1
		c0.7-0.4,1.6-0.2,2.1,0.5c0.4,0.7,0.2,1.6-0.5,2.1c-0.4,0.2-0.7,0.5-1,0.7c0.8,0.9,1.6,1.9,2.3,2.8l0.2,0.3
		C189.5,179.4,186.5,182.4,182.9,184.2z"/>
	<path class="st1" d="M180.7,165.8c0.1-0.5,0.3-1,0.4-1.4c0.3-0.8-0.2-1.6-1-1.9c-0.8-0.3-1.6,0.2-1.9,1c-0.2,0.5-0.3,1.1-0.5,1.6
		c-0.8,2.9-1.2,5.8-1.2,8.6c0,4.7,1.2,8.7,3.5,11.8c0.4,0.6,0.9,1.2,1.5,1.7c0.3,0.3,0.7,0.4,1.1,0.4c0.4,0,0.8-0.1,1.1-0.4
		c0.6-0.6,0.6-1.5,0-2.1c-0.3-0.3-0.5-0.5-0.7-0.8c-2.7-3.3-3.4-7.5-3.4-10.6C179.6,171.1,180,168.5,180.7,165.8z"/>
	<path class="st1" d="M184.5,172.7c-0.5,0.6-0.5,1.6,0.2,2.1c0.3,0.2,0.6,0.4,1,0.4c0.4,0,0.8-0.2,1.1-0.5c0.7-0.9,1.6-1.7,2.6-2.4
		c0.3-0.2,0.7-0.5,1-0.7c0.7-0.4,0.9-1.4,0.5-2.1c-0.4-0.7-1.4-0.9-2.1-0.5c-0.5,0.3-1,0.7-1.5,1.1
		C186.3,170.9,185.3,171.8,184.5,172.7z"/>
	<path class="st1" d="M255.2,145.9c-0.2-0.5-0.7-0.9-1.2-0.9c-0.5-0.1-1.1,0.2-1.4,0.6c-1.7,2.3-3.3,4.6-4.8,7c-2-1.4-4-2.8-8.5-2.8
		c-5,0-9.8,2-13.6,5.2c0.4-0.2,0.9-0.2,1.3,0c0.7,0.3,1.3,0.7,2,1.2c3-2.1,6.6-3.4,10.3-3.4c3.5,0,5,1,6.8,2.3
		c0.4,0.3,0.8,0.6,1.3,0.9c0.3,0.2,0.7,0.3,1.1,0.2c0.4-0.1,0.7-0.3,0.9-0.7c1.3-2,2.6-3.9,4-5.9c1.3,3.3,2.8,6.9,4.4,10.4
		c-1.2-0.1-2.3-0.1-3.5-0.1c-1.6,0-3.1,0.1-4.4,0.3c-0.5,0.1-1,0.4-1.2,1c-2.2,5.9-6.4,9.8-11.6,11.1c0,0.6,0,1.3-0.1,2
		c-0.1,0.8-0.7,1.3-1.5,1.3c-0.1,0-0.1,0-0.2,0c-0.8-0.1-1.4-0.8-1.3-1.6c0-0.4,0.1-0.8,0.1-1.3c-0.2,0-0.3,0-0.5,0
		c-3.9,0-8.1-1.5-12.5-4.5c0.3-1.7,0.9-3.2,1.6-4.7c-0.5-0.3-1-0.6-1.4-1c-0.5-0.4-0.7-1.1-0.5-1.7c-1.4,2.4-2.4,5-2.8,7.9
		c-0.1,0.6,0.2,1.1,0.6,1.4c5.3,3.7,10.3,5.6,15,5.6c7.8,0,14.3-4.7,17.6-12.6c2.1-0.2,4.9-0.1,7.5,0l1.4,0.1c0.5,0,1-0.2,1.3-0.7
		c0.3-0.4,0.3-1,0.1-1.5C259.1,155.9,257,150.5,255.2,145.9z"/>
	<path class="st1" d="M223.2,160c0.4,0.3,0.8,0.5,1.2,0.8c0.7-1,1.4-1.9,2.3-2.7c-0.3-0.2-0.6-0.4-0.9-0.5c-0.7-0.4-1-1.3-0.7-2
		c0-0.1,0.1-0.1,0.1-0.2c-1.5,1.4-2.9,3-4,4.7C221.7,159.7,222.6,159.6,223.2,160z"/>
	<path class="st1" d="M225.7,157.7c0.3,0.2,0.6,0.3,0.9,0.5c4.4,2.7,7.6,8.4,7.6,13.9c0,0.2,0,0.4,0,0.6c0,0.4,0,0.8-0.1,1.3
		c-0.1,0.8,0.5,1.6,1.3,1.6c0.1,0,0.1,0,0.2,0c0.8,0,1.4-0.6,1.5-1.3c0.1-0.7,0.1-1.3,0.1-2c0-0.1,0-0.1,0-0.2
		c0-6.1-3.3-12.4-8.2-15.9c-0.6-0.4-1.3-0.9-2-1.2c-0.4-0.2-0.9-0.2-1.3,0c-0.2,0.1-0.4,0.3-0.6,0.5c0,0.1-0.1,0.1-0.1,0.2
		C224.7,156.4,225,157.3,225.7,157.7z"/>
	<path class="st1" d="M221.4,162.4c0.5,0.3,0.9,0.7,1.4,1c0.6,0.4,1.2,0.8,1.8,1.1c0.2,0.1,0.5,0.2,0.7,0.2c0.5,0,1-0.3,1.3-0.8
		c0.4-0.7,0.1-1.6-0.6-2c-0.6-0.3-1.2-0.7-1.7-1.1c-0.4-0.3-0.8-0.5-1.2-0.8c-0.6-0.5-1.5-0.4-2,0.2c0,0-0.1,0.1-0.1,0.1
		c-0.1,0.1-0.1,0.3-0.2,0.4C220.7,161.3,220.9,162,221.4,162.4z"/>
	<path class="st1" d="M224.4,234.5c0,0.6,0.5,1.2,1.1,1.3c0.6,0.2,1.3,0.3,1.9,0.4c1.2,0.2,2.5,0.3,3.7,0.3
		c9.8,0,17.4-6.7,20.5-17.9c2.2,0.1,4.5,0.3,6.7,0.5c1.7,0.2,3.5,0.4,5.3,0.5c0.5,0,1-0.2,1.3-0.6c0.3-0.4,0.4-1,0.2-1.4
		c-1.3-3.3-2.1-6.8-2.9-10.5c-0.5-2.4-1.1-5-1.8-7.4c-0.1-0.5-0.5-0.9-1-1c-0.5-0.1-1,0-1.4,0.3c-1.9,1.6-3.7,3.4-5.4,5.1
		c-1.1,1-2.1,2.1-3.2,3.1c-4.1-5.2-10.2-10.8-17.7-10.8c-13.3,0-24.5,9.3-28.9,23.8c-0.1,0.4-0.2,0.7-0.3,1.1
		c-0.2,0.8,0.3,1.6,1,1.8c0.8,0.2,1.6-0.2,1.8-1c0.2-0.7,0.4-1.3,0.6-1.9c1.6-4.9,4.1-9.2,7.3-12.5c-0.4-0.4-0.7-0.7-1-0.9
		c-0.6-0.5-0.7-1.5-0.2-2.1c0.5-0.6,1.5-0.7,2.1-0.2c0.4,0.3,0.8,0.7,1.3,1.2c4.6-3.9,10.2-6.2,16.3-6.2c6.9,0,12.7,5.9,16.3,10.9
		c0.2,0.3,0.6,0.6,1,0.6c0.4,0,0.8-0.1,1.2-0.4c1.6-1.4,3.1-2.9,4.5-4.3c1.1-1.1,2.3-2.2,3.5-3.3c0.4,1.6,0.8,3.3,1.1,4.9
		c0.6,2.9,1.2,5.9,2.2,8.8c-1-0.1-1.9-0.2-2.9-0.3c-2.6-0.3-5.3-0.6-8.1-0.6c-0.7,0-1.3,0.5-1.5,1.2c-1.2,5.1-5.3,16.8-17.8,16.8
		c-1.3,0-2.5-0.1-3.8-0.4c-0.4-0.1-0.7-0.2-1.1-0.3c-0.8-0.2-1.6,0.2-1.8,1c0,0.1,0,0.2,0,0.3C224.4,234.3,224.4,234.4,224.4,234.5z
		"/>
	<path class="st1" d="M215.3,205.4c-0.5-0.5-0.9-0.9-1.3-1.2c-0.6-0.5-1.6-0.4-2.1,0.2c-0.5,0.6-0.4,1.6,0.2,2.1
		c0.3,0.2,0.6,0.5,1,0.9c2.1,2,5.4,5.9,7,12.4c0.1,0.6,0.3,1.2,0.4,1.8c0.1,0.7,0.8,1.2,1.5,1.2c0.1,0,0.2,0,0.3,0
		c0.8-0.2,1.3-0.9,1.2-1.8c-0.1-0.4-0.2-0.8-0.3-1.2C221.5,212.4,217.7,207.8,215.3,205.4z"/>
	<path class="st1" d="M181.6,208.7c-2.4-4.5-5.7-10.6-13.6-10.6c-4.6,0-9.1,2.3-12.7,6.3c-1.6-1.3-3.1-2.5-4.5-3.8
		c-0.5-0.4-1.2-0.5-1.7-0.2c-0.6,0.3-0.8,1-0.7,1.6c0.8,3.9,1,8,1.2,11.8c0,0.5,0.3,1,0.8,1.2c0.4,0.3,1,0.3,1.4,0l1.4-0.7
		c1-0.5,2-1,2.9-1.5c3.7,2.9,8.2,4.5,12.4,4.5c6.2,0,10.8-4.3,13-6.8c0.4-0.5,0.5-1.1,0.2-1.7L181.6,208.7z M168.5,214.3
		c-3.8,0-8-1.7-11.2-4.4c-0.3-0.2-0.6-0.4-1-0.4c-0.2,0-0.4,0-0.6,0.1c-1.1,0.5-2.2,1.1-3.3,1.6c-0.1-1.9-0.3-3.9-0.5-5.9
		c0.6,0.5,1.2,0.9,1.7,1.4l0.9,0.8c0.3,0.3,0.7,0.4,1.1,0.3c0.4,0,0.8-0.2,1-0.6c3.1-3.9,7.3-6.3,11.3-6.3c5.7,0,8.3,4.2,10.5,8.3
		C176.4,211.5,172.9,214.3,168.5,214.3z"/>
	<path class="st1" d="M171.2,203.9c-0.6,0.3-0.9,0.7-1.2,1.1c-0.1,0.1-0.1,0.2-0.2,0.2c-0.7,0.4-0.9,1.3-0.6,2
		c0.3,0.5,0.8,0.8,1.3,0.8c0.2,0,0.5-0.1,0.7-0.2c0.6-0.3,0.9-0.7,1.2-1.1c0.1-0.1,0.1-0.2,0.2-0.2c0.7-0.4,0.9-1.3,0.6-2
		C172.8,203.8,171.9,203.5,171.2,203.9z"/>
	<path class="st1" d="M112.3,59.7c0.2,0,0.5,0,0.7,0c-1.5-0.8-2.8-1.7-4.1-2.7c-0.7,0.3-1.4,0.7-2.1,1c-0.2,0.1-0.4,0.1-0.6,0.1
		c-0.3,0-0.6-0.1-0.8-0.3c1.7,1.6,3.7,3,5.8,4.2c0-0.2-0.1-0.4-0.1-0.6C111,60.6,111.5,59.8,112.3,59.7z"/>
	<path class="st1" d="M105.7,55.2c0.3-0.1,0.6-0.3,0.9-0.4c-6.4-6.5-8.1-14.9-8.4-21.3c6.5-4.3,14.4-6.7,22.4-6.9
		c-0.1-0.3-0.2-0.6-0.4-0.9c-0.4-0.7,0-1.6,0.7-2c0.2-0.1,0.4-0.1,0.6-0.1c0,0-0.1,0-0.1,0c-9.2,0-18.2,2.8-25.6,7.8
		c-0.4,0.3-0.7,0.8-0.6,1.3c0.2,10.5,3.6,18.8,9.9,24.8c-0.1-0.1-0.2-0.2-0.2-0.4C104.6,56.4,104.9,55.6,105.7,55.2z"/>
	<path class="st1" d="M122.9,24.5c0.3,0.7,0.6,1.5,0.9,2.2c8.2,0.4,14.1,2.9,18.6,6.6c-0.1-0.1-0.1-0.1-0.2-0.2
		c-0.5-0.7-0.3-1.6,0.3-2.1c0.3-0.2,0.6-0.4,1-0.6c-3.2-2.4-7-4.4-11.7-5.5c-1.4,0.5-2.7,1.1-3.9,1.9c-0.7,0.5-1.6,0.3-2.1-0.4
		c-0.5-0.7-0.3-1.6,0.4-2.1c0.2-0.1,0.3-0.2,0.5-0.3c-1.7-0.2-3.4-0.3-5.3-0.3C122.1,23.7,122.7,24,122.9,24.5z"/>
	<path class="st1" d="M143.5,33.7c-0.3,0-0.6-0.1-0.9-0.3c5.8,4.9,9.2,11.8,12.1,18.8c0.3,0.6,0.9,1,1.6,0.9
		c1.6-0.2,3.2-0.4,4.9-0.5c3.7-0.4,7.5-0.8,11.2-1.3c-0.9,1.4-1.8,2.8-2.7,4.1c-4,6.2-8.2,12.7-12.5,18.9c-1.2-3.3-2.5-6.6-3.8-9.7
		l-0.6-1.6c-0.2-0.4-0.5-0.7-0.8-0.8c-0.2-0.1-0.4-0.1-0.6-0.1c-0.2,0-0.4,0-0.6,0.1c-3.9,1.7-8.5,2.6-14.1,2.6
		c-10,0-17.5-1.9-23.1-4.8c0.2,0.2,0.4,0.5,0.5,0.8c0.2,1,0.3,1.9,0.5,2.9c5.2,2.3,11.5,3.7,18.6,4c0-0.5,0-0.9,0-1.4
		c0-0.8,0.6-1.5,1.5-1.5c0.8,0,1.5,0.7,1.5,1.5c0,0.5,0,1.1,0,1.6c0.2,0,0.3,0,0.5,0c5.4,0,9.9-0.7,13.9-2.3l0.1,0.2
		c1.7,4,3.4,8.1,4.7,12.3c0.2,0.5,0.6,0.9,1.2,1c0.1,0,0.2,0,0.2,0c0.5,0,0.9-0.2,1.2-0.6c5-7,9.7-14.3,14.3-21.4
		c1.5-2.3,3-4.6,4.4-6.9c0.3-0.5,0.3-1.1,0-1.6c-0.3-0.5-0.9-0.8-1.5-0.7c-4.8,0.7-9.6,1.2-14.4,1.7c-1.3,0.1-2.5,0.3-3.8,0.4
		c-2.7-6.3-5.9-12.7-11.2-17.6c-0.5,0.3-1,0.7-1.5,1.1C144.1,33.6,143.8,33.7,143.5,33.7z"/>
	<path class="st1" d="M126.3,24.3c-0.7,0.5-0.9,1.4-0.4,2.1c0.5,0.7,1.4,0.9,2.1,0.4c1.2-0.8,2.5-1.4,3.9-1.9c2.6-1,5.6-1.5,8.9-1.5
		c3.7,0,7.8,0.6,12,1.9c-3.1,1.3-6.2,3-9.2,5.1c-0.3,0.2-0.6,0.4-1,0.6c-0.7,0.5-0.8,1.4-0.3,2.1c0.1,0.1,0.1,0.1,0.2,0.2
		c0,0,0.1,0.1,0.1,0.1c0.3,0.2,0.6,0.3,0.9,0.3c0.3,0,0.6-0.1,0.9-0.3c0.5-0.4,1-0.7,1.5-1.1c3.9-2.6,7.9-4.6,11.9-5.7
		c0.6-0.2,1-0.7,1.1-1.4c0-0.6-0.4-1.2-1-1.5c-6-2.2-11.9-3.4-17.1-3.4c-5.3,0-10,1.2-13.9,3.6C126.7,24.1,126.5,24.2,126.3,24.3z"
		/>
	<path class="st1" d="M134.6,64.8c-0.9,0-1.5,0.7-1.5,1.5c0,0.5,0,1,0,1.4c0,1.3,0.1,2.6,0.2,3.7c-5.6,0.5-11.6,0.1-18-1.3
		c-0.2-2-0.5-4.2-0.8-6.4c-0.1-1-0.3-1.9-0.5-2.9c-0.1-0.3-0.2-0.6-0.5-0.8c-0.2-0.1-0.4-0.3-0.6-0.3c-0.2-0.1-0.5-0.1-0.7,0
		c-0.8,0.2-1.3,0.9-1.2,1.8c0,0.2,0.1,0.4,0.1,0.6c0.6,3.3,1,6.6,1.3,9.5c0.1,0.6,0.5,1.2,1.2,1.3c5.3,1.2,10.4,1.8,15.2,1.8
		c2.2,0,4.3-0.1,6.4-0.4c0.4,0,0.8-0.3,1-0.6c0.2-0.3,0.4-0.7,0.3-1.1c-0.2-1.4-0.3-3-0.4-4.8c0-0.5,0-1,0-1.6
		C136.1,65.4,135.5,64.8,134.6,64.8z"/>
	<path class="st1" d="M106.9,58c0.7-0.3,1.4-0.6,2.1-1c10.1-5.1,15.8-13.8,15.8-24.2c0-2.1-0.3-4.1-0.9-6c-0.2-0.8-0.5-1.5-0.9-2.2
		c-0.3-0.6-0.8-0.9-1.4-0.8c-0.2,0-0.4,0.1-0.6,0.1c-0.7,0.4-1.1,1.3-0.7,2c0.1,0.3,0.2,0.6,0.4,0.9c0.8,1.9,1.2,3.9,1.2,6.1
		c0,5.7-2,16-15.2,22.1c-0.3,0.1-0.6,0.3-0.9,0.4c-0.8,0.3-1.1,1.2-0.8,2c0.1,0.1,0.1,0.3,0.2,0.4c0.1,0.1,0.2,0.2,0.3,0.3
		c0.2,0.2,0.5,0.3,0.8,0.3C106.5,58.1,106.7,58.1,106.9,58z"/>
	<path class="st1" d="M113,40.2c1.9,0,3.5-2,3.5-3.2c0-1.4-1.8-3-3.6-3c-0.8,0-1.5,0.3-2.1,0.9c-0.5,0.5-0.8,1.3-0.8,2.2
		C110,39,111.2,40.2,113,40.2z"/>
	<path class="st1" d="M189.8,86.7c0.3,0.5,0.8,0.9,1.4,0.9c0.2,0,0.4,0,0.6-0.1c0.8-0.3,1.1-1.2,0.7-2c-0.6-1.3-1.2-2.5-1.8-3.7
		c-0.4-0.7-1.3-1-2-0.6c-0.7,0.4-1,1.3-0.6,2C188.7,84.3,189.3,85.4,189.8,86.7z"/>
	<path class="st1" d="M183.3,75.9c0.3,0.4,0.7,0.6,1.2,0.6c0.3,0,0.7-0.1,0.9-0.3c0.6-0.5,0.7-1.5,0.2-2.1c-0.9-1.1-1.9-2.1-2.8-3.1
		c-0.6-0.6-1.5-0.6-2.1,0c-0.6,0.6-0.6,1.5,0,2.1C181.6,73.9,182.5,74.9,183.3,75.9z"/>
	<path class="st1" d="M175,65.6c-1.3-0.6-2.7-1-4-1.3c-0.8-0.2-1.6,0.3-1.8,1.1c-0.2,0.8,0.3,1.6,1.1,1.8c1.2,0.3,2.4,0.7,3.5,1.2
		c0.2,0.1,0.4,0.1,0.6,0.1c0.6,0,1.1-0.3,1.4-0.9C176.1,66.8,175.8,65.9,175,65.6z"/>
	<path class="st1" d="M194.3,98.6c0.2,0.7,0.8,1.1,1.4,1.1c0.1,0,0.3,0,0.4-0.1c0.8-0.2,1.2-1.1,1-1.9c-0.4-1.3-0.8-2.6-1.2-3.9
		c-0.3-0.8-1.1-1.2-1.9-0.9c-0.8,0.3-1.2,1.1-0.9,1.9C193.5,96.1,193.9,97.4,194.3,98.6z"/>
	<path class="st1" d="M200.3,110.5c-0.3-1.3-0.5-2.6-0.8-4c-0.2-0.8-1-1.3-1.8-1.1c-0.8,0.2-1.3,1-1.1,1.8c0.3,1.3,0.6,2.6,0.8,3.9
		c0.1,0.7,0.8,1.2,1.5,1.2c0.1,0,0.2,0,0.3,0C199.9,112.1,200.5,111.3,200.3,110.5z"/>
	<path class="st1" d="M201.1,125.2c0.8-0.1,1.4-0.9,1.3-1.7c-0.2-1.3-0.4-2.7-0.6-4c-0.1-0.8-0.9-1.4-1.7-1.3
		c-0.8,0.1-1.4,0.9-1.3,1.7c0.2,1.3,0.4,2.6,0.5,3.9c0.1,0.8,0.7,1.3,1.5,1.3C201,125.2,201,125.2,201.1,125.2z"/>
	<path class="st1" d="M201.7,131.1c-0.8,0.1-1.4,0.8-1.4,1.6c0.1,1.3,0.2,2.7,0.3,4c0.1,0.8,0.7,1.4,1.5,1.4c0,0,0.1,0,0.1,0
		c0.8-0.1,1.5-0.8,1.4-1.6c-0.1-1.3-0.2-2.7-0.3-4C203.3,131.7,202.5,131.1,201.7,131.1z"/>
	<path class="st1" d="M215,218.8c-0.8,0-2.3,0.3-3.3,2.3c0,0.1-0.1,0.1-0.1,0.2c-0.2,0.7,0.1,1.5,0.8,1.8c0.7,0.4,1.6,0.1,2-0.7
		c0.1-0.1,0.3-0.6,0.6-0.7c0,0.1,0.1,0.3,0.1,0.5c0,0.8,0.7,1.5,1.5,1.5c0.8,0,1.5-0.7,1.5-1.5c0-0.4-0.1-0.7-0.1-1
		C217.5,219.8,216.4,218.8,215,218.8z"/>
	<path class="st1" d="M287.5,221l-1,2.2h-3.3l0.7-1.5C283.9,221.6,284.7,219.8,287.5,221z"/>
	<polygon class="st1" points="241.9,100.1 246.5,100 246.4,103 241.2,103.1 	"/>
</g>
</svg>
