<?xml version="1.0" encoding="utf-8"?>
<!-- Generator: Adobe Illustrator 22.1.0, SVG Export Plug-In . SVG Version: 6.00 Build 0)  -->
<svg version="1.1" id="Layer_1" xmlns="http://www.w3.org/2000/svg" xmlns:xlink="http://www.w3.org/1999/xlink" x="0px" y="0px"
	 viewBox="0 0 311 232.5" style="enable-background:new 0 0 311 232.5;" xml:space="preserve">
<style type="text/css">
	.st0{fill:#FFFFFF;opacity:0;}
	.st1{fill:#FFCB05;}
	.st0:hover {
            fill: #ffffff;
            opacity: 1;
            cursor: pointer;
        }
</style>
<g>
	<path class="st0" d="M156.9,79.3c0.2-0.7,0.2-1.5,0.3-2.2c0-0.3,0-0.6,0-0.9c0-0.5-0.2-0.9-0.4-1.3c0-0.1,0.1-0.2,0.1-0.2
		c0.3-1.2-0.4-2.9-1.7-3.1c-2.8-0.4-4.8,1-6,3.5c-1,2.3-2.1,5.3-0.7,7.7c0.8,1.2,2,1.8,3.3,1.9c0.8,0.6,1.8,0.6,2.8,0.2
		c2-0.9,3.3-2.7,2.6-4.9C157.1,79.7,157,79.5,156.9,79.3z"/>
	<path class="st0" d="M136.8,41.3c0.8-0.5,0.5-1.8-0.5-1.8c-0.3,0-0.7,0-1,0c-0.7-0.1-1.5,0-2.2,0c-0.4,0-0.7,0.2-0.8,0.5
		c-2,0.1-4,0-5.9,0c-1.1,0-1.2,1.4-0.5,1.9c-0.3,0.4-0.4,0.9-0.4,1.5c-0.1,1.1-0.3,2.6,0,3.7c0.1,0.3,0.4,0.6,0.7,0.7
		c1.5,0.4,3.3,0,4.8-0.2c1.9-0.2,3.8-0.4,5.7-0.3c0.7,0.1,1.3-0.9,0.9-1.5C136.6,44.4,137,42.8,136.8,41.3z"/>
	<path class="st0" d="M52.6,49.1c1.6-2.1,3.7-3.7,6.2-4.8c0.4-0.2,0.6-0.6,0.5-1c0.3-0.1,0.6-0.2,0.9-0.4c1.1-0.6,0.1-2.3-1-1.7
		c-2,1.1-6.3,0.2-8.4,0.3c-2.7,0-5.4,0.1-8.1,0.2c-1,0-1.3,1.3-0.5,1.9c3,2,5.9,5.1,9.3,6.3C52,50.2,52.5,49.7,52.6,49.1z
		 M54.4,44.5C54.4,44.5,54.5,44.5,54.4,44.5C54.4,44.5,54.4,44.5,54.4,44.5C54.4,44.5,54.4,44.5,54.4,44.5z"/>
	<path class="st0" d="M57.2,52.5c0-0.4-0.1-0.7-0.5-0.9c-0.4-0.2-0.7-0.3-1.1-0.4c-0.2-0.2-0.4-0.5-0.7-0.7
		c-0.1-0.2-0.2-0.3-0.4-0.4c-0.2-0.1-0.3-0.2-0.5-0.2c-0.1,0-0.2-0.1-0.2-0.1c0,0-0.1,0-0.1-0.1c0,0,0,0,0,0c-0.1,0-0.2-0.1-0.2-0.1
		c-0.5-0.2-1,0.1-1.1,0.6c-0.7,0-1.3,0-2,0c-0.5-0.2-1,0-1.3,0.4c-2,0.5-3.8,3.7-5.5,4.7C43.2,55.4,43,55.7,43,56
		c-0.8,0.4-0.5,2,0.5,1.9c1.4-0.2,2.7-0.3,4.1-0.5c3-0.3,5.9-0.3,9-0.4c0.3,0,0.5-0.1,0.7-0.3c0.8,0,1.6,0.1,2.4,0
		c0.9,0,1.2-1,0.7-1.7C59.5,53.8,58.3,53.3,57.2,52.5z"/>
	<path class="st0" d="M54.4,104.3c-1.2-0.9-2.5-1.7-3.9-2.4c-0.6-0.3-1.1,0.6-0.5,0.9c0.2,0.1,0.4,0.2,0.5,0.3c0,0.1,0,0.2,0.1,0.3
		c0.6,1.1,1.4,2.2,2.5,3c0.6,0.5,1.9,1,2.5,0.1C56.1,105.6,54.9,104.7,54.4,104.3z"/>
	<path class="st0" d="M286.3,123.7c-0.7-0.9-1.7-1.5-2.4-2.3c-0.9-0.9-1.7-2-2.3-3.1c-0.6-1-1.7-0.9-2.3-0.3
		c-0.6-0.1-1.2,0.2-1.8,0.7c-0.6,0.5-0.9,1.1-1.1,1.8c-0.1,0.1-0.2,0.2-0.2,0.4c-0.2,0.6-0.1,1.2,0.2,1.7c0.1,0.2,0.1,0.4,0.2,0.6
		c0.4,0.9,1.4,2.3,2.6,2.6c0.4,0.8,0.8,1.6,1.5,2.2c1.3,1.2,3.5,1.4,5,0.4C287.3,127.3,287.4,125.2,286.3,123.7z"/>
	<path class="st0" d="M230.1,101.4c1.9,0,1.9-3,0-3C228.2,98.4,228.2,101.4,230.1,101.4z"/>
	<path class="st0" d="M234.6,94.1c-1.9,0-1.9,3,0,3C236.5,97.1,236.5,94.1,234.6,94.1z"/>
	<path class="st0" d="M234.4,102.9c-1.9,0-1.9,3,0,3C236.4,105.9,236.4,102.9,234.4,102.9z"/>
	<path class="st0" d="M78.7,155.6c-5.3,0-10.5,0.7-15.7,1.5c-1.1,0.2-1.3,1.2-0.9,2c-0.1,0.8,0.4,1.6,1.4,1.6
		c6.5-0.3,13-0.5,19.4-0.8c0.6,0,1.3-0.4,1.4-1.1C84.9,155.3,81.2,155.6,78.7,155.6z"/>
	<path class="st0" d="M241.8,156c-5.6-0.4-11.3-0.3-16.9,0.1c-1.1,0.1-1.6,1.2-1.4,2c-0.2,0.9,0.2,1.9,1.4,1.9
		c3-0.1,6.2,0.5,9.2,0.5c3.4,0.1,6.8,0.1,10.3,0.1c0.6,0,1.3-0.5,1.4-1.1C246.5,156.6,244.2,156.2,241.8,156z"/>
	<path class="st0" d="M260.9,43.2c0.1-1.2-1.6-1.3-1.9-0.3c-2.2,1.5-10.9,4.5-9.2,7.9c0.9,1.8,3.6,3.1,5.1,4.2
		c1.5,1,2.5,2.1,3.7,3.5c0.4,0.4,0.4,0.9,1.1,1c0.5,0.1,1.1-0.1,1.2-0.7c0.6-1.9-0.1-4.8-0.1-6.9C260.7,48.9,260.7,46,260.9,43.2z"
		/>
	<path class="st0" d="M231.2,44.1c-0.3,2.7-0.4,6,0.1,8.6c0.1,0.4,0.2,0.7,0.3,0.9c-0.2,1.3-0.4,2.5-0.3,3.8c0,1,1.3,1.4,1.9,0.5
		c2.1-3.5,5-6.2,8.7-8c0.9-0.4,0.5-1.5-0.2-1.8c-3.4-1.4-5.9-4.2-9.2-5.7C231.3,42,230.3,43.5,231.2,44.1z"/>
</g>
<g>
	<g>
		<polygon class="st1" points="208.3,41.1 208.3,41.1 209,41.1 		"/>
		<path class="st1" d="M213.4,36.7v2.2l0.3,0l-2.5,2.5l-2.6-0.6l-3.1,2.5l0.5,0.6l2.9-2.3l2.7,0.6l4-4l-1.3,0v-0.7h2.5v2.5h-0.7
			l0-1.3l-4.3,4.3l-2.7-0.6l-3.3,2.9c0.2,0.2,0.4,0.3,0.6,0.5v0l2.9-2.6l2.7,0.6l3.3-3.3l0,0.3h2.2v-4H213.4z"/>
	</g>
	<path class="st1" d="M46.1,167.6c-0.3,0-0.6,0.1-0.9,0.3l-2.1-2.1c0.2-0.3,0.3-0.6,0.3-0.9c0-0.3-0.1-0.6-0.3-0.9l2.1-2.1
		c0.3,0.2,0.6,0.3,0.9,0.3c0.9,0,1.6-0.7,1.6-1.6c0-0.9-0.7-1.6-1.6-1.6s-1.6,0.7-1.6,1.6c0,0.3,0.1,0.6,0.3,0.9l-2.1,2.1
		c-0.3-0.2-0.6-0.3-0.9-0.3c-0.9,0-1.6,0.7-1.6,1.6s0.7,1.6,1.6,1.6c0.3,0,0.6-0.1,0.9-0.3l2.1,2.1c-0.2,0.3-0.3,0.6-0.3,0.9
		c0,0.9,0.7,1.6,1.6,1.6s1.6-0.7,1.6-1.6S47,167.6,46.1,167.6z M46.1,159.5c0.5,0,0.9,0.4,0.9,0.9c0,0.5-0.4,0.9-0.9,0.9
		c-0.5,0-0.9-0.4-0.9-0.9C45.2,159.9,45.6,159.5,46.1,159.5z M40.8,164.8c0-0.5,0.4-0.9,0.9-0.9c0.5,0,0.9,0.4,0.9,0.9
		c0,0.5-0.4,0.9-0.9,0.9C41.2,165.8,40.8,165.4,40.8,164.8z M46.1,170.1c-0.5,0-0.9-0.4-0.9-0.9c0-0.5,0.4-0.9,0.9-0.9
		c0.5,0,0.9,0.4,0.9,0.9C47.1,169.7,46.6,170.1,46.1,170.1z"/>
	<path class="st1" d="M234.5,102.7c-0.3,0-0.6,0.1-0.9,0.3l-2.1-2.1c0.2-0.3,0.3-0.6,0.3-0.9s-0.1-0.6-0.3-0.9l2.1-2.1
		c0.3,0.2,0.6,0.3,0.9,0.3c0.9,0,1.6-0.7,1.6-1.6c0-0.9-0.7-1.6-1.6-1.6s-1.6,0.7-1.6,1.6c0,0.3,0.1,0.6,0.3,0.9l-2.1,2.1
		c-0.3-0.2-0.6-0.3-0.9-0.3c-0.9,0-1.6,0.7-1.6,1.6s0.7,1.6,1.6,1.6c0.3,0,0.6-0.1,0.9-0.3l2.1,2.1c-0.2,0.3-0.3,0.6-0.3,0.9
		c0,0.9,0.7,1.6,1.6,1.6s1.6-0.7,1.6-1.6C236.1,103.4,235.4,102.7,234.5,102.7z M234.5,94.6c0.5,0,0.9,0.4,0.9,0.9s-0.4,0.9-0.9,0.9
		c-0.5,0-0.9-0.4-0.9-0.9S234,94.6,234.5,94.6z M229.2,99.9c0-0.5,0.4-0.9,0.9-0.9c0.5,0,0.9,0.4,0.9,0.9c0,0.5-0.4,0.9-0.9,0.9
		C229.6,100.9,229.2,100.4,229.2,99.9z M234.5,105.2c-0.5,0-0.9-0.4-0.9-0.9c0-0.5,0.4-0.9,0.9-0.9c0.5,0,0.9,0.4,0.9,0.9
		C235.4,104.8,235,105.2,234.5,105.2z"/>
	<path class="st1" d="M52.2,109.8C52.2,109.8,52.2,109.8,52.2,109.8c-0.2,0-0.3-0.1-0.3-0.2l-4.3-9.1c-0.1-0.1,0-0.3,0-0.4
		c0.1-0.1,0.2-0.2,0.4-0.1l9.9,2c0.1,0,0.2,0.1,0.3,0.2c0,0.1,0,0.3-0.1,0.4l-2.3,2.6l0.3,1.7c0,0.1,0,0.2-0.1,0.3
		c-0.1,0.1-0.2,0.1-0.3,0.1l-1.7,0.1l-1.6,2.2C52.5,109.7,52.4,109.8,52.2,109.8z M48.6,100.8l3.7,7.8l1.3-1.9
		c0.1-0.1,0.2-0.1,0.3-0.2l1.5-0.1l-0.2-1.5c0-0.1,0-0.2,0.1-0.3l2-2.2L48.6,100.8z"/>
	<path class="st1" d="M53.7,107.2l-6-6.7c-0.1-0.1-0.1-0.3,0-0.5c0.1-0.1,0.3-0.2,0.5-0.1l7.6,4.7l-0.4,0.6l-5.4-3.4l4.3,4.8
		L53.7,107.2z"/>
	<path class="st1" d="M213.6,120.7c-0.3,0-0.5-0.2-0.5-0.5c-0.7-34.1-1.3-52.8-1.3-55.1l-21.4-11c-0.3-0.1-0.4-0.5-0.2-0.7
		c0.1-0.3,0.5-0.4,0.7-0.2l21.8,11.2c0.2,0.1,0.3,0.4,0.3,0.6c0,0.1-0.1,0.2-0.1,0.2c0.1,2.8,0.6,21.4,1.3,55
		C214.1,120.4,213.9,120.7,213.6,120.7C213.6,120.7,213.6,120.7,213.6,120.7z"/>
	<path class="st1" d="M211.9,142.4C211.9,142.4,211.9,142.4,211.9,142.4c-1.4,0-5.9,0-10.7-0.1l-5.5,0c-0.3,0-0.5-0.2-0.5-0.5
		c0-0.3,0.2-0.5,0.5-0.5c0,0,0,0,0,0l5.5,0c4.8,0,9.3,0,10.7,0.1c0.3,0,0.5,0.3,0.5,0.5C212.4,142.2,212.2,142.4,211.9,142.4z"/>
	<path class="st1" d="M92.6,122.3c-0.3,0-0.5-0.2-0.5-0.5v-57c0-0.2,0.1-0.4,0.3-0.5c5.4-2.5,12.5-6.1,21.2-10.6
		c0.3-0.1,0.6,0,0.7,0.2c0.1,0.3,0,0.6-0.2,0.7c-8.6,4.5-15.6,8-20.9,10.5v56.6C93.1,122.1,92.9,122.3,92.6,122.3z"/>
	<path class="st1" d="M148.4,101.2c-0.1,0-0.2,0-0.3-0.1l-15.3-9.8c0,0,0,0,0,0c-9.9-7.6-20.5-13.8-29.6-19l-10.9-7
		c-0.3-0.2-0.3-0.5-0.2-0.7c0.2-0.3,0.5-0.3,0.7-0.2l10.9,7c9.1,5.2,19.8,11.5,29.7,19.1l15.3,9.8c0.3,0.2,0.3,0.5,0.2,0.7
		C148.8,101.1,148.6,101.2,148.4,101.2z"/>
	<path class="st1" d="M159.5,101.3c-0.2,0-0.3-0.1-0.4-0.2c-0.2-0.2-0.1-0.6,0.1-0.7l1.2-0.8c6.1-4.3,12.4-8.5,18.5-12.5
		c3.1-2.1,6.4-4.3,9.6-6.4l23.5-15.9c0.2-0.2,0.6-0.1,0.7,0.1c0.2,0.2,0.1,0.6-0.1,0.7L189,81.5c-3.2,2.2-6.4,4.3-9.6,6.4
		c-6.1,4.1-12.3,8.3-18.5,12.5l-1.2,0.8C159.7,101.3,159.6,101.3,159.5,101.3z"/>
	<path class="st1" d="M211.3,139.6c-0.1,0-0.2,0-0.3-0.1c-4-2.9-8.8-6.3-13.8-9.9c-15.5-11.1-33.1-23.7-39.5-29.7
		c-0.9-0.8-2.2-1.3-3.6-1.3c-1.2,0-2.4,0.4-3.3,1l-9.5,7.1c-25.5,19-35,26.1-44.5,32.8c-0.2,0.2-0.6,0.1-0.8-0.1
		c-0.2-0.2-0.1-0.6,0.1-0.8c9.4-6.6,18.9-13.7,44.4-32.7l9.5-7.1c1.1-0.8,2.4-1.2,3.9-1.2c1.7,0,3.3,0.6,4.4,1.6
		c6.4,6,23.9,18.5,39.4,29.6c5,3.6,9.8,7,13.8,9.9c0.2,0.2,0.3,0.5,0.1,0.8C211.7,139.6,211.5,139.6,211.3,139.6z"/>
	<path class="st1" d="M95.9,142.8c-0.3,0-0.5-0.2-0.5-0.5c0-0.3,0.2-0.5,0.5-0.6c5.4-0.1,13.5-0.2,19.4-0.2c0.3,0,0.5,0.2,0.5,0.5
		c0,0.3-0.2,0.5-0.5,0.5C109.4,142.6,101.2,142.7,95.9,142.8C95.9,142.8,95.9,142.8,95.9,142.8z"/>
	<path class="st1" d="M191.3,79.8c-0.3,0-0.5-0.2-0.5-0.5c-0.3-11.7-0.7-22.6-1.1-34.2c-0.2-5.9-0.4-11.9-0.6-18.1
		c-11.5,0.5-23.2,0.7-34.5,1c-13.5,0.3-27.4,0.6-41.1,1.3c0.8,17.5,1.1,34.5,1.2,48.9c0,0.3-0.2,0.5-0.5,0.5c-0.3,0-0.5-0.2-0.5-0.5
		c-0.2-14.5-0.4-31.6-1.2-49.4c0-0.3,0.2-0.5,0.5-0.6c13.9-0.7,28-1,41.6-1.3c11.5-0.2,23.3-0.5,35-1c0.1,0,0.3,0,0.4,0.1
		c0.1,0.1,0.2,0.2,0.2,0.4c0.2,6.3,0.4,12.6,0.7,18.6c0.4,11.6,0.8,22.5,1.1,34.2C191.9,79.5,191.6,79.8,191.3,79.8
		C191.3,79.8,191.3,79.8,191.3,79.8z"/>
	<g>
		<path class="st1" d="M152,85.9c-2.5,0-5.1-1.5-5.1-5.9c0-4.7,3-9.6,8-9.6c1.7,0,3.1,1.4,3.2,3.1c0,1.4,0,2.6,0,3.6
			c0,0.9,0,1.6,0,2.3c0.1,3.2-2.2,5.9-5.3,6.4C152.6,85.9,152.3,85.9,152,85.9z M154.9,71.5c-4.8,0-6.9,5-6.9,8.6
			c0,4.3,2.8,4.8,4.1,4.8c0.2,0,0.4,0,0.7-0.1c2.5-0.4,4.4-2.6,4.3-5.3c0-0.7,0-1.5,0-2.3c0-1.1,0-2.3,0-3.6
			C156.9,72.4,156,71.5,154.9,71.5z"/>
		<path class="st1" d="M153.5,92c-2.3,0-4.6-0.4-6.7-1.4c-3.1-1.5-6.7-4.8-6.7-12.4c0-4.1,1.6-7.6,4.7-10.1
			c2.7-2.1,6.3-3.4,10.1-3.4c3.4,0,6.5,1,8.8,2.8c2.6,2,4,5,4,8.5c0,3-0.7,5.4-2.2,7.1c-1.2,1.4-2.9,2.2-4.7,2.2
			c-3.3,0-3.6-3.1-3.6-4.4c0-0.3,0.2-0.5,0.5-0.5c0.3,0,0.5,0.2,0.5,0.5c0,2.2,0.9,3.3,2.5,3.3c2.7,0,5.8-2.1,5.8-8.2
			c0-3.2-1.2-5.8-3.6-7.6c-2.1-1.6-5-2.6-8.1-2.6c-6.8,0-13.7,4.3-13.7,12.4c0,5.6,2.1,9.5,6.1,11.5c5.4,2.6,12.9,0.9,15.9-1.5
			c0.2-0.2,0.6-0.1,0.8,0.1c0.2,0.2,0.1,0.6-0.1,0.8C161.8,90.6,157.7,92,153.5,92z"/>
	</g>
	<path class="st1" d="M125.4,48.3c-0.1,0-0.2,0-0.3-0.1c-0.1-0.1-0.2-0.2-0.2-0.4c-0.1-1.6-0.2-3.2-0.2-4.7c0-1.1-0.1-2.2-0.1-3.3
		c0-0.1,0-0.3,0.1-0.4c0.1-0.1,0.2-0.2,0.4-0.2c2.5,0,5.1-0.3,7.6-0.5c1.4-0.1,2.9-0.3,4.4-0.4c0.3,0,0.5,0.2,0.6,0.5
		c0.2,2.5,0.5,5.5,0.9,8.3c0,0.1,0,0.3-0.1,0.4c-0.1,0.1-0.2,0.2-0.4,0.2c-2,0.2-4,0.2-6,0.2C129.8,48.1,127.6,48.1,125.4,48.3
		C125.5,48.3,125.5,48.3,125.4,48.3z M125.7,40.3c0,0.9,0.1,1.8,0.1,2.7c0,1.4,0.1,2.7,0.2,4.1c2-0.2,4.1-0.2,6-0.2
		c1.8,0,3.6,0,5.4-0.2c-0.3-2.5-0.6-5.1-0.8-7.3c-1.3,0.1-2.6,0.2-3.8,0.3C130.4,40,128,40.2,125.7,40.3z"/>
	<path class="st1" d="M146.5,39.7c-0.3,0-0.5-0.2-0.5-0.5c0-0.3,0.2-0.6,0.5-0.6c9.4-0.4,20.5-0.9,31.5-1.1c0.3,0,0.5,0.2,0.5,0.5
		c0,0.3-0.2,0.5-0.5,0.5C167,38.8,156,39.3,146.5,39.7C146.6,39.7,146.6,39.7,146.5,39.7z"/>
	<path class="st1" d="M146.4,42.4c-0.3,0-0.5-0.2-0.5-0.5c0-0.3,0.2-0.5,0.5-0.5c9.1,0,20-0.1,32.2-0.9c0.3,0,0.6,0.2,0.6,0.5
		c0,0.3-0.2,0.6-0.5,0.6C166.4,42.3,155.4,42.4,146.4,42.4z"/>
	<path class="st1" d="M149.3,45.8c-0.9,0-1.8,0-2.8-0.1c-0.3,0-0.5-0.3-0.5-0.6c0-0.3,0.3-0.5,0.6-0.5c2.1,0.2,3.9,0.1,5.9,0
		c1.1-0.1,2.3-0.1,3.5-0.1c6.1,0,12.4-0.4,18.4-0.9c1.5-0.1,3.1-0.2,4.6-0.3c0.3,0,0.6,0.2,0.6,0.5c0,0.3-0.2,0.6-0.5,0.6
		c-1.5,0.1-3.1,0.2-4.6,0.3c-6.1,0.4-12.3,0.9-18.5,0.9c-1.2,0-2.4,0.1-3.5,0.1C151.5,45.7,150.4,45.8,149.3,45.8z"/>
	<path class="st1" d="M149.5,48.4c-1,0-1.9,0-3-0.1c-0.3,0-0.5-0.3-0.5-0.6c0-0.3,0.3-0.5,0.6-0.5c2.8,0.2,5.2,0.1,7.9-0.1
		c1.7-0.1,3.4-0.2,5.3-0.2c6.1,0,12.6-0.2,19.9-0.7c0.3,0,0.6,0.2,0.6,0.5c0,0.3-0.2,0.6-0.5,0.6c-7.3,0.5-13.9,0.7-20,0.7
		c-1.8,0-3.6,0.1-5.2,0.2C152.8,48.3,151.2,48.4,149.5,48.4z"/>
	<path class="st1" d="M177.2,89.3c-0.1,0-0.2,0-0.2-0.1c-0.3-0.1-0.4-0.4-0.3-0.7c1.4-3,2.2-6.2,2.2-9.1c0-10.3-4.2-17.9-11.5-20.8
		c-4.1-1.7-8.6-2.4-15-2.4c-6.2,0-12.1,2.5-16.7,7.2c-4.5,4.5-7,10.6-7,16.7c0,2.8,0.5,5.5,1.4,7.9c0.1,0.3,0,0.6-0.3,0.7
		c-0.3,0.1-0.6,0-0.7-0.3c-1-2.6-1.5-5.3-1.5-8.3c0-6.4,2.7-12.7,7.4-17.4c4.8-4.8,11-7.5,17.5-7.5c6.5,0,11.1,0.7,15.4,2.4
		c7.7,3.1,12.2,11,12.2,21.8c0,3-0.8,6.4-2.3,9.5C177.6,89.1,177.4,89.3,177.2,89.3z"/>
	<g>
		<path class="st1" d="M119.4,186.7c-0.3-2.8-0.7-5.7-3.4-10.2c-0.1-0.2-0.4-0.3-0.6-0.2c-3.9,1.4-6.2,4.4-6.2,7.8
			c0,3.7,2.6,8.8,9.8,11.9c0.6,5,1.4,9.9,2.4,14.7h1.1c-1-4.9-1.8-10-2.5-15.1c0-0.2-0.1-0.4-0.3-0.4c-6.9-3-9.4-7.6-9.4-11.1
			c0-2.9,1.9-5.4,5.1-6.7c2.4,4.1,2.7,6.7,3,9.4c0.6,5,1.2,10.1,14.2,23.8h1.5C120.6,196.6,120,191.6,119.4,186.7z"/>
		<path class="st1" d="M113.8,178.1c-0.3,0-0.5-0.2-0.5-0.5c-0.2-2.6-0.4-5.2-0.6-7.7c-0.4-4.2-0.8-8.6-0.8-13
			c0-7.7,1.4-13.3,4.4-17.2c3.5-4.6,9-6.9,16.8-7.1c-0.2-3-1.9-6.1-4.6-8.5c-0.2-0.2-0.2-0.4-0.1-0.6c0.1-0.2,0.3-0.3,0.5-0.3
			c4.8,0.4,9,2.3,12.1,5.4c1.8-2.3,4.8-3.3,7.2-3.5c0.2,0,0.4,0.1,0.5,0.3c0.1,0.2,0.1,0.4-0.1,0.6c-1.4,1.5-2.4,3.2-2.9,5
			c10.1-5,17.8-3.1,26-1c6.9,1.7,14,3.6,23.4,1.6c0.1,0,0.3,0,0.4,0.1c0.1,0.1,0.2,0.2,0.2,0.4c1,7.9,0.4,15-0.2,21.8
			c-0.6,7.1-1.3,14.4-0.1,22.8c0,0.3-0.2,0.6-0.5,0.6c-0.3,0-0.6-0.2-0.6-0.5c-1.2-8.5-0.5-15.9,0.1-23c0.6-6.6,1.2-13.4,0.3-21
			c-9.3,1.8-16.4,0-23.3-1.8c-8.6-2.2-16-4.1-26.2,1.4c-0.2,0.1-0.4,0.1-0.6,0c-0.2-0.1-0.3-0.3-0.2-0.5c0.3-1.9,1.1-3.8,2.4-5.5
			c-2,0.5-4.1,1.5-5.3,3.3c-0.1,0.1-0.2,0.2-0.4,0.2c-0.2,0-0.3,0-0.4-0.2c-2.7-2.8-6.3-4.7-10.4-5.4c2.4,2.6,3.8,5.7,3.8,8.7
			c0,0.1-0.1,0.3-0.2,0.4c-0.1,0.1-0.2,0.2-0.4,0.2c-14.3,0.1-20.7,7.3-20.7,23.3c0,4.3,0.4,8.6,0.8,12.9c0.2,2.5,0.5,5.1,0.6,7.7
			C114.3,177.8,114.1,178.1,113.8,178.1C113.8,178.1,113.8,178.1,113.8,178.1z"/>
		<path class="st1" d="M182.1,210.7c5.2-7.2,6.1-13.9,7-20.4c0.6-4.7,1.2-9.1,3.3-13.7c0.1,0.1,0.2,0.1,0.3,0.1
			c3.8,0.7,7.6,3.2,7.6,7.4c0,3.4-2.5,8.1-9.4,11.1c-0.2,0.1-0.3,0.2-0.3,0.4c-0.7,5.1-1.5,10.2-2.5,15.1h1.1
			c1-4.8,1.8-9.7,2.4-14.7c7.2-3.2,9.8-8.2,9.8-11.9c0-3.4-2.5-7.2-8.1-8.4c0-0.4,0-0.8,0-1.2c0-0.3-0.2-0.5-0.4-0.5
			c-0.2-0.1-0.5,0-0.6,0.3c-2.9,5.4-3.7,10.8-4.4,15.9c-0.9,6.5-1.8,13.3-7.3,20.5H182.1z"/>
		<path class="st1" d="M131.4,148.9c0,0-0.1,0-0.1,0c-0.3-0.1-0.5-0.3-0.4-0.6c1.1-5.1,4.7-9.1,7.6-11.6c0.2-0.2,0.6-0.2,0.8,0.1
			c0.2,0.2,0.2,0.6-0.1,0.8c-2.8,2.4-6.2,6.2-7.3,11C131.9,148.7,131.7,148.9,131.4,148.9z"/>
		<path class="st1" d="M141.5,150.3c-0.3,0-0.5-0.2-0.5-0.5v-11.3c0-0.3,0.2-0.5,0.5-0.5c0.3,0,0.5,0.2,0.5,0.5v11.3
			C142,150.1,141.8,150.3,141.5,150.3z"/>
		<path class="st1" d="M156.4,146.7c-0.2,0-0.4-0.1-0.5-0.3c-1.8-4.2-6-7.3-10.9-8.1c-0.3,0-0.5-0.3-0.5-0.6c0-0.3,0.3-0.5,0.6-0.5
			c5.2,0.8,9.8,4.2,11.7,8.7c0.1,0.3,0,0.6-0.3,0.7C156.5,146.7,156.4,146.7,156.4,146.7z"/>
	</g>
	<g>
		<path class="st1" d="M65.5,156.9C65.5,156.9,65.5,156.9,65.5,156.9c-0.3,0-0.5-0.3-0.5-0.6c0.2-6.2-0.2-10.4-0.5-14
			c-0.2-2.3-0.4-4.5-0.4-6.8c0-6.9,2.6-11.8,8.2-15.2c5.2-3.3,11.6-8.3,20-15.8c0.2-0.2,0.6-0.2,0.8,0c0.2,0.2,0.2,0.6,0,0.8
			c-8.5,7.5-14.8,12.6-20.1,15.9c-5.3,3.3-7.7,7.7-7.7,14.3c0,2.3,0.2,4.4,0.4,6.7c0.3,3.7,0.7,7.9,0.5,14.2
			C66.1,156.7,65.8,156.9,65.5,156.9z"/>
		<path class="st1" d="M84.1,157c-0.3,0-0.5-0.2-0.5-0.5c0-4.6,2.6-5.9,5.3-7.3c3.5-1.8,7.4-3.8,7.4-13.6c0-1.1,0-2.2-0.1-3.4
			c0-0.2,0-0.3,0.2-0.4c7.1-7.2,9.8-12.7,9.8-14.5c0-2.5-0.6-3-2.6-3c-2.3,0-4.8,2.4-8.2,5.8c-2.4,2.3-5.4,5.2-9.2,8.1
			c-0.2,0.2-0.6,0.1-0.8-0.1c-0.2-0.2-0.1-0.6,0.1-0.8c3.7-2.8,6.7-5.7,9.1-8c3.6-3.5,6.3-6.1,9-6.1c2.7,0,3.7,1.1,3.7,4.1
			c0,3.7-5.9,10.9-9.9,15.1c0.1,1.2,0.1,2.2,0.1,3.3c0,10.4-4.4,12.7-7.9,14.5c-2.6,1.4-4.7,2.4-4.7,6.4
			C84.6,156.8,84.4,157,84.1,157z"/>
		<path class="st1" d="M57.5,210.7c-0.2-5.2-0.3-10.7-0.3-17.3c0-5.4,0.1-10.8,0.1-16.1c0.1-4.9,0.1-9.9,0.1-14.9
			c0.9-0.1,1.9-0.3,3-0.4c3.7-0.6,9.2-1.5,19.4-1.4l1.2,0c0.9,0,1.9,0,2.8,0c0.1,19.6,0.6,35.6,1.6,50.1h1.1
			c-1.1-14.7-1.6-30.8-1.6-50.6c0-0.3-0.2-0.5-0.5-0.5c-1.1,0-2.3,0-3.4,0l-1.2,0c-10.2-0.1-15.8,0.8-19.5,1.4
			c-1.4,0.2-2.4,0.4-3.4,0.5c-0.3,0-0.5,0.3-0.5,0.5c0,5.1-0.1,10.3-0.1,15.4c-0.1,5.3-0.1,10.8-0.1,16.1c0,6.6,0.1,12.1,0.3,17.3
			H57.5z"/>
		<path class="st1" d="M62.2,161.7c-0.3,0-0.5-0.2-0.5-0.5c-0.1-1.3-0.2-2.7-0.2-4l0-0.6c0-0.3,0.2-0.5,0.5-0.6l1.3-0.1
			c4.7-0.2,8.9-0.3,13.4-0.4c2.4,0,4.8-0.1,7.4-0.1c0.1,0,0.3,0,0.4,0.1c0.1,0.1,0.2,0.2,0.2,0.4c0,1.5,0.1,2.9,0.3,4.1
			c0,0.3-0.2,0.6-0.5,0.6c-0.3,0-0.6-0.2-0.6-0.5c-0.2-1.1-0.3-2.4-0.3-3.7c-2.4,0.1-4.7,0.1-6.9,0.1c-4.5,0.1-8.7,0.1-13.4,0.4
			l-0.8,0.1l0,0.1c0.1,1.3,0.1,2.7,0.2,4C62.7,161.4,62.5,161.7,62.2,161.7C62.2,161.7,62.2,161.7,62.2,161.7z"/>
	</g>
	<g>
		<path class="st1" d="M242.3,156.9c-0.3,0-0.5-0.2-0.5-0.5c-0.2-6.3,0.2-10.5,0.5-14.2c0.2-2.4,0.4-4.5,0.4-6.7
			c0-6.6-2.4-11-7.7-14.3c-7.4-4.6-17.9-13.8-22.1-17.5c-0.2-0.2-0.2-0.5,0-0.8c0.2-0.2,0.5-0.2,0.8,0c8.8,7.8,16.8,14.1,21.9,17.4
			c5.6,3.5,8.2,8.3,8.2,15.2c0,2.3-0.2,4.5-0.4,6.8c-0.3,3.7-0.7,7.8-0.5,14C242.8,156.6,242.6,156.9,242.3,156.9
			C242.3,156.9,242.3,156.9,242.3,156.9z"/>
		<path class="st1" d="M223.8,157c-0.3,0-0.5-0.2-0.5-0.5c0-3.9-2.1-5-4.7-6.4c-3.5-1.8-7.9-4.1-7.9-14.5c0-1,0-2.1,0.1-3.3
			c-4.1-4.1-9.9-11.4-9.9-15.1c0-3,1-4.1,3.7-4.1c2.7,0,5.4,2.5,9,6.1c2.4,2.3,5.4,5.2,9.1,8c0.2,0.2,0.3,0.5,0.1,0.8
			c-0.2,0.2-0.5,0.3-0.8,0.1c-3.8-2.8-6.8-5.7-9.2-8.1c-3.5-3.3-6-5.8-8.2-5.8c-1.9,0-2.6,0.4-2.6,3c0,1.8,2.7,7.3,9.8,14.5
			c0.1,0.1,0.2,0.3,0.2,0.4c-0.1,1.2-0.1,2.4-0.1,3.4c0,9.7,3.9,11.8,7.4,13.6c2.7,1.4,5.3,2.7,5.3,7.3
			C224.3,156.8,224.1,157,223.8,157z"/>
		<path class="st1" d="M222.4,210.7c1-14.5,1.6-30.5,1.6-50.1c1,0,1.9,0,2.8,0l1.2,0c10.1-0.1,15.7,0.8,19.4,1.4
			c1.1,0.2,2.1,0.3,3,0.4c0,5,0.1,10,0.1,14.9c0.1,5.3,0.1,10.7,0.1,16.1c0,6.6-0.1,12.1-0.3,17.3h1.1c0.2-5.2,0.3-10.7,0.3-17.3
			c0-5.4-0.1-10.8-0.1-16.1c-0.1-5-0.1-10.3-0.1-15.4c0-0.3-0.2-0.5-0.5-0.5c-1-0.1-2.1-0.3-3.4-0.5c-3.7-0.6-9.3-1.5-19.5-1.4
			l-1.2,0c-1.1,0-2.2,0-3.3,0h0c-0.3,0-0.5,0.2-0.5,0.5c0,19.8-0.6,36-1.6,50.6H222.4z"/>
		<path class="st1" d="M245.7,161.7C245.7,161.7,245.7,161.7,245.7,161.7c-0.3,0-0.6-0.3-0.5-0.6c0.1-1.3,0.2-2.7,0.2-4l0-0.1
			l-0.8-0.1c-4.6-0.2-8.9-0.3-13.4-0.4c-2.2,0-4.5-0.1-6.9-0.1c0,1.3-0.2,2.6-0.3,3.7c0,0.3-0.3,0.5-0.6,0.5c-0.3,0-0.5-0.3-0.5-0.6
			c0.2-1.2,0.3-2.6,0.3-4.1c0-0.1,0.1-0.3,0.2-0.4c0.1-0.1,0.2-0.2,0.4-0.1c2.6,0.1,5,0.1,7.4,0.1c4.5,0.1,8.7,0.1,13.4,0.4l1.4,0.1
			c0.3,0,0.5,0.3,0.5,0.6l0,0.6c-0.1,1.3-0.1,2.7-0.2,4C246.2,161.5,246,161.7,245.7,161.7z"/>
	</g>
	<path class="st1" d="M66.3,73.2C66.2,73.2,66.2,73.2,66.3,73.2c-0.3,0-0.6-0.3-0.5-0.6c0.2-2.9,1.7-5.7,4.1-7.7
		c2.4-2,5.5-2.9,8.4-2.6c0,0,0,0,0,0c1.3,0.3,2.5,0.8,3.7,1.4c0.6,0.3,1.2,0.6,1.8,0.8c0.3,0.1,0.4,0.4,0.3,0.7
		c-0.1,0.3-0.4,0.4-0.7,0.3c-0.6-0.2-1.2-0.5-1.8-0.8c-1.2-0.6-2.3-1.1-3.5-1.3c-2.6-0.3-5.4,0.5-7.6,2.3c-2.2,1.8-3.6,4.3-3.7,6.9
		C66.8,73,66.5,73.2,66.3,73.2z"/>
	<path class="st1" d="M76.6,63.5c-0.1,0-0.1,0-0.2,0c-0.3-0.1-0.4-0.4-0.4-0.7c1.5-4.9,5.9-10.1,11.7-10.1c3.4,0,6.3,1.9,8,5.3
		c0.1,0.3,0,0.6-0.2,0.7c-0.3,0.1-0.6,0-0.7-0.2c-1.5-3-4-4.7-7-4.7c-5.3,0-9.3,4.9-10.7,9.4C77,63.3,76.8,63.5,76.6,63.5z"/>
	<path class="st1" d="M104.2,59.6c-0.2,0-0.3-0.1-0.4-0.2c-1.8-2.2-4.2-3.4-7.2-3.4c-0.9,0-1.8,0.2-2.5,0.5c-0.3,0.1-0.6,0-0.7-0.3
		c-0.1-0.3,0-0.6,0.3-0.7c0.9-0.4,1.9-0.5,2.9-0.5c3.3,0,6,1.3,8,3.8c0.2,0.2,0.1,0.6-0.1,0.8C104.5,59.6,104.4,59.6,104.2,59.6z"/>
	<g>
		<path class="st1" d="M43.5,58.4c-1.1,0-2.1-0.9-2.2-2.1c-0.1-2-0.2-4.1-0.2-6.2c-0.1-2.5-0.2-5.1-0.3-7.6c0,0,0-0.1,0-0.1
			c0-0.3,0.1-1.2,1.6-1.2c4.1-0.2,8.3-0.4,12.4-0.6c1.5-0.1,3.1-0.2,4.6-0.3c0.8,0,1.8,0.6,1.9,1.5l0.1,2.9
			c0.1,3.4,0.2,6.9,0.4,10.4c0,0.1,0,0.1,0,0.2c0,1.2-0.5,2-1.4,2C54.1,58,48.6,58.3,43.5,58.4C43.5,58.4,43.5,58.4,43.5,58.4z
			 M59.5,41.5L59.5,41.5c-1.6,0.1-3.1,0.2-4.6,0.3c-4,0.2-8.2,0.5-12.4,0.6c-0.4,0-0.6,0.1-0.6,0.2c0.2,2.6,0.2,5.1,0.3,7.6
			c0.1,2,0.1,4.1,0.2,6.1c0,0.6,0.5,1,1.1,1v0.5l0-0.5c5-0.1,10.5-0.4,16.7-1c0.4,0,0.4-0.8,0.4-1c0,0,0-0.1,0-0.1
			c-0.1-3.5-0.2-7-0.4-10.4l-0.1-2.9C60.2,41.8,59.8,41.5,59.5,41.5z"/>
		<path class="st1" d="M51.2,51c-0.3,0-0.6-0.1-0.9-0.3c-3.2-2.3-6.3-4.5-9.2-6.5c-0.2-0.2-0.3-0.5-0.1-0.7c0.2-0.2,0.5-0.3,0.7-0.1
			c3,2,6.1,4.2,9.3,6.5c0.2,0.1,0.4,0.1,0.5,0c2.2-2.1,4.7-4,7.1-5.9c0.6-0.5,1.2-1,1.9-1.4c0.2-0.2,0.6-0.1,0.8,0.1
			c0.2,0.2,0.1,0.6-0.1,0.8c-0.6,0.5-1.2,1-1.9,1.4c-2.4,1.8-4.8,3.7-7,5.8C51.9,50.8,51.6,51,51.2,51z"/>
		<path class="st1" d="M42.2,57.8c-0.1,0-0.3,0-0.4-0.1c-0.2-0.2-0.2-0.5,0-0.8c2.2-2.4,4.5-4.9,7.4-7.8c0.2-0.2,0.6-0.2,0.8,0
			c0.2,0.2,0.2,0.6,0,0.8c-2.9,2.9-5.2,5.4-7.4,7.7C42.5,57.7,42.4,57.8,42.2,57.8z"/>
		<path class="st1" d="M61.1,56.3c-0.1,0-0.3-0.1-0.4-0.2c-0.5-0.5-1-0.9-1.4-1.4c-2-1.9-4-3.9-6.3-5.4c-0.3-0.2-0.3-0.5-0.2-0.7
			c0.2-0.3,0.5-0.3,0.7-0.2c2.5,1.5,4.5,3.6,6.5,5.5c0.5,0.5,0.9,0.9,1.4,1.4c0.2,0.2,0.2,0.5,0,0.8C61.4,56.2,61.3,56.3,61.1,56.3z
			"/>
	</g>
	<g>
		<path class="st1" d="M249.1,61.8c-5.1,0-10.5-0.1-16.4-0.3c-1.2,0-2-1-2.1-2.5c0-0.1,0-0.1,0-0.2c0-4.8-0.1-9.8-0.1-14.5
			c0-1.4,0-2.7,0-4.1c0-1.1,1.2-1.9,2.4-2c0,0,0.1,0,0.1,0c2.4,0,4.8,0,7.1,0c3.9,0,7.9,0,11.9,0c0,0,0,0,0,0c2.6,0,4.9,0,7.2,0
			c0,0,0,0,0,0c2,0,2.2,1,2.2,1.4c0,0,0,0.1,0,0.1c-0.1,3.5,0,7.1,0,10.6c0,2.8,0.1,5.7,0,8.6c0,1.5-1.3,2.7-2.9,2.8l-0.1,0
			C255.5,61.8,252.3,61.8,249.1,61.8z M232.9,39.2L232.9,39.2c-0.8,0-1.4,0.5-1.4,0.9c0,1.4,0,2.7,0,4.1c0.1,4.8,0.1,9.7,0.1,14.5
			c0,0.1,0,0.1,0,0.2c0,0.6,0.2,1.5,1,1.5c5.9,0.2,11.3,0.3,16.4,0.3c3.2,0,6.3,0,9.3-0.1c1,0,1.9-0.8,1.9-1.7c0-2.8,0-5.8,0-8.6
			c0-3.5-0.1-7.1,0-10.6c0-0.3-0.7-0.4-1.2-0.4c-2.3,0-4.6,0-7.2,0c0,0,0,0,0,0c-4,0-8,0-11.9,0C237.7,39.2,235.3,39.2,232.9,39.2z"
			/>
		<path class="st1" d="M246.1,51.8c-0.5,0-0.9-0.2-1.3-0.5c-3.5-2.7-7.4-5.2-11.2-7.6c-1-0.6-2-1.3-2.9-1.9
			c-0.3-0.2-0.3-0.5-0.2-0.7c0.2-0.3,0.5-0.3,0.7-0.2c1,0.6,2,1.3,2.9,1.9c3.8,2.4,7.7,4.9,11.2,7.7c0.2,0.2,0.4,0.2,0.7,0.2
			c0.2,0,0.4-0.1,0.5-0.2c4.7-3.4,9.4-6.7,13.8-9.7c0.2-0.2,0.6-0.1,0.7,0.1c0.2,0.2,0.1,0.6-0.1,0.7c-4.5,3-9.1,6.3-13.8,9.7
			C247,51.7,246.6,51.8,246.1,51.8C246.2,51.8,246.1,51.8,246.1,51.8z"/>
		<path class="st1" d="M260.4,60.7c-0.1,0-0.3,0-0.4-0.1c-3.4-3.2-7.2-6.4-11.8-10.3c-0.2-0.2-0.3-0.5-0.1-0.8
			c0.2-0.2,0.5-0.3,0.8-0.1c4.6,3.9,8.4,7.1,11.9,10.3c0.2,0.2,0.2,0.5,0,0.8C260.7,60.6,260.6,60.7,260.4,60.7z"/>
		<path class="st1" d="M231.2,59.9c-0.1,0-0.3-0.1-0.4-0.2c-0.2-0.2-0.2-0.6,0-0.8c0.7-0.7,1.4-1.4,2.1-2c2.9-2.9,6-5.9,9.7-8.1
			c0.3-0.2,0.6-0.1,0.7,0.2c0.2,0.3,0.1,0.6-0.2,0.7c-3.6,2.2-6.6,5.1-9.5,8c-0.7,0.7-1.4,1.4-2.1,2.1
			C231.5,59.8,231.3,59.9,231.2,59.9z"/>
	</g>
	<path class="st1" d="M77.9,31c-3.3,0-5.6-2.1-5.6-5c0-2.5,1.7-5.3,4.6-5.7c3-0.4,6.4,1.6,6.4,5.1C83.4,28.3,80.8,31,77.9,31z
		 M77.7,21.3c-0.2,0-0.4,0-0.6,0c-2.3,0.3-3.7,2.6-3.7,4.6c0,2.7,2.3,4,4.5,4c2.3,0,4.4-2.2,4.4-4.5C82.3,22.8,80,21.3,77.7,21.3z"
		/>
	<path class="st1" d="M78,29.1c-0.3,0-0.5-0.2-0.5-0.5c-0.2-1.9-0.5-4-0.5-6.1c0-0.3,0.2-0.5,0.5-0.5c0.3,0,0.5,0.2,0.5,0.5
		c0,2,0.3,4.1,0.5,5.9C78.6,28.8,78.3,29.1,78,29.1C78,29.1,78,29.1,78,29.1z"/>
	<path class="st1" d="M76.2,26.6c-0.4,0-0.8,0-1.3,0c-0.3,0-0.5-0.3-0.5-0.6c0-0.3,0.3-0.5,0.6-0.5c1.6,0.1,3.1,0,4.6-0.2
		c0.3,0,0.6,0.1,0.6,0.4c0,0.3-0.1,0.6-0.4,0.6C78.6,26.5,77.4,26.6,76.2,26.6z"/>
	<g>
		<path class="st1" d="M51.8,57.6l0,2.2c0,0.3-0.2,0.5-0.5,0.5c-0.3,0-0.5-0.2-0.5-0.5v0l0-2.2c0-0.3,0.2-0.5,0.5-0.5
			C51.5,57.1,51.8,57.3,51.8,57.6z"/>
		<path class="st1" d="M51.9,63.3l0,2.2c0,0.3-0.2,0.5-0.5,0.5c-0.3,0-0.5-0.2-0.5-0.5v0l0-2.2c0-0.3,0.2-0.5,0.5-0.5
			C51.6,62.8,51.9,63,51.9,63.3z"/>
		<path class="st1" d="M52,69.1l0.1,2.2c0,0.3-0.2,0.5-0.5,0.5c-0.3,0-0.5-0.2-0.5-0.5v0l-0.1-2.2c0-0.3,0.2-0.5,0.5-0.5
			S52,68.8,52,69.1z"/>
		<path class="st1" d="M52.2,74.8l0.1,2.2c0,0.3-0.2,0.5-0.5,0.6c-0.3,0-0.5-0.2-0.6-0.5v0l-0.1-2.2c0-0.3,0.2-0.5,0.5-0.6
			C51.9,74.3,52.2,74.5,52.2,74.8z"/>
		<path class="st1" d="M52.4,80.5l0.3,2.1c0,0.3-0.2,0.6-0.5,0.6c-0.3,0-0.6-0.2-0.6-0.5l-0.3-2.1c0-0.3,0.2-0.6,0.5-0.6
			C52.1,80,52.4,80.2,52.4,80.5L52.4,80.5z"/>
		<path class="st1" d="M53.6,86c0,0,0.2,0.5,0.4,1c0.2,0.5,0.4,0.9,0.4,0.9l0,0c0.1,0.3,0,0.6-0.2,0.7c-0.3,0.1-0.6,0-0.7-0.2
			c0,0-0.3-0.5-0.5-1c-0.2-0.5-0.4-1-0.4-1c-0.1-0.3,0-0.6,0.3-0.7C53.2,85.6,53.5,85.7,53.6,86z"/>
		<path class="st1" d="M56.5,90.7c0,0,0.4,0.4,0.8,0.7c0.4,0.3,0.8,0.6,0.8,0.6l0,0c0.2,0.2,0.3,0.5,0.1,0.8
			c-0.2,0.2-0.5,0.3-0.8,0.1l0,0c0,0-0.5-0.3-0.9-0.7c-0.4-0.4-0.8-0.7-0.8-0.7c-0.2-0.2-0.2-0.5,0-0.8
			C55.9,90.5,56.3,90.5,56.5,90.7z"/>
		<path class="st1" d="M61.2,93.4c0,0,0.5,0.1,1,0.3c0.5,0.1,1,0.2,1,0.2l0,0c0.3,0.1,0.5,0.3,0.4,0.6c-0.1,0.3-0.3,0.5-0.6,0.4h0
			c0,0-0.6-0.1-1.1-0.2c-0.5-0.1-1-0.3-1-0.3c-0.3-0.1-0.5-0.4-0.4-0.7C60.6,93.5,60.9,93.3,61.2,93.4L61.2,93.4z"/>
		<path class="st1" d="M66.8,94.2l2.2,0h0c0.3,0,0.5,0.2,0.5,0.5c0,0.3-0.2,0.5-0.5,0.5l-2.2,0c-0.3,0-0.5-0.2-0.5-0.5
			C66.2,94.4,66.5,94.2,66.8,94.2L66.8,94.2L66.8,94.2z"/>
		<path class="st1" d="M72.5,94.1l2.2,0c0.3,0,0.5,0.2,0.5,0.5c0,0.3-0.2,0.5-0.5,0.5l-2.2,0c-0.3,0-0.5-0.2-0.5-0.5
			C72,94.4,72.2,94.1,72.5,94.1L72.5,94.1z"/>
		<path class="st1" d="M78.3,94.1l2.2,0c0.3,0,0.5,0.2,0.5,0.5c0,0.3-0.2,0.5-0.5,0.5l-2.2,0c-0.3,0-0.5-0.2-0.5-0.5
			C77.7,94.3,78,94.1,78.3,94.1L78.3,94.1z"/>
		<path class="st1" d="M84,94.1l2.2,0c0.3,0,0.5,0.2,0.5,0.5c0,0.3-0.2,0.5-0.5,0.5l-2.2,0c-0.3,0-0.5-0.2-0.5-0.5
			C83.5,94.3,83.7,94.1,84,94.1L84,94.1z"/>
		<path class="st1" d="M89.8,94.2l2.2,0.1c0.3,0,0.5,0.2,0.5,0.5c0,0.3-0.2,0.5-0.5,0.5l-2.2-0.1c-0.3,0-0.5-0.2-0.5-0.5
			C89.3,94.4,89.5,94.2,89.8,94.2L89.8,94.2z"/>
	</g>
	<g>
		<path class="st1" d="M264,120.9c-5.5,0-10.7-1.9-14.7-5.4c-4.1-3.6-6.3-8.4-6.3-13.7c0-7.5,4.5-14.5,11.2-17.4l0.3-0.1
			c0.8-0.4,1.7-0.8,2.6-1c2-0.5,4-0.8,5.9-0.8c10.2,0,19.2,9.2,19.2,19.8C282.3,109.5,277.3,120.9,264,120.9z M263.1,83.6
			c-1.8,0-3.7,0.3-5.6,0.8c-0.8,0.2-1.7,0.6-2.5,0.9l-0.3,0.1c-6.3,2.8-10.6,9.4-10.6,16.4c0,9.9,8.9,18,19.9,18
			c12.5,0,17.2-10.8,17.2-17.6C281.2,92.3,272.7,83.6,263.1,83.6z"/>
		<path class="st1" d="M263.8,117.3c-9.4,0-17-6.9-17-15.4c0-6,3.6-11.7,9.1-14.1l0.2-0.1c0.7-0.3,1.4-0.6,2.1-0.8
			c1.6-0.4,3.2-0.6,4.7-0.6c8.3,0,15.5,7.5,15.5,16C278.5,108.1,274.5,117.3,263.8,117.3z M263,87.4c-1.4,0-2.9,0.2-4.5,0.6
			c-0.7,0.2-1.3,0.5-2,0.7l-0.2,0.1c-5,2.2-8.4,7.5-8.4,13.1c0,7.9,7.1,14.3,15.9,14.3c10,0,13.7-8.6,13.7-14
			C277.5,94.3,270.7,87.4,263,87.4z"/>
		<path class="st1" d="M254.1,98.4c-0.1,0-0.2,0-0.3-0.1c-0.3-0.2-0.3-0.5-0.2-0.7c1.9-3,5.2-4.8,8.8-4.8c0.7,0,1.5,0.1,2.2,0.2
			c0.3,0.1,0.5,0.4,0.4,0.6c-0.1,0.3-0.4,0.5-0.6,0.4c-0.6-0.1-1.3-0.2-1.9-0.2c-3.2,0-6.2,1.6-7.9,4.3
			C254.5,98.3,254.3,98.4,254.1,98.4z"/>
		<path class="st1" d="M283.3,130c-1.3,0-2.7-0.8-3.9-2.2c-2.8-3.2-5.4-6.5-7.3-9c-0.2-0.2-0.1-0.6,0.1-0.8c0.2-0.2,0.6-0.1,0.8,0.1
			c1.9,2.5,4.5,5.8,7.3,9c0.7,0.8,1.8,1.8,3.1,1.8c1.9,0,3.1-2.5,3.1-2.8c0-0.4-0.6-1.4-1.1-2c-2.6-3.1-5.5-6.4-8.1-9.8
			c-0.2-0.2-0.1-0.6,0.1-0.8c0.2-0.2,0.6-0.1,0.8,0.1c2.6,3.4,5.4,6.7,8,9.7c0.3,0.4,1.3,1.7,1.3,2.7
			C287.5,126.9,285.8,130,283.3,130z"/>
		<path class="st1" d="M274.8,122c-0.2,0-0.3-0.1-0.4-0.2c-0.2-0.2-0.1-0.6,0.1-0.8c1-0.8,2-1.6,2.9-2.4c0.8-0.7,1.6-1.3,2.4-1.9
			c0.2-0.2,0.6-0.2,0.8,0.1c0.2,0.2,0.2,0.6-0.1,0.8c-0.8,0.6-1.6,1.3-2.4,1.9c-1,0.8-1.9,1.6-2.9,2.4
			C275.1,121.9,274.9,122,274.8,122z"/>
	</g>
	<g>
		<path class="st1" d="M212.9,83.6l1.1,0.1c0.3,0,0.5,0.3,0.5,0.6c0,0.3-0.3,0.5-0.6,0.5l0,0l-1.1-0.1c-0.3,0-0.5-0.3-0.5-0.6
			C212.4,83.8,212.6,83.6,212.9,83.6z"/>
		<path class="st1" d="M217.8,83.8L220,84c0.3,0,0.5,0.3,0.5,0.6c0,0.3-0.3,0.5-0.6,0.5l0,0l-2.2-0.1c-0.3,0-0.5-0.3-0.5-0.6
			C217.2,84.1,217.5,83.8,217.8,83.8z"/>
		<path class="st1" d="M223.7,84.1c0,0,0.1,0,0.4,0c0.1,0,0.2,0,0.3,0c0.1,0,0.3,0,0.4,0c0.6,0,1.1,0,1.1,0c0.3,0,0.5,0.2,0.5,0.5
			c0,0.3-0.2,0.5-0.5,0.5c0,0-0.6,0-1.1,0c-0.1,0-0.3,0-0.4,0c-0.1,0-0.3,0-0.4,0c-0.2,0-0.4,0-0.4,0c-0.3,0-0.5-0.2-0.5-0.5
			C223.2,84.3,223.4,84.1,223.7,84.1L223.7,84.1z"/>
		<path class="st1" d="M229.6,83.7l2.2-0.4c0.3-0.1,0.6,0.1,0.6,0.4c0.1,0.3-0.1,0.6-0.4,0.6l0,0l-2.2,0.4c-0.3,0.1-0.6-0.1-0.6-0.4
			C229.1,84.1,229.3,83.8,229.6,83.7z"/>
		<path class="st1" d="M235.3,82.2l0.6-0.3l0.3-0.1l0.1-0.1c0.1,0,0.1,0,0.1-0.1l0,0l0.9-0.5l0,0c0.3-0.1,0.6,0,0.7,0.2
			c0.1,0.3,0,0.6-0.2,0.7l-0.9,0.5l0,0c-0.1,0-0.1,0.1-0.2,0.1l-0.1,0.1l-0.3,0.1l-0.6,0.3c-0.3,0.1-0.6,0-0.7-0.3
			C234.9,82.7,235,82.4,235.3,82.2z"/>
		<path class="st1" d="M240,79c0,0,0.4-0.4,0.7-0.9c0.3-0.4,0.6-0.9,0.6-0.9l0,0c0.2-0.2,0.5-0.3,0.7-0.1c0.2,0.2,0.3,0.5,0.1,0.7
			l0,0c0,0-0.3,0.5-0.7,1c-0.4,0.4-0.7,0.9-0.7,0.9c-0.2,0.2-0.5,0.3-0.8,0.1C239.9,79.6,239.9,79.3,240,79L240,79z"/>
		<path class="st1" d="M242.9,74.1c0,0,0.1-0.5,0.3-1.1c0.1-0.5,0.2-1.1,0.2-1.1l0,0c0-0.3,0.3-0.5,0.6-0.4c0.3,0,0.5,0.3,0.4,0.6
			l0,0c0,0-0.1,0.6-0.2,1.2c-0.1,0.5-0.3,1.1-0.3,1.1c-0.1,0.3-0.4,0.5-0.6,0.4C243,74.6,242.8,74.4,242.9,74.1L242.9,74.1z"/>
		<path class="st1" d="M243.4,68.3l-0.2-2.2c0-0.3,0.2-0.5,0.5-0.6c0.3,0,0.5,0.2,0.6,0.5l0,0l0.2,2.2c0,0.3-0.2,0.5-0.5,0.6
			C243.7,68.8,243.5,68.6,243.4,68.3L243.4,68.3L243.4,68.3z"/>
		<path class="st1" d="M242.7,62.4l-0.2-1.1c0-0.3,0.2-0.6,0.4-0.6c0.3,0,0.6,0.2,0.6,0.4l0.2,1.1c0,0.3-0.2,0.6-0.4,0.6
			C243,62.8,242.7,62.7,242.7,62.4L242.7,62.4z"/>
	</g>
</g>
</svg>
