<?xml version="1.0" encoding="utf-8"?>
<!-- Generator: Adobe Illustrator 22.1.0, SVG Export Plug-In . SVG Version: 6.00 Build 0)  -->
<svg version="1.1" id="Layer_1" xmlns="http://www.w3.org/2000/svg" xmlns:xlink="http://www.w3.org/1999/xlink" x="0px" y="0px"
	 viewBox="0 0 120 385.6" style="enable-background:new 0 0 120 385.6;" xml:space="preserve">
<style type="text/css">
	.st0{fill:#2E2223;}
	.st1{fill:#FFCB05;}
	.st2{fill:#E7E6ED;}
	.st3{fill:#FFFFFF;}
	.st4{fill:#D19F2A;}
	.st5{fill:#413736;}
</style>
<g>
	<g>
		<g>
			<path class="st3" d="M34.4,90.2c-0.1,0.1-0.2,0.3-0.2,0.4c-0.9,1.4-1.1,3.4-0.7,5c0.4,1.5,1.6,3.1,3,3.9c1.5,0.8,3.3,1.2,5,0.7
				c1.6-0.5,3-1.5,3.9-3c0.1-0.1,0.2-0.3,0.2-0.4c0.9-1.4,1.1-3.4,0.7-5c-0.4-1.5-1.6-3.1-3-3.9c-1.5-0.8-3.3-1.2-5-0.7
				C36.6,87.8,35.2,88.7,34.4,90.2L34.4,90.2z"/>
		</g>
	</g>
	<g>
		<g>
			<path class="st3" d="M48.2,85c-3.4-8.7-13.9-7.7-19.2-1.3c-5.2,6.3-4.9,16.1,1.4,21.5c6.2,5.4,15.5,5.1,20.5-1.6
				c4.7-6.2,6.1-16-0.5-21.4c-0.4,3.4-0.9,6.8-1.3,10.2c0.3-0.2,0.5-0.3,0.8-0.5c-1.1,0.3-2.2,0.6-3.3,0.9c0.3,0,0.6,0.1,1,0.1
				c-1.1-0.3-2.2-0.6-3.3-0.9c-1.5-1.1-0.3-0.2-0.5,0.9c-0.2,0.7-0.8,1.2-1.3,1.6c-6.2,5.6,3,14.8,9.2,9.2c4.3-3.8,6.1-9.8,4.6-15.4
				c-1.6-6.1-7.6-10.9-13.7-7.3c-3.3,1.9-4.6,7.5-1.3,10.2c1,0.8,1.1,1.1,0.2,3c-0.5,1.1-0.6,1.8-1.7,1.6c-2.4-0.6-1-4.5-0.4-4.3
				c-1-0.6-1.9-1.1-2.9-1.7c0.2,0.2,0.4,0.4,0.6,0.5c-0.6-1-1.1-1.9-1.7-2.9c0.1,0.3,0.2,0.5,0.3,0.8c1.3,3.3,4.4,5.5,8,4.5
				C46.8,92.2,49.5,88.3,48.2,85L48.2,85z"/>
		</g>
	</g>
	<g>
		<g>
			<path class="st3" d="M44.2,16.3c-6.1-4.6-14.5,0.7-16.4,7.1c-2.1,7,3,14.1,8.5,17.8c6.5,4.3,14.5,1.4,17-5.9
				c2.1-6.1,1.7-15.3-5.5-17.5c-4.3-1.3-7.9,2.2-8.2,6.3c-0.1,0.8-0.5,1-1,1.6c-6,5.8,3.2,15,9.2,9.2c3.1-3,4.5-6.6,4.8-10.8
				c-2.7,2.1-5.5,4.2-8.2,6.3c0.2,0.1,0.4,0.1,0.6,0.2c-1-0.6-1.9-1.1-2.9-1.7c-1-1-0.7-1.9-0.8,0.1c0,0.3-0.3,1.4-0.2,1.7
				c0.5,1.3-0.2,0,0.1,0.4c2.1,0,2.8-0.2,2.1-0.8c-0.1-0.1-0.2-0.2-0.3-0.2c-0.2-0.5-2.1-2.6-2.7-3.1c0-0.1-0.1-0.2-0.1-0.4
				c0-0.3,0-0.1-0.2,0.6c-1.2-0.1-0.2,2.1-2.6,0.3c2.8,2.1,7.3,0.4,8.9-2.3C48.5,21.9,47,18.5,44.2,16.3L44.2,16.3z"/>
		</g>
	</g>
	<path class="st2" d="M109.7,325.3l0,0.1c-0.1,0-0.1-0.1-0.2-0.1L109.7,325.3z"/>
	<path class="st2" d="M72.3,165.3c0-0.1,0-0.1,0-0.2l0.1,0.2L72.3,165.3z"/>
	<path class="st4" d="M109.8,41.7c0.4-1.5,0.1-2.9-0.7-3.9c0.1-0.6,0.1-1.3,0.1-1.9c0-1-0.2-1.8-0.7-2.5c1.5-4.3,2.1-10.2-0.9-13.9
		c-1.3-1.5-3.9-0.3-3.9,1.6c0.1,7.6-4.6,13.8-11.3,16.8c-3.2,1.4-3.1,4.7-1.3,6.8c-3,1.5-6.5,2.4-10.1,3C71,49.1,60.8,49.3,50.9,50
		C33.6,51.1,11.5,51.8,6,31.3c-0.3-1.1-2-1.2-2.3,0C2.2,37.1,4.6,43,8.5,47.6c-0.3-0.1-0.6-0.3-1-0.4c-1.4-0.5-2.3,1.4-1.4,2.3
		c14.2,14.8,36.6,17,56.1,15.2C78.1,63.3,104.3,60.1,109.8,41.7z"/>
	<path class="st4" d="M62.8,119.5c-1.7-2.5,0.1-6.7,3.6-6.7c4,0,8,1.1,12,1c3.7-0.1,7.4-0.5,11-1.4c3.5-0.8,7-1.8,10.4-3.1
		c3.9-1.4,11.3-3.1,11.2-8.3c0-0.8,1.2-1.2,1.6-0.4c0.2,0.5,0.4,0.9,0.6,1.4c0.5-0.7,0.9-1.4,1.4-2.1c0.7-0.9,2.1-0.6,2.1,0.6
		c0.4,9.5-5,20.8-13.5,25.4c-11.3,6-25.7,5.7-37.8,2.6C60.9,127.4,60.6,122.4,62.8,119.5z"/>
	<path class="st4" d="M68.2,149.1c-1.2,3.5-2.3,7-3.6,10.4c-0.9,2.3-4.3,2.1-4.4-0.6c-0.2-3.6-0.1-7.3-0.1-10.9
		C60.1,141.8,70.1,143.4,68.2,149.1z"/>
	<path class="st4" d="M10.7,90.6c-1,8.2,3.6,16.9,10.3,21.6c7.7,5.3,17,4.1,25.3,7.4c1.1,0.4,2,1.3,2.5,2.4c0.1-4,0.3-8,1.2-11.7
		c0.4-1.5,2.5-1.4,2.9,0c1.5,5.3,1.6,11.5,1.9,17c0.3,6.1,0.8,12.3,0.9,18.4c0,2.4-2,3.5-3.8,3.4c-0.4,1.1-1.8,1.7-2.7,0.7
		c-3-3.4-4.5-8.8-3.9-13.3c0.3-2.1,1.9-3.2,3.4-3.2c0-2,0.1-4,0.1-6c0-0.3,0-0.6,0-0.9c-0.5,0.7-1.3,1.3-2.4,1.6
		c-6,1.3-13,0.8-19.5-1.3c-4.2-0.7-8.4-2.2-11.3-5.3c-0.3-0.3-0.5-0.6-0.7-1c-0.5-0.4-1.1-0.9-1.6-1.4c-8.1-7.7-9.5-18.6-6.5-28.8
		C7.5,88.1,11,88.4,10.7,90.6z"/>
	<path class="st4" d="M43.8,144c-0.1,5-8,3.3-6.4-0.9c1.3-3.3,2.8-6.5,4.1-9.8c0.5-1.1,2.3-1.1,2.3,0.3
		C43.8,137.1,43.9,140.5,43.8,144z"/>
	<path class="st4" d="M32.6,147.9c-1.7,0-3.4-1.5-3.3-3.3c0.1-2.5,0.6-5.2,1.4-7.6c0.4-1.2,1.6-2.1,2.9-1.9c1.4,0.2,2.1,1.2,2.3,2.6
		c0.3,2.3,0.4,4.6,0.1,6.9C35.7,146.3,34.5,147.9,32.6,147.9z"/>
	<path class="st4" d="M24.1,245c0,5.1-7.6,5-7.8,0c-0.6-16.8-0.8-33.7-0.5-50.5c0.2-16.7-0.7-33.9,1.5-50.5c0.2-1.4,2.4-2,2.7-0.4
		c0.6,3.4,1,6.8,1.3,10.2c0.1-3.9,0.4-7.8,1.1-11.6c0.4-2.2,3.7-2,4.2,0c0.2,1,0.4,1.9,0.6,2.9c0.7,0.7,0.9,1.9,0.5,2.8
		c1,6.7,1.1,13.8,1.3,20.4c0.3,7.8,0.7,15.6,0.5,23.4c7.7-1.2,19,1.8,23.5,2.9c1.3,0.3,1,2.2-0.3,2.3c-4.7,0-9.5-0.4-14.2-0.7
		c-2-0.1-5-0.8-6.7,0.3c-1.4,1-1.5,3.2-1.6,4.8c-0.1,3.6-4.5,5.1-6.8,3.1C23.9,217.9,24.2,231.5,24.1,245z"/>
	<path class="st4" d="M104.2,334.6c0.1,1.2,0.6,2.9,2,3.2c1.8,0.4,3.4-1.3,4.6-2.3c2-1.6,4.3,0.6,4.6,2.6c0.7,6.3-6.9,10.2-12.2,9.3
		c-6.2-1.1-10.7-8.1-8.6-14.1C96.4,328.1,104,328.9,104.2,334.6z"/>
	<path class="st4" d="M14.8,366.1c1.2,1.6,2.1,3,2.7,4.9c0.1,0.4,0.3,0.9,0.4,1.3c0.1-0.2,0.2-0.3,0.2-0.3c0.4-0.7,0.8-1.4,1.4-2
		c1.4-1.6,4.2-1.1,5.2,0.7c3.3,5.6-3.5,13.2-9.4,12c-5.8-1.2-7-7.1-8.6-11.8C5.1,366.4,11.7,362.2,14.8,366.1z"/>
	<g>
		<path class="st5" d="M50.7,58.2c-16-0.2-31.6-1.3-39.5-9.4C7.4,44.9,5.5,39.6,5.6,33C5.7,22.2,12.1,13.8,24,8.6
			c9.1-4,21.7-6.1,35.4-5.9C66.7,2.8,73.9,3.4,80.9,4l1,0.1c13.2,1.1,27.5,3.8,32.9,15.4c1.3,2.7,1.9,5.7,1.8,9.1
			c-0.4,30.3-25.7,30-52.4,29.6c-2.3,0-4.5,0-6.8-0.1C55.2,58.2,52.9,58.2,50.7,58.2z M59.4,5.5C46,5.3,33.8,7.3,25.1,11.1
			c-11,4.8-16.6,12.2-16.7,22C8.2,39,9.8,43.5,13.1,46.9c8.3,8.4,26.6,8.5,44.3,8.6c2.3,0,4.6,0,6.8,0.1c30.7,0.4,49.3-1.2,49.7-27
			c0-2.9-0.5-5.6-1.6-7.9C107.5,10.3,94.1,7.9,81.7,6.8l-1-0.1C73.7,6.2,66.5,5.6,59.4,5.5z"/>
	</g>
	<g>
		<path class="st5" d="M63.7,124c39.2,0,52.8-1.3,52.8-27.3c0-27.7-28.2-28.2-46.8-28.5c-2.8,0-5.5-0.1-7.8-0.2
			c-4.7-0.3-9.3-0.5-13.9-0.5c-27.7,0-40,8.4-40,27.2c0,13.8,0,26.9,42,28.9c0.7,0,1.4-0.5,1.4-1.3c0-0.7-0.5-1.4-1.3-1.4
			c-39.4-1.9-39.4-12.7-39.4-26.2c0-21.6,18.8-24.5,37.3-24.5c4.5,0,9.1,0.2,13.7,0.5c2.3,0.1,5,0.2,7.9,0.2
			c18.6,0.3,44.1,0.7,44.1,25.7c0,22.5-8.8,24.6-50.1,24.6c-0.6,0-1.2,0-1.8,0c-0.8,0-1.4,0.6-1.4,1.4c0,0.7,0.6,1.4,1.4,1.4
			C62.5,124,63.1,124,63.7,124z"/>
	</g>
	<g>
		<path class="st5" d="M40.5,46.4c-0.1,0-0.1,0-0.2,0c-8.7-0.1-16.2-7.5-16.4-16.2c-0.1-8.6,6.5-16.1,15.1-17C40,13,41,13,41.9,13
			c8.5,0.3,15.2,7,15.5,15.4c0.2,4.5-1.7,9.2-5.1,12.7C49,44.5,44.8,46.4,40.5,46.4z M39.4,15.9c-7.2,0.8-12.8,7.1-12.7,14.3
			c0.1,7.1,6.5,13.4,13.7,13.5c0.1,0,0.1,0,0.2,0c3.6,0,7.1-1.6,9.8-4.4c2.9-3,4.5-7,4.4-10.7C54.4,21.4,49,16,41.8,15.8
			C41,15.7,40.2,15.8,39.4,15.9z"/>
	</g>
	<g>
		<path class="st5" d="M33.5,37.4c-0.3,0-0.6-0.1-0.8-0.3c-0.6-0.5-0.7-1.3-0.3-1.9c1.8-2.3,4.7-3.7,7.6-3.7c2.2,0,4.3,0.8,5.8,2.4
			c0.5,0.5,0.5,1.4,0,1.9c-0.5,0.5-1.4,0.5-1.9,0c-1.3-1.3-2.9-1.6-3.9-1.6c-2.1,0-4.2,1-5.4,2.7C34.3,37.2,33.9,37.4,33.5,37.4z"/>
	</g>
	<g>
		<path class="st5" d="M35.3,27.3c-1.2,0-2.2-1-2.2-2.2c0-1.1,1-2.3,2.3-2.3c0.2,0,0.5,0.1,0.7,0.2c0.1,0,0.2,0,0.3,0.1
			c0.8,0.3,1.2,0.9,1.2,1.7C37.6,26.2,36.6,27.3,35.3,27.3z M35.3,24.6v0.9c0.5,0,0.5-0.3,0.5-0.4C35.8,24.9,35.7,24.6,35.3,24.6z"
			/>
	</g>
	<g>
		<path class="st5" d="M45.3,26.9c-1.4,0-2.5-1.1-2.5-2.4c0-0.3,0.1-0.6,0.2-1c0.3-0.7,1.1-1,1.8-0.8c0.5-0.3,1.2-0.3,1.6,0
			c0.6,0.2,1.2,0.7,1.2,1.8C47.6,25.9,46.6,26.9,45.3,26.9z M45.8,25.5c0,0,0.1,0,0.1,0l-0.1-1.4V25.5z M45.8,22.8l0.1,1.4v-1.4
			C45.9,22.8,45.9,22.8,45.8,22.8z"/>
	</g>
	<g>
		<path class="st5" d="M83.3,33.8c-0.2,0-0.5-0.1-0.7-0.2c-0.6-0.4-0.9-1.2-0.5-1.9c1.9-3.3,4.2-6.4,6.4-9.4
			c0.9-1.2,1.7-2.3,2.6-3.5c0.4-0.6,1.3-0.8,1.9-0.3c0.6,0.4,0.8,1.3,0.3,1.9c-0.9,1.2-1.7,2.4-2.6,3.6c-2.2,2.9-4.4,6-6.3,9.2
			C84.2,33.5,83.8,33.8,83.3,33.8z"/>
	</g>
	<g>
		<path class="st5" d="M93.5,30.9c-0.2,0-0.3,0-0.5-0.1c-5.3-1.9-9.6-5.7-13.7-9.4c-0.6-0.5-0.6-1.4-0.1-1.9
			c0.5-0.6,1.4-0.6,1.9-0.1c4.1,3.7,7.9,7.1,12.8,8.9c0.7,0.3,1.1,1,0.8,1.7C94.6,30.6,94.1,30.9,93.5,30.9z"/>
	</g>
	<g>
		<path class="st5" d="M52.7,254.7c0.7,0,1.4-0.6,1.4-1.4c0-71.7,9.6-76.6,15.3-79.6c3.4-1.7,5.4-3.2,5.4-9.9c0-4.9-3-14.2-9.8-19.6
			c-0.6-0.5-1.4-0.4-1.9,0.2c-0.5,0.6-0.4,1.4,0.2,1.9c6,4.8,8.8,13.3,8.8,17.5c0,5.5-1.4,6.2-3.9,7.5c-3.2,1.6-7.6,3.9-11,15.2
			c-3.9,12.9-5.8,34.7-5.8,66.8C51.3,254.1,51.9,254.7,52.7,254.7z"/>
	</g>
	<g>
		<path class="st5" d="M61.4,161.2c0.7,0,1.3-0.6,1.4-1.3c0.1-2.7,0.3-5.4,0.5-8.1c0.4-5.7,0.8-11.5,0.8-17.3c0-0.3-0.1-31-9.7-31
			c-4.5,0-6.2,6.2-6.2,10c0,0,0,0.3,0.1,0.7c0.9,10.4,1.1,16.3,1.1,19.5c0,2.2-0.1,5.1-0.1,6.3c0,0.4,0,0.6,0,0.6
			c0,0.9,0,1.9,0.1,2.8c0,0.9,0.1,1.9,0.1,2.8c0,1,0,1.8-0.1,2.5c-0.1,0.7,0.5,1.4,1.2,1.5c0.7,0.1,1.4-0.5,1.5-1.2
			c0.1-0.8,0.1-1.7,0.1-2.8c0-0.9,0-1.9-0.1-2.9c0-0.9-0.1-1.8-0.1-2.7c0-0.1,0-0.3,0-0.6c0-1.2,0.1-4.2,0.1-6.4
			c0-3.3-0.2-9.3-1.1-19.8c0-0.3,0-0.5-0.1-0.6c0-3.4,1.5-7.3,3.5-7.3c2.1,0,4.1,4.1,5.4,11c1.3,6.7,1.6,14.2,1.6,17.3
			c0,5.7-0.4,11.5-0.8,17.1c-0.2,2.7-0.4,5.4-0.5,8.1C60,160.5,60.6,161.2,61.4,161.2C61.4,161.2,61.4,161.2,61.4,161.2z"/>
	</g>
	<g>
		<path class="st5" d="M39,148.3c0.6,0,1.2-0.4,1.3-1c0.4-1.7,0.5-3.5,0.5-5.2c0-0.4,0-0.8,0-1.2c0-0.4,0-0.8,0-1.2
			c0-3.4,0.5-5.1,0.8-6c0.3-0.7,0.7-1.1,1.1-1.1c1.8,0,5,4.6,5,9c0,0.2,0,0.4,0,0.7c0,0.7,0.5,1.4,1.3,1.4c0.7,0,1.4-0.5,1.4-1.3
			c0-0.3,0-0.6,0-0.8c0-5.1-3.8-11.7-7.8-11.7c-0.9,0-2.5,0.4-3.6,2.7c-0.7,1.6-1.1,4-1.1,7.1c0,0.4,0,0.8,0,1.2c0,0.4,0,0.8,0,1.2
			c0,1.5,0,3.1-0.4,4.5c-0.2,0.7,0.3,1.5,1,1.6C38.8,148.3,38.9,148.3,39,148.3z"/>
	</g>
	<g>
		<path class="st5" d="M23,246.3c0.7,0,1.3-0.6,1.4-1.3c0.5-8.4,0.8-17.2,0.8-26.9c0-24.4-2.5-71-2.5-71.4c0-5.9,1-8.7,3-8.7
			c2.1,0,3.6,1.9,4.5,5.7c0.3,1,0.8,1.5,1.6,1.4c1.2-0.2,1.2-1.2,1.2-2.3c0-0.6,0-1.5,0-2.8c0-3.1,1.4-4,2-4c1.4,0,3.3,3.1,3.5,5.2
			c0.1,0.7,0.7,1.3,1.5,1.2c0.7-0.1,1.3-0.7,1.2-1.5c-0.3-3.1-2.9-7.7-6.2-7.7c-1.6,0-3.8,1.2-4.5,4.5c-1.5-1.9-3.3-2.4-4.8-2.4
			c-5.7,0-5.7,8.4-5.7,11.5c0,0.5,2.5,47,2.5,71.4c0,9.6-0.2,18.4-0.8,26.7C21.6,245.6,22.2,246.2,23,246.3
			C22.9,246.3,23,246.3,23,246.3z"/>
	</g>
	<g>
		<path class="st5" d="M53.7,194.6c1.1,0,2.1,0,3.2,0c0.7,0,1.3-0.6,1.3-1.4c0-0.7-0.6-1.3-1.4-1.3h-0.3c0,0-0.1,0-0.1,0
			C45,192.1,33.8,191,23.3,190c-0.7-0.1-1.4,0.5-1.5,1.2c-0.1,0.7,0.5,1.4,1.2,1.5C32.8,193.7,43.1,194.6,53.7,194.6z"/>
	</g>
	<g>
		<path class="st5" d="M100.4,340c-1.9-1.7-2.9-4.1-2.9-6.8c0-2.6,1-5,2.7-6.7c1.7-1.7,4.1-2.6,6.7-2.5c0.9,0,1.8,0.2,2.7,0.6
			c1.1,0.5,2,1,2.6,1.6c2.3,2.2,3.5,5.5,3.2,8.6c-0.4,4.1-3.4,7.3-7.4,7.7c-0.3,0-0.7,0.1-1,0.1C104.5,342.5,102.1,341.6,100.4,340z
			 M108.5,327c-0.6-0.2-1.1-0.4-1.7-0.4c-1.9,0-3.5,0.6-4.7,1.8c-1.2,1.2-1.9,2.9-1.9,4.8c0,1.9,0.7,3.6,2,4.8
			c1.4,1.3,3.5,2,5.6,1.8c2.7-0.3,4.7-2.4,4.9-5.2c0.2-2.3-0.7-4.8-2.4-6.4C109.9,327.7,109.3,327.4,108.5,327z"/>
	</g>
	<g>
		<path class="st5" d="M12.9,373.9c-1.6-1.6-2.6-3.6-2.6-5.8c0-2.4,0.9-4.7,2.7-6.3c1.9-1.7,4.6-2.6,7.1-2.4c1,0.1,1.7,0.3,2.3,0.7
			c3,1.8,4.8,5.1,4.7,8.4c-0.2,4.3-3.6,7.7-7.9,7.9c-0.1,0-0.2,0-0.3,0C16.7,376.4,14.5,375.5,12.9,373.9z M19.8,362.1
			c-1.8-0.2-3.7,0.5-5,1.7c-0.8,0.8-1.9,2.1-1.8,4.3c0,1.5,0.6,2.9,1.8,3.9c1.2,1.1,2.8,1.7,4.3,1.7c2.9-0.1,5.2-2.4,5.3-5.3
			c0.1-2.4-1.2-4.7-3.3-6C20.9,362.3,20.6,362.2,19.8,362.1z"/>
	</g>
	<g>
		<path class="st5" d="M96.3,334l-1.3-0.1c-0.7,0-1.3-0.7-1.3-1.4c0-0.7,0.7-1.3,1.4-1.3l1.3,0.1c0.7,0,1.3,0.7,1.3,1.4
			C97.7,333.4,97.1,334,96.3,334C96.3,334,96.3,334,96.3,334z M86.8,333.5c-1.3-0.1-2.5-0.2-3.6-0.3c-0.7-0.1-1.3-0.7-1.2-1.5
			c0.1-0.7,0.7-1.3,1.5-1.2c1.2,0.1,2.4,0.2,3.6,0.3c0.7,0,1.3,0.7,1.3,1.4C88.2,333,87.6,333.5,86.8,333.5
			C86.9,333.5,86.8,333.5,86.8,333.5z M75,332.3c-1.3-0.2-2.5-0.5-3.6-0.8c-0.7-0.2-1.2-0.9-1-1.6c0.2-0.7,0.9-1.2,1.6-1
			c1.1,0.3,2.2,0.5,3.4,0.7c0.7,0.1,1.2,0.8,1.1,1.6c-0.1,0.7-0.7,1.1-1.3,1.1C75.1,332.3,75.1,332.3,75,332.3z M63.4,328.4
			c-1.1-0.7-2.2-1.4-3.1-2.3c-0.6-0.5-0.6-1.4-0.1-1.9c0.5-0.6,1.4-0.6,1.9-0.1c0.8,0.7,1.7,1.4,2.7,2c0.6,0.4,0.9,1.2,0.5,1.9
			c-0.3,0.4-0.7,0.7-1.2,0.7C63.9,328.6,63.7,328.5,63.4,328.4z M55.1,319.3c-0.5-1.1-1-2.2-1.5-3.5c-0.3-0.7,0.1-1.5,0.8-1.7
			c0.7-0.3,1.5,0.1,1.7,0.8c0.4,1.1,0.9,2.2,1.4,3.2c0.3,0.7,0.1,1.5-0.6,1.8c-0.2,0.1-0.4,0.1-0.6,0.1
			C55.8,320.1,55.4,319.8,55.1,319.3z M51.5,307.8c-0.2-1.1-0.4-2.4-0.6-3.6c-0.1-0.7,0.4-1.4,1.2-1.5c0.7-0.1,1.4,0.4,1.5,1.2
			c0.2,1.2,0.4,2.4,0.6,3.5c0.1,0.7-0.4,1.4-1.1,1.6c-0.1,0-0.2,0-0.2,0C52.2,308.9,51.6,308.4,51.5,307.8z M50.2,296
			c-0.1-1.2-0.1-2.4-0.2-3.6c0-0.7,0.6-1.4,1.3-1.4c0.7,0,1.4,0.6,1.4,1.3c0,1.2,0.1,2.4,0.2,3.6c0,0.7-0.5,1.4-1.3,1.4
			c0,0-0.1,0-0.1,0C50.8,297.2,50.2,296.7,50.2,296z M49.8,284.1l0-0.7c0-1,0-2,0-3c0-0.7,0.6-1.3,1.4-1.3c0.7,0,1.4,0.6,1.3,1.4
			c0,1,0,2,0,2.9l0,0.7c0,0.8-0.6,1.4-1.4,1.4C50.4,285.5,49.8,284.9,49.8,284.1z M51.3,273.7c-0.7,0-1.3-0.7-1.3-1.4
			c0-1.2,0.1-2.4,0.2-3.6c0-0.7,0.7-1.3,1.4-1.3c0.7,0,1.3,0.7,1.3,1.4c-0.1,1.2-0.1,2.4-0.2,3.6C52.7,273.1,52.1,273.7,51.3,273.7
			C51.4,273.7,51.4,273.7,51.3,273.7z M52,262c-0.7-0.1-1.3-0.7-1.3-1.5c0.1-1.2,0.2-2.4,0.3-3.6c0.1-0.7,0.7-1.3,1.5-1.2
			c0.7,0.1,1.3,0.7,1.2,1.5c-0.1,1.2-0.2,2.4-0.3,3.6c-0.1,0.7-0.6,1.3-1.4,1.3C52,262,52,262,52,262z"/>
	</g>
	<g>
		<path class="st5" d="M18.9,357.8c0-1.2,0-2.4,0-3.6c0-0.7,0.6-1.3,1.4-1.3c0.7,0,1.4,0.6,1.3,1.4c0,1.2,0,2.4,0,3.6
			c0,0.7-0.6,1.4-1.4,1.4C19.5,359.1,18.9,358.5,18.9,357.8z M19,346c0-1.2,0-2.4,0.1-3.6c0-0.8,0.7-1.3,1.4-1.3
			c0.7,0,1.3,0.6,1.3,1.4c0,1.2,0,2.4-0.1,3.6c0,0.7-0.6,1.3-1.4,1.3C19.6,347.4,19,346.7,19,346z M19.2,334.2l0.1-3.6
			c0-0.8,0.7-1.4,1.4-1.3c0.7,0,1.3,0.6,1.3,1.4l-0.1,3.6c0,0.7-0.6,1.3-1.4,1.3C19.8,335.6,19.2,335,19.2,334.2z M19.5,322.4
			l0.1-3.6c0-0.7,0.6-1.3,1.4-1.3c0.7,0,1.3,0.6,1.3,1.4l-0.1,3.6c0,0.7-0.6,1.3-1.4,1.3C20.1,323.8,19.5,323.2,19.5,322.4z
			 M21.2,312.1c-0.7,0-1.3-0.7-1.3-1.4l0.1-3.6c0-0.8,0.6-1.3,1.4-1.3c0.7,0,1.3,0.7,1.3,1.4l-0.1,3.6
			C22.6,311.5,22,312.1,21.2,312.1C21.2,312.1,21.2,312.1,21.2,312.1z M21.6,300.3c-0.7,0-1.3-0.7-1.3-1.4l0.1-3.6
			c0-0.7,0.6-1.3,1.4-1.3c0.7,0,1.3,0.7,1.3,1.4L23,299C23,299.7,22.4,300.3,21.6,300.3C21.6,300.3,21.6,300.3,21.6,300.3z
			 M22,288.6c-0.7,0-1.3-0.7-1.3-1.4l0.1-3.6c0-0.7,0.7-1.3,1.4-1.3c0.7,0,1.3,0.7,1.3,1.4l-0.1,3.6C23.4,288,22.8,288.6,22,288.6
			C22,288.6,22,288.6,22,288.6z M21.1,275.4l0.1-3.6c0-0.7,0.6-1.3,1.4-1.3c0.7,0,1.3,0.6,1.3,1.4l-0.1,3.6L21.1,275.4z M21.4,263.6
			c0-1.2,0.1-2.4,0.1-3.6c0-0.7,0.7-1.4,1.4-1.3c0.7,0,1.3,0.6,1.3,1.4c0,1.2-0.1,2.4-0.1,3.6c0,0.7-0.6,1.3-1.4,1.3
			C22,265,21.4,264.4,21.4,263.6z M21.6,251.9c0-1.2,0-2.4,0.1-3.6c0-0.7,0.6-1.3,1.4-1.3c0.7,0,1.3,0.6,1.3,1.4
			c0,1.2,0,2.4-0.1,3.6c0,0.7-0.6,1.3-1.4,1.3C22.2,253.3,21.6,252.6,21.6,251.9z"/>
	</g>
	<g>
		<path class="st5" d="M40.4,112.3c-5-0.1-9.7-2-13.2-5.5c-3.2-3.2-5.1-7.4-5.3-11.5c-0.3-9.4,6.9-17.9,16.4-19.3
			c1.1-0.2,2.3-0.2,3.4-0.2c8.1,0.3,16.9,6.1,17.4,16.2c0.3,5.4-1.7,10.7-5.5,14.6c-3.5,3.7-8.3,5.7-13.1,5.7
			C40.5,112.3,40.5,112.3,40.4,112.3z M38.7,78.7c-8,1.2-14.3,8.6-14,16.5c0.2,6.9,6.6,14.3,15.8,14.4c0,0,0.1,0,0.1,0
			c4,0,8.1-1.8,11.1-4.9c3.2-3.4,4.9-8,4.7-12.6c-0.4-8.5-7.9-13.3-14.8-13.6C40.6,78.5,39.7,78.5,38.7,78.7z"/>
	</g>
	<g>
		<path class="st5" d="M80.3,105.6c-0.3,0-0.6-0.1-0.9-0.3c-4-3.4-8.3-7.2-11.9-11.8c-0.5-0.6-0.4-1.4,0.2-1.9
			c0.6-0.5,1.4-0.4,1.9,0.2c3.1,4,6.7,7.3,10.3,10.4c1.2-2,2.4-4,3.6-5.9c2.4-4,5-8.1,7.4-12.2c0.4-0.6,1.2-0.9,1.9-0.5
			c0.6,0.4,0.9,1.2,0.5,1.9c-2.4,4.1-4.9,8.2-7.4,12.2c-1.5,2.4-3,4.8-4.4,7.3c-0.2,0.3-0.5,0.6-0.9,0.6
			C80.4,105.6,80.4,105.6,80.3,105.6z"/>
	</g>
	<g>
		<path class="st5" d="M33.7,92.6c-1.8,0-2.9-1.1-2.9-2.8c0-0.8,0.5-1.5,0.8-1.9c0.2-0.3,0.4-0.6,0.7-0.7c0.5-0.2,1.1-0.1,1.5,0.3
			c0.1,0.1,0.3,0.2,0.5,0.3c0.4,0.2,0.9,0.5,1.3,1.1c0.2,0.3,0.4,0.7,0.4,1.1C36,90.8,35.1,92.6,33.7,92.6z M33.6,89.9L33.6,89.9
			L33.6,89.9z M31.5,88.5C31.5,88.5,31.5,88.5,31.5,88.5C31.5,88.5,31.5,88.5,31.5,88.5z M31.5,88.5C31.5,88.5,31.5,88.5,31.5,88.5
			C31.5,88.5,31.5,88.5,31.5,88.5z"/>
	</g>
	<g>
		<path class="st5" d="M44.7,91.7c-1.3,0-2.7-1.2-2.7-2.7c0-1.1,0.8-1.8,1.4-2.4c0.1-0.1,0.2-0.2,0.3-0.3c0.4-0.4,0.9-0.5,1.4-0.3
			c1.3,0.4,2.2,1.8,2.2,3.1c0,1.3-0.9,2.3-2.2,2.6C45,91.7,44.9,91.7,44.7,91.7z M44.9,89L44.9,89L44.9,89z"/>
	</g>
	<g>
		<path class="st5" d="M38.5,103.3c-2.6,0-4.6-1.4-5.2-3.6c-0.2-0.7,0.2-1.5,0.9-1.7c0.7-0.2,1.5,0.2,1.7,0.9
			c0.4,1.4,1.8,1.6,2.6,1.6c2.4,0,4.1-1.6,6-3.6c0.3-0.3,0.6-0.6,0.9-0.9c0.5-0.5,1.4-0.5,1.9,0c0.5,0.5,0.5,1.4,0,1.9
			c-0.3,0.3-0.6,0.6-0.9,0.9C44.4,101.1,42.1,103.4,38.5,103.3z"/>
	</g>
</g>
</svg>
