<?xml version="1.0" encoding="utf-8"?>
<!-- Generator: Adobe Illustrator 22.1.0, SVG Export Plug-In . SVG Version: 6.00 Build 0)  -->
<svg version="1.1" id="Layer_1" xmlns="http://www.w3.org/2000/svg" xmlns:xlink="http://www.w3.org/1999/xlink" x="0px" y="0px"
	 viewBox="0 0 479.4 132.5" style="enable-background:new 0 0 479.4 132.5;" xml:space="preserve">
<style type="text/css">
	.st0{fill:#2E2223;}
	.st1{fill:#FFCB0A;}
	.st2{fill:#FFFFFF;}
	.st3{fill:none;stroke:#FFCB0A;stroke-width:2;stroke-linecap:round;stroke-miterlimit:10;stroke-dasharray:4;}
</style>
<g>
	<path class="st1" d="M149.3,110.7c-2.4,0.3-4.7,0.7-6.9,1.1c-5.5,0.9-10.8,1.8-15.4,1.2c-0.2,0-0.4-0.1-0.6-0.3
		C111.5,99.3,103.2,93,96.7,90.2c1.1-0.5,2-0.9,2.7-1.2c1.8,0.9,3.8,2,5.9,3.5c-0.2,0.3-0.4,0.6-0.6,0.8c-0.4,0.5-0.3,1.2,0.2,1.6
		c0.4,0.3,0.9,0.3,1.3,0c0.1-0.1,0.2-0.1,0.3-0.2c0.2-0.3,0.5-0.6,0.7-0.9c5.2,3.7,11.7,9.2,20.4,17c4.2,0.5,9.2-0.3,14.4-1.2
		c2-0.3,4-0.7,6.1-1c0.1,0.4,0.2,0.8,0.4,1.3c0.2,0.6,0.8,0.9,1.4,0.7c0.1,0,0.2-0.1,0.3-0.1c0.4-0.3,0.6-0.8,0.4-1.3
		c-0.1-0.2-0.1-0.4-0.2-0.6c0.1,0.1,0.2,0.1,0.3,0.2c1.6,2,5.5,6.4,10.5,6.6c-2.3-4.1-4.7-8-7.1-11.9c-1.7-0.1-3.5-0.2-5.2-0.2
		c-0.1-0.5-0.2-0.9-0.3-1.4c-0.1-0.5-0.5-0.8-1-0.9c2.4,0,4.8,0.1,7.2,0.2c0.4,0,0.7,0.2,0.9,0.5c2.9,4.6,5.6,9.2,8.3,14
		c0.2,0.3,0.2,0.7,0,1c-0.1,0.2-0.2,0.3-0.4,0.4c-0.1,0.1-0.3,0.1-0.4,0.2C158.5,118.2,153.4,115.8,149.3,110.7z"/>
	<path class="st1" d="M146.4,102.4c0.1,0.3,0.1,0.6,0.2,0.9c-4.7,0-9.4,0.2-14.2,0.4l-0.3,0c-0.3,0-0.6-0.1-0.9-0.3
		c-3.1-3.2-6-6.6-8.9-9.9c-2.1-2.4-4.3-4.9-6.5-7.3c-0.3-0.3-0.4-0.8-0.2-1.2c0.2-0.4,0.5-0.7,1-0.7c21-1.1,40.9,4.5,49.7,11.1
		c-0.2,0.3-0.5,0.5-0.7,0.8c-0.4,0.5-0.3,1.2,0.2,1.6c0.4,0.3,0.9,0.3,1.3,0.1c0.1-0.1,0.2-0.1,0.2-0.2c0.2-0.3,0.5-0.5,0.7-0.8
		c0.7,0.7,1.4,1.4,1.8,2.1c0.1,0.1,0.2,0.2,0.2,0.3c0.2,0.4,0.4,0.7,0.6,1.1c0.4,0.6,0.9,1.1,1.4,1.7c2.2-2.5,4.5-5,7.4-7.9
		c-2.4-1.1-5.5-1.5-7.8,0c-0.4,0.2-0.9,0.2-1.2,0c0.3-0.3,0.5-0.5,0.8-0.8c0.4-0.4,0.5-1.1,0-1.6c0,0,0,0,0,0
		c3.5-1.7,7.9-0.7,10.6,1.2c0.3,0.2,0.5,0.5,0.5,0.8c0,0.3-0.1,0.7-0.3,0.9c-3.6,3.6-6.5,6.7-9,9.7c-0.4,0.5-1.1,0.5-1.5,0.2
		c-1.1-0.8-2-1.8-2.7-2.9c-0.3-0.4-0.5-0.8-0.7-1.3c0,0-0.1-0.1-0.1-0.1c-2.4-3.6-9.2-7.3-18.3-10c-9.4-2.8-20.3-4.1-30.7-3.8
		c1.7,1.9,3.3,3.8,4.9,5.6c2.7,3.2,5.5,6.4,8.5,9.5c4.9-0.2,9.9-0.4,14.9-0.4c-0.1,0-0.1,0-0.2,0
		C146.6,101.2,146.2,101.8,146.4,102.4z"/>
	<path class="st1" d="M169.8,91.6c-0.3,0.3-0.5,0.5-0.8,0.8c-7.6-7.6-21.8-17.3-38.9-21.5c-3.2-0.8-8.4-1.3-13.9-1.9
		c-1.6-0.2-3.1-0.3-4.5-0.5c0.1-0.2,0.2-0.4,0.3-0.6c0.3-0.5,0.1-1.2-0.4-1.5c-0.5-0.3-1.2-0.1-1.5,0.4c-0.3,0.5-0.5,1-0.7,1.5
		c-1.9-0.2-3.6-0.5-5.1-0.7c0.3,0,0.5,0,0.7-0.2c0.2-0.1,0.3-0.3,0.4-0.5c0.2-0.4,0.4-0.9,0.5-1.3c3.5,0.5,7.3,0.9,10.6,1.3
		c5.6,0.6,10.8,1.1,14.2,2c18.2,4.5,33.1,15,40.7,22.9C170.9,91.2,170.2,91.1,169.8,91.6z"/>
	<path class="st1" d="M107.9,57.4c-0.1-0.1-0.3-0.1-0.4-0.1c12.3-1.1,18.6,0,22.9,1c-0.1,0.3-0.2,0.7-0.3,1
		c-0.2,0.6,0.2,1.2,0.7,1.4c0.3,0.1,0.7,0,0.9-0.1c0.2-0.1,0.4-0.3,0.4-0.6c0.1-0.4,0.2-0.8,0.3-1.1c3.7,0.9,6.4,1.3,12.4-1
		c-0.2-1-0.6-2.1-1.3-3.1c-3.2,0.7-6.8,1.4-10.1-0.3c0.1-0.5,0.2-1,0.3-1.4c0.1-0.6-0.3-1.2-0.9-1.3c-0.6-0.1-1.2,0.3-1.3,0.9
		c-0.1,0.3-0.1,0.6-0.2,0.9c-19.7-8.8-36.8-1.8-49.4,3.4c-1.9,0.8-3.7,1.5-5.4,2.1c0.1-0.1,0.2-0.2,0.3-0.4c0.4-0.9,0.8-1.8,1.2-2.6
		c1-0.4,2-0.8,3-1.2c1.5-0.6,3.1-1.3,4.7-1.9c0.9,0.3,1.8,0.7,2.8,1c0.4,0.1,0.7,0.1,1-0.1c0.2-0.1,0.3-0.3,0.4-0.5
		c0.2-0.6-0.1-1.2-0.6-1.4c-0.1-0.1-0.3-0.1-0.4-0.1c6.4-2.3,13.6-4.4,21.5-4.6c-0.1,0.2-0.2,0.5-0.3,0.7c-0.2,0.6,0.1,1.2,0.7,1.4
		c0.3,0.1,0.7,0.1,1-0.1c0.2-0.1,0.3-0.3,0.4-0.5c0.2-0.5,0.4-1,0.5-1.5c6.7,0.1,13.9,1.6,21.5,5.4c2.9,1.4,6.2,0.7,9.4-0.1
		c0.4-0.1,0.9,0.1,1.2,0.4l0.2,0.2c1.3,1.9,1.9,3.7,2,5.5c0,0.5-0.3,0.9-0.7,1.1c-7.7,3.1-10.7,2.3-15.3,1.2
		c-4.4-1.1-10.1-2.5-22.9-1.3c0.1-0.2,0.2-0.4,0.3-0.6C108.8,58.2,108.5,57.6,107.9,57.4z"/>
	<path class="st1" d="M93.7,63.6c-1-1.5-0.8-3.2,0.7-4.1c0.9-0.6,2-0.8,2.8-1c3.8-0.6,7.2-1,10.3-1.3c-0.4,0-0.8,0.3-0.9,0.7
		c-0.2,0.6-0.5,1.1-0.7,1.7c-2.5,0.3-5.3,0.6-8.3,1.1c-0.8,0.1-1.5,0.3-1.8,0.6c-0.2,0.2-0.5,0.3,0,1c0.8,1.1,4,2,8,2.7
		c-0.1,0.3-0.2,0.6-0.3,0.8c-0.2,0.6,0,1.2,0.6,1.5c0.1,0,0.1,0,0.2,0C98.5,66.5,94.9,65.4,93.7,63.6z"/>
	<path class="st1" d="M90,86.6C90,86.6,90.1,86.6,90,86.6C90.1,86.6,90,86.6,90,86.6z"/>
	<path class="st1" d="M19.1,84c0,0.3,0,0.6,0.1,1c-1.1-0.1-2.2-0.1-3.2-0.2c-3.1-0.3-5.2-2.3-6.9-4c-2.1-2-2.9-2.7-4.2-1.8
		c-1.2,0.8-3.9,4.9-2.1,7.5c2.4,3.6,9,2.6,12.8,0.5c0.2-0.1,0.5-0.2,0.7-0.1c1,0.2,2,0.3,3,0.5c0,0.5,0,0.9,0.1,1.4
		c0,0.5,0.4,1,0.9,1c-1.3-0.2-2.6-0.4-3.9-0.6c-2.4,1.3-5.3,2-7.9,2c-3.4,0-6-1.1-7.5-3.4c-2.6-3.9,0.8-9.3,2.8-10.6
		c2.9-1.9,5,0.2,7,2.1c1.6,1.5,3.2,3.1,5.5,3.3c1.4,0.1,2.8,0.2,4.2,0.3c-0.1,0-0.1,0-0.2,0C19.5,82.8,19.1,83.4,19.1,84z"/>
	<path class="st1" d="M21.2,89.5c0.3-0.2,0.5-0.6,0.5-1c0-0.3,0-0.6,0-0.9c31.1,4.5,46.1,1.8,56.2-0.1c3.3-0.6,6.1-1.1,8.8-1.3
		c0.7,0.7,1.4,1.4,2.1,2.2c-3.2-0.1-6.4,0.5-10.5,1.3c-3.2,0.6-6.9,1.3-11.3,1.8c0-0.3,0.1-0.6,0.1-0.8c0.1-0.6-0.3-1.2-0.9-1.3
		c-0.6-0.1-1.2,0.3-1.3,0.9c-0.1,0.5-0.1,1-0.2,1.4c-9.9,0.9-23.6,1-44.2-2c0.1,0,0.1,0,0.2,0C20.8,89.7,21,89.6,21.2,89.5z"/>
	<path class="st1" d="M75.5,59.1c0.1,0.1,0.3,0.1,0.4,0.1c-6.9,2.5-12.3,3.3-15.7-1.7c-0.9-1.4-1-3.1-1.1-4.5
		c-0.1-1.3-0.1-2.5-0.7-3.4c-0.9-1.3-1.6-1.1-2.9-0.7c-1.2,0.4-3,1-4.6-0.8c-2.8-3.1-10.8-9.4-24.1-0.4c-3.5,2.4-5.4,4.4-6.8,6
		c-0.1,0.1-0.2,0.2-0.3,0.3c2.2,0,4.3-0.2,6.3-0.5c-0.1,0.1-0.2,0.2-0.3,0.3c-0.4,0.5-0.4,1.2,0.1,1.6c0.4,0.4,1,0.4,1.4,0.1
		c0.1,0,0.1-0.1,0.2-0.2c0.2-0.2,0.4-0.4,0.6-0.6c0.1,0.3,0.2,0.6,0.3,0.9c0.8,1.2,2.2,1.4,3.4,1.5c1.1,0.1,2.2,0.3,2.8,1.2
		c0.6,0.9,0.3,1.8-0.3,2.2L33.4,61c-1.4,0.9-2,1.9-1.8,2.2c0.5,0.8,2.7,0.7,4.5,0.6c2.8-0.2,5.9-0.4,7.5,2c0.4,0.5,0.6,1.1,0.8,1.6
		c0.2,0.4,0.3,0.8,0.5,1.1c1,1.5,3.6,0.9,7.4-0.1c4.2-1.1,9.4-2.6,12.2,1.5c1.9,2.9-1,8.2-4.8,10.7c-6.6,4.4-24.8,5.1-38.3,4.4
		c0-0.4-0.1-0.9-0.1-1.3c0-0.5-0.5-1-1-1c15.1,0.9,32.5-0.2,38.1-4c3.1-2.1,5.1-6.2,4.2-7.6c-1.7-2.6-5-1.9-9.8-0.6
		c-3.8,1-7.8,2.1-9.8-0.8c-0.3-0.5-0.5-1-0.7-1.5c-0.2-0.4-0.3-0.9-0.6-1.2c-0.8-1.3-3.2-1.1-5.5-1c-2.6,0.2-5.3,0.3-6.5-1.6
		c-1-1.5-0.2-3.5,2.2-5.2c-0.1,0-0.3,0-0.4,0c-1.4-0.2-3.6-0.4-5-2.5c-0.2-0.3-0.4-0.7-0.5-1c-2.8,0.4-5.9,0.6-9,0.4
		c-0.5,0-0.9-0.3-1-0.8c-0.1-0.4,0-0.9,0.4-1.2c0.7-0.5,1.3-1.2,2-2c1.5-1.6,3.5-3.8,7.2-6.3c10.3-6.9,20.4-6.6,27,0.8
		c0.5,0.6,1,0.5,2.3,0.1c1.4-0.5,3.6-1.1,5.4,1.6c0.9,1.4,1,3.1,1.1,4.5c0.1,1.3,0.1,2.5,0.7,3.4c2.5,3.7,6.6,3.2,13.1,0.8
		c-0.1,0.2-0.2,0.4-0.3,0.5C74.7,58.2,74.9,58.8,75.5,59.1z"/>
	<path class="st1" d="M131.5,53.4c0.1-0.3,0.1-0.6,0.2-0.9c0.1-0.6,0.7-1,1.3-0.9c0.6,0.1,1,0.7,0.9,1.3c-0.1,0.5-0.2,0.9-0.3,1.4
		c-0.3,1.4-0.6,2.9-1,4.4c-0.1,0.4-0.2,0.8-0.3,1.1c-0.1,0.3-0.2,0.5-0.4,0.6c-0.3,0.2-0.6,0.2-0.9,0.1c-0.6-0.2-0.9-0.8-0.7-1.4
		c0.1-0.3,0.2-0.7,0.3-1C130.8,56.6,131.2,55,131.5,53.4z"/>
	<path class="st1" d="M21.4,83.8c0,0.4,0.1,0.9,0.1,1.3c0.1,0.8,0.1,1.7,0.2,2.5c0,0.3,0,0.6,0,0.9c0,0.4-0.2,0.8-0.5,1
		c-0.2,0.1-0.4,0.2-0.6,0.2c-0.1,0-0.1,0-0.2,0c0,0,0,0-0.1,0c-0.5-0.1-0.9-0.5-0.9-1c0-0.4,0-0.9-0.1-1.4c0-0.8-0.1-1.5-0.1-2.3
		c0-0.3,0-0.6-0.1-1c-0.1-0.6,0.4-1.2,1-1.2c0.1,0,0.1,0,0.2,0C20.9,82.8,21.3,83.3,21.4,83.8z"/>
	<path class="st1" d="M92.6,90.4c-0.2,0.4-0.5,0.9-0.7,1.3c0.3,0.2,0.7,0.2,1,0.1c1.1-0.5,2-0.9,2.8-1.2c0.3-0.1,0.7-0.3,1-0.4
		c1.1-0.5,2-0.9,2.7-1.2c0.4-0.2,0.7-0.4,0.9-0.5c1.7-1.1,1.8-2.3,1.4-5.2c-0.2-1.4-0.5-3.4-0.6-6.3c0-0.5-0.3-0.9-0.7-1
		c-4.2-1.5-7.9-2.6-11.2-3.6c-9.3-2.9-15.5-4.8-19.3-9.6c-0.2-0.3-0.6-0.4-0.9-0.4c-0.4,0-0.7,0.2-0.9,0.5L68,63
		c-1.3,1.9-2.9,4.3-2.7,6.4c0,0.3,0.1,0.6,0.3,0.9c0.3,0.4,0.7,0.7,1.1,0.5c0.5,0,5.6,0.7,19.8,15.5c0.7,0.7,1.4,1.4,2.1,2.2
		c0.5,0.5,1,1.1,1.5,1.6c0.1-0.2,0.3-0.5,0.4-0.7c0.3-0.5,1-0.7,1.5-0.4C92.7,89.2,92.9,89.9,92.6,90.4z M92.7,89.5
		c-0.9-1-1.8-2-2.7-2.9c-7.9-8.4-13.4-12.9-17-15.4c-0.1,0.3-0.3,0.6-0.4,0.9c-0.1,0.2-0.2,0.3-0.4,0.4c-0.3,0.2-0.8,0.3-1.1,0.1
		c-0.6-0.3-0.8-0.9-0.5-1.5c0.2-0.4,0.4-0.7,0.5-1.1c-1.6-0.9-2.8-1.3-3.5-1.4c0.1-1,0.9-2.2,1.6-3.3c0.9,0.9,1.9,1.8,2.9,2.5
		c0.1-0.3,0.2-0.5,0.3-0.8c0.2-0.6,0.9-0.9,1.4-0.7c0.6,0.2,0.9,0.9,0.7,1.4c-0.2,0.4-0.3,0.8-0.5,1.2c3.8,2.1,8.5,3.6,14.5,5.5
		c3.1,1,6.6,2,10.4,3.4c0.1,2.6,0.4,4.4,0.6,5.8c0.2,1.7,0.3,2.3,0,2.7c-0.5,0.6-2.1,1.2-4.7,2.3C94.2,88.8,93.5,89.1,92.7,89.5z"/>
	<path class="st1" d="M72.6,72.1c-0.1,0.2-0.2,0.3-0.4,0.4c-0.3,0.2-0.8,0.3-1.1,0.1c-0.6-0.3-0.8-0.9-0.5-1.5
		c0.2-0.4,0.4-0.7,0.5-1.1c0.4-0.8,0.7-1.5,1-2.2c0.1-0.3,0.2-0.5,0.3-0.8c0.2-0.6,0.9-0.9,1.4-0.7c0.6,0.2,0.9,0.9,0.7,1.4
		c-0.2,0.4-0.3,0.8-0.5,1.2c-0.3,0.7-0.6,1.4-1,2.2C72.9,71.5,72.7,71.8,72.6,72.1z"/>
	<path class="st1" d="M50.5,54.2c-0.2,0.1-0.5,0.2-0.8,0.2c-0.6-0.1-1-0.6-1-1.3c0.1-0.9-0.1-1.9-0.7-2.7C46.5,48,44.2,48,41.6,48
		c-0.6,0-1.3,0-1.9-0.1c-0.6,0-1.1-0.6-1-1.2c0-0.6,0.6-1.1,1.2-1c0.6,0,1.2,0,1.7,0.1c2.9,0.1,6.1,0.1,8.3,3.4
		c0.9,1.3,1.3,2.9,1.1,4.3C51,53.7,50.8,54,50.5,54.2z"/>
	<path class="st1" d="M35.1,46.9c0.5-0.3,1.2-0.1,1.5,0.4c0.3,0.5,0.1,1.2-0.4,1.5c-1.4,0.8-2.8,1.6-4.2,2.6c-1.6,1.1-2.9,2.2-4,3.2
		c-0.2,0.2-0.4,0.4-0.6,0.6c-0.1,0.1-0.1,0.1-0.2,0.2c-0.4,0.3-1,0.3-1.4-0.1c-0.5-0.4-0.5-1.1-0.1-1.6c0.1-0.1,0.2-0.2,0.3-0.3
		c1.3-1.3,2.8-2.6,4.8-3.9C32.3,48.5,33.7,47.7,35.1,46.9z"/>
	<path class="st1" d="M107.7,80.2c0-4.1,0.1-8.4,1.6-12.1c0.2-0.5,0.4-1,0.7-1.5c0.3-0.5,1-0.7,1.5-0.4c0.5,0.3,0.7,1,0.4,1.5
		c-0.1,0.2-0.2,0.4-0.3,0.6c-1.7,3.4-1.7,7.5-1.8,11.8c0,2.9,0,6-0.6,8.9c-0.4,1.9-1.3,3.4-2.2,4.7c-0.2,0.3-0.5,0.6-0.7,0.9
		c-0.1,0.1-0.2,0.2-0.3,0.2c-0.4,0.3-0.9,0.3-1.3,0c-0.5-0.4-0.6-1.1-0.2-1.6c0.2-0.3,0.4-0.5,0.6-0.8c0.8-1.1,1.5-2.4,1.8-3.9
		C107.7,86,107.7,83.1,107.7,80.2z"/>
	<path class="st1" d="M171.4,93.2c-0.3,0.2-0.5,0.5-0.8,0.8c-0.8,0.8-1.6,1.7-2.5,2.7c-0.2,0.3-0.5,0.5-0.7,0.8
		c-0.1,0.1-0.2,0.2-0.2,0.2c-0.4,0.3-0.9,0.3-1.3-0.1c-0.5-0.4-0.5-1.1-0.2-1.6c0.2-0.3,0.5-0.6,0.7-0.8c0.9-1.1,1.8-2,2.6-2.9
		c0.3-0.3,0.5-0.5,0.8-0.8c0.4-0.4,1.1-0.4,1.6,0C171.8,92.1,171.8,92.8,171.4,93.2z"/>
	<path class="st1" d="M148.5,101.9c0.1,0.5,0.2,0.9,0.3,1.4c0.4,1.7,0.9,3.4,1.5,5.3c0.1,0.2,0.1,0.4,0.2,0.6c0.2,0.5,0,1-0.4,1.3
		c-0.1,0.1-0.2,0.1-0.3,0.1c-0.6,0.2-1.2-0.1-1.4-0.7c-0.1-0.4-0.3-0.8-0.4-1.3c-0.6-1.9-1-3.6-1.5-5.3c-0.1-0.3-0.1-0.6-0.2-0.9
		c-0.1-0.6,0.2-1.2,0.8-1.3c0.1,0,0.1,0,0.2,0c0.1,0,0.1,0,0.2,0C148,101.1,148.4,101.4,148.5,101.9z"/>
	<path class="st1" d="M79.8,50.5c0.3,0.1,0.6,0.2,0.9,0.3c-0.9,1.7-1.7,3.4-2.5,5c-0.4,0.9-0.8,1.8-1.2,2.6
		c-0.1,0.1-0.2,0.3-0.3,0.4c-0.2,0.2-0.5,0.3-0.8,0.3c-0.2,0-0.3,0-0.4-0.1c-0.6-0.3-0.8-0.9-0.5-1.5c0.1-0.2,0.2-0.4,0.3-0.5
		c1.2-2.7,2.6-5.3,4-8c0,0,0,0,0,0.1C79,49.7,79.3,50.3,79.8,50.5z"/>
	<path class="st1" d="M114.6,39.2c-0.4-0.1-0.7-0.3-1.1-0.4c1.6-4.8,2.9-8.8,3.9-12.3c0.5-1.5,0.9-2.8,1.3-4.1l0.9,0.4
		c0.4,0.2,0.8,0.1,1.1-0.1c0.2-0.1,0.3-0.3,0.4-0.5c0.3-0.6,0-1.2-0.6-1.5l-1.1-0.5c1.6-4.9,3.2-9.1,5.9-13.9
		c-0.8-0.3-1.6-0.6-2.4-0.9c-2.5-0.9-5.1-1.8-7.6-2.8c-3.4,3.9-6.7,7.7-9.7,11.4c-0.5-0.2-0.9-0.4-1.4-0.6c-0.6-0.2-1.2,0-1.5,0.6
		c-0.2,0.6,0,1.2,0.6,1.5c0.3,0.1,0.5,0.2,0.8,0.3C100.1,21,96.4,26,93,30.9c-0.4-0.2-0.8-0.3-1.2-0.5c-0.6-0.3-1.2,0-1.5,0.6
		c-0.3,0.6,0,1.2,0.6,1.5c0.3,0.1,0.6,0.2,0.9,0.4c-3.7,5.5-7,10.8-9.9,16.1c-0.4-0.1-0.8-0.3-1.2-0.4c-0.5-0.2-1,0-1.3,0.4
		c8.2-15.3,19.6-31.2,34.8-48.2c0.3-0.4,0.8-0.5,1.3-0.3c2.7,1.1,5.5,2.1,8.2,3c1.2,0.4,2.5,0.9,3.7,1.3c0.3,0.1,0.6,0.4,0.7,0.7
		c0.1,0.3,0.1,0.7-0.1,0.9c-4,7.1-5.7,12.6-8.3,20.9c-1.2,3.7-2.5,8.1-4.3,13.5C115.5,40.1,115.2,39.4,114.6,39.2z"/>
	<path class="st1" d="M112.1,49c-0.3,0.2-0.7,0.3-1,0.1c-0.6-0.2-0.9-0.9-0.7-1.4c0.1-0.2,0.2-0.5,0.3-0.7c0.8-2.1,1.5-4.2,2.1-6
		c0.3,0.1,0.7,0.3,1,0.4c0.4,0.1,0.7,0.1,1-0.1c0.2-0.1,0.3-0.3,0.4-0.5c-0.7,2-1.4,4.1-2.2,6.3c-0.2,0.5-0.4,1-0.5,1.5
		C112.4,48.7,112.3,48.9,112.1,49z"/>
	<path class="st1" d="M104.9,67.3c-0.2,0.1-0.5,0.2-0.7,0.2c-0.1,0-0.1,0-0.2,0c-0.1,0-0.1,0-0.2,0c-0.6-0.2-0.8-0.9-0.6-1.5
		c0.1-0.3,0.2-0.6,0.3-0.8c0.8-1.8,1.5-3.6,2.2-5.4c0.2-0.6,0.5-1.1,0.7-1.7c0.2-0.4,0.5-0.6,0.9-0.7c0,0,0.1,0,0.1,0
		c0.1,0,0.3,0,0.4,0.1c0.6,0.2,0.9,0.9,0.6,1.5c-0.1,0.2-0.2,0.4-0.3,0.6c-0.8,2-1.6,4-2.4,6c-0.2,0.4-0.4,0.9-0.5,1.3
		C105.2,67,105.1,67.1,104.9,67.3z"/>
	<path class="st1" d="M80.4,114.9c-0.3-0.2-0.7-0.3-1-0.4c1.2-2.8,2.4-5.6,3.6-8.5c0.6-1.5,1.3-3,1.9-4.5l1.1,0.4
		c0.4,0.1,0.7,0.1,1-0.1c0.2-0.1,0.3-0.3,0.4-0.5c0.2-0.6,0-1.2-0.6-1.5l-1-0.4c1.5-3.5,3-6.7,4.5-9.4c0.1-0.2,0.3-0.5,0.4-0.7
		c0.3-0.5,1-0.7,1.5-0.4c0.5,0.3,0.7,1,0.4,1.5c-0.2,0.4-0.5,0.9-0.7,1.3c-2.2,4.2-4.5,9.5-6.8,15.1c-1.3,3.2-2.7,6.4-4.1,9.5
		C81.2,115.8,81,115.2,80.4,114.9z"/>
	<path class="st1" d="M63.6,109.2c0.5,0.3,1.1,0.6,1.6,0.9c-0.1,2-0.1,3.9-0.2,5.8c0,1.6-0.1,3.1-0.2,4.7c0.9,0.4,1.8,0.9,2.7,1.3
		c2.2,1,4.4,2.1,6.6,3.1c1.5-2.5,2.9-5.3,4.3-8.4c0.3,0.2,0.7,0.3,1,0.5c0.4,0.2,0.8,0.1,1.1-0.1c0.2-0.1,0.3-0.3,0.4-0.5
		c-1.8,3.9-3.5,7.6-5.4,10.6c-0.1,0.1-0.2,0.3-0.3,0.3c-0.3,0.2-0.7,0.3-1.1,0.1c-2.6-1.1-5.1-2.3-7.6-3.5c-1.1-0.5-2.2-1.1-3.4-1.6
		c-0.4-0.2-0.7-0.6-0.6-1.1c0.1-1.8,0.1-3.6,0.2-5.4c0.1-2.4,0.2-5,0.3-7.6C63,108.6,63.2,109,63.6,109.2z"/>
	<path class="st1" d="M66.1,89.3c0.6,0.1,1,0.7,0.9,1.3c0,0.3-0.1,0.6-0.1,0.8c-0.9,5.7-1.3,11.1-1.6,16.1c-0.2-0.1-0.4-0.2-0.6-0.3
		c-0.5-0.3-1.2-0.1-1.5,0.4c-0.1,0.1-0.1,0.3-0.1,0.4c0.2-5.1,0.7-10.6,1.5-16.4c0.1-0.5,0.1-1,0.2-1.4
		C64.9,89.6,65.5,89.2,66.1,89.3z"/>
	<path class="st1" d="M104.1,15.9c-0.3-0.1-0.5-0.2-0.8-0.3c-0.6-0.2-0.8-0.9-0.6-1.5c0.2-0.6,0.9-0.8,1.5-0.6
		c0.5,0.2,0.9,0.4,1.4,0.6c4.4,1.8,8.8,3.8,13,5.7l0.8,0.4l1.1,0.5c0.6,0.3,0.8,0.9,0.6,1.5c-0.1,0.2-0.2,0.4-0.4,0.5
		c-0.3,0.2-0.7,0.3-1.1,0.1l-0.9-0.4l-1.1-0.5C113.3,19.9,108.7,17.8,104.1,15.9z"/>
	<path class="st1" d="M113.8,41.3c-0.3-0.1-0.7-0.3-1-0.4c-1.4-0.5-2.7-1-4.1-1.5c-5.6-2.1-11.4-4.2-17-6.7
		c-0.3-0.1-0.6-0.2-0.9-0.4c-0.6-0.3-0.8-0.9-0.6-1.5c0.3-0.6,0.9-0.8,1.5-0.6c0.4,0.2,0.8,0.3,1.2,0.5c5.4,2.4,11.1,4.5,16.5,6.5
		c1.3,0.5,2.7,1,4,1.5c0.4,0.1,0.7,0.3,1.1,0.4c0.6,0.2,0.9,0.9,0.7,1.4c-0.1,0.2-0.2,0.4-0.4,0.5C114.5,41.4,114.2,41.5,113.8,41.3
		z"/>
	<path class="st1" d="M80.6,48.4c0.4,0.2,0.8,0.3,1.2,0.4c0.8,0.3,1.7,0.6,2.5,0.9c1.6,0.6,3.2,1.2,4.8,1.8c0.1,0.1,0.3,0.1,0.4,0.1
		c0.6,0.2,0.9,0.9,0.6,1.4c-0.1,0.2-0.2,0.4-0.4,0.5c-0.3,0.2-0.7,0.3-1,0.1c-0.9-0.4-1.8-0.7-2.8-1c-0.8-0.3-1.6-0.6-2.4-0.9
		c-0.9-0.3-1.9-0.7-2.8-1c-0.3-0.1-0.6-0.2-0.9-0.3c-0.6-0.2-0.9-0.9-0.7-1.4c0,0,0,0,0-0.1c0-0.1,0.1-0.1,0.1-0.2
		C79.6,48.4,80.1,48.3,80.6,48.4z"/>
	<path class="st1" d="M70.3,95c-0.5-0.3-0.7-1-0.4-1.5c0.3-0.5,1-0.7,1.5-0.4c4.3,2.4,8.9,4.2,13.3,6l1.1,0.5l1,0.4
		c0.6,0.2,0.8,0.9,0.6,1.5c-0.1,0.2-0.2,0.4-0.4,0.5c-0.3,0.2-0.7,0.3-1,0.1l-1.1-0.4l-1.1-0.4C79.3,99.3,74.7,97.4,70.3,95z"/>
	<path class="st1" d="M64.7,107.3c0.2,0.1,0.4,0.2,0.6,0.3c4.1,2.2,8.6,4.4,14.1,6.9c0.3,0.2,0.7,0.3,1,0.4c0.6,0.2,0.8,0.9,0.6,1.5
		c-0.1,0.2-0.2,0.4-0.4,0.5c-0.3,0.2-0.7,0.3-1.1,0.1c-0.4-0.2-0.7-0.3-1-0.5c-5.1-2.2-9.4-4.3-13.3-6.4c-0.5-0.3-1.1-0.6-1.6-0.9
		c-0.4-0.2-0.6-0.6-0.6-1c0,0,0-0.1,0-0.1c0-0.1,0.1-0.3,0.1-0.4C63.5,107.2,64.2,107,64.7,107.3z"/>
	<g>
		<g>
			<path class="st2" d="M69.4,65.1c-1.7,0.6-2.6,2.8-1.3,4.2c1.3,1.3,3.4,0.7,4-0.9c0.3-0.7-0.3-1.7-1-1.8c-0.8-0.2-1.6,0.3-1.8,1
				c0.1-0.2,0.5-0.6,0.4-0.5c-0.1,0.1,0.2-0.1,0.2-0.1c0.1,0,0.1,0,0,0c0.1,0,0.1,0,0.2,0c0.1,0.1,0.3,0.1,0.4,0.3
				c0.1,0.1,0.1,0.2,0.1,0.3c0,0.1-0.1,0.3,0,0.1c0,0.1-0.1,0.2-0.1,0.2c0.1-0.2,0,0-0.2,0.1c0.8-0.3,1.3-1,1-1.8
				C71.1,65.4,70.2,64.8,69.4,65.1L69.4,65.1z"/>
		</g>
	</g>
	<g>
		<path class="st2" d="M98,76.4C90.9,72.6,81.7,71.1,74,69c-1.9-0.5-2.7,2.4-0.8,2.9c0.2,0.1,0.4,0.1,0.6,0.2
			c-0.2,0.5-0.1,1.1,0.3,1.5c2.9,2.8,5.9,5.6,9,8.1c1.2,1,2.5,1.9,3.7,2.9c1.6,1.2,2.5,2.7,3.8,3.9c1.1,1,1.3,1.1,2.8,0.9
			c1.7-0.2,5.9-1.7,6.9-3.2C102.1,83.5,100.7,77.8,98,76.4z"/>
		<path class="st2" d="M122.4,3.7c-1.3-0.3-2.5-0.7-3.7-1.3c-2.5-1.2-5.9-0.3-6.6,2.7c-0.4,1.6-2.1,2.4-3.4,3.2
			c-2.5,1.5-3,5-0.9,7.1c1.7,1.7,4.8,2.6,7.3,2.9c0.5,0.4,1,0.7,1.7,0.9c2.1,0.6,5.2-0.7,5.5-3.1c0.2-1.3,0.2-2.5,0.2-3.7
			C126.2,11.2,127.1,4.9,122.4,3.7z M113.1,11.5C113.1,11.5,113.1,11.5,113.1,11.5C113.1,11.5,113.1,11.5,113.1,11.5
			C112.9,12.1,113,12.1,113.1,11.5z"/>
		<path class="st2" d="M67.2,110.7c-3.3-2-6.3,3.2-3,5.2c0.3,0.2,0.5,0.3,0.8,0.4c-1.3,1.2-1.7,3.6,0.3,5c2.2,1.6,5.3,4.7,8.2,4.2
			c2.3-0.4,4.6-3.8,5.2-5.9C80.5,112.6,71,113,67.2,110.7z M71.4,118.3c0.4,0.1,0.8,0.2,1.1,0.3c-0.1,0.1-0.1,0.2-0.2,0.3
			C72,118.7,71.7,118.5,71.4,118.3z"/>
		<path class="st2" d="M160.3,111.3c-1.4-0.8-2.2-2.7-3.5-3.8c-0.5-0.4-1.1-0.8-1.7-1.3c0.6-1.8-0.3-4.1-2.7-4.1
			c-0.9,0-1.7-0.1-2.6,0.2c-1.3,0.4-2.2,1.5-2.2,2.9c0,2.9,2.5,4.6,4.6,6.3c1.9,1.5,2.9,3.9,5.1,5
			C160.7,118.2,163.7,113.1,160.3,111.3z"/>
		<path class="st2" d="M177.3,91.6c-2.9,0.1-5.7,0.9-8.1,2.5c-1.3,0.9-1.9,2.6-1.1,4.1c0.4,0.6,1,1.1,1.8,1.4
			c0.4,1.2,1.7,2.1,2.9,2.1c1.6,0,2.6-1.2,2.9-2.6c0,0,0,0,0.1-0.1c0,0,0.6-0.4,0.5-0.4c0.8-0.5,1.6-1,2.5-1.5
			C181.3,95.7,180.4,91.5,177.3,91.6z M175.8,99.2C175.7,99.5,175.6,99.3,175.8,99.2L175.8,99.2z M175.8,99.1c0-0.1,0.1-0.2,0.1-0.4
			C175.8,98.9,175.8,99,175.8,99.1z"/>
	</g>
</g>
<path class="st3" d="M192.6,97.8c17.6,3.9,91,2.7,109,3.1c6.9,0.2,14,0.1,20.4-2.3c6.5-2.4,12.4-7.4,14-14.1
	c0.7-2.7,0.6-5.8-0.9-8.2c-1.9-3.1-5.6-4.6-9.1-5.5c-8.7-2.3-18.3-2.4-26.1,2s-12.9,14.2-9.9,22.7c4,11.3,18.5,14.1,30.4,14.2
	c55.2,0.4,113.5-23.3,141.2-71c4-6.9,7.6-14.5,14-19.3"/>
</svg>
