<?xml version="1.0" encoding="utf-8"?>
<!-- Generator: Adobe Illustrator 22.1.0, SVG Export Plug-In . SVG Version: 6.00 Build 0)  -->
<svg version="1.1" id="Layer_1" xmlns="http://www.w3.org/2000/svg" xmlns:xlink="http://www.w3.org/1999/xlink" x="0px" y="0px"
	 viewBox="0 0 188 58.1" style="enable-background:new 0 0 188 58.1;" xml:space="preserve">
<style type="text/css">
	.st0{fill:#FFFFFF;opacity:0;}
	.st1{fill:#EEB91D;}
	.st2{fill:#464C4D;}
	.st0:hover {
            fill: #ffffff;
            opacity: 1;
            cursor: pointer;
        }
</style>
<g>
	<path class="st0" d="M28.5,20.1c-0.2-0.4-0.7-0.7-1.1-0.7c-0.1-0.3-0.3-0.5-0.6-0.6c-0.8-0.4-1.6-0.1-2.1,0.5
		c-0.4,0.5-0.8,1.1-1.1,1.6c-0.3,0.5-0.2,1.2,0.1,1.7c0.4,0.5,1,0.6,1.6,0.5c0.9-0.1,1.8-0.5,2.7-0.9C28.7,21.8,28.9,20.8,28.5,20.1
		z"/>
	<path class="st0" d="M40.8,17.2c-0.5-0.5-1.6-0.6-2.1,0c-0.2,0.2-0.3,0.4-0.5,0.6c-0.4,0.5-0.6,1.2-0.2,1.8
		c0.3,0.4,0.6,0.7,1.1,0.8c0.8,0.2,1.7-0.2,1.8-1c0-0.1,0-0.2,0-0.3C41.3,18.5,41.4,17.7,40.8,17.2z"/>
	<path class="st0" d="M183.4,26.6c-0.2-1.4-0.5-2.7-0.9-4c-0.3-0.9-0.8-1.7-1.5-2.4c-0.9-1.9-2.7-3.1-5-3.2
		c-2.2-0.2-4.9,0.9-6.4,2.5c-0.7,0.8-1.3,1.7-1.6,2.7c-1,1.3-1.6,3-1.6,4.6c0,3.3,2.4,6.4,5.6,7.3c2,0.5,3.8,0.3,5.5-0.4
		c0.7,0.1,1.5,0.1,2.1-0.1c1.3-0.4,2.6-1.3,3.3-2.5C183.6,29.4,183.6,28.1,183.4,26.6z"/>
	<g>
		<path class="st1" d="M14.7,39.4c4.7,1.2,10.6-0.9,15.1-1.9c5.3-1.2,10.3-2.9,14.1,2.1c2.6,3.4,8.3,0.4,5.9-3.4
			c-3.3-5.3-9.4-7.7-15.5-6.6c-3.7,0.7-7.3,2-10.8,3.2c-3.2,1.1-7,2.1-9.4,4.4C13.4,37.9,13.7,39.2,14.7,39.4z"/>
		<path class="st1" d="M52.9,32.3c0.8,0.1,1.6,0,2.3-0.4c0.8,0.7,1.9,1.1,3.1,0.9c1.9-0.3,3.7-1.9,3.5-4c-0.2-2.7-1-5.3-1.6-7.9
			c-0.9-4-6.8-3.7-7.8,0c-0.1,0.2-0.1,0.4-0.2,0.5c-0.7,0.3-1.3,0.8-1.7,1.5c-0.1,0-0.1,0.1-0.1,0.2c-0.1,0.2-0.2,0.4-0.3,0.7
			c0,0.1-0.1,0.2-0.1,0.3c-0.2,0.6-0.3,1.1-0.4,1.7c0,0.1,0,0.1,0,0.2c0,0.2,0,0.3-0.1,0.5c0,0.1,0,0.1,0,0.2c-0.1,1,0,1.9,0.1,3
			C49.9,31,51.6,32.2,52.9,32.3z"/>
		<path class="st1" d="M49.9,49.2c-1.1-0.2-2.1,0.9-1.5,1.9c1.9,3.2,5.8,3.7,9.3,4.2c4,0.6,8.1,0.5,12.2,0c4.2-0.6,8.3-1.5,12.3-3
			c3.9-1.4,8.2-3,11.2-5.8c1.4-1.3,1.1-3.4-0.1-4.6c1.8-1.5,3.6-2.9,5.5-4.2c10-2.8,20-3.5,30.4-3.8c2.9-0.1,3.6-2.9,2.4-4.7
			c1.7-0.2,3.4-0.4,5.1-0.6c3.9-0.6,3.1-7.4-0.9-7c-4.7,0.5-9.4,1.2-14.1,1.6c-3.8,0.3-11.2,2.3-11.6-3.4c-0.1-0.8-1-1.2-1.6-0.6
			c-3.8,3.4,0.2,8.3,3.8,9.9c-3.2,0.9-6.3,2-9.4,3.4c-0.5-1.6-2.2-2.9-3.9-1.6c-2.8,2.2-5.4,4.5-7.8,7c-0.8-1.9-1.2-3.8-1.2-5.8
			c0-2.2-3.4-2.7-3.9-0.5c-0.5,2.9-0.5,5.8,0.4,8.6c0.3,0.7,0.7,1.2,1.2,1.5c-0.2,0.3-0.5,0.5-0.7,0.8c-2.1,1-4.1,2.2-6.3,3
			c-3.2,1.3-6.6,2.2-9.9,2.9C64.2,49.6,56.6,50.4,49.9,49.2z"/>
		<path class="st1" d="M127.2,43.5c-0.3-0.2-0.6-0.4-0.9-0.8c-0.5-0.6-1.5,0-1.3,0.7c1.8,7.4,11,3.9,15.6,2
			c8.1-3.2,16.3-7.2,23.5-12c3.1-2.1,0.3-7-3-5.1c-5.5,3.2-10.9,6.6-16.6,9.4c-2.7,1.4-5.5,2.6-8.3,4c-1.4,0.7-3.2,1.7-5,2.1
			c9.8-4,17.4-12.4,28.1-14.6c3.3-0.7,1.9-5.8-1.4-5.1c-11.6,2.5-18.9,13.1-29.7,17.5C127.4,42,127.1,42.8,127.2,43.5z"/>
		<path class="st1" d="M162.1,22.2c1,0.7,2.5,0.8,3.4-0.2c1.6-1.8,2.2-4.3,1.4-6.6c-0.4-1.3-1.7-2.1-3.1-1.7c-1.4,0.4-2,1.8-1.7,3.1
			c0,0.1,0,0.1,0,0.2c0,0.1,0,0.2,0,0.3c0-0.1-0.1,0.4-0.1,0.5c-0.1,0.3-0.1,0.3,0,0.2c0.1-0.3,0.1-0.1-0.2,0.5
			c0-0.1-0.3,0.5-0.4,0.6C160.7,19.9,161.1,21.4,162.1,22.2z"/>
		<g>
			<path class="st2" d="M55.3,51.6c-6.9,0-9-1.5-9-6.6c0-1.5,0.3-2.9,0.5-4.3c0.2-1.4,0.5-2.7,0.5-3.9c0-4.1-2.8-7-6.6-7
				c-3,0-19.3,5.6-28.1,8.5c-0.4,0.1-0.9,0-1.2-0.3c-0.3-0.3-0.4-0.8-0.2-1.2c1.4-3.2,2.3-6.7,3.2-10.1c0.2-0.8,0.4-1.7,0.7-2.5
				c-1.2-0.7-2.5-1.4-3.7-2.1c-2.6-1.5-5.4-3.1-8.1-4.4c-0.4-0.2-0.6-0.6-0.6-1c0-0.4,0.3-0.8,0.7-1C17.9,10,38.6,2.4,52,2.4
				c3.7,0,7.5,2.8,7.5,8c0,4.1-3,7.2-5.6,10c-2.1,2.2-4.1,4.4-4.1,6.5c0,2,1.9,4.4,7.2,4.4c4.8,0,11.8-2.6,19.2-5.3
				c2.3-0.8,4.6-1.7,6.9-2.5c0.3-0.1,0.6-0.1,0.9,0.1c0.3,0.2,0.5,0.4,0.5,0.7c0.2,1,0.4,2,0.6,3c1.1,5.8,2.3,11.7,4.3,17.2
				c0.1,0.3,0.1,0.6,0,0.8c-0.1,0.3-0.4,0.5-0.6,0.6C77.2,49.5,65.3,51.6,55.3,51.6z M40.8,27.5c5,0,8.7,4,8.7,9.2
				c0,1.5-0.3,2.9-0.5,4.3c-0.2,1.4-0.5,2.7-0.5,3.9c0,3.1,0,4.5,6.8,4.5c9.5,0,20.7-1.9,31.7-5.4c-1.8-5.3-3-11-4-16.5
				c-0.1-0.6-0.2-1.2-0.3-1.7c-1.9,0.7-3.8,1.4-5.7,2.1c-7.6,2.8-14.8,5.5-20,5.5c-6.9,0-9.3-3.6-9.3-6.6c0-3,2.3-5.4,4.7-8
				c2.5-2.6,5-5.3,5-8.5c0-3.8-2.8-5.8-5.4-5.8c-13.4,0-35.6,8.4-45.5,12.3c2.1,1.1,4.1,2.2,6.1,3.4c1.4,0.8,2.9,1.7,4.4,2.5
				c0.4,0.2,0.7,0.8,0.5,1.2c-0.3,1.1-0.6,2.2-0.9,3.3c-0.7,2.7-1.4,5.5-2.4,8.2C26.3,31.3,37.9,27.5,40.8,27.5z"/>
		</g>
		<g>
			<path class="st2" d="M57,33.6c-0.2,0-0.5-0.1-0.7-0.3c-0.5-0.4-0.5-1.1-0.1-1.5c1.8-2.1,2.5-4.8,3.3-7.7
				C58,17.9,57.2,12.7,57,7.9c0-0.6,0.4-1.1,1-1.1c0.6,0,1.1,0.4,1.1,1c0.2,4.8,1,9.9,2.5,16.1c0,0.2,0,0.4,0,0.5
				c-0.8,3.1-1.6,6.3-3.8,8.9C57.6,33.5,57.3,33.6,57,33.6z"/>
		</g>
		<g>
			<path class="st2" d="M89,46.1c-0.2,0-0.3,0-0.5-0.1c-0.5-0.3-0.8-0.9-0.5-1.5c2.8-5.5,5-8.3,6.4-9.9c0.3-0.4,0.7-0.8,0.8-1.1
				c-0.3-0.2-1-0.6-1.7-1c-2.1-1.2-5.7-3.1-11.1-7.2c-0.5-0.4-0.6-1-0.2-1.5c0.4-0.5,1-0.6,1.5-0.2c5.3,4,8.8,5.9,10.9,7.1
				c1.9,1,2.7,1.5,2.9,2.5c0.2,1-0.4,1.7-1.4,2.9c-1.3,1.6-3.5,4.2-6.1,9.5C89.8,45.9,89.4,46.1,89,46.1z M95.4,33.6L95.4,33.6
				L95.4,33.6z"/>
		</g>
		<g>
			<path class="st2" d="M96.6,33.3c-0.5,0-0.9-0.3-1.1-0.9c-0.1-0.6,0.2-1.2,0.8-1.3c3.1-0.7,6-1.6,9.1-2.5c1.1-0.3,2.2-0.7,3.3-1
				c-1.6-2.3-1.9-4.9-1.9-7c0-5.9,0-15.9,9.1-15.9c4.3,0,5.3,3.4,6.2,6.4c1.1,3.9,2.2,7.5,8.9,7.5c7,0,10.9-1.8,13.9-3.2
				c2.1-1,3.9-1.8,6.1-1.8c2.9,0,9.7,4.1,15.8,8c0.6,0.4,1.1,0.7,1.2,0.8c0.5,0.3,0.7,0.9,0.5,1.5c-0.3,0.5-0.9,0.7-1.4,0.5
				c-0.2-0.1-0.5-0.3-1.4-0.9c-7.9-5.1-12.9-7.7-14.7-7.7c-1.7,0-3.2,0.7-5.2,1.6c-3.1,1.4-7.4,3.4-14.9,3.4c-8.4,0-9.9-5.3-11-9.1
				c-0.9-3.2-1.5-4.9-4.1-4.9c-6.4,0-6.9,6.2-6.9,13.7c0,2.2,0.3,4.8,2.4,6.7c0.3,0.3,0.4,0.7,0.3,1.1c-0.1,0.4-0.4,0.7-0.8,0.8
				c-1.7,0.5-3.3,1-5,1.5c-3,0.9-6.1,1.9-9.3,2.6C96.8,33.3,96.7,33.3,96.6,33.3z"/>
		</g>
		<g>
			<path class="st2" d="M24.3,28.1c-0.6,0-1.1-0.5-1.1-1.1c0-0.1,0-0.4,0.1-0.7c0-0.3,0-0.8,0-1.5c0-0.4-0.1-0.5-0.1-0.5
				c0,0-0.1,0-0.4,0c-0.1,0-0.2,0-0.3,0c-0.1,0-0.3,0-0.4,0c-1,0-2.2,0-2.5-1c-0.3-0.9,0.6-1.4,1.3-1.9c0.5-0.3,1.7-1,1.7-1.5
				c0-0.3-0.1-0.6-0.1-0.9c-0.1-0.4-0.2-0.9-0.2-1.4c0-0.3,0-0.5,0.1-0.8c0.1-0.6,0.7-1,1.3-0.9c0.6,0.1,1,0.7,0.9,1.3
				c0,0.1,0,0.2,0,0.4c0,0.3,0.1,0.7,0.1,1c0.1,0.4,0.1,0.8,0.1,1.3c0,1-0.6,1.7-1.2,2.3c0.6,0.1,1,0.4,1.3,0.9
				c0.4-0.3,0.9-0.6,1.4-0.7c0.1-0.2,0.1-0.3,0.3-0.5c0.5-0.5,1.2-1,1.8-1.4c-0.8,0-1.8-0.1-2.7-0.7c-0.5-0.3-0.6-1-0.3-1.5
				c0.3-0.5,1-0.6,1.5-0.3c0.4,0.2,0.8,0.3,1.5,0.3c0.2,0,0.4,0,0.7,0c0.2,0,0.5,0,0.7,0c0.9,0,2.2,0,2.6,1.1c0.3,1-0.6,1.6-1.8,2.4
				c-0.3,0.2-0.7,0.5-1.1,0.7c0.3,0.1,0.7,0.3,1,0.4c1.5,0.6,2.3,0.9,2.1,1.9c-0.1,0.3-0.3,0.9-1.3,0.9c-1,0-1.9-0.4-2.5-0.8
				c-0.5-0.2-0.9-0.5-1.3-0.5c-1.3,0-1.8,1.4-1.9,2.1C25.4,27.1,25.3,28.1,24.3,28.1z"/>
		</g>
		<g>
			<path class="st2" d="M39.7,24.3c-0.1,0-0.2,0-0.3,0c-0.3-0.1-0.9-0.3-0.9-1.3c0-1-0.6-1.4-2.5-1.9c-0.5-0.1-1-0.3-1.5-0.5
				c-0.5-0.2-0.7-0.7-0.6-1.2c0.1-0.5,0.5-0.9,1.1-0.9c1.4,0,1.6-0.5,2.1-2.3c0.2-0.6,0.4-1.3,0.7-1.9c0.2-0.5,0.9-0.8,1.4-0.6
				c0.1,0.1,0.2,0.1,0.3,0.2c0.2-0.2,0.4-0.5,0.5-0.7c0.3-0.5,1-0.6,1.5-0.3c0.5,0.3,0.6,1,0.3,1.5c-0.2,0.3-0.5,0.7-0.8,1
				c-0.2,0.2-0.5,0.5-0.6,0.8c0.5,0.7,2.5,1.5,3.3,1.8c1.2,0.5,2.1,0.8,1.9,1.9c-0.2,1-1.3,1-2.4,1c-1.3,0-2,1.2-2.5,2.4
				C40.7,23.6,40.4,24.3,39.7,24.3z M38,19.3c0.7,0.3,1.4,0.6,1.9,1.2c0.4-0.5,0.8-1,1.4-1.3c-0.9-0.4-1.8-1-2.4-1.6
				C38.7,18.2,38.5,18.8,38,19.3z M40.4,15.9C40.4,15.9,40.4,15.9,40.4,15.9C40.4,15.9,40.4,15.9,40.4,15.9z"/>
		</g>
		<g>
			<path class="st2" d="M63,42.3c-0.8,0-1.7-0.1-2.5-0.2c-1.2-0.1-2.4-0.2-3.4-0.1c-0.6,0.1-1.1-0.3-1.2-0.9
				c-0.1-0.6,0.3-1.1,0.9-1.2c1.1-0.2,2.6,0,3.9,0.1c0.8,0.1,1.5,0.2,2.2,0.2c0.6,0,1.1,0.5,1.1,1.1C64.1,41.8,63.6,42.3,63,42.3z"
				/>
		</g>
		<g>
			<path class="st2" d="M69.8,41.5c-0.4,0-0.8-0.2-1-0.6c-0.3-0.5-0.1-1.2,0.5-1.5c0.6-0.3,1.3-0.5,1.9-0.6c0.5-0.1,1-0.2,1.4-0.5
				c0.5-0.3,1.2-0.1,1.5,0.5c0.3,0.5,0.1,1.2-0.5,1.5c-0.6,0.3-1.3,0.5-1.9,0.6c-0.5,0.1-1,0.2-1.4,0.5
				C70.1,41.4,69.9,41.5,69.8,41.5z"/>
		</g>
		<g>
			<path class="st2" d="M145,21.9c-0.6,0-1.1-0.5-1.1-1c0-0.6,0.4-1.1,1-1.1c1.4-0.1,2.9-0.2,4.3-0.3c2.3-0.2,4.6-0.4,7-0.4
				c2.3,0,4.2,0.2,6.1,0.5c0.6,0.1,1,0.7,0.9,1.3c-0.1,0.6-0.7,1-1.3,0.9c-1.7-0.3-3.6-0.5-5.7-0.5c-2.3,0-4.6,0.2-6.8,0.4
				C147.9,21.8,146.5,21.9,145,21.9C145,21.9,145,21.9,145,21.9z"/>
		</g>
		<g>
			<path class="st2" d="M116.4,30.8c-2.2,0-8.3-0.8-8.3-4.2c0-0.6,0.5-1.1,1.1-1.1c0.6,0,1.1,0.5,1.1,1.1c0,1,3.2,2,6.2,2
				c1.4,0,3.9-0.3,6.7-0.6c4-0.4,9-0.9,13.2-0.9c0.6,0,1.1,0.5,1.1,1.1s-0.5,1.1-1.1,1.1c-4,0-9,0.5-13,0.9
				C120.4,30.5,117.9,30.8,116.4,30.8z"/>
		</g>
		<g>
			<path class="st2" d="M129.5,45.3c-2.5,0-5.3-1.7-5.3-4c0-2.4,10.4-15.4,23.2-16.6c0.2-0.2,0.4-0.3,0.7-0.3c0.8,0,1.7-0.1,2.6-0.1
				c0.9-0.1,1.9-0.1,2.9-0.1c1.8,0,6,0,6,3.4c0,0.9,0,3.4-14.3,10.8C139.2,41.6,131.1,45.3,129.5,45.3z M149.3,26.8
				c-12.4,0-22.5,12.6-22.8,14.5c0,0.7,1.5,1.8,3.1,1.8c1-0.1,7.7-2.9,14.9-6.6c10.2-5.3,13-8.1,13.1-8.9c0-0.6-0.3-1.3-3.8-1.3
				c-0.3,0-0.7,0-1.1,0c-0.2,0.3-0.6,0.5-1,0.5C150.8,26.8,150,26.8,149.3,26.8z"/>
		</g>
		<g>
			<path class="st2" d="M162.1,21.4c-0.2,0-0.3,0-0.5-0.1c-0.5-0.3-0.8-0.9-0.5-1.5c0.2-0.4,0.4-0.8,0.7-1.2
				c0.8-1.5,1.9-3.5,1.9-4.9c0-1.5-1.4-1.8-1.9-1.8c-1.4,0-3,1.5-4.5,2.7c-0.5,0.5-1.1,0.9-1.6,1.3c-0.5,0.4-1.2,0.3-1.5-0.2
				c-0.4-0.5-0.3-1.2,0.2-1.5c0.5-0.4,0.9-0.8,1.5-1.3c1.7-1.5,3.7-3.3,5.9-3.3c2,0,4.1,1.5,4.1,4c0,1.9-1.1,4-2.1,5.9
				c-0.2,0.4-0.4,0.8-0.6,1.2C162.9,21.2,162.5,21.4,162.1,21.4z"/>
		</g>
		<g>
			<path class="st2" d="M174.5,37.3c-0.2,0-0.3,0-0.5,0c-4.1-0.2-8.8-3.7-9.3-9.5c-0.3-3.5,0.9-7.1,3.2-9.6c2-2.1,4.6-3.3,7.4-3.3
				c0.1,0,0.2,0,0.3,0c5.1,0.2,9.2,4.2,9.6,9.5c0.3,3.6-1,7.1-3.5,9.6C179.7,36.1,177.1,37.3,174.5,37.3z M175.4,17.1
				C175.3,17.1,175.3,17.1,175.4,17.1c-2.8,0-4.7,1.4-5.8,2.6c-1.9,2-2.9,5-2.6,7.9c0.2,2.8,2.4,7.3,7.2,7.5
				c2.1,0.1,4.3-0.8,6.1-2.6c2-2.1,3.1-5,2.8-7.9c-0.4-5-4.2-7.4-7.5-7.5C175.5,17.1,175.4,17.1,175.4,17.1z"/>
		</g>
		<g>
			<path class="st2" d="M157.5,30.9c-0.6,0-1-0.4-1.1-1c-0.1-0.6,0.4-1.1,1-1.2c2.9-0.3,5.8-1.1,8.3-2.3c0.5-0.3,1.2-0.1,1.5,0.5
				c0.3,0.5,0.1,1.2-0.5,1.5C163.9,29.7,160.7,30.6,157.5,30.9C157.5,30.9,157.5,30.9,157.5,30.9z"/>
		</g>
	</g>
</g>
</svg>
