<?xml version="1.0" encoding="utf-8"?>
<!-- Generator: Adobe Illustrator 22.1.0, SVG Export Plug-In . SVG Version: 6.00 Build 0)  -->
<svg version="1.1" id="Layer_1" xmlns="http://www.w3.org/2000/svg" xmlns:xlink="http://www.w3.org/1999/xlink" x="0px" y="0px"
	 viewBox="0 0 168.3 392" style="enable-background:new 0 0 168.3 392;" xml:space="preserve">
<style type="text/css">
	.st0{fill:#FFFFFF;opacity:0;}
	.st1{fill:#FFCB05;}
	.st0:hover {
            fill: #ffffff;
            opacity: 1;
            cursor: pointer;
        }
</style>
<g>
	<g>
		<path class="st1" d="M98,179.1c-14,7.9-25.8,5.1-33-7.9c-8.9-15.9-8.5-34,1.2-53.9c9.5-19.3,25.3-35.4,36.9-45.5
			c0.4-0.3,0.9-0.5,1.4-0.4c0.5,0.1,0.9,0.4,1.2,0.8C126.7,111.5,132.5,159.7,98,179.1z M103.7,75.7c-15.8,14-57.1,56.1-35.9,93.8
			c6.4,11.4,16,13.7,28.5,6.6C128.4,158.2,123.2,113.1,103.7,75.7z"/>
		<path class="st1" d="M91.5,191.9c-0.3,0.2-0.7,0.3-1.1,0.2c-5.4-0.9-10.7-2.7-15.7-4.4c-3-1-6.1-2.1-9.1-2.9
			c-0.5-0.1-0.8-0.4-1-0.9c-0.2-0.4-0.2-0.9,0-1.4c1.1-2.8,2.3-5.6,3.4-8.4c0.3-0.8,1.3-1.3,2.2-0.9c0.9,0.3,1.3,1.3,0.9,2.2
			c-0.9,2.2-1.8,4.5-2.7,6.7c2.5,0.8,5.1,1.6,7.5,2.4c4.6,1.6,9,3.1,13.6,4c0.5-3.2,1-6.2,1.5-8.9c0.2-0.9,1-1.5,1.9-1.4
			c0.9,0.2,1.5,1,1.4,1.9c-0.5,3.1-1.2,6.8-1.7,10.5c-0.1,0.4-0.3,0.8-0.7,1.1C91.7,191.8,91.6,191.9,91.5,191.9z"/>
		<path class="st1" d="M87,203.6c-0.3,0.2-0.7,0.3-1.1,0.2c-6.9-1.3-13-3.3-19.4-5.4c-1.6-0.5-3.3-1.1-5-1.7c-0.5-0.2-0.9-0.5-1-1
			c-0.2-0.5-0.1-1,0.2-1.4c1.9-3.1,3.6-4.8,5.4-6.7c1.2-1.2,2.4-2.5,3.8-4.2c0.6-0.7,1.6-0.8,2.3-0.2c0.7,0.6,0.8,1.6,0.2,2.3
			c-1.5,1.9-2.8,3.2-4,4.4c-1.3,1.4-2.5,2.7-3.8,4.4c1,0.3,2,0.7,2.9,1c5.6,1.9,11,3.7,16.9,4.9l0-0.2c-0.2-3.8-0.3-6.2-1-10.5
			c-0.1-0.9,0.5-1.8,1.4-1.9c0.9-0.1,1.8,0.5,1.9,1.4c0.7,4.4,0.9,7.1,1,10.9l0.1,2.3c0,0.5-0.2,1-0.6,1.3
			C87.2,203.5,87.1,203.5,87,203.6z"/>
		<path class="st1" d="M65.4,168.2c-0.1,0.1-0.3,0.1-0.5,0.2c-8.1,1.6-16.4,6.2-23.5,13c-0.5,0.5-1.2,0.6-1.8,0.3
			c-0.6-0.3-1-0.9-1-1.6c0.1-1.1,0.1-2.1,0.2-3.1c0.3-5.1,0.7-10.4,0.5-15.5c0-0.6,0.3-1.2,0.8-1.5l0.2-0.1c7-4,13.1-8.6,17.9-13.8
			c0.6-0.7,1.7-0.7,2.3-0.1c0.7,0.6,0.7,1.7,0.1,2.3c-4.9,5.3-10.9,10-18,14.1c0.1,4.7-0.2,9.4-0.4,14c6.8-5.7,14.5-9.6,22-11.1
			c0.9-0.2,1.8,0.4,1.9,1.3C66.3,167.1,66,167.8,65.4,168.2z"/>
		<path class="st1" d="M122.8,194.9c-0.2,0.1-0.4,0.2-0.7,0.2c-0.7,0.1-1.3-0.3-1.6-0.9c-2.1-4.3-4.6-8.2-7.4-11.6
			c-2.9-3.4-6.1-6.3-9.5-8.5c-0.8-0.5-1-1.5-0.5-2.3c0.5-0.8,1.5-1,2.3-0.5c3.7,2.4,7.2,5.5,10.3,9.2c2.2,2.6,4.2,5.5,6,8.7
			c1.3-4.4,2.8-8.9,4.5-13.2c-4.8-5.9-8.6-12-11.3-18.2c-0.4-0.8,0-1.8,0.9-2.2c0.8-0.4,1.8,0,2.2,0.9c2.7,6.1,6.5,12.2,11.3,18
			l0.1,0.2c0.4,0.5,0.5,1.1,0.3,1.7c-2,4.7-3.5,9.8-5,14.7c-0.3,1-0.6,2-0.9,3C123.5,194.4,123.2,194.7,122.8,194.9z"/>
		<path class="st1" d="M74.4,200.4c-0.4,0.2-0.9,0.3-1.3,0.1c-0.9-0.3-1.4-1.2-1.1-2.1c0.7-2.3,1.4-4,2-5.7c0.7-1.9,1.4-3.7,2.2-6.2
			c0.3-0.9,1.2-1.4,2.1-1.1c0.9,0.3,1.4,1.2,1.1,2.1c-0.8,2.7-1.5,4.5-2.2,6.5c-0.6,1.6-1.2,3.3-2,5.5
			C75,199.9,74.7,200.2,74.4,200.4z"/>
		<path class="st1" d="M80.3,127.3c-4.6,2.6-10.4,3.3-16.9,2.1c-0.9-0.2-1.5-1-1.3-1.9c0.2-0.9,1-1.5,1.9-1.3
			c4,0.8,9.8,1.1,14.7-1.7c8.5-4.8,10-14.9,3.8-25.8c-0.4-0.7-0.9-1.5-1.4-2.2c-0.5-0.8-0.3-1.8,0.5-2.3c0.8-0.5,1.8-0.3,2.3,0.5
			c0.5,0.8,1,1.6,1.5,2.4C94,112.3,88,122.9,80.3,127.3z"/>
		<path class="st1" d="M114.7,96.1c-0.1,0.1-0.2,0.1-0.4,0.2c-10.1,2.9-20.6,1.4-29-3.9c-0.8-0.5-1-1.5-0.5-2.3
			c0.5-0.8,1.5-1,2.3-0.5c7.5,4.8,17.1,6.1,26.3,3.5c0.9-0.2,1.8,0.3,2,1.1C115.6,94.9,115.3,95.7,114.7,96.1z"/>
		<path class="st1" d="M104.7,75c-0.3,0.2-0.6,0.2-1,0.2c-0.9-0.1-1.6-0.9-1.5-1.8c0.7-7.1,1.5-13.6,2.5-19.9c0.1-0.9,1-1.5,1.9-1.4
			c0.9,0.1,1.5,1,1.4,1.9c-1,6.2-1.8,12.7-2.5,19.7C105.5,74.3,105.1,74.8,104.7,75z"/>
	</g>
	<path class="st1" d="M39,224.9c5.2-2.3,10-5.4,14.2-9.2c-4.6,7.8-9.2,15.6-13.7,23.4c1.6-1,3-2.5,4-4.1c2.1,7.9,1.2,16.5-2.3,23.9
		c7.1-5.5,13.2-12.4,17.8-20.2c2,5.5,3.5,11.2,4.5,17c2.1-6.3,3.4-12.9,3.9-19.6c3.7,4.7,7.2,9.4,10.5,14.3c0.6-4.5,1.1-9,1.7-13.5
		c4.7,5.4,8.6,11.5,11.5,18c0-8.9,0-17.8-0.1-26.6c3.6,2.7,7.2,5.4,10.8,8.1c-2.3-5.4-5.8-10.2-10-14.2c-1.8-1.6-3.7-3.2-4.6-5.5
		c-0.7-1.7-0.6-3.5-0.6-5.3c0.1-3.1,0.2-6.2,0.2-9.4c0-0.6,0-1.3-0.4-1.8c-0.5-0.5-1.3-0.5-2-0.5c-9.9,0.6-19.5-6-27.2-0.8
		C48.8,204.7,42.4,215.8,39,224.9z"/>
	<path class="st1" d="M74.9,272.4c-3,1.5-4.6,5-4.4,8.3c0.2,3.3,2.2,6.4,4.7,8.5c2.3,1.9,5.5,3.6,5.6,6.6c-1.3-2.6-1.1-5.7-0.8-8.6
		c0.3-2.9,0.5-5.9-0.6-8.6c-1.1-2.7-4.1-4.9-6.9-3.9L74.9,272.4z"/>
	<path class="st1" d="M57.5,303.1c0,7.5-1,15-3,22.2c4.8,0.2,8.5-5,8.1-9.7c-0.4-4.8-3.9-8.8-8-11.3L57.5,303.1z"/>
</g>
<g>
	<path class="st0" d="M107.4,79.4c-0.3-0.5-0.7-0.8-1.2-1c0.2-2-2.4-3.9-4.3-2.1c-1.5,1.4-2.5,3.1-3.6,4.8c-1.8,0-3.2,1.6-4.1,3.2
		c-0.3,0.6-0.9,1.4-1.4,2.3c-0.3,0.2-0.6,0.4-0.8,0.5c-0.5,0.3-1,0.6-1.6,0.8c-2.3,1.2-1.1,4.2,0.9,4.6c0,0,0,0.1,0.1,0.1
		c1.1,2.3,5.1,2.3,7.2,2.6c3.3,0.5,7.8,1.1,11,0C116,93.1,109.4,82.8,107.4,79.4z M107.2,90.8C107.2,90.8,107.2,90.8,107.2,90.8
		C107.2,90.8,107.2,90.8,107.2,90.8C107.2,90.8,107.2,90.8,107.2,90.8z"/>
	<path class="st0" d="M80,99.9c-0.6,0.3-1,0.8-1.3,1.4c-2.1,5.3-5.7,9.8-8.5,14.8c-1.6,2.7-4.5,7.4-3.5,10.7c0.4,1.4,1.7,2,3.1,1.7
		c6.3-1,11.9-2.7,15.2-8.6c3.9-6.9,2.8-13.1,0-20.2C83.9,97.2,80.2,97.8,80,99.9z"/>
	<path class="st0" d="M61.2,153.2c0.5-2.9-3.6-4.3-4.6-2c-0.4,0.1-0.9,0.3-1.3,0.7c-2.3,2.6-4.2,4.4-7.6,5.6c-2,0.7-3.9,1.3-5.1,3.2
		c-1.4,2.1-1,4.6-1.3,6.9c-0.4,2.9-1.1,5-0.6,7.9c0.4,2.3,3.5,2.2,4.6,0.6c2-3.1,5.4-4.7,8.6-6.2c2.6-1.2,5.9-1.5,8.2-3
		c1.6-1,2.3-2.7,2-4.6C63.4,159,60.6,157.2,61.2,153.2z M46.1,168.1c0.1,0,0.2,0,0.3,0.1c-0.1,0.1-0.3,0.2-0.4,0.3
		C46.1,168.3,46.1,168.2,46.1,168.1z M55.1,159.4c-0.1,0.1-0.2,0.2-0.5,0.2c0.2-0.1,0.4-0.3,0.5-0.4
		C55.1,159.3,55.1,159.4,55.1,159.4z"/>
	<path class="st0" d="M127.2,174.6c-1.2-2-3.8-3.5-5.1-5.5c-1.5-2.2-2.6-4.7-3.7-7.1c-1.1-2.3-4-1.2-4.5,0.8c-0.4,0.2-0.8,0.5-1.1,1
		c-1.8,3.2-7.9,6-5.2,10.3c1.5,2.3,4.4,4.1,6.2,6.2c2.3,2.6,4.1,5.4,5.8,8.4c1.1,2,3.9,1.3,4.6-0.6
		C125.5,184.5,129.3,178.3,127.2,174.6z"/>
	<path class="st0" d="M76.5,187.4c-1.1-0.7-2.8-0.7-4.1-1c-1-0.2-1.8,0.2-2.4,0.8c-0.1,0-0.2,0-0.4,0c-1.6,0.3-3,2.4-3.6,4.3
		c0,0-0.1,0.1-0.1,0.1c-2.4,1.2-1,4.5,1.2,4.6c1.4,1.1,3.5,1.5,5,1.1c1.4-0.5,2.3-1.6,3.2-2.8c0.8-1,1.6-2.1,2.1-3.2
		C78,189.9,77.9,188.3,76.5,187.4z"/>
	<path class="st0" d="M85.3,190.2c-0.5-0.4-1.1-0.8-1.7-0.9c-0.4-0.1-0.8-0.1-1.1-0.1c-0.1,0-0.2,0-0.2,0c-1.8-1.5-4.1,0.4-3.9,2.3
		c-0.5,0.3-0.9,0.7-1.2,1.4c-0.8,2.4-1.2,5,1,6.8c1.9,1.5,4.9,2.2,7,0.7c2-1.5,1.6-4.9,1.5-7.1C86.4,192.1,86.1,191,85.3,190.2z
		 M81.6,195.5c0,0.2,0,0.3,0,0.5c0,0-0.1,0-0.1-0.1c0-0.1,0-0.1,0.1-0.2C81.5,195.7,81.6,195.6,81.6,195.5z M81.4,196.1
		C81.4,196.1,81.4,196.2,81.4,196.1L81.4,196.1z M82.1,196.3C82.4,196.2,82.5,196.4,82.1,196.3L82.1,196.3z"/>
</g>
</svg>
