<?xml version="1.0" encoding="utf-8"?>
<!-- Generator: Adobe Illustrator 22.1.0, SVG Export Plug-In . SVG Version: 6.00 Build 0)  -->
<svg version="1.1" id="Layer_1" xmlns="http://www.w3.org/2000/svg" xmlns:xlink="http://www.w3.org/1999/xlink" x="0px" y="0px"
	 viewBox="0 0 345.5 320.2" style="enable-background:new 0 0 345.5 320.2;" xml:space="preserve">
<style type="text/css">
	.st0{fill:#2E2223;}
	.st2{fill:#E7E6ED;}
	.st3{fill:#FFFFFF;}
	.st4{fill:#D19F2A;}
	.st5{fill:#413736;}
	 .st1 {
            fill: #fffff;
            opacity: 0
        }

        .st1:hover {
            fill: #FFCB05;
            opacity: 1;
            cursor: pointer;
        }
</style>
<g>
	<path class="st0" d="M66.8,269.5c1.6-1.7,3.9-3,6-2.9c1.3,0,2.4,1.9,1.2,2.9c-0.3,0.2-0.5,0.4-0.8,0.6c0.5,0.5,0.9,1.3,0.8,2
		c0,0.5-0.3,0.9-0.7,1c-0.2,0.1-0.5,0.1-0.7,0.2c0,0-0.3,0.2-0.3,0.2c-0.1,0.1-0.2,0.1-0.3,0.2c-0.3,0.3-0.5,0.5-0.8,0.8
		c0,0,0,0,0-0.1c0,0.1-0.1,0.1-0.1,0.2c0,0,0,0,0,0c0,0,0,0,0,0c-0.3,0.6-0.4,1-1,1.5c-0.8,0.7-1.8,1-2.7,0.9
		c0.6,2.3,1.5,4.4,2.9,6.4c0.1,0.1,0.1,0.2,0.2,0.3c1.8,1.2,3.4,2.8,4.9,4.6c1.8,2.2,3.4,4.6,4.6,6.7c0.7,1.2,1.3,2.7,2,4.1
		c0.7,1.3,1.4,2.6,2.5,3.4c0.8,0.6,1.7,0.9,2.6,1.2c1.8,0.4,3.8,0.4,5.5,0.6c0.8,0.1,1.3,0.4,1.7,0.9c1.5,1.7,0.2,5.3-2.6,5.4
		c-3,0.2-6.3-0.3-9-1.6c-3.1-1.5-4.8-3.9-6.3-7c-1.5-3.1-3.1-6.1-4.8-9.1c-1.7-2.9-4.1-5.8-5.2-9.1c-0.1-0.4-0.1-0.8,0.1-1
		c-0.7-1.8-1.3-3.6-1.6-5.6c-0.1-0.5,0.2-1,0.5-1.2c-0.4-0.4-0.7-0.8-0.8-1.4C64,272.5,65.2,270.6,66.8,269.5z"/>
	<path class="st0" d="M92.5,304.2c-1.7-0.2-3.7-0.2-5.5-0.6c-0.3-0.6-0.4-1.4-0.2-2.1c-1.7-0.5-3.4-1.3-4.9-2.4
		c-0.7-1.4-1.3-3-2-4.1c-1.2-2.1-2.8-4.5-4.6-6.7c-0.1-1.7-0.1-3.3,0.1-5c0.3-3.6,0.3-7.7,1.5-11.1c0.2-0.5,0.7-0.8,1.1-0.8
		c-1.3-1.3-1.3-3.8,0.6-4.9c3.7-2.3,7.8-1.9,11.9-1.2c4.7,0.9,10,2.2,14,4.9c1,0.7,0.7,2.5-0.7,2.4c-0.6,0-1.2-0.1-1.8-0.1
		c-0.3,0.8-1,1.5-2.2,1.8c-6.7,1.2-14-0.1-20.5-2.1c-0.1,0-0.3-0.1-0.4-0.2c0,0,0,0.1,0.1,0.1c1.5,5,0.1,10.6,2,15.5
		c1.9,5.1,6.7,5.4,10.5,8.3c1,0.8,1.5,1.9,1.5,3.1c0,0,0,0,0,0.1c0.2,0.2,0.3,0.5,0.4,0.7c3.1,0.4,6.3,1.1,9,2.1
		c1.7,0.6,1.5,3.2-0.4,3.2c-2.6,0-5.2,0-7.8,0C93.9,304.6,93.3,304.3,92.5,304.2z"/>
	<path class="st1" d="M102.6,303.3c-1.2-1.9-2-3.4-4.3-3.7c-3.2-0.4-6.4-0.4-9.6-0.1c-1.3,0.1-1.9,1.2-1.9,2.2
		c-0.9,0.7-1.1,2.1-0.2,3c1.4,1.5,3.9,1.2,5.8,1.3c2.9,0.2,5.7,0.2,8.6,0.2C102.4,306.3,103.5,304.6,102.6,303.3z"/>
	<path class="st0" d="M71.3,214.6c-1.5-1.9-1.5-4.4-1.5-6.8c0-3.3,0-6.7,0.4-10c0.5-3.9,6.3-4.2,6.3,0c0,3.9-0.6,7.9-0.8,11.8
		c-0.2,3.7,3,3.9,6,4.7c1.3,0.3,1.3,2.2,0,2.6C78.2,217.8,73.6,217.7,71.3,214.6z"/>
	<path class="st0" d="M53.5,210.5c-0.4-7.2-0.4-15,0.4-22.1c0.5-4.3,6.5-4.5,6.8,0c0.3,4.7-0.1,9.4-0.3,14.1
		c-0.1,2.3-0.2,4.5-0.3,6.8c-0.2,2.8,0.3,3.2,2.9,3.7c1.5,0.3,1.9,2.8,0.4,3.4C58.2,218.7,53.8,216.4,53.5,210.5z"/>
	<path class="st0" d="M43.4,196.1c1.7,6-3.2,16.1,4.8,18.4c1.3,0.4,1.7,2.4,0.4,3.1c-3.8,1.9-7.9-0.9-9.8-4.2
		c-2.6-4.9-1.4-11.1-1.8-16.4C36.8,193.2,42.5,192.6,43.4,196.1z"/>
	<rect x="41.5" y="194.5" class="st1" width="6.1" height="2.4"/>
	<rect x="73.7" y="193.9" class="st1" width="7.3" height="3.6"/>
	<rect x="56.7" y="185.4" class="st1" width="7.3" height="3.6"/>
	<rect x="90.7" y="186.6" class="st1" width="7.3" height="3.6"/>
	<rect x="123.5" y="198.7" class="st1" width="7.3" height="3.6"/>
	<rect x="107.7" y="187.8" class="st1" width="8.5" height="3.6"/>
	<g>
		<path class="st1" d="M49.8,169.6c-1.2-0.7-3.1-0.7-4.5-0.8c-0.3,0-0.7-0.1-1.1-0.1c0.5-1.6-1.8-2.9-2.7-1.3
			c-1.4,2.7-4.4,7.1-0.6,9.3c0.4,0.3,1.1,0.3,1.5,0c0.4-0.3,0.7-0.5,0.9-0.9c0.8,1,2.5,1.3,3.7,1.2c1.1-0.1,2.1-0.5,2.5-1.7
			c0.2-0.6,0-1.3,0.2-2c0.2-0.8,0.6-1.4,0.9-2.1C50.6,170.6,50.3,169.9,49.8,169.6z M45.9,174c0,0-0.1,0-0.1-0.1
			c0.3-0.2,0.5-0.4,0.7-0.7c0,0.2,0,0.3,0,0.5c0,0.1,0,0.1,0,0.2C46.3,173.9,46.2,173.9,45.9,174z M46.7,172.4
			c0-0.2-0.1-0.4-0.2-0.6c0.1,0,0.3,0,0.4,0C46.9,172,46.8,172.2,46.7,172.4z"/>
		<path class="st1" d="M71.5,170c-1-0.2-2.6-0.5-3.8-0.3c-0.8,0-1.7,0-2.5,0c0.3-0.2,0.7-0.5,0.9-0.7c0.5-0.5,0.8-1.1,1.1-1.7
			c0.9-1.7-1.7-3.2-2.6-1.5c-1.1,2.1-4.1,2.6-3,5.5c0.3,0.7,0.3,1.2,0.3,2c0,0.6,0,1,0.4,1.5c0.8,1,2.4,1.3,3.6,1.6
			c0.6,0.2,1.4-0.1,1.7-0.7c0.3-0.6,0.6-1.2,0.8-1.8c0.1-0.3,0.1-0.7,0.2-1c0.8,0,1.6,0.1,2.4,0.2C72.8,173.1,73.1,170.4,71.5,170z
			 M65.1,172.7c0.2,0,0.3,0,0.5,0c0,0.1-0.1,0.2-0.1,0.4c-0.1,0-0.3-0.1-0.4-0.2C65.1,172.9,65.1,172.8,65.1,172.7z"/>
		<path class="st1" d="M91.2,167.2c-1,0.4-2.3,0.7-3.3,1.2c0.2-0.5,0.3-1.1,0.2-1.7c-0.2-1.9-3.2-1.9-3,0c0.2,1.9-3.1,0.7-3.3,2.9
			c-0.1,0.8,0.4,1.4,1.1,1.7c0.8,0.4,1.4,0.7,1.8,1.4c-0.4,0.3-0.9,0.7-1.2,0.9c-1.1,0.9-0.1,2.4,1.1,2.6c1.3,0.1,2.5,0.1,3.7,0
			c0.8-0.1,1.6-0.6,1.5-1.5c-0.1-1-0.6-2-0.7-3c-0.1-1,2.1-1.4,2.9-1.7C93.8,169.4,93,166.5,91.2,167.2z"/>
		<path class="st1" d="M112,169.2c-1,0.6-1.6,1.3-1.8,2.1c-0.3-0.2-0.7-0.3-1.1-0.3c0.3-1.2,0.1-2.5,0.1-3.6c0-1.9-3-1.9-3,0
			c0,0.6,0,1.1,0,1.7c0,0,0,1.3,0.1,1.3c-0.2,0.2-1.8,0.4-2.2,0.5c-0.9,0.5-0.9,1.7-0.3,2.4c0.2,0.2,0.3,0.3,0.5,0.5
			c0,0,0.3,0.2,0.4,0.3c0,0.2,0.2,0.5,0.2,0.6c0.1,0.4,0.3,0.8,0.4,1.2c0.4,1.1,1.7,1.5,2.5,0.7c0.6-0.6,1-1.4,1.3-2.2
			c0.1,0.1,0.2,0.2,0.5,0.2c0.3,0.4,1,0.7,1.5,0.9c1.1,0.7,2.7-0.5,2.2-1.7c-0.3-0.8-0.6-1.4,0.2-1.9
			C115.1,170.7,113.6,168.1,112,169.2z"/>
		<path class="st1" d="M134.4,171c-1.6-0.2-2.4,0.7-2.9,1.8c-0.2-0.2-0.3-0.4-0.5-0.6c0.9-1.1,1.2-2.9,1.5-4.1
			c0.4-1.9-2.5-2.7-2.9-0.8c-0.1,0.4-0.2,1.2-0.4,1.8c-0.3-0.3-0.8-0.5-1.4-0.4c-1,0.2-1.9,0.4-2.9,0.6c-1,0.2-1.5,1.8-0.7,2.5
			c0.3,0.3,0.7,0.5,1.1,0.8c-0.4,0.8-0.7,1.7-0.9,2.6c-0.3,1.4,1.4,2.7,2.5,1.5c0.5-0.5,0.9-1.1,1.4-1.6c0.2-0.2,0.3-0.3,0.5-0.5
			c0,0,0,0,0.1,0.1c0.2,0.3,0.4,0.5,0.6,0.8c0.4,0.5,0.7,1,1.1,1.5c0.8,1.1,2.3,0.9,2.7-0.4c0.2-0.5,0.5-1.3,0.6-1.8
			c0.1-0.2,0.1-0.4,0.2-0.6c-0.4-0.2-0.4-0.3,0.1-0.1C136.3,174.3,136.3,171.3,134.4,171z"/>
	</g>
	<path class="st1" d="M149.4,275.4c-0.4-0.4-1.1-0.5-1.6-0.3c-0.3-0.2-0.6-0.3-0.9-0.3c-0.8,0-1.5,0.7-1.5,1.5c0,0.5,0,1,0.2,1.4
		c0.3,0.6,0.9,0.9,1.5,0.9c0.9,0,1.6-0.5,2.3-1.1C150,276.9,150,275.9,149.4,275.4z"/>
	<path class="st1" d="M201,295c-0.2-0.4-0.5-0.6-0.9-0.8c0.1-0.3,0.2-0.6,0.1-1c-0.2-0.7-1.1-1.4-1.8-1c-1.1,0.5-2.1,1.2-2.8,2.2
		c-0.7,1.1-1.1,2.6-0.1,3.6c0.9,0.9,2.4,1.4,3.6,0.8c0.6-0.3,1-0.8,1.2-1.4c0-0.1,0.1-0.2,0.1-0.3C201.1,296.7,201.5,295.9,201,295z
		 M198,296.4C198.1,296.6,197.9,296.6,198,296.4L198,296.4z M198.4,296.5C198.5,296.5,198.5,296.6,198.4,296.5
		C198.5,296.6,198.5,296.6,198.4,296.5C198.5,296.6,198.4,296.5,198.4,296.5z"/>
	<path class="st1" d="M238.3,214.1c-1.2,0.3-1.7,1.6-1.6,2.7c0,0.4,0.2,0.7,0.4,1c0.2,0.6,0.7,1.1,1.4,1.3c1.6,0.3,2.5-1.2,2.5-2.6
		C241,215.1,239.8,213.7,238.3,214.1z"/>
	<path class="st1" d="M240.3,236c0-0.7-0.7-1.6-1.5-1.5c-0.9,0.1-1.9,0.2-2.6,0.8c-0.8,0.5-1.4,1.4-1.4,2.4c0,2.2,2.3,3.4,4.2,2.5
		c0.7-0.4,0.9-1.4,0.5-2.1c-0.2-0.3-0.4-0.5-0.7-0.6c0,0,0,0,0,0C239.6,237.4,240.3,236.9,240.3,236z"/>
	<path class="st1" d="M247.6,140.2c-2.8-0.6-5.6-1.2-8.5-1.7c-1.9-0.3-2.7,2.6-0.8,2.9c0.2,0,0.4,0.1,0.6,0.1
		c-0.6,0-1.2,0.5-1.5,1.1c-1.2,3.2-0.9,8.1,3.5,8.4c1.1,0.1,2-0.3,2.6-0.9c0.2-0.1,0.3-0.3,0.4-0.4c0.2-0.3,0.4-0.6,0.6-1
		c1-2.3,1.9-4.2,3.7-6C249,142,248.7,140.5,247.6,140.2z"/>
	<g>
		<g>
			<path class="st1" d="M241.1,159.5c3.9,0,3.9-6,0-6C237.2,153.5,237.2,159.5,241.1,159.5L241.1,159.5z"/>
		</g>
	</g>
	<path class="st1" d="M246.5,164.2c-0.2-1.8-0.7-3.5-1.4-5.1c-0.3-0.5-0.6-0.9-1-1.2c1.4-2.7-2.3-6-4.8-3.5c0.7-0.8-1.9-0.2-2.2-0.1
		c-1,0.4-1.9,1.1-2.4,2.1c-0.6,1.1-0.5,2.3-0.7,3.5c-0.2,1.8-0.9,3.3-1.3,5.1c-1.3,5.3,0.2,10.4,5.2,13.1c1.3,0.7,3.4,0.4,4.1-1.1
		c0,0,0-0.1,0.1-0.1c0.6-0.1,1.2-0.3,1.6-0.8c1.8-2.2,3.9-2.3,3.8-5.7C247.5,168.3,247,166.2,246.5,164.2z"/>
	<path class="st1" d="M135.9,82.4c-1.1-1-3.2-1.3-4.2,0c-1.4,1.8-3.5,3.6-2.7,6.1c0.5,1.6,2,2.7,3.7,2.6c1.6-0.1,2.7-1.1,3.6-2.4
		c0.5-0.8,0.5-1.9,0.1-2.8C136.9,84.9,136.9,83.4,135.9,82.4z"/>
	<path class="st1" d="M140.8,61.4c0-0.7-0.7-1-1.2-0.9c0.1-0.4,0.3-0.7,0.3-1.1c0.2-1.3-1.7-1.8-1.9-0.5c-0.2,1.3-1,2.1-1.6,3.2
		c-0.4,0.9-0.2,2,0.7,2.5c0.7,0.4,2.3,0.5,3,0.1C141,64,140.8,62.4,140.8,61.4z"/>
	<path class="st1" d="M286.3,25c-0.1-0.2-0.2-0.4-0.3-0.5c-0.1-0.2-0.1-0.4-0.2-0.5C279.4,9.2,262.4,3.3,247.1,4
		c-9.6,0.4-32.1,5.4-31.8,18.1c-0.8,0.3-1.7,0.6-2.5,0.9c-1.3,0.2-2.4,1.3-2.9,2.6c-0.4,0.9-0.5,1.9-0.2,2.9
		c0.1,0.2,0.2,0.5,0.3,0.7c0.3,0.7,0.8,1.2,1.3,1.6c0.7,0.6,1.5,1,2.4,1c0.3,1.7,1.5,3.2,3.2,3.6c3.2,0.7,6.2,0.2,9.3-0.4
		c7.7,3,16.3-0.9,23.9-3.2c3.5-1,9.6-3.8,11.6-7.7c1.2-0.2,2.4-0.4,3.6-0.6c3,4.4,5.7,8.9,8.2,13.6c2.6,5,5.3,9.8,9.7,13.4
		c2.8,2.3,7.8,1,7.7-3.2C290.6,39.7,289.2,32.2,286.3,25z"/>
	<path class="st2" d="M191.4,288.2c-0.1,0-0.2,0-0.2,0c-0.4-0.2-0.8-0.4-1.2-0.6c0.5,0,1.1,0,1.6,0l0.2,0l0.1,0.2
		c0.2,0.4,0.3,0.8,0.5,1.1c-0.3-0.2-0.6-0.3-0.9-0.5C191.4,288.3,191.4,288.3,191.4,288.2z"/>
	<path class="st2" d="M196.4,291.4c-0.2-0.1-0.4-0.3-0.7-0.4c0.1,0,0.2,0,0.3,0l0.4,0L196.4,291.4
		C196.4,291.4,196.4,291.4,196.4,291.4z"/>
	<path class="st2" d="M274.3,106.8l-0.8,0.5l0.3-0.8c0.3,0,0.6-0.1,1-0.1C274.5,106.6,274.4,106.7,274.3,106.8z"/>
	<path class="st2" d="M40.5,270.3L40.5,270.3c0,0-0.1,0-0.1,0L40.5,270.3z"/>
	<path class="st2" d="M159.6,289.8l0-0.3c0.1-0.5,0.1-1,0.2-1.5c0.2,0.1,0.4,0.2,0.6,0.2c0,0.3-0.1,0.7-0.1,1
		c1.1,0.1,2.4,0.2,3.7,0.3c0.6,0.2,1.2,0.5,1.9,0.7c-2.3,0-4.2-0.1-6-0.4L159.6,289.8z"/>
	<path class="st2" d="M120.1,256.4l-0.2,0.6l-0.4-0.5c0,0,0-0.1-0.1-0.1c0.3-0.1,0.5-0.3,0.8-0.4
		C120.2,256.1,120.1,256.3,120.1,256.4z"/>
	<path class="st2" d="M136.3,257.2c-0.4,0-0.8,0-1.2,0l-0.3,0l0-0.3c1.2,0.1,2.3,0.2,3.5,0.3C137.6,257.2,137,257.2,136.3,257.2z"/>
	<path class="st2" d="M183.8,201c-1.4,0.2-2.9,0.3-4.6,0.4C180.6,200.7,182.3,200.6,183.8,201z"/>
	<path class="st2" d="M246.1,304l-0.3,0l0-0.3c0,0,0,0,0-0.1c0.2,0.1,0.5,0.2,0.7,0.4C246.3,304,246.2,304,246.1,304z"/>
	<path class="st2" d="M154.1,257.6l-0.3,0c-0.7,0-1.3-0.1-2-0.1c0.8,0,1.6-0.1,2.3-0.1L154.1,257.6z"/>
	<path class="st2" d="M197.6,270.4l-0.5,0.6l-0.1-0.8c0-0.1,0-0.2,0-0.3c0.3,0,0.6,0.1,0.9,0.1C197.8,270.1,197.7,270.2,197.6,270.4
		z"/>
	<path class="st2" d="M231.8,297.3c0.5,0,1,0,1.6-0.1c0.4,0.2,0.8,0.4,1.2,0.6c-1,0-2,0.1-3,0.1l-0.3,0l0-0.3c0-0.5-0.1-1.1-0.1-1.7
		c0.2,0.1,0.4,0.2,0.7,0.4C231.8,296.7,231.8,297,231.8,297.3z"/>
	<path class="st2" d="M205.8,122l0.3,0.9l-0.8-0.5c-0.3-0.2-0.6-0.4-0.9-0.7c0.4-0.3,0.7-0.5,1.1-0.8
		C205.5,121.3,205.6,121.7,205.8,122z"/>
	<path class="st2" d="M134,110.4l-0.3,0l0-0.3c0-0.4,0.1-0.7,0.1-1.1c0.2,0.1,0.4,0.1,0.6,0.2c0,0.2,0,0.4-0.1,0.7
		c1.2,0.1,2.3,0.1,3.5,0.1c1.3,0.3,2.5,0.5,3.8,0.8c-1.2-0.1-2.3-0.1-3.4-0.1C136.8,110.5,135.4,110.5,134,110.4z"/>
	<path class="st2" d="M95.4,97.2l0-0.3c0,0,0-0.1,0-0.1c0.6,0.2,1.3,0.4,1.9,0.7c-0.6,0-1.1-0.1-1.6-0.2L95.4,97.2z"/>
	<path class="st2" d="M28.4,182.7c0-0.4,0-0.8,0-1.2l0-0.3l0.1,0c0,0.2,0,0.4,0,0.7C28.4,182.1,28.4,182.4,28.4,182.7z"/>
	<path class="st0" d="M207,277.9c-1.7,4.3,2.2,7.4,5.4,9.5c8.4,5.5,18,9.2,26.8,14.1c4.6,2.6,9.2,5.2,13.7,8
		c2.2,1.3,4.3,2.8,6.4,4.1c1.8,1.1,3.5,2.6,5.6,3.3c4.1,1.4,7.5-2.1,10.6-4.2c4.5-3.2,8.8-6.6,13-10.2c0.2-0.2-0.1-0.5-0.3-0.4
		c-4.2,1.9-8.3,4-12.3,6.3c-1.8,1.1-3.6,2.1-5.4,3.2c-1.2,0.7-2.2,1.6-3.8,1.1c-0.8-0.2-1.7-1.3-2.3-1.8
		c-6.2-4.9-12.7-9.3-19.4-13.3c-6.9-4.2-14.2-7.6-21.4-11.3c-1.7-0.9-3.3-1.7-4.9-2.7c-1-0.6-4.7-2.3-4.8-3.5c0,0,0-0.1,0-0.2
		c0.5,0.4,1.3,0.6,2.1,0.3c3.8-1.3,7.1-3.7,9.4-7c0.2-0.3,0.3-0.5,0.3-0.8c0.5,0,1,0.1,1.5,0.1c2.3,9.7,24.6,7.5,31.4,6.6
		c6.6-0.9,13.2-2.6,19.2-5.6c5.9-2.9,10.6-6.8,15.3-11.4c0.5-0.5-0.2-1.4-0.8-1c-4,2.2-8.3,4.1-12.8,5.7c0.5-0.2,1-0.5,1.5-0.7
		c11.6-6.1,22.7-17.2,27.7-29.5c0.3-0.7-0.7-1.2-1.2-0.7c-4.7,4.5-8.6,9.8-13.3,14.3c-4.8,4.6-10.1,8.5-16.2,11
		c-12.4,5.2-26.2,5.7-39.4,6.2c-2.5,0.1-3.7,2.2-3.6,4.1c-0.7-0.3-1.1-0.7-1-1.2c0.5-2.3-1.1-4.3-3.4-4.4c-2-0.1-4-0.3-6-0.4
		c-1.6-0.1-2.6,0.7-3.1,1.8c0-0.8-0.5-1.8-1.4-2.1c-5.7-2.4-11.9-3.3-18.1-3.7c-3.1-0.2-6.1-0.2-9.2,0c-2.4,0.1-5-0.2-7.4,0.2
		c-0.6,0.1-1.1,0.4-1.4,0.9c-0.1-0.1-0.2-0.2-0.4-0.3c-0.3-0.2-0.9-0.3-1.3-0.2c-0.6,0.2-1.2,0.4-1.6,0.9c-0.3,0.4-0.5,0.9-0.5,1.4
		c-1.3,1.5-1,4.3,1.3,4.8c6.2,1.4,12.9,1.7,19.2,2.2c3.2,0.3,6.3,0.6,9.5,0.7c0.5,0,1,0.1,1.5,0.1c-0.1,0.1-0.2,0.2-0.3,0.3
		C209.9,274.2,207.9,275.8,207,277.9z M219.3,273.8c0.5-0.7,0.9-1.5,1.3-2.4c0.3-0.8,0.1-1.6-0.4-2.3c0.5-0.1,0.9-0.4,1.1-0.8
		c-0.1,1,0.2,2.1,0.9,2.9C221.3,272.3,220.4,273.1,219.3,273.8z M212.8,268.7c0.9,0.1,1.8,0.1,2.8,0.2c-0.1,0.1-0.3,0.2-0.4,0.3
		C214.4,269,213.6,268.8,212.8,268.7z"/>
	<path class="st0" d="M226.7,198.3c0.1-0.9,1.3-0.9,1.4,0c1,17.8,0,36.1-2.7,53.7c-0.6,3.7-6.5,2.2-5.7-1.6
		c1.7-8.7,3.6-17.3,4.6-26.2C225.3,215.6,226.1,207,226.7,198.3z"/>
	<path class="st0" d="M237.6,246.2c-3.3,0.2-5.7-2.6-5.8-5.7c0-1.6,1.4-3,3-3c1.5,0,3.2,1.4,3,3c0,0.1,0,0.4,0,0.5
		c0,0,0,0.1,0.1,0.1c0.2,0.2,0.2,0.3,0.3,0.4c0.4,0.1,1.8-0.3,2-0.8c0.3-0.8,1.2-0.6,1.3,0.2c0.2,1.3,0.5,2.2-0.4,3.3
		C240.3,245.3,239,246.1,237.6,246.2z"/>
	<path class="st0" d="M231.9,215.9c0.3-1.5,2.1-2.5,3.5-2.3c1.6,0.2,2.7,1.5,2.7,3.1c0-0.7,0-0.1,0.1,0.1c0,0.2,0.1,0.3,0.1,0.5
		c0,0,0.1,0.1,0.1,0.2c0,0.1,0.1,0.1,0.1,0.2c0.1,0,0.3,0.2,0.2,0.2c0.1,0.1,0.3,0.1,0.2,0.1c0.1,0,0.3,0.1,0.4,0.1c0,0,0.4,0,0.5,0
		c0.9-0.1,1.9,0.7,2.1,1.6c0.3,1-0.2,1.9-1,2.5c-1.8,1.3-4.2,1-6.1,0c-1-0.5-1.8-1.3-2.4-2.3C231.7,218.7,231.6,217.3,231.9,215.9z"
		/>
	<path class="st0" d="M286.6,192.4c-0.4,13.3-5,26.6-9.8,38.9c-4,10.1-12.3,23-24.9,22.1c-0.7,0-1.2-0.3-1.6-0.7
		c-2,0.7-3.9,1.4-5.8,2.3c-2.8,1.2-4.5-2.9-1.6-3.8c2.1-0.6,4.3-1.1,6.4-1.5c0.2-0.8,0.8-1.4,1.8-1.7c5.2-1.3,9.6-3.4,13.3-7.4
		c3.8-4.2,6.7-9.3,9.3-14.3c5.7-10.8,8.4-22.4,11.6-34.1C285.6,191.6,286.7,191.7,286.6,192.4z"/>
	<path class="st0" d="M148,203.9c0,0,0.1,0,0.1,0c7.4,2.1,15.9,0.2,23.2-1.5c6.4-1.5,12.8-2.7,19.3-3.5c0.6,7,1,13.9,1.5,20.9
		c0.3,4.6,1,9.3,1.2,13.9c0.1,4.6-0.1,9.3,0.1,13.9c0,0.8,1.2,1,1.4,0.2c0.9-4.4,1.3-9,1.7-13.5c0.5-4.6,1.4-9.3,1.7-13.9
		c0.4-7.4,0.4-14.7,0-22.1c1.3,6.7,0.3,14,0.1,20.6c-0.2,9.3-0.3,18.6-0.5,27.9c-0.1,4.2,6.4,4.2,6.5,0c0.2-9.9,0.3-19.9,0.1-29.8
		c-0.2-7.4-1-14.2-4.4-20.6c1.6-2.4,0.7-6.4-2.8-6.3c-0.2-0.2-0.3-0.4-0.5-0.6c0.4-0.4,0.4-1.3-0.2-1.6c-8.5-4-20-0.4-28.7,1.5
		c-5.2,1.1-10.4,2.1-15.5,3.5c-4,1.1-6.9,3.1-7.4,7.4C144.6,202.6,146.2,203.8,148,203.9z M152.2,201.2c0.1-0.3,0.2-0.6,0.2-1
		c-0.1,1-0.1,0.4,1,0c0.6-0.3,1.4-0.4,2-0.6c2-0.6,4.1-1.1,6.1-1.7c3.9-1.1,7.7-2.3,11.6-3.4c3.7-1.1,7.5-2.3,11.3-3.1
		c1.9-0.4,3.8-0.7,5.7-0.9c0,0.1-0.1,0.2-0.1,0.3c-6.2,0.9-12.3,2.3-18.3,4.2c-3.9,1.3-7.7,2.8-11.6,4
		C157.5,199.9,154.9,200.6,152.2,201.2z"/>
	<path class="st0" d="M205.4,163.2c-0.6-0.7,0.3-1.6,1-1c5.1,4,9.8,8.4,14.2,13.1c2.1,2.2,4.2,4.4,6.1,6.6c1.7,2,3.7,4.1,4.8,6.5
		c0.2-0.3,0.4-0.5,0.7-0.7c-1.6-2-0.3-5.6,3.2-5c4.1,0.7,8.3,1.4,12.4,1c3.7-0.4,7.3-1.7,10.7-3.3c3.3-1.5,6.4-3.3,9.7-4.8
		c3-1.4,6.1-3.1,9.4-3.4c0.3,0,0.6,0.4,0.4,0.7c-2.2,3-5.7,4.9-8.7,6.9c-1.5,1-3,1.9-4.5,2.8c0.9-0.4,1.8-0.8,2.7-1.2
		c3.1-1.4,8.3-2.5,9.8-5.8c0.3-0.8,1.5-0.3,1.5,0.4c0,3.1-2.2,4.8-4.6,6.4c-4.1,2.7-8.5,4.9-12.8,7.3c-3.9,2.2-7.8,4.1-12.3,4.5
		c-4.8,0.4-9.7-0.1-14.5,0.2c-1.3,0.1-2.4-0.6-3-1.6c-1.1,1.4-3.4,1.7-5,0.4c-2.2-1.8-3.5-4.9-4.9-7.3c-1.5-2.6-3-5.2-4.7-7.7
		C213.3,173,209.4,168,205.4,163.2z"/>
	<path class="st0" d="M276.7,158.6c-1.6,0.2-3-1.5-3-3c0-1.7,1.4-2.9,3-3c1.4-0.1,2.7-0.1,4.1-0.5c1.3-0.4,2.5-1.3,3.8-1.5
		c1-0.2,1.7,0.6,1.5,1.5C285.3,155.7,280,158.3,276.7,158.6z"/>
	<path class="st0" d="M261.2,142.7c0.9,0.6,1,2,0,2.6c-0.9,0.5-0.8,3.1-1,4.1c-0.3,1.9-0.5,3.8-1,5.7c-0.1,0.5-0.3,0.9-0.6,1.2
		c-0.5,2-1.2,4.1-1.8,6c-1.1,3.5-2.1,7.1-4.9,9.7c-2.4,2.3-6.1-1.4-3.6-3.6c2.6-2.5,3.4-6.1,4.8-9.3c0.4-0.9,0.7-1.9,1.1-2.8
		c-0.6-0.6-0.9-1.5-0.7-2.6c0.1-0.2,0.1-0.5,0.2-0.9c-0.8-0.2-1.6-0.5-2.3-1.1c-2.8-2.5-3-7.2-1.3-10.4c1.6-2.9,6-1.5,6.1,1.7
		c0,0.8-0.3,2-0.4,3C257.2,143.1,258.9,141.1,261.2,142.7z"/>
	<path class="st0" d="M234.2,147.8c0.4,1.2,0.2,2.5-0.6,3.3c-0.9,3.6-2.5,7-4.7,10c-2.5,3.4-7.3-0.2-4.6-3.6
		c1.8-2.2,3.4-4.6,4.7-7.1c-0.3-0.4-0.4-0.9-0.3-1.5c0.1-0.5,0.2-1.1,0.3-1.7c-0.9-1.2-1.9-2.3-2.8-3.5c-0.8-1-0.7-2-0.2-2.7
		c-0.4-1-0.6-2-0.7-3c-0.3-3.1,4.4-3.5,5.2-0.7c0.4,1.5,0.7,3,1,4.6c0.5-0.5,1.1-0.9,1.9-1.2c0.7-0.3,1.2,0.5,1.1,1.1
		c0,0.2-0.1,0.4-0.1,0.7c0.1,0.1,0.1,0.3,0.1,0.5C234.5,144.7,234.4,146.3,234.2,147.8z"/>
	<path class="st0" d="M140.1,278.9c-2.3-3.1,3-6.3,5.3-3.1c1.1,1.6,2.6,2.8,4.2,3.7c0.5-0.1,1-0.2,1.6,0c8.5,2.2,16.9,5.3,25.1,8.2
		c8,2.8,16.2,5.6,23.5,9.8c0.3,0.2,0.4,0.4,0.3,0.7c0.5-0.1,1.1-0.3,1.6-0.6c1-0.5,2.3,0.6,1.6,1.6c-2.7,3.9-7.2,4.2-11.6,3.2
		c-6.5-1.5-12.9-4.5-19.1-6.9c-6.4-2.5-12.8-5.1-19.2-7.8C148.4,285.5,143.6,283.5,140.1,278.9z"/>
	<path class="st0" d="M136,299.8c0.6,1.9,0.9,3.9,1.5,5.8c0.2,0.6,0.8,1.7,0.9,2.5c0.1,0,0.2-0.1,0.3-0.1c2.8-2.4,7.2-4,10.7-4.7
		c1-0.2,2.2,0.9,1.5,2c-1.8,2.6-4.1,4.6-6.6,6.6c-2.1,1.6-5,4.4-7.9,3.9c-2.5-0.5-3.5-2.8-4.3-4.9c-1.2-3.2-2.2-6.6-2.6-10.1
		C129.2,296.9,135,296.4,136,299.8z"/>
	<path class="st0" d="M112,250.1c10.1,2.5,20.3,3.1,30.7,3.3c4.9,0.1,9.9,0,14.8,0c2.5,0,4.9-0.1,7.4,0c3.1,0,7.9,0.5,8.3-3.9
		c0.1-1,1.4-1.2,1.7-0.2c1.6,4.3-2.3,7.7-6.1,8.8c-6,1.7-13.1,1.6-19.3,1.8c-13.2,0.6-26.4-0.1-39.3-3.2
		C105.9,255.7,107.7,249.1,112,250.1z"/>
	<path class="st0" d="M95.1,256.7c-3-0.6-1.7-5.4,1.3-4.6c2.5,0.7,4.9,0.7,7.5,0.6c1.6-0.1,2.4,2.4,0.8,3.1
		C101.7,257.3,98.4,257.3,95.1,256.7z"/>
	<path class="st0" d="M28.5,151.7c0.3-0.9,1.7-0.8,1.7,0.2c-0.3,8.1-0.2,15.9,0.5,24c0.7,8,1.4,16.1,1.1,24.2
		c-0.3,7.7-2.6,15.4-2.5,23.1c0.1,8.3,5,13.3,9.9,19.4c0.2,0.2,0.3,0.5,0.4,0.8c6,3.8,12.7,6.4,19.6,8.1c4.8,1.2,9.4,1.6,14.1,1.6
		c0-1.6,0.9-3.1,3.1-3.1c4.9,0,9.5,1.6,14.4,2.2c2.1,0.3,2.3,3.4,0,3.4c-1.4,0-2.7,0.1-4.1,0.3c-0.2,1-0.8,1.8-1.9,2.1
		c-9.3,2.1-18.9,1.2-27.8-1.9c-7.3-1-15.2-4-20.4-9.3c-0.3-0.1-0.6-0.3-0.9-0.6c-5.3-4.8-10.5-11-12.2-18.1
		c-1.9-8.2,1.2-16.8,1.8-25C26.5,186.2,23.1,168.2,28.5,151.7z"/>
	<path class="st0" d="M121.9,201.7c1.4-0.4,3.5,0.5,3.7,2.1c0.2,1.4,0.3,2.8,0.2,4.3c-0.1,1.3-0.4,2.7-0.1,4
		c0.5,2.2,2.8,2.1,4.5,1.6c1.3-0.4,2.4,1.1,1.7,2.3c-1.7,3.2-6.3,3.3-9,1.5c-4.3-2.9-2.4-7.7-3.1-11.9
		C119.5,203.8,120.2,202.2,121.9,201.7z"/>
	<path class="st0" d="M103.1,213.6c-0.7-2.7-0.3-5.9-0.3-8.7c0-3.7,0-7.4,0.2-11.1c0.2-4,6.2-4,6.2,0c0,4.5-0.2,9-0.5,13.6
		c-0.1,1.6-0.9,4.6,0.6,5.7c1.5,1.1,4.3,1.2,6,1.8c1.3,0.5,1.4,2.3,0,2.7C111.4,218.9,104.4,218.6,103.1,213.6z"/>
	<path class="st0" d="M87.5,213.7c-0.7-3.1,0-6.6,0.3-9.7c0.3-3.6,0.6-7.4,1.4-10.9c0.6-2.9,5.6-2.4,5.3,0.7
		c-0.4,4.6-1.4,9.2-1.9,13.8c-0.2,1.9-0.9,4.9,0.2,6.6c1.1,1.7,3.4,1.6,5.1,2c1,0.3,1.4,2,0.3,2.5C93.9,220.7,88.7,218.5,87.5,213.7
		z"/>
	<path class="st0" d="M89.4,154.9c-1.6,0.8-3.3,0.6-4.8,0c-1.4,2.9-3.4,5.4-6.9,6.2c-1,0.2-2.2,0.2-3.2-0.1
		c-0.4-0.1-1.3-0.7-1.7-0.7c-0.6,0.1-1.7,1.3-2.5,1.6c-0.8,0.3-1.7,0.4-2.6,0.4c-1.9-0.1-3.7-1-4.9-2.5c-0.3-0.4-1-1-0.6-1
		c-0.9-0.1-1.8,0.2-2.7-0.2c-1.8-0.7-3-2.2-4.1-3.8c-1.8-2.6-3.5-5.4-5.2-8c-1.5-2.2,0.9-4.4,3-3.9c-0.6-2.5,2.8-4.4,4.3-1.9
		c0.5,0.8,5.2,9.4,5.8,9.1c1.3-0.7,3-0.1,3.4,1.4c0.7,2.2,2.3,3.4,4.2,3.6c0.8-0.3,1.5-0.4,2.3-0.3c0.1,0,0.3-0.1,0.4-0.1
		c-2.5-3.1-4.5-6.8-6.3-10.3c-1-1.9,1.6-3.4,2.8-1.6c2.4,3.5,5.2,6.3,8,9.4c0.7,0.8,0.8,1.7,0.5,2.5c0,0,0,0,0.1-0.1
		c1.2-1.2,1.9-3,2.7-4.5c0.2-0.4,0.5-0.7,0.8-0.9c-0.4-0.5-0.7-0.9-1-1.4c-1.6-2.1-2.9-4.2-4-6.5c-0.7-1.5,1.2-3.3,2.4-1.9
		c1.5,1.8,3.1,3.5,4.8,5c1.7,1.6,3.9,2.8,5.4,4.6c0.6,0.7,0.8,1.7,0.6,2.5C91.5,152.6,90.9,154.2,89.4,154.9z"/>
	<path class="st0" d="M151.4,238.3c1.2,0.6,2.7,0.7,3.9,1.5c0.7,0.5,0.9,1.4,0.3,2.1c-1.3,1.4-3.7,1.4-5.4,1.2
		c-1.6-0.2-3-1.5-2.5-3.3C148,238.2,149.9,237.5,151.4,238.3z"/>
	<path class="st0" d="M143,242.6c-1.9,1.2-4.1,1.2-6.2,0.3c-1.1-0.5-1.4-2.1-0.8-3.1c0.6-1,2-1.4,3.1-0.8c0.8,0.5,1.4,0.5,2.4,0.1
		c0.9-0.4,1.9,0.3,2.2,1.1C144.1,241.1,143.8,242.1,143,242.6z"/>
	<path class="st0" d="M127.9,242.9c-1.4,0.7-2.9,0.8-4.4,0.3c-0.9-0.4-1.5-1.1-1.4-2.1c0.1-0.9,0.9-1.8,1.9-1.7c0.2,0,0.4,0,0.5,0
		c0,0,0.2,0,0.3,0c0,0,0.1,0,0.1,0c0,0,0,0,0,0c0.2-0.1,0.4-0.2,0.6-0.3c1-0.6,2.6-0.3,3.1,0.8C129.3,240.9,129,242.4,127.9,242.9z"
		/>
	<path class="st0" d="M116.3,243c-0.3,0-0.7-0.1-1-0.1c-0.5-0.1-1-0.5-1.3-0.9c-0.3-0.4-0.6-1-0.5-1.5c0-1.1,0.7-2.2,1.8-2.4
		c0.3-0.1,0.7-0.1,1-0.1c0.9,0,1.8,0.5,2.2,1.3c0.5,0.8,0.5,1.8,0,2.6C118.1,242.5,117.2,243.1,116.3,243z"/>
	<path class="st0" d="M100,240.1c-0.3,1.1-1.4,1.7-2.5,1.4c-1-0.3-1.9-0.3-3-0.2c-1.2,0.1-2.3-1.1-2.2-2.2c0.1-1.3,1-2.1,2.2-2.2
		c1.4-0.1,2.8,0.2,4.1,0.7C99.6,238,100.3,239,100,240.1z"/>
	<path class="st0" d="M82.7,241.6c-0.9-0.1-1.8-0.2-2.7-0.3c-1.3-0.1-2.3-1.1-2.1-2.5c0.2-1.3,1.4-2.1,2.7-1.8
		c0.9,0.2,1.8,0.4,2.6,0.6c1,0.2,1.6,1.3,1.4,2.2C84.6,240.8,83.7,241.7,82.7,241.6z"/>
	<path class="st0" d="M70.6,241.3c-0.8,0.1-1.9,0.1-2.6,0.3c-1.3,0.3-2.6-0.6-2.6-2c0-1.4,1.3-2.3,2.6-2c0.3,0.1,0.7,0.1,1.1,0.1
		c0.5,0,1,0.1,1.5,0.1c0.9,0.1,1.7,0.7,1.7,1.7C72.4,240.6,71.6,241.2,70.6,241.3z"/>
	<path class="st0" d="M55.9,240.5c-1.9,0.4-3.9,0.5-5.6-0.4c-0.9-0.5-1.3-1.8-0.9-2.7c0.5-1,1.5-1.4,2.5-1.2
		c0.6,0.1,1.2,0.3,1.8,0.5c0.5,0.1,1.1,0.1,1.6,0.1C57.5,236.6,58,240,55.9,240.5z"/>
	<path class="st0" d="M145.1,235.4c-1-0.1-2.1-0.2-3.1-0.2c-1.1-0.1-1.9-0.9-1.8-2c0.2-1.1,1.2-1.7,2.3-1.5c1,0.2,2.1,0.4,3.1,0.6
		C147.3,232.7,146.9,235.6,145.1,235.4z"/>
	<path class="st0" d="M135.1,234.1c-0.7,0.5-1.8,0.6-2.7,0.7c-0.9,0.1-1.9,0-2.7-0.3c-1.1-0.4-1.8-1.4-1.5-2.6
		c0.3-1,1.5-1.8,2.6-1.5c0.6,0.2,1.3,0.5,1.9,0.7c0.6,0.2,1.3,0.1,2,0.3C136.1,231.8,136.2,233.4,135.1,234.1z"/>
	<path class="st0" d="M120.9,234.6C120.9,234.6,120.9,234.6,120.9,234.6c-0.1,0-0.2,0-0.2,0c0,0-0.3,0.1-0.4,0.1
		c-0.3,0.1-0.7,0.3-1.1,0.4c-1.2,0.5-2.5-0.4-3-1.5c-0.5-1.1-0.1-2.6,1-3.2c1.5-0.8,3.4-0.9,5-0.3c1.1,0.4,1.8,1.3,1.6,2.5
		c-0.1,1-1.1,2.1-2.2,1.9C121.5,234.6,121.2,234.6,120.9,234.6z"/>
	<path class="st0" d="M103.8,232.4c0-1,0.8-1.9,1.9-1.9l1.8,0.1c0.9,0.1,1.8,0.8,1.7,1.7c0,1-0.8,1.7-1.7,1.7l-1.8,0.1
		C104.7,234.3,103.7,233.4,103.8,232.4z"/>
	<path class="st0" d="M94.4,233.7c-0.9,0-1.8-0.9-1.8-1.8c0-0.9,0.8-1.8,1.8-1.8c0.4,0,0.9,0,1.3,0.1c0.9,0,1.8,0.8,1.7,1.7
		c0,1-0.8,1.7-1.7,1.7C95.3,233.7,94.9,233.7,94.4,233.7z"/>
	<path class="st0" d="M85.9,233.8c-0.3,0-0.6,0-0.9,0c-1,0-1.9-0.9-1.9-1.9c0-1,0.8-1.9,1.9-1.9c0.3,0,0.6,0,0.9,0
		c1,0,1.9,0.8,1.8,1.8C87.7,233,86.9,233.8,85.9,233.8z"/>
	<path class="st0" d="M76.5,234.1c-1.1-0.1-2.2-0.9-2.2-2.2c0.1-1.3,1-2.1,2.2-2.2c0.8-0.1,1.5,0,2.2,0.1c1.1,0.1,2.2,0.9,2.1,2.1
		c-0.1,1.2-0.9,2-2.1,2.1C78,234.1,77.2,234.2,76.5,234.1z"/>
	<path class="st0" d="M69.7,233.5l-1.8,0c-0.8,0-1.6-0.7-1.6-1.6c0-0.8,0.7-1.6,1.6-1.6l1.8,0c0.8,0,1.6,0.7,1.5,1.5
		C71.2,232.8,70.6,233.5,69.7,233.5z"/>
	<path class="st0" d="M60.9,229.9c0.1,0,0.2,0.1,0.4,0.1c0,0,0.1,0,0.1,0c0.1,0,0.1,0,0.2-0.1c0.4-0.2,1.2,0,1.6,0.2
		c0.4,0.2,0.7,0.6,0.8,1c0.4,0.9,0,2-0.8,2.6c-1.2,0.7-2.7,0.8-3.9,0c-0.9-0.6-1.3-1.6-0.8-2.6C58.8,230.3,59.9,229.6,60.9,229.9z"
		/>
	<path class="st0" d="M55.4,234c-0.3,0-0.6,0-1,0c-0.5,0-0.9-0.1-1.4-0.1c-0.8-0.2-1.5-1.1-1.5-2c0-0.9,0.6-1.8,1.5-2
		c0.5-0.1,0.9-0.2,1.4-0.1c0.3,0,0.6,0,1,0c1.1,0.1,2.1,0.9,2.1,2.1C57.4,233.1,56.5,234,55.4,234z"/>
	<path class="st0" d="M45.5,233.7c-1.1,0-2.2-1-2.2-2.2c0.1-1.2,1-2.2,2.2-2.2l2.2,0c1.1,0,2.2,1,2.1,2.1c-0.1,1.2-0.9,2.1-2.1,2.1
		L45.5,233.7z"/>
	<path class="st0" d="M71.1,274.4C71.2,274.3,71.1,274.4,71.1,274.4L71.1,274.4z"/>
	<path class="st0" d="M207.7,120.8c-1.3,1.9-3.3,3.6-5.1,5.1c-1.4,1.2-3,2.4-4.9,1.5c-1.7-0.8-2.5-2.8-3.4-4.3
		c-1.1-1.7-2.6-2.9-3.8-4.5c-1.7-2.4,1.1-5,3.5-4.5c3.3,0.7,4.8,4.3,5.9,7.1c0.1,0.2,0.2,0.4,0.2,0.6c0.4-0.2,0.8-0.3,0.9-0.4
		c1.7-0.9,3.4-2,5.3-2.5C207.3,118.7,208.3,119.9,207.7,120.8z"/>
	<path class="st0" d="M165.6,141.8c1.4,0.1,2.7,0.6,3.9,1.3c1-3.2,1.7-6.8,5.8-6.5c1.2,0.1,1.9,1.8,0.7,2.4
		c-2.9,1.4-1.9,7.1-3.5,9.8c-1,1.7-3.3,1.5-4.3,0c-1.4-2.1-3.2-1.3-5.3-1.1c-1.5,0.1-2.9-0.3-4.1-1.3c-3.1-2.6-2.2-6.2-2.9-9.7
		c-1-4.7,6-5.8,6.6-0.9c0.2,1.6-0.5,3.7-0.1,5.1C162.8,142.7,164,141.7,165.6,141.8z"/>
	<path class="st0" d="M153.2,101c4.2,0,9.1-0.6,12.8,1.9c1.5,1,2.5,2.5,3.6,3.9c0.3,0.4,0.6,0.8,0.9,1.1c0.6-2,1.3-3.9,1.7-5.9
		c0.6-2.7,0.7-5.6,1.9-8.1c2.5-5.7,7.7-9.1,8.8-15.6c0.1-0.9,1.5-0.6,1.5,0.2c0,2.9-0.2,5.7-1,8.5c-0.9,2.9-2.8,5.3-3.6,8.2
		c-0.8,2.8-0.7,5.8-1.2,8.6c-0.6,3.3-1.4,6.5-2.8,9.6c-0.2,0.4-0.5,0.8-0.7,1c0,0,0,0.1,0,0.1c0,1.4-1.4,2.3-2.6,2.1
		c-0.4,0.5-1.1,0.7-1.8,0.4c-2.2-1-3.8-2.6-5.7-4c-2.4-1.6-4.9-1.2-7.6-1.1c-6.3,0.1-12.5-0.3-18.7-1.1c-5.9-0.8-11.8-1.9-17.5-3.4
		c-1.9-0.5-3.9-1.1-5.8-1.9c-0.8-0.2-1.6-0.4-2.4-0.6c-8.7-2.5-17.1-6.9-23.2-13.9C84,84.4,79.4,75.3,81,66.6
		c0.3-1.4,1.5-2.4,2.9-2.8c0.1-4.1,1.5-8.2,4.3-11.3c1.3-1.4,3.9,0.1,3.2,1.9c-2.5,6.7-2,12.6,2.1,18.5c1.4,2.1-0.4,4.4-2.4,4.8
		c0.2,0.5,0.5,1.1,0.7,1.6c1.8,3.4,4.2,6.4,7.1,9c3.2,2.9,6.9,5,10.8,6.6c0.8-0.3,1.8-0.3,2.7,0.2c1.1,0.6,2.3,1.3,3.4,1.9
		c2.5,0.7,5,1.3,7.5,1.7C133.2,100.4,143.3,100.9,153.2,101z"/>
	<path class="st0" d="M260.8,44.8c2.8,0.6,6.4,1.8,8.8,3.4c1.5,1,0.8,3.1-0.9,3.3c-2.9,0.3-6.6-0.4-9.4-1.2
		C255.7,49.3,257.2,44,260.8,44.8z"/>
	<path class="st0" d="M265.4,63.9c0.8-0.2,2,0.4,1.9,1.4c-0.2,2.1-2.2,3.2-4.1,3.3c-2.3,0.1-4.3-1.2-5.9-2.7c-1.1-1-1-2.9,0-3.9
		c0.8-0.8,1.8-0.9,2.7-0.7c0.4,0.1,0.9,0.3,1.2,0.7c0.7,0.6,1.5,1.6,2.4,2c0.2,0.1,0.3,0.1,0.5,0.1C264.5,64.1,264.9,64,265.4,63.9z
		"/>
	<path class="st0" d="M233.2,65.4c-0.6,2.1-3.5,2.5-5.3,2.1c-1.9-0.3-3.6-1.6-4.4-3.3c-0.8-1.5-0.3-3.3,1.4-4
		c0.2-0.1,0.4-0.1,0.5-0.2c1.4-0.3,2.9,0.6,3.3,2c0,0,0,0.1,0,0.1c0,0,0,0.1,0.1,0.2c0,0-0.1,0-0.1-0.1c0,0,0.1,0.1,0.2,0.1
		c0.1,0.1,0.2,0.1,0.2,0.2c0,0,0.1,0,0.1,0.1c0.1,0,0.4,0.2,0.4,0.2c0.1,0,0.5,0.1,0.6,0.1c0.6,0,1.1-0.1,1.7,0.1
		c0.1,0,0.2,0.1,0.4,0.1C233,63.5,233.4,64.6,233.2,65.4z"/>
	<path class="st0" d="M231.3,52.1c-2.2,0.3-4.3,0.5-6.5,1.1c-3.7,0.9-4.5-5.2-0.7-5.1c2.5,0,5.1,0.2,7.6,0.8
		C233.7,49.4,233.1,51.9,231.3,52.1z"/>
	<path class="st0" d="M240.5,81.4c-1.6-1.2-2.4-3.2-1.3-5.1c1.1-1.8,3.3-2.2,5.1-1.3c0.2,0.1,0.4,0.2,0.6,0.3c0,0,0.6,0.3,0.6,0.3
		c0.2,0,0.5,0.1,0.7,0.1c0.6,0,1.6-0.4,2.5-0.5c1.2-0.2,2.6,0.5,2.6,1.9C251.1,81.8,243.9,83.9,240.5,81.4z"/>
	<path class="st0" d="M213.5,92.3c-4.6-7.9-7.4-16.5-8.5-25.6c-0.2-1.4-2.1-1.4-2.2,0c-0.3,8.3,0.5,16.8,3.8,24.5
		c3.3,7.9,9.5,13.2,14.8,19.7c2.6,3.2,4.4,7.1,4.3,11.4c-0.1,4.2-2.7,6.5-6.4,8.1c-3.6,1.5-6.9,2.5-9.7,5.3
		c-2.2,2.1-4.1,4.3-4.9,7.3c-0.7,0.5-1.5,1-2.2,1.5c-1.6,1-3.3,1.8-5,2.7c-2.6,1.3-0.3,5.3,2.3,3.9c1.6-0.9,3.5-2.1,5.1-3.4
		c0.2,0.1,0.5,0.2,0.8,0.2c0.8,0,1.2-0.4,1.4-1c0.9,0,1.8-0.5,2-1.7c0.9-4.6,5.5-5.1,9.3-6.3c3.7-1.2,7.6-2.7,10.4-5.5
		c2-2,3.2-4.4,3.7-6.9c0.6,0.3,1.3,0.4,1.9,0.2c-0.3,1-0.4,2-0.3,2.9c0.5,3.8,5,6.5,7.6,8.9c1.5,1.4,4.2,1,5.2-0.6
		c1.6,0.8,3.5,0.9,5.3-0.1c1.5-0.9,2.6-2.6,2.9-4.4c4.2,0.4,4.9-6.3,5.3-9.3c0.7-5.2,2.3-9.1,6.5-12.3c6.3-4.8,15.8-9.7,14.8-19.2
		c-0.1-1.1-1.6-1.1-1.7,0c-0.5,9-12.1,10.9-18.2,15.3c-1.5,1.1-2.9,2.3-4,3.7c-1.3,0.4-2.6,0.9-3.8,1.1c-2.7,0.5-5.4,0.2-8.1,0
		c-1.2-0.1-2.1,0.3-2.6,1c-4.3-1.7-8.6-3.2-12.6-5.7c-5.6-3.5-10.1-8.2-14.7-13c-0.3-0.3-0.8-0.3-1.1,0
		C214.6,94,214,93.1,213.5,92.3z M249.6,119.4c0.5,0,1-0.1,1.4-0.2c-0.2,0.4-0.3,0.9-0.5,1.3c-0.2-0.2-0.5-0.3-0.8-0.3
		C249.7,119.9,249.7,119.6,249.6,119.4z M229.2,111.2c1,0.8,2.2,1.5,3.4,2.2c-0.6,1-0.7,2.4,0.5,3.2c-0.2,0.3-0.4,0.6-0.5,1
		c-0.1,0.2-0.1,0.4-0.2,0.6c-0.5-2.1-1.4-4.1-2.4-5.9C229.7,112,229.4,111.6,229.2,111.2z"/>
	<path class="st0" d="M288.3,79.7c-4.4,0.3-4.3-7.3,0-6.8c1.4,0.2,2.8,0.3,4.2,0.3c1.3-0.1,2.6-0.3,3.9-0.2c0.7,0.1,1.4,0.7,1.1,1.4
		C296.2,77.9,291.8,79.4,288.3,79.7z"/>
	<path class="st0" d="M270,19.7c-1.5-3.6-4-6.5-7.4-8.5c-1.5-0.9-0.2-2.9,1.3-2.2c4,1.8,7.3,4.9,9.5,8.8C274.6,20,271,22,270,19.7z"
		/>
	<path class="st0" d="M36.6,276.9c0,0.9,0.4,2.1,1.4,2.3c1.3,0.3,2.4-0.9,3.3-1.6c1.5-1.1,3.1,0.5,3.2,1.9c0.5,4.5-4.9,7.3-8.7,6.6
		c-4.4-0.8-7.6-5.7-6.1-10C31,272.3,36.4,272.9,36.6,276.9z"/>
	<g>
		<path class="st3" d="M269.9,49.2c0.3,0,0.5-0.1,0.7-0.3c0.4-0.4,0.3-1-0.1-1.4c-2.8-2.5-6.5-3-10.2-3.4c-0.8-0.1-1.6-0.2-2.4-0.3
			c-0.5-0.1-1,0.3-1.1,0.8c-0.1,0.5,0.3,1,0.8,1.1c0.8,0.1,1.6,0.2,2.4,0.3c3.3,0.4,6.8,0.8,9.1,2.9
			C269.4,49.2,269.7,49.2,269.9,49.2z"/>
	</g>
	<g>
		<path class="st3" d="M221.4,49.2c1.5,0,3.1-0.3,4.5-0.7c1.4-0.3,2.8-0.6,4.1-0.6c0.3,0,0.5,0,0.8,0c0.5,0,1-0.3,1.1-0.9
			s-0.3-1-0.9-1.1c-0.3,0-0.6,0-1,0c-1.5,0-3.1,0.3-4.5,0.7c-1.4,0.3-2.8,0.6-4.1,0.6c-0.5,0-1,0.4-1,1
			C220.5,48.8,220.9,49.2,221.4,49.2z"/>
	</g>
	<g>
		<path class="st3" d="M231.9,190.4c0.1,0,0.3,0,0.4-0.1c0.5-0.2,0.7-0.8,0.4-1.3c-7-13.8-19.4-24.6-26.7-30.1
			c2.4-2.5,5-4.9,7.8-7.2c0.4-0.3,0.5-0.8,0.2-1.2c-1.1-1.9-2.2-3.7-3.4-5.3c2.2-1.5,4.8-2.9,7.2-4.2c8.4-4.5,17.1-9.2,17.1-19.6
			c0-6.6-4.4-10.6-9.5-15.3c-8.2-7.5-18.3-16.8-18.3-41.5c0-10.3,2.5-20.7,7.2-29.9c0.2-0.5,0.1-1.1-0.4-1.3
			c-0.5-0.2-1.1-0.1-1.3,0.4c-4.8,9.5-7.4,20.2-7.4,30.8c0,25.6,11,35.6,19,42.9c5,4.5,8.9,8.1,8.9,13.9c0,9.2-7.8,13.4-16,17.9
			c-2.8,1.5-5.7,3.1-8.3,4.9c-0.2,0.2-0.4,0.4-0.4,0.6c0,0.3,0,0.5,0.2,0.7c1.2,1.6,2.3,3.2,3.5,5.1c-2.9,2.4-5.7,5-8.1,7.6
			c-0.2,0.2-0.3,0.5-0.2,0.7c0,0.3,0.2,0.5,0.4,0.7c7,5.2,19.9,16.1,27,30.1C231.2,190.2,231.5,190.4,231.9,190.4z"/>
	</g>
	<g>
		<path class="st3" d="M206.1,64.9c0.3,0,0.6-0.1,0.8-0.4c0.3-0.4,0.3-1-0.2-1.4c-2.4-1.8-3.6-3.6-3.6-5.1c0-0.5,0-1-0.1-1.5
			c0-0.4-0.1-0.9-0.1-1.3c0-2.4,1.5-3.7,4.9-4.2c0.5-0.1,0.9-0.6,0.8-1.1s-0.6-0.9-1.1-0.8c-4.4,0.6-6.6,2.6-6.6,6.1
			c0,0.5,0,1,0.1,1.4c0,0.5,0.1,0.9,0.1,1.3c0,2.1,1.5,4.4,4.4,6.6C205.7,64.9,205.9,64.9,206.1,64.9z"/>
	</g>
	<g>
		<path class="st3" d="M288.4,68.3c1.6,0,4.8-1.3,4.8-3.3c0-1.2-0.9-2.4-2.2-2.9c0-0.1-0.1-0.2-0.2-0.2c-0.4-0.4-1-0.4-1.4,0
			l-0.3,0.3c-0.3,0.3-0.4,0.7-0.2,1c0.1,0.4,0.5,0.6,0.9,0.6c0.8,0,1.4,0.7,1.4,1.2c0,0.4-1.7,1.4-2.9,1.4c-0.2,0-0.4,0-0.6-0.1
			c-0.5-0.1-1,0.2-1.1,0.8c-0.1,0.5,0.2,1,0.8,1.1C287.8,68.3,288.1,68.3,288.4,68.3z"/>
	</g>
	<g>
		<path class="st3" d="M260.3,62.8c-1-1-1.5-2.3-1.4-3.6c0.1-2.8,2.1-4.4,4.2-4.6c0.2,0,0.3,0,0.5,0l0.2,0c0.6,0,1.4,0.1,2.1,0.5
			c1.6,0.9,2.6,2.7,2.5,4.5c-0.1,2.5-2,4.5-4.5,4.6c-0.1,0-0.1,0-0.2,0C262.4,64.2,261.2,63.7,260.3,62.8z M263.6,56.5l-0.2,0
			c-0.1,0-0.2,0-0.3,0c-1.1,0.1-2.3,1-2.4,2.7c0,0.8,0.3,1.6,0.9,2.2c0.6,0.6,1.3,0.9,2.2,0.8c1.5,0,2.6-1.2,2.6-2.7
			c0-1.2-0.6-2.2-1.6-2.8C264.5,56.6,264.1,56.5,263.6,56.5z"/>
	</g>
	<g>
		<path class="st3" d="M228.4,64.8c-2.6-0.1-4.2-1.9-4.2-4.8c0-0.1,0-0.2,0-0.3c0.1-3.7,4.6-5.1,5.5-5.1c1.3,0,3.6,1.5,3.6,4.6
			c0,2.4-1.2,4.9-3.6,5.4c-0.3,0.1-0.6,0.1-0.9,0.1C228.7,64.8,228.5,64.8,228.4,64.8z M231.3,59.7c0-1.1-0.5-2.1-1.3-2.7
			c-0.2-0.1-0.3-0.3-0.3-0.4c-0.5,0.1-3.6,1-3.6,3.3c0,1.3,1.4,2.8,2.4,3.1c0.2,0,0.5,0,0.7-0.1C230,62.5,231.3,61.5,231.3,59.7z"/>
	</g>
	<g>
		<path class="st3" d="M239.8,79.5c0.1,0,0.3,0,0.4,0c0.1,0,0.2,0,0.3,0c1.1,0,2.1-0.6,2.9-1.1c0.6-0.4,1.2-0.7,1.7-0.8
			c0.5-0.1,0.9-0.6,0.8-1.1c-0.1-0.5-0.6-0.9-1.1-0.8c-0.9,0.2-1.7,0.7-2.3,1.1c-0.7,0.4-1.3,0.8-1.9,0.8c-0.1,0-0.2,0-0.3,0
			c-0.1,0-0.3,0-0.4,0c-1.8,0-2.7-1.7-2.7-2.8c0-1.6,1.5-3.1,3.1-3.1c0,0,0.1,0,0.2,0c0.3,0,0.8,0.1,1.1,0.1c6,0,9.3-4.8,9.3-13.5
			c0-1.2-0.1-2.4-0.2-3.7c-0.1-0.5-0.5-0.9-1.1-0.9c-0.5,0.1-0.9,0.5-0.9,1.1c0.1,1.2,0.2,2.4,0.2,3.5c0,5.3-1.3,11.6-7.3,11.6
			c-0.3,0-0.8,0-1,0c-0.2,0-0.3,0-0.3,0c-2.7,0-5,2.3-5,5C235.1,77,237,79.5,239.8,79.5z"/>
	</g>
	<g>
		<path class="st3" d="M237.2,91c-0.2-0.5,0.1-1.1,0.6-1.2c0.5-0.2,1.1,0.1,1.2,0.6c0.7,2.2,3.1,3,5,3c4.1,0,6.1-3.5,6.2-4.3
			c0,0,0-0.1-0.1-0.1c-0.1-0.2-0.3-0.5-0.3-0.9c0-0.5,0.4-1,1-1c0.5,0,0.8,0.3,1,0.8c0.1,0.2,0.4,0.6,0.4,1.1c0,1.6-2.8,6.2-8.2,6.2
			C241.6,95.3,238.3,94.2,237.2,91z M251.9,88.2C251.9,88.2,251.9,88.2,251.9,88.2C251.9,88.2,251.9,88.2,251.9,88.2z"/>
	</g>
	<g>
		<path class="st3" d="M196.9,124.2c-0.6-1-1.2-1.9-1.8-2.9c-1-1.7-2.1-3.5-3.1-5.2c-0.3-0.5-0.1-1,0.3-1.3c1.6-1,3.2-2,4.8-3.1
			c1-0.7,2.1-1.4,3.1-2.1c0.4-0.3,1-0.2,1.3,0.3c0.7,1,1.4,2.1,2,3.1c1,1.7,2,3.2,3.1,4.5c0.2,0.2,0.3,0.5,0.2,0.8
			c0,0.3-0.2,0.5-0.4,0.7c-1,0.7-2.1,1.4-3.1,2.1c-1.7,1.2-3.4,2.4-5.2,3.5c-0.2,0.1-0.3,0.1-0.5,0.1
			C197.4,124.7,197.1,124.5,196.9,124.2z M201.9,113.9c-0.5-0.7-0.9-1.5-1.4-2.2c-0.8,0.5-1.5,1-2.3,1.5c-1.3,0.9-2.7,1.8-4.1,2.6
			c0.9,1.5,1.7,2.9,2.6,4.4c0.4,0.7,0.9,1.4,1.3,2.1c1.5-0.9,2.9-1.9,4.2-2.9c0.7-0.5,1.5-1.1,2.3-1.6
			C203.6,116.6,202.8,115.3,201.9,113.9z"/>
	</g>
	<g>
		<path class="st3" d="M233.2,188.3c-0.5-0.1-0.9-0.6-0.8-1.1c0.1-0.5,0.6-0.9,1.1-0.8c3.3,0.6,6.2,0.9,8.4,0.9
			c10.5,0,29.8-10.7,38.2-16.3c-3.2-6.8-5.7-13.1-7.4-19.3c-0.1-0.3,0-0.6,0.1-0.8c0.2-0.2,0.4-0.4,0.7-0.4
			c3.8-0.5,7.7-0.6,11.2-0.6c-4.8-6.1-10.1-10.3-14.8-14c-6.4-5.1-11.5-9.1-11.5-15.4c0-1.4,0.2-1.9,0.4-2.7
			c0.1-0.2,0.1-0.4,0.2-0.6c2.2-7.2,7-8.6,11.7-10c1.3-0.4,2.6-0.8,3.9-1.3c8.4-3.5,9.4-16.7,10.4-28.4c0.2-2.1,0.3-4.1,0.5-6
			c0-0.3,0.2-0.6,0.4-0.7c0.3-0.2,0.6-0.2,0.8-0.1c2.2,0.8,4,1.2,5.7,1.2c4.3,0,5.7-1.3,5.7-5.7c0-4.8-2.3-7.9-7-9.6
			c-0.3-0.1-0.5-0.3-0.6-0.6c-6.2-0.3-12-4.6-17.1-12.6c-3.9-6.2-6.9-13.5-8.7-19.2c-8.4,9.7-19.8,14.8-33.2,14.8
			c-9.2,0-18-2.7-25.2-7.7c-0.4-0.3-0.5-0.7-0.3-1.1c6.1-15.4,12.9-27.1,39.4-27.1c15.7,0,27.1,3.1,35,9.4
			c8.5,6.9,12.7,17.4,12.7,32.1c0,3.1-0.2,6.4-0.5,10.5c5,2,7.6,5.8,7.6,11.1c0,5.4-2.2,7.7-7.6,7.7c-1.6,0-3.3-0.3-5.2-0.9
			c-0.1,1.5-0.3,3.1-0.4,4.8c-1,12.2-2.1,26-11.6,30c-1.3,0.6-2.7,1-4.1,1.4c-4.4,1.3-8.6,2.5-10.4,8.7c-0.1,0.3-0.1,0.5-0.2,0.7
			c-0.2,0.6-0.3,0.9-0.3,2c0,5.3,4.5,8.9,10.8,13.9c4.9,3.9,11.1,8.8,16.3,15.9c0.2,0.3,0.2,0.7,0.1,1c-0.2,0.3-0.5,0.5-0.9,0.5
			l-0.7,0c-3.4,0-7.2,0-11,0.4c1.8,5.9,4.2,12,7.4,18.6c0.2,0.4,0.1,0.9-0.3,1.2c-8.2,5.6-28.7,17.1-40,17.1
			C239.6,189.2,236.7,188.9,233.2,188.3z M208,30.2c6.8,4.5,14.9,6.9,23.5,6.9c13.4,0,24.8-5.4,32.9-15.5c0.2-0.3,0.6-0.4,0.9-0.3
			c0.3,0.1,0.6,0.3,0.7,0.7c3.8,11.8,11.9,31.4,24.7,32.1c0.3-3.7,0.4-6.7,0.4-9.5c0-27-14.5-39.6-45.8-39.6
			C220.4,5,214,15.4,208,30.2z"/>
	</g>
	<g>
		<path class="st3" d="M226.5,252.4c0,0,0.1,0,0.1,0c0.5-0.1,0.9-0.6,0.8-1.1c-0.2-1.4-0.3-3-0.3-4.7c0.1-1.1,2-19.9,2.1-41.5
			c0.1-14.5,4.9-17.9,11-22.3c2.9-2.1,6.2-4.4,9.2-8.2c10.8-13.6,13.8-30.6,16.2-44.3c0.1-0.5-0.3-1-0.8-1.1c-0.5-0.1-1,0.3-1.1,0.8
			c-3,17.1-6.1,31.2-15.8,43.4c-2.8,3.6-5.9,5.7-8.8,7.8c-6.3,4.5-11.8,8.3-11.8,23.8c-0.1,22-2.1,41.1-2.1,41.3c0,0,0,0.1,0,0.1
			c0,1.8,0.1,3.5,0.4,5C225.6,252.1,226,252.4,226.5,252.4z"/>
	</g>
	<g>
		<path class="st3" d="M233.5,216.7c0-1.5,0.8-2.8,2.1-3.6c0.6-0.4,1.4-0.7,2.1-0.9c0.4-0.1,0.9-0.2,1.3-0.2c2.5,0,4.2,2.2,4.2,5.3
			c0,2.9-1.7,4.5-4.8,4.5C235.6,221.8,233.5,219.1,233.5,216.7z M238.1,214.1c-0.5,0.1-1.1,0.4-1.6,0.7c-0.7,0.4-1.2,1.2-1.2,1.9
			c0,1.4,1.4,3.2,2.9,3.2c2,0,2.8-0.7,2.8-2.5c0-1.6-0.7-3.3-2.3-3.3C238.7,214,238.4,214,238.1,214.1z"/>
	</g>
	<g>
		<path class="st3" d="M232.8,237.1c0-2,1.1-3.7,2.9-4.6c0.8-0.4,1.6-0.6,2.4-0.6c2.6,0,4.4,2.2,4.4,5.3c0,2.8-2.3,4.7-4.4,4.7
			C235,242,232.8,239.9,232.8,237.1z M236.5,234.3c-1.1,0.5-1.8,1.6-1.8,2.8c0,1.8,1.4,3,3.4,3c1,0,2.5-1,2.5-2.8
			c0-1.6-0.8-3.4-2.5-3.4C237.6,233.9,237,234,236.5,234.3z"/>
	</g>
	<g>
		<path class="st3" d="M245.9,274.7c29.2,0,48.8-9.6,59.9-29.3c11.4-20.3,13-49.5,13-75.5c0-18.6-16.5-22.7-39.4-28.4
			c-0.5-0.1-1,0.2-1.2,0.7c-0.1,0.5,0.2,1,0.7,1.2c24.9,6.2,38,10.2,38,26.5c0,25.7-1.5,54.6-12.7,74.5
			c-10.9,19.3-29.4,28.3-58.2,28.3c-1.9,0-6.1-0.2-10.1-0.6c1-6.3,1.6-12.5,2-17.8c0.9,0.1,1.9,0.2,3.1,0.2c1.3,0,2.6-0.1,3.9-0.1
			c1.3-0.1,2.6-0.1,3.8-0.1c12.6,0,22.6-7.5,29.8-22.3c7.1-14.7,9.4-33,10.2-42.6c0-0.5-0.4-1-0.9-1c-0.5,0-1,0.4-1,0.9
			c-1.2,14.8-7.3,63.1-38,63.1c-1.3,0-2.7,0.1-3.9,0.2c-1.2,0.1-2.5,0.1-3.8,0.1c-1.5,0-2.7-0.1-3.8-0.3c-0.3-0.1-0.5,0-0.8,0.2
			c-0.2,0.2-0.4,0.4-0.4,0.7c-0.5,5.8-1.1,12.7-2.2,19.7c0,0.3,0,0.5,0.2,0.7c0.2,0.2,0.4,0.3,0.7,0.4
			C239,274.5,243.8,274.7,245.9,274.7z"/>
	</g>
	<g>
		<path class="st3" d="M236,184.5c0.1,0,0.2,0,0.3-0.1c0.5-0.2,0.8-0.7,0.6-1.2c-0.4-1.2-1.3-3-2.6-5.4
			c-3.7-7.1-10.6-20.3-14.2-38.8c-0.1-0.5-0.6-0.9-1.1-0.8c-0.5,0.1-0.9,0.6-0.8,1.1c3.6,18.9,10.6,32.2,14.4,39.4
			c1.2,2.3,2.1,4.1,2.5,5.2C235.2,184.3,235.6,184.5,236,184.5z"/>
	</g>
	<g>
		<path class="st3" d="M251.4,139.5c0.6,0,1.2,0,1.8,0c0.3,0,0.6-0.2,0.7-0.4c2.2-2.9,3.9-5.9,5.6-8.9c0.7-1.3,1.5-2.6,2.3-3.9
			c0.3-0.5,0.1-1-0.3-1.3c-0.5-0.3-1-0.1-1.3,0.3c-0.8,1.3-1.5,2.6-2.3,3.9c-1.6,2.7-3.2,5.6-5.2,8.3c-0.4,0-0.8,0-1.3,0
			c-5.9,0-10.7-0.9-14.4-2.8c-1.2-2.2-2.6-4.3-4.1-6.5c-0.3-0.4-0.9-0.5-1.3-0.2c-0.4,0.3-0.5,0.9-0.2,1.3c1.6,2.2,2.9,4.3,4.2,6.6
			c0.1,0.2,0.2,0.3,0.4,0.4C239.9,138.5,245,139.5,251.4,139.5z"/>
	</g>
	<g>
		<path class="st3" d="M245.8,153.7c-3.3-0.3-7-0.7-10.2-2.6c-0.3-0.2-0.4-0.4-0.5-0.7c-0.1-1.3-0.2-2.7-0.2-4
			c0-3.5,0.4-7.1,1.1-10.7c0.1-0.5,0.6-0.9,1.1-0.7c0.5,0.1,0.9,0.6,0.7,1.1c-0.7,3.4-1.1,6.9-1.1,10.3c0,1.1,0,2.2,0.1,3.3
			c2.5,1.4,5.5,1.8,8.3,2.1c1.4-2.9,2.5-6.1,3.5-9.2c0.5-1.4,0.9-2.9,1.5-4.3c0.2-0.5,0.7-0.8,1.2-0.6c0.5,0.2,0.8,0.7,0.6,1.2
			c-0.5,1.4-1,2.9-1.4,4.3c-1.1,3.4-2.2,6.8-3.9,10C246.5,153.5,246.2,153.7,245.8,153.7C245.8,153.7,245.8,153.7,245.8,153.7z
			 M236.1,150.3L236.1,150.3L236.1,150.3z"/>
	</g>
	<g>
		<path class="st3" d="M252.8,150.3c0.2,0,0.3,0,0.5-0.1c3.4-1.8,6.2-3.2,8.8-4.2c0.5-0.2,0.7-0.7,0.6-1.2c-0.2-0.5-0.7-0.7-1.2-0.6
			c-2.4,0.9-4.8,2-7.6,3.5c0-1.1,0-2.3,0-3.4c0-1.6,0-3.1,0-4.7l0-1.1c0-0.5-0.4-1-1-1c-0.5,0-1,0.4-1,1l0,1.1c0,1.6,0,3.1,0,4.6
			c0,1.6,0,3.1,0,4.7v0.3c0,0.3,0.2,0.7,0.5,0.8C252.4,150.3,252.6,150.3,252.8,150.3z"/>
	</g>
	<g>
		<path class="st3" d="M230.2,146.6c0.3,0,0.6-0.1,0.7-0.4c1.2-1.5,2.3-3.1,3.4-4.7c1.2-1.7,2.4-3.4,3.7-4.9c0.3-0.4,0.3-1-0.1-1.4
			c-0.4-0.3-1-0.3-1.4,0.1c-1.4,1.6-2.6,3.4-3.8,5.1c-0.6,0.9-1.3,1.9-2,2.8c-0.6-3.7-1.3-6.9-2.1-9.8c-0.1-0.5-0.7-0.8-1.2-0.7
			c-0.5,0.1-0.8,0.7-0.7,1.2c1,3.4,1.8,7.3,2.4,11.8c0.1,0.4,0.3,0.7,0.7,0.8C230,146.6,230.1,146.6,230.2,146.6z"/>
	</g>
	<g>
		<path class="st3" d="M249.1,174.7c0,0,0.1,0,0.1,0c0.5-0.1,0.9-0.6,0.8-1.1c-0.4-2.7-0.8-5.5-1.1-8.2c-0.6-4.4-1.3-8.9-1.8-13.3
			c-0.1-0.5-0.5-0.9-1.1-0.9c-0.5,0.1-0.9,0.5-0.9,1.1c0.5,4.5,1.1,9,1.8,13.4c0.4,2.7,0.8,5.5,1.1,8.2
			C248.2,174.3,248.6,174.7,249.1,174.7z"/>
	</g>
	<g>
		<path class="st3" d="M228.2,168.5c0.4,0,0.8-0.3,0.9-0.7c2.1-6.1,5-11.8,7.8-17.4c0.2-0.5,0.1-1.1-0.4-1.3
			c-0.5-0.2-1.1-0.1-1.3,0.4c-2.9,5.6-5.8,11.4-8,17.6c-0.2,0.5,0.1,1.1,0.6,1.2C227.9,168.5,228.1,168.5,228.2,168.5z"/>
	</g>
	<g>
		<path class="st3" d="M196.8,247c0.5,0,1-0.4,1-0.9c0.1-6,0.6-12,1.1-17.8c0.6-6.7,1.2-13.7,1.2-20.6c0-20-3.6-20-4.8-20
			c-1.5,0-3.2,0.4-3.8,0.6c-7.1,1.9-14.1,3.5-20.9,5.1c-6.3,1.5-12.9,3-19.4,4.7c-0.5,0.1-0.8,0.7-0.7,1.2c0.1,0.5,0.7,0.8,1.2,0.7
			c6.5-1.7,13-3.2,19.3-4.7c6.8-1.6,13.9-3.2,21-5.1c1.2-0.3,2.4-0.5,3.3-0.5c0.8,0,2.9,3.2,2.9,18.1c0,6.9-0.6,13.7-1.2,20.4
			c-0.5,5.9-1,12-1.1,18C195.9,246.6,196.3,247,196.8,247z"/>
	</g>
	<g>
		<path class="st3" d="M147.3,172.7C147.3,172.7,147.3,172.7,147.3,172.7c7.2-0.4,14.7-4.5,23.4-9.3c11.3-6.2,24.1-13.2,40.6-14.9
			c0.5-0.1,0.9-0.5,0.9-1.1c-0.1-0.5-0.5-0.9-1.1-0.9c-16.9,1.7-29.9,8.8-41.3,15.1c-8.5,4.6-15.8,8.7-22.5,9c-0.5,0-0.9,0.5-0.9,1
			C146.4,172.3,146.8,172.7,147.3,172.7z"/>
	</g>
	<g>
		<path class="st3" d="M216.8,270c1.8,0,3.4-0.7,5-1.4c1.5-0.7,3-1.4,4.6-1.4c1.7,0,5.8,1.2,8.7,2.2c0.5,0.2,1-0.1,1.2-0.6
			c0.2-0.5-0.1-1-0.6-1.2c-4-1.2-7.5-2.2-9.3-2.2c-2,0-3.7,0.8-5.4,1.5c-1.4,0.7-2.8,1.3-4.2,1.3c-1.7,0-2.8-0.6-4.3-1.3
			c-1.9-0.9-4.3-2.1-8.6-2.1c-3.3,0-6.5,0.4-9.7,0.8c-3.1,0.4-6.3,0.8-9.5,0.8c-3.6,0-4.5-0.2-4.5-1.3c0.4-1.7,12-9.7,19.6-13.1
			c0.7-0.3,1.6-0.5,2.5-0.5c1.7,0,3.6,0.5,5.2,1c6.2,1.7,16,3.7,27.9,3.7l1.3,0c0.5,0,1-0.4,1-1c0-0.5-0.4-1-1-1c0,0-1.3,0-1.3,0
			c-11.7,0-21.3-2-27.3-3.6c-1.8-0.5-3.8-1-5.8-1c-1.2,0-2.3,0.2-3.3,0.7c-5.2,2.3-20.8,11.5-20.8,14.8c0,3.2,3.4,3.2,6.4,3.2
			c3.3,0,6.5-0.4,9.7-0.8c3.1-0.4,6.3-0.8,9.5-0.8c3.9,0,6,1,7.8,1.9C213.2,269.3,214.7,270,216.8,270z"/>
	</g>
	<g>
		<path class="st3" d="M169.4,145.9c-1.3-1.6-2.9-3.2-4.7-5c-2.1,1-4.2,2-6.5,2.6c-0.4,0.1-0.7,0-1-0.3c-0.2-0.3-0.3-0.7-0.2-1
			c0.3-0.8,0.6-1.7,0.9-2.6c0.5-1.4,0.9-2.9,1.6-4.2c-0.9-1.2-2-2.4-3-3.6l-0.3-0.4c-0.3-0.3-0.3-0.7-0.1-1.1
			c0.2-0.3,0.6-0.6,0.9-0.5c1.3,0.1,2.5,0.2,3.8,0.2c0.3,0,0.7,0,1,0.1c1.9-2.1,3.5-4.5,5.1-6.8l0.5-0.8c0.2-0.3,0.6-0.5,1-0.4
			c0.4,0.1,0.7,0.4,0.7,0.8c0.4,2.6,0.4,5.2,0.4,7.4c0,0.7,0,1.3,0,2c0.6,0.2,1.2,0.3,1.8,0.5c1.8,0.4,3.6,0.9,5.4,1.5
			c0.4,0.1,0.6,0.4,0.6,0.8c0,0.4-0.1,0.7-0.4,0.9c-1.5,0.9-3.5,1.9-5.7,2.7c-0.1,2.3-0.2,4.5-0.3,6.7c0,0.4-0.3,0.7-0.7,0.9
			c-0.1,0-0.2,0-0.3,0C169.9,146.3,169.6,146.1,169.4,145.9z M171.1,134.5c-0.9-0.2-1.7-0.4-2.6-0.7c-0.4-0.1-0.7-0.5-0.7-0.9l0-0.2
			c0-0.8,0-1.7,0-2.5c0-1.4,0-2.9-0.1-4.5c-1.4,2.1-2.9,4.2-4.7,6c-0.2,0.2-0.5,0.3-0.8,0.3c-0.5,0-1-0.1-1.5-0.1
			c-0.5,0-1-0.1-1.6-0.1c0.8,0.9,1.5,1.9,2.3,2.9c0.2,0.3,0.2,0.7,0.1,1c-0.8,1.4-1.3,2.9-1.8,4.4c-0.1,0.3-0.2,0.5-0.3,0.8
			c1.7-0.6,3.3-1.4,5-2.2c0.4-0.2,0.8-0.1,1.1,0.2c1.4,1.4,2.7,2.6,3.8,3.9c0.1-1.7,0.2-3.3,0.2-5c0-0.4,0.3-0.7,0.6-0.9
			c1.4-0.5,2.8-1.1,4-1.7C173.2,135,172.1,134.8,171.1,134.5z"/>
	</g>
	<g>
		<path class="st3" d="M172.8,114.6c-2-3.4-4.6-6.7-8-10.4c-0.4,0.1-0.7,0.2-1.1,0.4c-2.6,0.9-5.3,1.9-18.3,1.9
			c-26.3,0-65.4-9.5-65.4-35.6c0-11,6-19.2,17.8-24.3c11.3-4.9,25.3-6,35.1-6c11.8,0,25.1,3.5,35.6,9.4
			c11.8,6.7,18.3,15.3,18.3,24.3c0,9.4-6.2,16.2-10.1,19.6c-0.3,3.9-0.8,7.8-1.3,11.7c-0.3,2.8-0.7,5.8-1,8.7c0,0.4-0.3,0.8-0.8,0.8
			c-0.1,0-0.1,0-0.2,0C173.3,115,173,114.9,172.8,114.6z M98.7,48.3C87.7,53.1,82,60.7,82,70.9c0,14,12.3,22,22.6,26.2
			c11.3,4.7,26.6,7.4,40.8,7.4c12.7,0,15.2-0.9,17.6-1.8c0.5-0.2,1.1-0.4,1.7-0.6c0.3-0.1,0.7,0,1,0.3c2.9,3.1,5.3,6,7.2,8.8
			c0.2-2,0.5-4,0.7-6c0.5-3.9,1-8,1.3-12c0-0.3,0.1-0.5,0.3-0.7c3.6-3,9.7-9.4,9.7-18.4c0-17.6-28.4-31.8-52-31.8
			C123.5,42.5,109.7,43.5,98.7,48.3z"/>
	</g>
	<g>
		<path class="st3" d="M107.5,75c-0.5,0-0.9-0.3-0.9-0.8c-0.6-3.4-1-6.8-1.3-10c-0.2-2.2-0.5-4.4-0.8-6.6c-0.1-0.5,0.3-1,0.8-1.1
			c0.5-0.1,1,0.3,1.1,0.8c0.3,2.2,0.6,4.5,0.8,6.7c0.3,3.2,0.7,6.6,1.3,9.9c0.1,0.5-0.2,1-0.8,1.1C107.6,75,107.6,75,107.5,75z"/>
	</g>
	<g>
		<path class="st3" d="M97.7,63c-0.4,0-0.8-0.3-0.9-0.7c-0.1-0.5,0.2-1,0.7-1.2L98,61c4.1-1,8-2,12.4-2.5c0.5-0.1,1,0.3,1.1,0.8
			c0.1,0.5-0.3,1-0.8,1.1c-4.2,0.5-8.1,1.5-12.1,2.5L97.9,63C97.8,63,97.7,63,97.7,63z"/>
	</g>
	<g>
		<path class="st3" d="M117.1,73.7c-0.5,0-0.9-0.4-1-0.9c-0.2-1.7-0.3-3.5-0.5-5.3c-0.3-3.8-0.6-7.7-1.2-11.5
			c-0.1-0.5,0.3-1,0.8-1.1c0.5-0.1,1,0.3,1.1,0.8c0.6,3.9,0.9,7.8,1.2,11.7c0.1,1.8,0.3,3.5,0.5,5.2
			C118.1,73.2,117.7,73.7,117.1,73.7C117.2,73.7,117.1,73.7,117.1,73.7z"/>
	</g>
	<g>
		<path class="st3" d="M127.3,71.9c-0.4,0-0.8-0.3-0.9-0.7c-0.7-2.9-0.9-5.9-1-8.8c-0.1-2.4-0.2-4.9-0.7-7.3c-0.1-0.5,0.2-1,0.8-1.1
			c0.5-0.1,1,0.2,1.1,0.8c0.5,2.5,0.6,5.1,0.7,7.6c0.1,2.8,0.3,5.7,1,8.4c0.1,0.5-0.2,1-0.7,1.2C127.4,71.9,127.4,71.9,127.3,71.9z"
			/>
	</g>
	<g>
		<path class="st3" d="M116.5,65.1c-0.5,0-1-0.4-1-1c0-0.5,0.4-1,1-1c3,0,5.9-0.4,9.9-1.3c0.5-0.1,1,0.2,1.2,0.7
			c0.1,0.5-0.2,1-0.7,1.2C122.7,64.7,119.7,65.1,116.5,65.1z"/>
	</g>
	<g>
		<path class="st3" d="M142.6,72c-0.5,0-0.9-0.3-1-0.8l-0.1-0.7c-0.6-4.2-1.3-8.5-2.5-12.7c-2,3.7-3.7,7.8-5.1,12.2
			c-0.2,0.5-0.7,0.8-1.2,0.6c-0.5-0.2-0.8-0.7-0.6-1.2c1.7-5.4,3.9-10.3,6.4-14.6c0.2-0.3,0.6-0.5,0.9-0.5c0.4,0,0.7,0.3,0.8,0.7
			c1.6,4.9,2.4,10.1,3.2,15.1l0.1,0.7c0.1,0.5-0.3,1-0.8,1.1C142.7,72,142.6,72,142.6,72z"/>
	</g>
	<g>
		<path class="st3" d="M139.9,66.3c-0.7,0-1.4,0-2.1-0.1c-1.1-0.1-2.3-0.1-3.1,0c-0.5,0-1-0.3-1.1-0.9c-0.1-0.5,0.3-1,0.9-1.1
			c1-0.1,2.3,0,3.4,0c0.7,0,1.3,0.1,2,0.1c1.1,0,1.9-0.1,2.6-0.3c0.5-0.2,1,0.1,1.2,0.6c0.2,0.5-0.1,1-0.6,1.2
			C142.2,66.2,141.2,66.3,139.9,66.3z"/>
	</g>
	<g>
		<path class="st3" d="M146,70.2c-0.1,0-0.2,0-0.4-0.1c-0.5-0.2-0.7-0.8-0.5-1.3c0.3-0.7,0.6-1.4,0.9-2.1c1.3-3,2.6-6.2,3.4-9.3
			c0.1-0.4,0.5-0.7,0.9-0.7c0.4,0,0.8,0.2,1,0.6c0.4,1.1,0.8,2.1,1.1,3.2c0.7,2,1.4,4,2.2,6c1.5-3.8,2.9-8.1,3.5-12.8
			c0.1-0.5,0.5-0.9,1.1-0.8c0.5,0.1,0.9,0.6,0.8,1.1c-0.8,5.8-2.7,11.1-4.5,15.4c-0.1,0.4-0.5,0.6-0.9,0.6c-0.4,0-0.7-0.2-0.9-0.6
			c-1.2-2.7-2.2-5.6-3.2-8.3c0-0.1-0.1-0.2-0.1-0.4c-0.8,2.3-1.7,4.6-2.6,6.8c-0.3,0.7-0.6,1.4-0.9,2.1
			C146.8,70,146.4,70.2,146,70.2z"/>
	</g>
	<g>
		<path class="st3" d="M161.7,73.1c-0.1,0-0.2,0-0.4-0.1c-0.5-0.2-0.7-0.8-0.5-1.3c1.4-3.4,1.5-7.2,1.5-10.8c0-0.5,0-1.1,0-1.6
			c0-0.5,0-1.1,0-1.6c0-0.5,0.4-1,1-1c0.5,0,1,0.4,1,1c0,0.5,0,1.1,0,1.6c0,0.5,0,1.1,0,1.6c0,3.6-0.1,7.7-1.7,11.5
			C162.5,72.9,162.1,73.1,161.7,73.1z"/>
	</g>
	<g>
		<path class="st3" d="M170.5,72.6c-0.2,0-0.3,0-0.5-0.1c-4-2.2-5.7-3.8-5.9-5.5c-0.2-1.7,1-2.8,2.5-4.2c1.3-1.2,2.7-2.6,3.5-4.6
			c0.2-0.5,0.8-0.7,1.3-0.5c0.5,0.2,0.7,0.8,0.5,1.3c-1,2.3-2.6,3.9-4,5.2c-1.1,1-2,1.9-1.9,2.6c0.1,0.9,1.8,2.3,4.9,4
			c0.5,0.3,0.6,0.8,0.4,1.3C171.2,72.4,170.8,72.6,170.5,72.6z"/>
	</g>
	<g>
		<path class="st3" d="M123.2,88.5c-0.1,0-0.3,0-0.4-0.1c-3.7-1.8-6.4-4.6-9-7.4c-0.5-0.5-1-1.1-1.6-1.6c-0.4-0.4-0.4-1,0-1.4
			c0.4-0.4,1-0.4,1.4,0c0.5,0.5,1.1,1.1,1.6,1.6c2.6,2.7,5.1,5.3,8.5,7c0.5,0.2,0.7,0.8,0.4,1.3C123.9,88.3,123.5,88.5,123.2,88.5z"
			/>
	</g>
	<g>
		<path class="st3" d="M117.9,94.9c-0.2,0-0.4-0.1-0.5-0.2c-0.4-0.3-0.6-0.9-0.3-1.3c1.3-1.8,2.6-3.6,3.9-5.3
			c2.4-3.2,4.6-6.1,6.4-9.5c0.3-0.5,0.8-0.6,1.3-0.4c0.5,0.3,0.6,0.8,0.4,1.3c-1.9,3.5-4.3,6.6-6.6,9.7c-1.3,1.7-2.6,3.5-3.8,5.3
			C118.5,94.8,118.2,94.9,117.9,94.9z"/>
	</g>
	<g>
		<path class="st3" d="M132.6,93.4c-0.2,0-0.4,0-0.6,0c-2.6-0.3-4.5-2.6-4.9-5.7c-0.4-3.2,1.2-6.4,3.9-7.8c1.2-0.6,2.2-0.9,3.2-0.8
			c2.7,0.2,4.7,2.1,5.2,5.1c0.4,2.5-0.4,5.2-2.3,7.1C135.8,92.6,134.1,93.4,132.6,93.4z M131.9,81.6c-2,1.1-3.2,3.4-2.9,5.9
			c0.3,2.2,1.5,3.8,3.2,4c1.1,0.1,2.4-0.5,3.5-1.6c1.4-1.5,2.1-3.5,1.8-5.5c-0.3-2.1-1.6-3.4-3.4-3.5
			C133.4,81,132.8,81.1,131.9,81.6z"/>
	</g>
	<g>
		<path class="st3" d="M144.7,92.9c-1.9,0-2.3-3.1-2.3-5.6c0-1.3,0.1-2.5,0.2-3.8c0.1-1.2,0.2-2.4,0.2-3.6c0-0.6,0-1.2-0.1-1.8
			c-0.1-0.5,0.3-1,0.8-1.1c0.5-0.1,1,0.3,1.1,0.8c0.1,0.6,0.1,1.3,0.1,2c0,1.3-0.1,2.6-0.2,3.8c-0.1,1.2-0.2,2.4-0.2,3.6
			c0,1.8,0.3,3.3,0.5,3.7c4.9-0.5,7.6-6,7.6-11c0-0.6,0-1.2-0.1-1.8c-0.1-0.5,0.3-1,0.8-1.1c0.5-0.1,1,0.3,1.1,0.8
			c0.1,0.7,0.1,1.4,0.1,2.1c0,8-4.8,12.5-9.5,12.9C144.8,92.9,144.7,92.9,144.7,92.9z"/>
	</g>
	<g>
		<path class="st3" d="M159.9,86.4c-0.1,0-0.2,0-0.3,0c-0.5-0.1-0.8-0.7-0.7-1.2c0.8-2.8,0.8-5.8,0.8-8.8c0-0.5,0.4-1,1-1
			c0.5,0,1,0.4,1,1c0,2.9,0,6.2-0.8,9.3C160.7,86.1,160.3,86.4,159.9,86.4z"/>
	</g>
	<g>
		<path class="st3" d="M158.8,91.7c-0.6,0-1.4-0.6-1.4-1.4c0-0.8,0.5-1.6,1.4-1.9c0.4-0.1,0.9,0.1,1.1,0.5c0,0,0,0.1,0.1,0.1
			c0.1,0.2,0.4,0.5,0.4,1C160.4,91,159.5,91.7,158.8,91.7z M159.2,89.9l0.1,0.4c0,0,0.1,0,0.1,0C159.4,90.3,159.4,90.1,159.2,89.9z"
			/>
	</g>
	<g>
		<path class="st3" d="M269,313.7c0.2,0,0.3,0,0.5-0.1c12.5-7,31.3-18.9,40.2-25.4c0.3-0.2,0.4-0.5,0.4-0.9c0-0.3-0.2-0.6-0.6-0.8
			c-8.2-3.8-16.3-8.3-24.1-12.6c-3.1-1.7-6.4-3.5-9.6-5.2c-0.5-0.3-1.1-0.1-1.3,0.4c-0.3,0.5-0.1,1.1,0.4,1.3
			c3.2,1.7,6.4,3.5,9.6,5.2c7.4,4.1,15,8.3,22.8,12c-9.1,6.6-26.3,17.4-38.2,24.1c-18.3-10.4-36.9-19.8-54.4-28.4
			c3.9-2.4,7.5-5.3,10.9-8.1c1.8-1.5,3.6-3,5.5-4.4c0.4-0.3,0.5-0.9,0.2-1.3c-0.3-0.4-0.9-0.5-1.3-0.2c-1.9,1.4-3.8,3-5.5,4.4
			c-3.9,3.2-7.8,6.4-12.2,8.8c-0.3,0.2-0.5,0.5-0.5,0.9c0,0.4,0.2,0.7,0.5,0.8c18.1,8.9,37.5,18.6,56.4,29.5
			C268.6,313.6,268.8,313.7,269,313.7z"/>
	</g>
	<g>
		<path class="st3" d="M270.2,301.7c4.5,0,4.6-3.2,4.7-5.1c0.1-2.1,0.2-2.5,1.6-2.5c0.6,0,1.4,0.2,2.1,0.3c0.7,0.2,1.3,0.3,1.9,0.3
			c1.6,0,3-1.4,3-3c0-0.2,0-0.4-0.1-1c-0.1-0.6-0.3-1.5-0.3-1.9c0-1.2,1.9-2.4,3.7-2.4c0.9,0,1.9,0.3,2.7,0.7c0.5,0.3,1,0.1,1.3-0.3
			c0.3-0.5,0.1-1-0.3-1.3c-1.1-0.7-2.4-1-3.7-1c-2.7,0-5.6,1.8-5.6,4.3c0,0.6,0.2,1.5,0.3,2.2c0.1,0.3,0.1,0.6,0.1,0.7
			c0,0.6-0.6,1-1.1,1c-0.3,0-0.9-0.1-1.4-0.3c-0.8-0.2-1.7-0.4-2.5-0.4c-3.4,0-3.5,2.6-3.6,4.4c-0.1,2.1-0.1,3.2-2.8,3.2
			c-0.3,0-1.7-0.2-2.1-0.4c-0.5-0.2-1.1,0-1.3,0.4c-0.2,0.5,0,1.1,0.4,1.3C268,301.4,269.7,301.7,270.2,301.7z"/>
	</g>
	<g>
		<path class="st3" d="M258.8,297.5c0.1,0,0.2,0,0.3,0c0.5-0.2,0.8-0.7,0.6-1.2l-0.1-0.4c-0.2-0.7-0.5-1.3-0.5-1.9
			c0-1.5,1.9-1.5,2.3-1.5c0.3,0,0.5,0,0.8,0c0.3,0,0.6,0,0.9,0c3.8,0,4-2.3,4.1-4c0.1-1.1,0.1-2.2,1-3.1c0.5-0.5,1.2-0.5,2.4-0.5
			c1.3,0,3.1,0,4.1-1.8c0.5-0.9,0.7-1.9,1-2.9c0.2-0.7,0.4-1.4,0.6-2c0.2-0.5,0-1.1-0.5-1.3c-0.5-0.2-1.1,0-1.3,0.5
			c-0.3,0.7-0.5,1.5-0.7,2.2c-0.2,0.9-0.5,1.8-0.8,2.4c-0.4,0.7-1,0.8-2.4,0.8c-1.2,0-2.7,0-3.7,1.1c-1.4,1.4-1.5,3-1.5,4.3
			c-0.1,1.7-0.1,2.2-2.2,2.2c-0.3,0-0.5,0-0.8,0c-0.3,0-0.6,0-0.9,0c-2.5,0-4.2,1.4-4.2,3.5c0,0.9,0.3,1.8,0.6,2.5l0.1,0.3
			C258,297.3,258.4,297.5,258.8,297.5z"/>
	</g>
	<g>
		<path class="st3" d="M245.5,290c0.3,0,0.6-0.1,0.8-0.4c0.4-0.5,0.5-1.1,0.6-1.7c0.2-1.2,0.4-1.9,2-1.9c0.3,0,0.6,0.1,0.9,0.1
			c0.3,0,0.6,0.1,0.9,0.1c2.8,0,3.3-2.3,3.8-4.1c0.6-2.5,1.1-4,4.1-4c0.4,0,0.8,0.1,1.2,0.2c0.5,0.2,1.1-0.1,1.2-0.6
			c0.2-0.5-0.1-1.1-0.6-1.2c-0.6-0.2-1.2-0.3-1.9-0.3c-4.6,0-5.4,3.3-6,5.5c-0.5,2.1-0.8,2.7-1.9,2.7c-0.1,0-0.3,0-0.5-0.1
			c-0.3-0.1-0.7-0.1-1.2-0.1c-3.2,0-3.7,2.2-3.9,3.4c-0.1,0.3-0.1,0.8-0.3,0.9c-0.3,0.4-0.3,1,0.2,1.4
			C245.1,289.9,245.3,290,245.5,290z"/>
	</g>
	<g>
		<path class="st3" d="M232.6,285.7c0.1,0,0.1,0,0.2,0c0.5-0.1,0.9-0.6,0.8-1.1c0-0.1,0-0.3,0-0.4c0-1.5,2.1-2,3.4-2
			c2.7,0,4.8-2.3,4.8-4.2c0-0.4,0-0.7-0.1-1c0-0.3-0.1-0.5-0.1-0.7c0-0.4,0-0.5,0.6-0.6c0.5-0.2,0.8-0.7,0.6-1.2
			c-0.2-0.5-0.7-0.8-1.2-0.6c-1.3,0.4-1.9,1.2-1.9,2.5c0,0.4,0,0.7,0.1,1c0,0.3,0.1,0.5,0.1,0.7c0,0.8-1.2,2.3-2.9,2.3
			c-2.6,0-5.3,1.3-5.3,3.9c0,0.2,0,0.5,0.1,0.7C231.7,285.4,232.1,285.7,232.6,285.7z"/>
	</g>
	<g>
		<path class="st3" d="M149.7,282.1c-3.9-1.6-7.2-4.8-9-8.7c-0.1-0.3-0.1-0.7,0.1-1c0.2-0.3,0.6-0.4,0.9-0.4
			c9.2,1.4,24.7,5.4,37.5,9.8c6,2.1,24.3,8.3,24.3,13.5c0,3.3-2,5.6-5,5.6C198,300.9,151.7,282.9,149.7,282.1z M150.4,280.3
			c0.1,0.1,45.1,17.4,48.3,18.6c1.8-0.1,2.9-1.5,2.9-3.7c0-1.4-4.8-5.5-23-11.7c-11.9-4.1-26-7.8-35.2-9.4
			C145.1,277,147.6,279.1,150.4,280.3z"/>
	</g>
	<g>
		<path class="st3" d="M147.8,281c0.4,0,0.7-0.2,0.9-0.6c0.8-1.8,2.1-3.4,3.7-4.7c0.4-0.3,0.5-0.9,0.2-1.4c-0.3-0.4-0.9-0.5-1.4-0.2
			c-1.9,1.5-3.3,3.4-4.3,5.4c-0.2,0.5,0,1.1,0.5,1.3C147.5,281,147.7,281,147.8,281z"/>
	</g>
	<g>
		<path class="st3" d="M144.1,276.7c0.2,0,0.4-0.1,0.6-0.2c0.7-0.5,1.4-1.1,1.8-2.1c0.2-0.5,0-1.1-0.5-1.3c-0.5-0.2-1.1,0-1.3,0.5
			c-0.2,0.5-0.7,0.9-1.2,1.3c-0.4,0.3-0.5,0.9-0.2,1.3C143.5,276.5,143.8,276.7,144.1,276.7z"/>
	</g>
	<g>
		<path class="st3" d="M194.1,297.4c0,0,0.1,0,0.1,0c0.5-0.1,0.9-0.5,0.8-1.1c0-0.1,0-0.3,0-0.4c0-1.8,1.5-4,3.4-3.7
			c0.5,0.1,1-0.3,1.1-0.9c0.1-0.5-0.3-1-0.9-1.1c-3.2-0.4-5.6,2.8-5.6,5.7c0,0.2,0,0.4,0,0.6C193.2,297,193.6,297.4,194.1,297.4z"/>
	</g>
	<g>
		<path class="st3" d="M137.9,313.6c-2.2-2.8-5.8-8.7-5.8-12.7c0-3.7,2.1-5.9,5.4-5.9c1.8,0,3.6,0.9,5.5,2.6
			c1.3-1.1,2.8-1.7,4.3-1.7c3.6,0,5.8,2.2,5.8,5.7c0,5.1-9.8,10.4-14,12.4c-0.1,0.1-0.3,0.1-0.4,0.1
			C138.4,313.9,138.1,313.8,137.9,313.6z M143.7,299.4c-0.2,0.2-0.4,0.3-0.7,0.3c-0.3,0-0.5-0.1-0.7-0.3c-1.7-1.8-3.4-2.7-4.8-2.7
			c-2.3,0-3.5,1.4-3.5,4c0,2.8,2.4,7.5,5,10.9c5.8-2.9,12.2-7.2,12.2-10.3c0-1.7-0.7-3.8-3.9-3.8C146,297.7,144.8,298.3,143.7,299.4
			z"/>
	</g>
	<g>
		<path class="st3" d="M163.5,253.2c6.1,0,13.2-0.5,13.2-4.3c0-4.4-8.6-9.9-23.7-19.3c-2.6-1.6-5.2-3.2-7.9-4.9
			c2.8-18.8,3.4-67.9,3.4-68.4c0-1.3,0-2.6,0-3.9c-0.1-4.8-3.4-9.9-8.2-10c-1.1,0-4.8-0.1-8.6-0.1c-2.8,0-5.5,0-8.3,0
			c-2.8,0-5.5,0-8.3,0c-6.5,0-14.3-0.1-22.1-0.9c-0.5-0.1-1,0.3-1.1,0.9c-0.1,0.5,0.3,1,0.9,1.1c7.9,0.8,15.7,0.9,22.3,0.9
			c2.8,0,5.6,0,8.3,0c2.8,0,5.5,0,8.3,0c3.8,0,7.5,0.1,8.6,0.1c3.7,0.1,6.2,4.3,6.3,8.1c0,1.3,0,2.6,0,3.9c0,0.5-0.6,50.7-3.5,68.7
			c-0.1,0.4,0.1,0.8,0.4,1c2.8,1.8,5.7,3.6,8.4,5.3c11.2,6.9,22.8,14.1,22.8,17.6c0,0.4-0.5,2.3-11.3,2.3c-1.7,0-3.5-0.1-5.2-0.1
			c-1.7-0.1-3.5-0.1-5.3-0.1l-0.4,0c-0.6,0-1.7,0-2.7,0c-7.8,0-15.8-0.3-23.5-0.6c-4.2-0.2-8.6-0.3-12.9-0.4c-0.5,0-1,0.4-1,0.9
			c0,0.5,0.4,1,0.9,1c4.3,0.1,8.6,0.3,12.9,0.4c7.7,0.3,15.7,0.6,23.5,0.6c0.9,0,2.1,0,2.7,0l0.4,0c1.7,0,3.5,0.1,5.2,0.1
			C160,253.1,161.8,253.2,163.5,253.2z"/>
	</g>
	<g>
		<path class="st3" d="M65.6,253.7c2.5,0,5.1-0.1,7.6-0.1c2.5-0.1,5.1-0.1,7.7-0.1c0.5,0,1-0.4,1-1c0-0.5-0.4-1-1-1
			c-2.6,0-5.2,0.1-7.7,0.1c-2.5,0.1-5,0.1-7.5,0.1c-27.2,0-36.4-19-36.5-24.3c0.2-1.2,2.4-14.4,2.4-32.5c0-3.6-0.2-8.9-0.4-14.6
			c-0.2-6.7-0.5-13.6-0.5-19.1c0-8.6,0.9-13.6,2.8-15.5c1.4-1.3,3.3-1.3,5.9-1.3c1.3,0,2.8,0,4.2,0c1,0,1.9,0,2.9,0
			c1.4,0,2.6,0,3.6-0.1c0.5,0,0.9-0.5,0.9-1c0-0.5-0.5-0.9-1-0.9c-1,0-2.2,0.1-3.6,0.1c-0.9,0-1.9,0-2.8,0c-1.4,0-2.9,0-4.2,0
			c-2.7,0-5.3-0.1-7.2,1.8c-2.4,2.4-3.4,7.4-3.4,16.8c0,5.6,0.2,12.5,0.5,19.2c0.2,5.6,0.4,10.9,0.4,14.5c0,18.8-2.4,32.1-2.4,32.3
			c0,0.1,0,0.1,0,0.2c0,2.8,2.3,9.4,8.4,15.3C40.7,247.7,50.1,253.7,65.6,253.7z"/>
	</g>
	<g>
		<path class="st3" d="M106.2,227.2c14.5,0,23.5-0.7,33.7-1.6c0.5,0,0.9-0.5,0.9-1c0-0.5-0.5-0.9-1-0.9c-10.2,0.9-19.1,1.6-33.6,1.6
			c-49.1,0-70.6-1-77.6-1.4c-0.5,0-1,0.4-1,0.9c0,0.5,0.4,1,0.9,1C35.5,226.2,57.1,227.2,106.2,227.2z"/>
	</g>
	<g>
		<path class="st3" d="M156.8,247.9c4.7,0,7.1-0.3,9-0.6c1.3-0.2,2.5-0.4,4.2-0.4c0.5,0,1-0.4,1-1c0-0.5-0.4-1-1-1
			c-1.8,0-3,0.2-4.4,0.4c-2,0.3-4.2,0.6-8.8,0.6c-5.7,0-11.4-0.4-17-0.8c-5.6-0.4-11.4-0.8-17.2-0.8c-2.6,0-4.9,0.1-7.2,0.3
			c-0.5,0-0.9,0.5-0.9,1c0,0.5,0.5,0.9,1,0.9c2.3-0.2,4.6-0.2,7.1-0.2c5.7,0,11.4,0.4,17,0.8C145.3,247.5,151.1,247.9,156.8,247.9z"
			/>
	</g>
	<g>
		<path class="st3" d="M76.1,247.7c1.5,0,2.9-0.1,4.2-0.3c0.5-0.1,0.9-0.6,0.8-1.1c-0.1-0.5-0.6-0.9-1.1-0.8
			c-1.2,0.2-2.5,0.3-3.9,0.3c-30.7,0-34-4.8-41.2-15.2c-1-1.4-2-2.8-3.1-4.4c-0.3-0.4-0.9-0.5-1.3-0.2c-0.4,0.3-0.5,0.9-0.2,1.3
			c1.1,1.5,2.1,3,3.1,4.4C40.7,242.3,44.5,247.7,76.1,247.7z"/>
	</g>
	<g>
		<path class="st3" d="M84.9,306.6c-0.4-0.2-0.7-0.6-0.6-1c0.2-1.4,0.3-2.8,0.5-4.3c-6.9-2.3-11.2-8.7-11.2-17c0-0.2,0-0.5,0-0.7
			c0-0.3,0-0.6,0-1c0-1.7-0.2-3.5-0.4-5.3c-0.2-1.9-0.4-3.8-0.4-5.6c0-8.2,5-12.6,14.3-12.6c1.9,0,3.8,0.2,5.7,0.3
			c1,0.1,1.9,0.2,2.8,0.2c1.1,0.1,2.1,0.1,3.1,0.2c10.1,0.5,19.7,0.9,19.7,16.1c0,8-3.4,25.6-13.7,25.6c-0.4,0-0.8,0-1.2-0.1
			c-0.2,2.1-0.5,4-0.8,5.5c-0.1,0.4-0.3,0.7-0.7,0.8c-2.1,0.6-4.3,0.8-6.6,0.8C92,308.6,88.3,307.9,84.9,306.6z M101.7,300.2
			c0-0.3,0.2-0.5,0.4-0.7c0.2-0.2,0.5-0.2,0.8-0.2c0.6,0.2,1.2,0.2,1.8,0.2c8.2,0,11.8-15.7,11.8-23.7c0-13.3-7.9-13.7-17.9-14.1
			c-1,0-2.1-0.1-3.2-0.2c-0.9-0.1-1.9-0.1-2.9-0.2c-1.8-0.2-3.7-0.3-5.5-0.3c-8.2,0-12.4,3.6-12.4,10.6c0,1.7,0.2,3.6,0.4,5.4
			c0.2,1.8,0.4,3.7,0.4,5.5c0,0.4,0,0.8,0,1c0,0.2,0,0.4,0,0.6c0,7.6,4.1,13.5,10.6,15.4c0.4,0.1,0.7,0.5,0.7,1
			c-0.1,1.5-0.3,3-0.4,4.4c3,1,6.2,1.6,9.2,1.6c1.9,0,3.8-0.2,5.5-0.6C101.2,304.4,101.5,302.3,101.7,300.2z"/>
	</g>
	<g>
		<path class="st3" d="M102.6,301.2c0.5,0,1-0.4,1-1c0-0.5-0.4-1-1-1c-2.3,0-4.5-0.4-6.9-0.9c-0.7-0.1-1.5-0.3-2.2-0.4
			c-0.5-0.1-1,0.3-1.1,0.8c-0.1,0.5,0.3,1,0.8,1.1c0.7,0.1,1.4,0.3,2.2,0.4C97.7,300.7,100.1,301.2,102.6,301.2z"/>
	</g>
	<g>
		<path class="st3" d="M95.6,274.7c17.1,0,20.7-4,20.7-7.4c0-0.5-0.1-0.9-0.2-1.3c-0.2-0.5-0.7-0.8-1.2-0.6
			c-0.5,0.2-0.8,0.7-0.6,1.2c0.1,0.2,0.1,0.5,0.1,0.7c0,4-9.7,5.5-18.8,5.5c-7.6,0-19.5-1.7-19.5-6.4c0-0.4,0-0.7,0.1-1
			c0.1-0.5-0.1-1-0.7-1.2c-0.5-0.1-1,0.1-1.2,0.7c-0.1,0.5-0.2,1-0.2,1.5C74.1,274.5,93.4,274.7,95.6,274.7z"/>
	</g>
	<g>
		<path class="st3" d="M74.6,287.9c0.4,0,0.8-0.2,0.9-0.6c0.2-0.5-0.1-1.1-0.6-1.2c-1.2-0.5-9.8-5.1-9.8-10.6c0-2.2,1.6-8.8,6.7-8.8
			c0.5,0,1.1,0,1.6,0.1c0.3,0,0.5,0,0.8,0.1c0.5,0,1-0.4,1-0.9c0-0.5-0.4-1-0.9-1c-0.2,0-0.5,0-0.8-0.1c-0.6,0-1.2-0.1-1.8-0.1
			c-6.1,0-8.6,7-8.6,10.7c0,6.7,9.3,11.7,11.1,12.4C74.4,287.9,74.5,287.9,74.6,287.9z"/>
	</g>
	<g>
		<path class="st3" d="M104.8,266.4c0.4,0,0.7-0.2,0.9-0.5c0.3-0.5,0.6-1.1,1-1.7c0.9-1.3,1.9-2.8,1.9-4.7c0-1.6-0.8-3-1.4-4.2
			c-0.6-1.1-1.2-2.1-1.2-3.2c0-1.3,0.7-1.9,1.9-2.8c1.4-1,3-2.3,3-5.3c0-2.2-1-4.5-2.6-6.4c-0.4-0.4-1-0.4-1.4-0.1
			c-0.4,0.4-0.4,1-0.1,1.4c1.3,1.5,2.1,3.4,2.1,5.1c0,2.1-1,2.8-2.3,3.7c-1.2,0.9-2.7,2-2.7,4.4c0,1.6,0.7,2.9,1.4,4.1
			c0.6,1.1,1.2,2.1,1.2,3.2c0,1.3-0.8,2.4-1.5,3.6c-0.4,0.6-0.8,1.2-1.1,1.9c-0.2,0.5,0,1.1,0.4,1.3
			C104.5,266.4,104.6,266.4,104.8,266.4z"/>
	</g>
	<g>
		<path class="st3" d="M94.5,265.1c0.1,0,0.2,0,0.3-0.1c2.3-0.8,5-2.8,5-5.6c0-1.4-0.7-2.5-1.4-3.5c-0.5-0.8-1-1.5-1-2.1
			c0-0.4,0.6-1,1.2-1.6c1-0.9,2.2-2,2.2-3.7c0-1.1-0.5-2.4-1.1-3.7c-0.6-1.4-1.2-2.9-1.2-4.1c0-0.6,0.1-1.2,0.4-1.8
			c0.2-0.5,0-1.1-0.4-1.3c-0.5-0.2-1.1,0-1.3,0.4c-0.4,0.8-0.6,1.7-0.6,2.6c0,1.6,0.7,3.4,1.4,4.9c0.5,1.2,0.9,2.2,0.9,2.9
			c0,0.9-0.7,1.6-1.5,2.3c-0.9,0.8-1.8,1.7-1.8,3c0,1.1,0.6,2.1,1.3,3.1c0.6,0.9,1.1,1.7,1.1,2.5c0,1.7-1.9,3.1-3.7,3.8
			c-0.5,0.2-0.8,0.7-0.6,1.2C93.8,264.9,94.1,265.1,94.5,265.1z"/>
	</g>
	<g>
		<path class="st3" d="M88.8,266.2c0.4,0,0.8-0.3,0.9-0.7c0.2-0.8,0.4-1.6,0.4-2.4c0-2.3-0.8-4.2-1.5-5.8c-0.6-1.3-1-2.4-1-3.4
			c0-1.5,0.7-2,1.8-2.7c1.4-0.9,3.1-2.1,3.1-5.5c0-2.9-1.7-5.8-4.2-7.4c-0.4-0.3-1-0.1-1.3,0.3c-0.3,0.5-0.1,1,0.3,1.3
			c1.9,1.2,3.3,3.6,3.3,5.7c0,2.3-1,3-2.2,3.9c-1.2,0.8-2.6,1.8-2.6,4.3c0,1.4,0.6,2.8,1.2,4.2c0.7,1.5,1.4,3.1,1.4,5
			c0,0.6-0.1,1.2-0.3,1.8c-0.2,0.5,0.1,1,0.6,1.2C88.6,266.2,88.7,266.2,88.8,266.2z"/>
	</g>
	<g>
		<path class="st3" d="M33.8,280.7c-1.3-1.2-2.1-2.9-2.1-4.8c0-1.9,0.7-3.5,1.9-4.8c1.2-1.2,2.9-1.8,4.7-1.8c0.7,0,1.3,0.2,1.9,0.4
			c0.8,0.3,1.4,0.7,1.9,1.1c1.6,1.5,2.5,3.9,2.3,6.1c-0.3,2.9-2.4,5.2-5.2,5.5c-0.2,0-0.5,0-0.7,0C36.8,282.5,35.1,281.9,33.8,280.7
			z M39.6,271.5c-0.4-0.2-0.8-0.3-1.2-0.3c-1.3,0-2.5,0.4-3.3,1.2c-0.9,0.9-1.4,2.1-1.4,3.4c0,1.4,0.5,2.5,1.4,3.4
			c1,0.9,2.5,1.4,4,1.3c1.9-0.2,3.3-1.7,3.5-3.7c0.1-1.7-0.5-3.4-1.7-4.5C40.6,272,40.2,271.8,39.6,271.5z"/>
	</g>
	<g>
		<path class="st3" d="M50,136.6c0-8.6,15.2-8.6,22.5-8.6c12.6,0,20.3,16.9,20.3,19.5c0,3.5-1.7,5.1-5.3,5.1c-5.6,0-9.3-6.4-11.9-11
			c-0.2-0.4-0.4-0.7-0.6-1c-0.2-0.3-0.2-0.7,0-1c0.2-0.3,0.5-0.5,0.8-0.5H76c0.5,0,1,0.4,1,1c0,0,0,0.1,0,0.1
			c0.1,0.2,0.2,0.3,0.3,0.5c2.4,4.2,5.7,10,10.2,10c2.9,0,3.4-1.1,3.4-3.2c-0.1-1.6-7.2-17.6-18.4-17.6c-6.1,0-20.5,0-20.5,6.7
			c0,4.4,8.4,16.5,10.4,17.5c0.2-0.3,0.4-1.3,0.4-2.6c0-2.7-1.1-5.4-2.2-8c-0.3-0.6-0.5-1.3-0.8-1.9c-0.2-0.5,0.1-1.1,0.6-1.2
			c0.5-0.2,1.1,0.1,1.2,0.6c0.2,0.6,0.5,1.2,0.7,1.9c1.1,2.8,2.3,5.7,2.3,8.7c0,2.9-0.8,4.5-2.3,4.5C59.3,156.1,50,141.3,50,136.6z
			 M62.4,154.1L62.4,154.1L62.4,154.1z"/>
	</g>
	<g>
		<path class="st3" d="M77.1,157.8c3.6,0,3.6-4.4,3.6-6.1c0-5.1-2.3-10.7-6.1-14.9c-0.4-0.4-1-0.4-1.4-0.1c-0.4,0.4-0.4,1-0.1,1.4
			c3.5,3.9,5.6,8.9,5.6,13.6c0,3.6-0.8,4.1-1.7,4.1c-0.7,0-2.6-1.4-5.6-6.5c-2.2-3.9-3.8-7.7-4-9.1c-0.1-0.5-0.6-0.9-1.1-0.8
			c-0.5,0.1-0.9,0.5-0.8,1.1C66,143.4,72.7,157.8,77.1,157.8z"/>
	</g>
	<g>
		<path class="st3" d="M62.8,150.7c-0.3-0.7-0.5-1.5-0.6-2.1c-0.1-0.6-0.2-1.1-0.4-1.6c-0.2-0.5,0-1.1,0.4-1.3
			c0.5-0.2,1.1,0,1.3,0.4c0.4,0.7,0.5,1.5,0.6,2.2c0.1,0.6,0.2,1.1,0.4,1.6c3,6.4,4.4,7.4,4.8,7.6c0.1-0.2,0.5-1.1,0.5-3.6
			c0-2.8-1.2-5.7-2.3-8.6c-0.5-1.1-0.9-2.2-1.2-3.3c-0.2-0.5,0.1-1.1,0.6-1.2c0.5-0.2,1.1,0.1,1.2,0.6c0.3,1,0.8,2.1,1.2,3.2
			c1.2,3,2.4,6.1,2.4,9.3c0,3.5-0.6,5.3-2,5.6c-0.1,0-0.3,0-0.4,0C68,159.5,66.3,158,62.8,150.7z M69.2,157.6L69.2,157.6L69.2,157.6
			z"/>
	</g>
	<g>
		<path class="st3" d="M97.8,143.7c-0.5-0.2-0.7-0.8-0.4-1.3c0.2-0.5,0.6-0.7,0.9-0.8c0.3-0.2,0.5-0.3,0.5-1.2
			c0-3.7-4.3-4.3-9.9-4.7c-1.8-0.1-3.3-0.2-4.5-0.5c-0.5-0.1-0.8-0.7-0.7-1.2c0.1-0.5,0.7-0.8,1.2-0.7c0.9,0.3,2.5,0.4,4.1,0.5
			c4.9,0.3,11.7,0.8,11.7,6.6c0,1.8-0.7,2.5-1.5,2.9c-0.1,0-0.1,0.1-0.1,0.1c-0.2,0.3-0.5,0.5-0.8,0.5
			C98.1,143.8,97.9,143.8,97.8,143.7z M99.1,143.3C99.1,143.3,99.1,143.3,99.1,143.3C99.1,143.3,99.1,143.3,99.1,143.3z"/>
	</g>
	<g>
		<path class="st3" d="M132.9,181.4c-1.1-1.5-2.3-3-3.5-4.5c-1.7,1.1-3.6,2.1-5.8,3.1c-0.3,0.2-0.7,0.1-1-0.1
			c-0.3-0.2-0.4-0.6-0.3-1c0.2-0.7,0.5-1.4,0.7-2.1c0.5-1.2,0.9-2.3,0.9-3.2c0-0.6-0.1-1-0.4-1.5c-0.5-0.8-1.2-1.7-2-2.6
			c-0.3-0.3-0.3-0.7-0.1-1.1c0.2-0.4,0.6-0.6,1-0.5c0.3,0,0.6,0,0.9,0c0.7,0,1.4-0.1,2.1-0.1c0.6-0.1,1.3-0.1,1.9-0.1
			c0.5-0.5,0.9-1.1,1.3-1.6c0.6-0.8,1.3-1.6,2.1-2.4c0.2-0.2,0.6-0.3,0.9-0.3c0.3,0.1,0.6,0.3,0.7,0.6c0.6,1.8,0.9,3.6,1.2,5.3
			l0.1,0.3c1.7,0.3,3.5,0.6,5.3,1.1c0.3,0.1,0.6,0.4,0.7,0.7c0.1,0.3-0.1,0.7-0.3,0.9c-1.3,1.1-2.6,2-3.9,2.8
			c-0.1,1.3-0.2,2.5-0.4,3.8c-0.1,0.6-0.1,1.2-0.2,1.8c0,0.4-0.3,0.7-0.7,0.8c-0.1,0-0.2,0-0.3,0
			C133.4,181.7,133.1,181.6,132.9,181.4z M132.9,171.5l-0.4-0.1c-0.4-0.1-0.7-0.4-0.8-0.8l-0.2-1c-0.2-1.2-0.4-2.3-0.6-3.4
			c-0.3,0.3-0.5,0.6-0.8,1c-0.5,0.7-1.1,1.4-1.7,2c-0.2,0.2-0.4,0.3-0.7,0.3l-0.1,0c-0.7,0-1.4,0.1-2.1,0.1c-0.4,0-0.8,0.1-1.2,0.1
			c0.3,0.4,0.6,0.8,0.9,1.3c0.5,0.7,0.7,1.6,0.7,2.5c0,1.2-0.4,2.5-0.9,3.7c1.5-0.8,2.9-1.6,4.1-2.5c0.4-0.3,1-0.2,1.3,0.2
			c0.9,1.1,1.8,2.2,2.7,3.3c0.1-1.2,0.3-2.4,0.3-3.6c0-0.3,0.2-0.6,0.5-0.8c0.8-0.5,1.7-1.1,2.5-1.7
			C135.1,171.9,134,171.7,132.9,171.5z"/>
	</g>
	<g>
		<path class="st3" d="M67.5,180c-0.2-0.2-0.4-0.4-0.6-0.7c-0.5-0.5-1-0.9-1.6-1.4c-0.5-0.4-1-0.8-1.5-1.2c-0.7,0.1-1.4,0.2-2.1,0.2
			c-1,0.1-2.1,0.3-3.1,0.3c-0.3,0-0.7-0.2-0.8-0.4c-0.2-0.3-0.2-0.6-0.1-0.9c0.8-1.7,1.8-3.2,2.8-4.6l0.2-0.3
			c-1.1-1.4-2.2-2.8-3.1-4.4c-0.2-0.3-0.2-0.7,0-1c0.2-0.3,0.5-0.5,0.9-0.5c1.7,0.1,3.3,0.3,4.7,0.6c0.9-0.9,1.9-1.7,2.9-2.5
			c0.5-0.4,0.9-0.8,1.4-1.2c0.3-0.3,0.7-0.3,1.1-0.1c0.4,0.2,0.6,0.6,0.5,1c-0.2,1.8-0.4,3.7-0.5,5.7c2,0.4,4.1,0.9,6.4,1.7
			c0.4,0.1,0.6,0.4,0.6,0.8c0,0.4-0.1,0.7-0.5,0.9c-0.6,0.4-1.3,0.7-1.9,1c-1.1,0.5-2.2,1-2.9,1.8c-0.4,0.4-0.6,0.8-0.7,1.3
			c-0.2,1-0.3,2.1-0.3,3.3c0,0.4-0.3,0.7-0.6,0.9c-0.1,0-0.2,0.1-0.3,0.1C68,180.3,67.7,180.2,67.5,180z M67.3,170.3
			c-0.5-0.1-0.8-0.5-0.8-1c0.1-1.4,0.2-2.8,0.3-4.2c-0.9,0.8-1.9,1.6-2.7,2.4c-0.2,0.2-0.6,0.3-0.9,0.2c-1-0.2-2-0.4-3-0.5
			c0.7,1,1.4,1.9,2.1,2.8l0.3,0.4c0.2,0.3,0.3,0.8,0,1.1l-0.6,0.8c-0.7,1-1.3,1.9-1.8,2.9c0.4,0,0.8-0.1,1.3-0.2
			c0.8-0.1,1.7-0.2,2.6-0.3c0.3,0,0.5,0.1,0.7,0.3l0.1,0.1c0.5,0.5,1,0.9,1.6,1.4c0.3,0.3,0.6,0.5,1,0.8c0.1-0.5,0.1-1,0.2-1.5
			c0.2-0.9,0.6-1.6,1.2-2.3c0.9-0.9,2-1.5,3.2-2C70.4,170.9,68.8,170.5,67.3,170.3z"/>
	</g>
	<g>
		<path class="st3" d="M104.7,181.7c-0.4-0.1-0.6-0.4-0.7-0.8c-0.1-0.7-0.1-1.5-0.1-2.2c0-1.2-0.1-2.4-0.4-3.3
			c-0.2-0.5-0.5-0.9-0.9-1.2c-0.8-0.6-1.8-1.1-2.9-1.7c-0.4-0.2-0.6-0.5-0.5-0.9c0-0.4,0.3-0.7,0.7-0.8c0.3-0.1,0.6-0.2,0.9-0.3
			c0.6-0.3,1.2-0.6,1.9-0.9c0.6-0.3,1.1-0.6,1.7-0.9c0.2-0.7,0.4-1.3,0.6-2c0.3-1,0.6-2,1-3c0.1-0.3,0.4-0.5,0.7-0.6
			c0.3-0.1,0.7,0.1,0.9,0.3c1.2,1.4,2.2,3,3.1,4.4l0.2,0.3c1.7-0.4,3.5-0.8,5.3-1c0.4,0,0.7,0.1,0.9,0.4c0.2,0.3,0.2,0.7,0.1,1
			c-0.8,1.5-1.6,2.9-2.5,4.1c0.4,1.2,0.8,2.4,1.1,3.6c0.2,0.6,0.3,1.2,0.5,1.8c0.1,0.4,0,0.8-0.3,1c-0.3,0.2-0.7,0.3-1.1,0.1
			c-1.6-0.9-3.3-1.9-5-2.8c-1.2,1.7-2.5,3.4-4.2,5.1c-0.2,0.2-0.4,0.3-0.7,0.3C104.9,181.8,104.8,181.7,104.7,181.7z M109.9,174.2
			c1.3,0.6,2.5,1.3,3.7,2c-0.3-1.2-0.7-2.4-1.1-3.5c-0.1-0.3-0.1-0.6,0.1-0.9c0.6-0.8,1.1-1.6,1.7-2.5c-1.1,0.2-2.3,0.5-3.4,0.7
			l-0.4,0.1c-0.4,0.1-0.8-0.1-1-0.4l-0.5-0.9c-0.6-1-1.2-1.9-1.9-2.9c-0.1,0.4-0.2,0.8-0.4,1.2c-0.2,0.8-0.5,1.7-0.8,2.5
			c-0.1,0.2-0.3,0.4-0.5,0.6l-0.1,0c-0.6,0.3-1.3,0.6-1.9,0.9c-0.4,0.2-0.7,0.4-1.1,0.6c0.5,0.3,0.9,0.5,1.3,0.8
			c0.7,0.5,1.3,1.2,1.6,2c0.5,1.2,0.5,2.5,0.6,3.7c1.1-1.3,2.1-2.6,2.9-3.8c0.2-0.3,0.5-0.4,0.8-0.4
			C109.7,174.1,109.8,174.2,109.9,174.2z"/>
	</g>
	<g>
		<path class="st3" d="M40.2,182.1c-0.4-0.1-0.6-0.4-0.7-0.8c-0.1-0.7-0.1-1.5-0.1-2.2c0-1.2-0.1-2.4-0.4-3.3
			c-0.2-0.5-0.5-0.9-0.9-1.2c-0.8-0.6-1.8-1.1-2.9-1.7c-0.4-0.2-0.6-0.5-0.5-0.9c0-0.4,0.3-0.7,0.7-0.8c0.3-0.1,0.5-0.2,0.9-0.3
			c0.6-0.3,1.2-0.6,1.9-0.9c0.6-0.3,1.1-0.6,1.7-0.9c0.2-0.7,0.4-1.3,0.6-2c0.3-1,0.6-2,1-3c0.1-0.3,0.4-0.5,0.7-0.6
			c0.3-0.1,0.7,0.1,0.9,0.3c1.2,1.4,2.2,3,3.1,4.4l0.2,0.3c1.7-0.4,3.5-0.8,5.3-1c0.4,0,0.7,0.1,0.9,0.4c0.2,0.3,0.2,0.7,0.1,1
			c-0.8,1.5-1.6,2.9-2.5,4.1c0.4,1.2,0.8,2.4,1.1,3.6c0.2,0.6,0.3,1.2,0.5,1.8c0.1,0.4,0,0.8-0.3,1c-0.3,0.2-0.7,0.3-1.1,0.1
			c-1.6-0.9-3.3-1.9-5-2.8c-1.2,1.7-2.5,3.4-4.2,5.1c-0.2,0.2-0.4,0.3-0.7,0.3C40.4,182.2,40.3,182.2,40.2,182.1z M45.5,174.6
			c1.3,0.6,2.5,1.3,3.7,2c-0.3-1.2-0.7-2.4-1.1-3.5c-0.1-0.3-0.1-0.6,0.1-0.9c0.6-0.8,1.1-1.6,1.7-2.5c-1.1,0.2-2.3,0.5-3.4,0.7
			l-0.4,0.1c-0.4,0.1-0.8-0.1-1-0.4l-0.5-0.8c-0.6-1-1.2-1.9-1.9-2.9c-0.1,0.4-0.2,0.8-0.4,1.2c-0.2,0.8-0.5,1.7-0.8,2.5
			c-0.1,0.3-0.3,0.5-0.5,0.6l-0.1,0c-0.6,0.3-1.3,0.6-1.9,0.9c-0.4,0.2-0.7,0.4-1.1,0.6c0.5,0.3,0.9,0.5,1.3,0.8
			c0.7,0.5,1.3,1.2,1.6,2c0.5,1.2,0.5,2.5,0.6,3.7c1.1-1.3,2.1-2.6,2.9-3.8c0.2-0.3,0.5-0.4,0.8-0.4
			C45.2,174.5,45.3,174.6,45.5,174.6z"/>
	</g>
	<g>
		<path class="st3" d="M90.9,179.7c-1.6-0.7-2.9-1.5-4.2-2.3c-1.2,0.5-2.4,0.9-3.6,1.3c-0.6,0.2-1.2,0.4-1.8,0.6
			c-0.4,0.1-0.8,0-1-0.3c-0.3-0.3-0.3-0.7-0.1-1.1c0.8-1.6,1.7-3.3,2.5-5.1c-1.7-1.1-3.5-2.3-5.3-3.9c-0.3-0.2-0.4-0.6-0.3-1
			c0.1-0.4,0.4-0.6,0.8-0.7c0.7-0.1,1.5-0.2,2.2-0.2c1.2-0.1,2.4-0.2,3.3-0.6c0.5-0.2,0.9-0.6,1.1-1c0.5-0.9,1-1.8,1.5-3
			c0.2-0.4,0.5-0.6,0.9-0.6c0.4,0,0.7,0.3,0.9,0.6c0.1,0.3,0.2,0.5,0.3,0.8c0.3,0.6,0.6,1.2,1,1.9c0.3,0.6,0.7,1.1,0.9,1.7
			c0.7,0.2,1.4,0.4,2,0.5c1,0.2,2,0.5,3,0.8c0.3,0.1,0.6,0.4,0.6,0.7c0.1,0.3,0,0.7-0.3,0.9c-1.4,1.3-2.8,2.3-4.3,3.3l-0.3,0.2
			c0.5,1.7,1,3.4,1.3,5.2c0.1,0.4-0.1,0.7-0.4,0.9c-0.2,0.1-0.4,0.2-0.6,0.2C91.1,179.8,91,179.8,90.9,179.7z M91.6,169.4
			c-0.8-0.2-1.7-0.4-2.5-0.7c-0.3-0.1-0.5-0.3-0.6-0.5l0-0.1c-0.3-0.6-0.6-1.2-1-1.9c-0.2-0.4-0.4-0.7-0.6-1.1
			c-0.2,0.5-0.5,0.9-0.8,1.3c-0.5,0.8-1.1,1.3-1.9,1.7c-1.1,0.5-2.4,0.7-3.7,0.8c1.4,1,2.7,1.9,4,2.7c0.4,0.2,0.6,0.8,0.4,1.2
			c-0.6,1.3-1.2,2.6-1.8,3.8c1.1-0.4,2.3-0.8,3.4-1.3c0.3-0.1,0.6-0.1,0.9,0.1c0.8,0.5,1.7,1.1,2.6,1.6c-0.3-1.1-0.6-2.3-0.9-3.4
			l-0.1-0.4c-0.1-0.4,0-0.8,0.4-1.1l0.8-0.6c1-0.7,1.9-1.3,2.8-2C92.5,169.6,92,169.5,91.6,169.4z"/>
	</g>
	<g>
		<path class="st3" d="M123.7,215.1c-0.5,0-0.9-0.4-0.9-1c0-5.5,0-10.8,0.1-16.4c0-0.3,0.1-0.5,0.3-0.7c0.2-0.2,0.5-0.3,0.7-0.2
			c1.7,0.1,2.8,0.2,3.3,0.2c1.4,0,2.9,0,4.3,0.1c0.3,0,0.5,0.1,0.7,0.3c0.2,0.2,0.3,0.4,0.2,0.7c-0.1,2.4-0.2,4.9-0.2,7.3
			c-0.1,2.9-0.1,5.9-0.3,8.9c0,0.5-0.4,0.9-1,0.9l-1,0c-1.1,0-2.1,0-3.2,0C125.6,215.1,124.6,215.1,123.7,215.1z M130.3,205.2
			c0-2.1,0.1-4.2,0.2-6.3c-1.1,0-2.2,0-3.3,0c-0.5,0-1.3,0-2.4-0.1c-0.1,4.9-0.1,9.6-0.1,14.4c1.6,0,3.5,0,5.3,0l0.1,0
			C130.2,210.5,130.3,207.8,130.3,205.2z"/>
	</g>
	<g>
		<path class="st3" d="M107.6,214.9l-0.8,0c-0.5,0-0.9-0.5-0.9-1c0.2-4,0.3-8,0.4-11.9c0.1-4.7,0.2-9.6,0.5-14.4
			c0-0.5,0.5-0.9,1-0.9c1.1,0,2.1,0,3.2,0c1.8,0,3.6,0,5.5,0.1c0.3,0,0.5,0.1,0.7,0.3c0.2,0.2,0.3,0.5,0.2,0.7
			c-0.6,7.6-0.9,15.3-1.2,22.8l-0.1,3.8c0,0.5-0.4,0.9-1,0.9C112.6,215.2,110.1,215,107.6,214.9z M111,188.6c-0.8,0-1.5,0-2.3,0
			c-0.3,4.5-0.4,9-0.5,13.4c-0.1,3.6-0.1,7.3-0.3,11c2.1,0.1,4.2,0.3,6.3,0.3l0.1-2.8c0.3-7.1,0.5-14.5,1.1-21.9
			C113.9,188.6,112.4,188.6,111,188.6z"/>
	</g>
	<g>
		<path class="st3" d="M91,214.9l-1-0.1c-0.5,0-0.9-0.5-0.9-1c0.4-6.3,0.6-12.8,0.8-19c0.1-2.6,0.1-5.2,0.2-7.8
			c0-0.3,0.1-0.5,0.3-0.7c0.2-0.2,0.4-0.3,0.7-0.3c2.5,0.1,5.1,0.1,7.9,0c0.3,0,0.5,0.1,0.7,0.3c0.2,0.2,0.3,0.4,0.3,0.7
			c-0.1,4.9-0.3,10-0.4,14.8c-0.1,4.1-0.3,8.3-0.4,12.4c0,0.5-0.4,0.9-1,0.9l-0.1,0C95.7,215.2,93.3,215,91,214.9z M91.9,188
			c-0.1,2.3-0.1,4.6-0.2,6.8c-0.2,5.9-0.3,12-0.7,18.1l0.1,0c2,0.1,4.1,0.3,6.1,0.3c0.1-3.8,0.2-7.6,0.3-11.5
			c0.1-4.5,0.3-9.2,0.4-13.8C95.9,188.1,93.9,188.1,91.9,188z"/>
	</g>
	<g>
		<path class="st3" d="M80.1,215c-0.9-0.1-1.8-0.2-2.7-0.3c-1.8-0.2-3.6-0.5-5.4-0.5c-0.3,0-0.5-0.1-0.7-0.3
			c-0.2-0.2-0.3-0.5-0.2-0.7c0.6-6.8,1.1-13.2,1.3-19.1c0-0.5,0.5-0.9,1-0.9c0.6,0,1.1,0,1.7,0c2,0,4,0.1,6.1,0.2
			c0.5,0,0.9,0.5,0.9,1c-0.2,6.3-0.4,13-0.9,19.7c0,0.3-0.1,0.5-0.3,0.7C80.7,214.9,80.5,215,80.1,215C80.2,215,80.2,215,80.1,215z
			 M75.2,195c-0.3,0-0.5,0-0.8,0c-0.2,5.4-0.6,11.1-1.2,17.2c1.5,0.1,3.1,0.3,4.5,0.5c0.5,0.1,1.1,0.1,1.6,0.2
			c0.5-6,0.7-12,0.8-17.7C78.5,195.1,76.8,195.1,75.2,195z"/>
	</g>
	<g>
		<path class="st3" d="M60.3,214.5c-1.6-0.1-3.4-0.1-4.8-0.1c-0.3,0-0.6-0.1-0.7-0.3c-0.2-0.2-0.3-0.5-0.3-0.8
			c0.4-4.4,0.5-8.9,0.7-13.2c0.1-5.1,0.3-10.4,0.9-15.5c0.1-0.5,0.5-0.9,1.1-0.8c3,0.3,5.5,0.5,7.7,0.5c0.3,0,0.5,0.1,0.7,0.3
			c0.2,0.2,0.3,0.5,0.2,0.8c-0.8,6.4-0.9,12.9-1,19.1c-0.1,3-0.1,6.2-0.3,9.2c0,0.5-0.4,0.9-1,0.9C62.4,214.6,61.3,214.6,60.3,214.5
			z M57.8,185.8c-0.5,4.8-0.6,9.7-0.8,14.4c-0.1,4-0.2,8.2-0.6,12.3c0.2,0,0.3,0,0.5,0c1.1,0,2.3,0.1,3.4,0.1c0.7,0,1.4,0.1,2.1,0.1
			c0.1-2.8,0.2-5.6,0.2-8.3c0.1-5.9,0.3-12.1,0.9-18.2C61.9,186.2,60,186,57.8,185.8z"/>
	</g>
	<g>
		<path class="st3" d="M39.4,214.5c-0.2-0.2-0.3-0.5-0.2-0.7c0.4-3.3,0.5-6.8,0.5-10.1c0.1-3.4,0.2-6.9,0.6-10.3
			c0.1-0.5,0.5-0.9,1-0.9l1,0.1c2.1,0.2,4,0.4,6.1,0.3c0.3,0,0.5,0.1,0.7,0.3c0.2,0.2,0.3,0.5,0.3,0.7c-0.1,2.6-0.2,5.4-0.2,8
			c-0.1,3.9-0.2,8-0.5,12c0,0.5-0.4,0.9-0.9,0.9c-2.5,0.1-4.9,0.1-7.6,0.1C39.8,214.8,39.5,214.7,39.4,214.5z M47.1,201.8
			c0.1-2.3,0.1-4.7,0.2-7c-1.8,0-3.5-0.2-5.3-0.3c-0.3,3.1-0.4,6.2-0.5,9.2c-0.1,3-0.2,6.1-0.4,9.2c1.9,0,3.8,0,5.6-0.1
			C47,209.2,47,205.5,47.1,201.8z"/>
	</g>
	<g>
		<path class="st3" d="M187.5,267.7c0.3,0,0.5-0.1,0.7-0.3c3.5-4.1,8.1-7,12.8-8.2c0.5-0.1,0.8-0.7,0.7-1.2
			c-0.1-0.5-0.7-0.8-1.2-0.7c-5.2,1.3-10.1,4.5-13.8,8.9c-0.3,0.4-0.3,1,0.1,1.4C187.1,267.6,187.3,267.7,187.5,267.7z"/>
	</g>
</g>
</svg>
