<?xml version="1.0" encoding="utf-8"?>
<!-- Generator: Adobe Illustrator 22.1.0, SVG Export Plug-In . SVG Version: 6.00 Build 0)  -->
<svg version="1.1" id="Layer_1" xmlns="http://www.w3.org/2000/svg" xmlns:xlink="http://www.w3.org/1999/xlink" x="0px" y="0px"
	 viewBox="0 0 700 313" style="enable-background:new 0 0 700 313;" xml:space="preserve">
<style type="text/css">
	.st0{fill:#E4E4E4;}
	.st1{fill:#403635;}
	.st2{fill:#FFFFFF;}
	<!-- .st3{fill:#FFCA08;} -->
	.st4{fill:#BFDEFF;}
	.st5{opacity:0.1;fill:#FFFFFF;}
	.st6{opacity:0.1;fill:#FFFFFF;enable-background:new    ;}
	.st7{fill:none;}
	.st3 {
            fill: #fff;
        }

        .st3:hover {
            fill: #FFCA05;
            opacity: 1;
            cursor: pointer;
        }
</style>
<rect class="st0" width="700" height="313"/>
<g>
	<g>
		<rect x="52.6" y="274.5" class="st1" width="594.7" height="2"/>
	</g>
	<g>
		<circle class="st1" cx="52.6" cy="275.5" r="5"/>
		<path class="st1" d="M52.6,281.5c-3.3,0-6-2.7-6-6s2.7-6,6-6s6,2.7,6,6S55.9,281.5,52.6,281.5z M52.6,271.5c-2.2,0-4,1.8-4,4
			c0,2.2,1.8,4,4,4c2.2,0,4-1.8,4-4C56.6,273.3,54.8,271.5,52.6,271.5z"/>
	</g>
	<g>
		<circle class="st1" cx="647.4" cy="275.5" r="5"/>
		<path class="st1" d="M647.4,281.5c-3.3,0-6-2.7-6-6s2.7-6,6-6c3.3,0,6,2.7,6,6S650.7,281.5,647.4,281.5z M647.4,271.5
			c-2.2,0-4,1.8-4,4c0,2.2,1.8,4,4,4s4-1.8,4-4C651.4,273.3,649.6,271.5,647.4,271.5z"/>
	</g>
	<g>
		<g>
			<path class="st1" d="M458.8,119.1c-0.5,0-1,0-1.5,0l0.1-2c0.5,0,1,0,1.5,0h0.5v2H458.8C458.8,119.1,458.8,119.1,458.8,119.1z
				 M542.1,119.1h-0.9v-2h0.9c0.4,0,0.7,0,1.1,0l0.1,2C542.9,119.1,542.5,119.1,542.1,119.1z M539.3,119.1h-2v-2h2V119.1z
				 M535.3,119.1h-2v-2h2V119.1z M531.3,119.1h-2v-2h2V119.1z M527.3,119.1h-2v-2h2V119.1z M523.3,119.1h-2v-2h2V119.1z
				 M519.3,119.1h-2v-2h2V119.1z M515.3,119.1h-2v-2h2V119.1z M511.3,119.1h-2v-2h2V119.1z M507.3,119.1h-2v-2h2V119.1z
				 M503.3,119.1h-2v-2h2V119.1z M499.3,119.1h-2v-2h2V119.1z M495.3,119.1h-2v-2h2V119.1z M491.3,119.1h-2v-2h2V119.1z
				 M487.3,119.1h-2v-2h2V119.1z M483.3,119.1h-2v-2h2V119.1z M479.3,119.1h-2v-2h2V119.1z M475.3,119.1h-2v-2h2V119.1z
				 M471.3,119.1h-2v-2h2V119.1z M467.3,119.1h-2v-2h2V119.1z M463.3,119.1h-2v-2h2V119.1z M545.4,118.9l-0.2-2
				c0.6-0.1,1.3-0.2,1.9-0.3l0.4,2C546.8,118.7,546.1,118.8,545.4,118.9z M455.2,118.8c-0.7-0.1-1.4-0.2-2-0.4l0.4-2
				c0.6,0.1,1.3,0.2,1.9,0.3L455.2,118.8z M549.5,118.1l-0.5-1.9c0.6-0.2,1.2-0.4,1.8-0.6l0.7,1.9
				C550.8,117.7,550.1,117.9,549.5,118.1z M451.1,118c-0.7-0.2-1.3-0.4-2-0.7l0.7-1.9c0.6,0.2,1.2,0.4,1.8,0.6L451.1,118z
				 M553.4,116.7l-0.8-1.8c0.6-0.3,1.2-0.6,1.7-0.9l1,1.8C554.6,116.1,554,116.4,553.4,116.7z M447.2,116.5c-0.6-0.3-1.2-0.6-1.8-1
				l1-1.7c0.6,0.3,1.1,0.6,1.7,0.9L447.2,116.5z M557,114.7l-1.1-1.7c0.5-0.3,1.1-0.7,1.6-1.1l1.2,1.6
				C558.2,113.9,557.6,114.3,557,114.7z M443.6,114.5c-0.6-0.4-1.1-0.8-1.7-1.2l1.2-1.6c0.5,0.4,1,0.8,1.6,1.1L443.6,114.5z
				 M560.3,112.2l-1.3-1.5c0.5-0.4,0.9-0.9,1.4-1.3l1.4,1.4C561.3,111.2,560.8,111.7,560.3,112.2z M440.4,111.9
				c-0.5-0.5-1-1-1.5-1.5l1.5-1.4c0.4,0.5,0.9,0.9,1.4,1.4L440.4,111.9z M563.2,109.2l-1.5-1.3c0.4-0.5,0.8-1,1.2-1.5l1.6,1.2
				C564.1,108.1,563.6,108.6,563.2,109.2z M437.5,108.9c-0.4-0.5-0.8-1.1-1.2-1.7l1.6-1.1c0.4,0.5,0.8,1.1,1.2,1.5L437.5,108.9z
				 M565.6,105.8l-1.7-1c0.3-0.5,0.6-1.1,0.9-1.7l1.8,0.9C566.3,104.6,565.9,105.2,565.6,105.8z M435.2,105.5
				c-0.3-0.6-0.7-1.2-1-1.8l1.8-0.9c0.3,0.6,0.6,1.1,0.9,1.7L435.2,105.5z M567.5,102.1l-1.8-0.8c0.2-0.6,0.5-1.2,0.7-1.8l1.9,0.6
				C568,100.8,567.7,101.5,567.5,102.1z M433.4,101.7c-0.3-0.6-0.5-1.3-0.7-2l1.9-0.6c0.2,0.6,0.4,1.2,0.6,1.8L433.4,101.7z
				 M568.7,98.1l-1.9-0.5c0.1-0.6,0.3-1.3,0.4-1.9l2,0.3C569,96.8,568.9,97.5,568.7,98.1z M432.1,97.8c-0.2-0.7-0.3-1.4-0.4-2l2-0.3
				c0.1,0.6,0.2,1.3,0.4,1.9L432.1,97.8z M569.4,94.1l-2-0.2c0.1-0.6,0.1-1.3,0.1-1.9l2,0C569.5,92.7,569.4,93.4,569.4,94.1z
				 M431.5,93.6c0-0.6-0.1-1.3-0.1-1.9v-0.1h2v0.1c0,0.6,0,1.2,0.1,1.8L431.5,93.6z M569.5,90h-2v-2h2V90z M433.5,89.6h-2v-2h2V89.6
				z M354.8,87.4l-2-0.1l0.1-2l2,0.1L354.8,87.4z M597.5,87.2h-2v-1.6h2V87.2z M569.5,86h-2v-2h2V86z M433.5,85.6h-2v-2h2V85.6z
				 M597.5,83.6h-2v-2h2V83.6z M355.1,83.4l-2-0.1l0.1-2l2,0.1L355.1,83.4z M569.5,82h-2v-2h2V82z M433.5,81.6h-2v-2h2V81.6z
				 M597.5,79.6h-2v-2h2V79.6z M355.3,79.4l-2-0.1l0.1-2l2,0.1L355.3,79.4z M569.5,78h-2v-2h2V78z M431.5,77.6c0-0.7,0-1.3-0.1-1.9
				l2-0.1c0,0.6,0.1,1.3,0.1,2L431.5,77.6z M597.5,75.6h-2v-2h2V75.6z M355.6,75.4l-2-0.2c0.1-0.7,0.1-1.4,0.2-2.1l2,0.3
				C355.8,74.2,355.7,74.8,355.6,75.4z M569.5,74h-2v-2h2V74z M431.2,73.7c-0.1-0.6-0.2-1.3-0.4-1.9l2-0.4c0.2,0.7,0.3,1.4,0.4,2
				L431.2,73.7z M356.2,71.6l-1.9-0.5c0.2-0.7,0.3-1.3,0.6-2l1.9,0.6C356.5,70.4,356.4,71,356.2,71.6z M597.5,71.6h-2v-2h2V71.6z
				 M430.4,70c-0.2-0.6-0.4-1.2-0.6-1.8l1.9-0.7c0.3,0.6,0.5,1.3,0.7,2L430.4,70z M569.5,70h-2v-2h2V70z M357.4,68l-1.9-0.8
				c0.3-0.6,0.5-1.3,0.9-1.9l1.8,0.9C357.9,66.8,357.6,67.4,357.4,68z M597.5,67.6h-2v-2h2V67.6z M428.9,66.4
				c-0.3-0.6-0.6-1.1-0.9-1.7l1.7-1c0.3,0.6,0.7,1.2,1,1.8L428.9,66.4z M569.5,66h-2v-2h2V66z M359.1,64.5l-1.7-1
				c0.4-0.6,0.7-1.2,1.1-1.7l1.6,1.2C359.8,63.5,359.4,64,359.1,64.5z M597.5,63.6h-2v-2h2V63.6z M427,63.1c-0.4-0.5-0.8-1-1.2-1.5
				l1.6-1.3c0.4,0.5,0.9,1.1,1.2,1.7L427,63.1z M569.5,62h-2v-2h2V62z M361.3,61.4l-1.5-1.3c0.4-0.5,0.9-1.1,1.4-1.6l1.4,1.4
				C362.1,60.4,361.7,60.9,361.3,61.4z M424.6,60.1c-0.4-0.5-0.9-0.9-1.4-1.3l1.3-1.5c0.5,0.5,1,1,1.5,1.5L424.6,60.1z M597.5,59.6
				h-2v-2h2V59.6z M364,58.6l-1.3-1.5c0.5-0.5,1.1-0.9,1.6-1.3l1.2,1.6C364.9,57.8,364.5,58.2,364,58.6z M569.5,58h-2v-2h2V58z
				 M421.8,57.5c-0.5-0.4-1-0.8-1.6-1.1l1.1-1.7c0.6,0.4,1.1,0.8,1.7,1.2L421.8,57.5z M367,56.3l-1.1-1.7c0.6-0.4,1.2-0.7,1.8-1.1
				l1,1.8C368.1,55.6,367.6,55.9,367,56.3z M597.5,55.6h-2v-2h2V55.6z M418.6,55.4c-0.6-0.3-1.1-0.6-1.7-0.9l0.8-1.8
				c0.6,0.3,1.2,0.6,1.8,0.9L418.6,55.4z M370.4,54.4l-0.8-1.8c0.6-0.3,1.3-0.6,1.9-0.8l0.7,1.9C371.6,53.9,371,54.2,370.4,54.4z
				 M569.5,54h-2v-2h2V54z M415.1,53.8c-0.6-0.2-1.2-0.4-1.8-0.6l0.6-1.9c0.7,0.2,1.3,0.4,2,0.7L415.1,53.8z M374,53.1l-0.5-1.9
				c0.7-0.2,1.3-0.4,2-0.5l0.4,2C375.2,52.8,374.6,52.9,374,53.1z M411.4,52.7c-0.6-0.1-1.3-0.2-1.9-0.3l0.3-2
				c0.7,0.1,1.4,0.2,2,0.3L411.4,52.7z M377.8,52.3l-0.2-2c0.7-0.1,1.4-0.1,2.1-0.2l0.1,2C379,52.2,378.4,52.3,377.8,52.3z
				 M407.6,52.2c-0.5,0-0.9,0-1.4,0h-0.5v-2h0.5c0.5,0,1,0,1.5,0L407.6,52.2z M403.6,52.2h-2v-2h2V52.2z M399.6,52.2h-2v-2h2V52.2z
				 M395.6,52.2h-2v-2h2V52.2z M391.6,52.2h-2v-2h2V52.2z M387.6,52.2h-2v-2h2V52.2z M383.6,52.2h-2v-2h2V52.2z M597.5,51.6h-2v-2h2
				V51.6z M569.5,50h-2v-2h2V50z M597.5,47.6h-2v-2h2V47.6z M569.5,46h-2v-1.2c0-0.3,0-0.6,0-0.9l2,0.1c0,0.3,0,0.5,0,0.8V46z
				 M595.4,43.7c-0.1-0.6-0.2-1.2-0.3-1.8l1.9-0.5c0.2,0.7,0.3,1.4,0.4,2.1L595.4,43.7z M569.8,42.2l-1.9-0.5
				c0.2-0.7,0.4-1.4,0.7-2.1l1.8,0.8C570.1,41,569.9,41.6,569.8,42.2z M594.5,40.1c-0.3-0.6-0.6-1.1-0.9-1.6l1.7-1.1
				c0.4,0.6,0.8,1.2,1,1.9L594.5,40.1z M571.2,38.8l-1.7-1.1c0.4-0.6,0.8-1.2,1.3-1.7l1.5,1.3C571.9,37.8,571.5,38.3,571.2,38.8z
				 M592.4,37.1c-0.4-0.4-0.9-0.9-1.4-1.2l1.2-1.6c0.6,0.4,1.1,0.9,1.6,1.5L592.4,37.1z M573.6,36.1l-1.3-1.5
				c0.6-0.5,1.1-0.9,1.8-1.2l1,1.7C574.6,35.3,574.1,35.7,573.6,36.1z M589.6,34.9c-0.5-0.3-1.1-0.5-1.7-0.7l0.7-1.9
				c0.7,0.2,1.3,0.5,2,0.9L589.6,34.9z M576.7,34.2l-0.7-1.9c0.7-0.3,1.4-0.5,2.1-0.6l0.4,2C577.9,33.8,577.3,34,576.7,34.2z
				 M586.1,33.7c-0.6-0.1-1.2-0.2-1.8-0.2l0-2c0.7,0,1.4,0.1,2.1,0.2L586.1,33.7z M580.3,33.5l-0.1-2c0.2,0,0.4,0,0.6,0h1.5v2h-1.5
				C580.7,33.5,580.5,33.5,580.3,33.5z"/>
		</g>
		<g>
			<path class="st1" d="M80.1,220.5h-2v-2h2V220.5z M80.1,216.5h-2v-2h2V216.5z M80.1,212.5h-2v-2h2V212.5z M80.1,208.5h-2v-2h2
				V208.5z M80.1,204.5h-2v-2h2V204.5z M80.1,200.5h-2v-2h2V200.5z M80.1,196.5h-2v-2h2V196.5z M80.1,192.5h-2v-2h2V192.5z
				 M80.1,188.5h-2v-2h2V188.5z M80.1,184.5h-2v-2h2V184.5z M80.1,180.5h-2v-2h2V180.5z M80.1,176.5h-2v-2h2V176.5z M80.1,172.5h-2
				v-2h2V172.5z M80.1,168.4h-2v-2h2V168.4z M80.1,164.4h-2v-2h2V164.4z M80.1,160.4h-2v-2h2V160.4z M80.1,156.4h-2v-2h2V156.4z
				 M80.1,152.4h-2v-2h2V152.4z M80.1,148.4h-2v-2h2V148.4z M80.1,144.4h-2v-2h2V144.4z M80.2,140.4l-2,0c0-0.7,0-1.4,0.1-2.1l2,0.2
				C80.2,139.2,80.2,139.8,80.2,140.4z M80.5,136.6l-2-0.3c0.1-0.7,0.3-1.4,0.4-2l1.9,0.5C80.7,135.3,80.6,136,80.5,136.6z
				 M81.4,132.9l-1.9-0.6c0.2-0.6,0.5-1.3,0.7-1.9l1.8,0.8C81.8,131.7,81.6,132.3,81.4,132.9z M82.9,129.3l-1.8-0.9
				c0.3-0.6,0.7-1.2,1-1.8l1.7,1C83.5,128.2,83.2,128.8,82.9,129.3z M84.9,126l-1.6-1.2c0.4-0.6,0.8-1.1,1.3-1.6l1.5,1.3
				C85.7,125,85.3,125.5,84.9,126z M87.4,123.1l-1.4-1.4c0.5-0.5,1-1,1.5-1.4l1.3,1.5C88.3,122.2,87.8,122.6,87.4,123.1z
				 M90.3,120.6l-1.2-1.6c0.6-0.4,1.1-0.8,1.7-1.2l1.1,1.7C91.3,119.8,90.8,120.2,90.3,120.6z M93.5,118.5l-0.9-1.8
				c0.6-0.3,1.2-0.6,1.9-0.9l0.8,1.8C94.6,117.9,94,118.2,93.5,118.5z M97,116.9l-0.7-1.9c0.7-0.2,1.3-0.4,2-0.6l0.5,1.9
				C98.2,116.5,97.6,116.7,97,116.9z M100.7,115.9l-0.4-2c0.7-0.1,1.4-0.2,2.1-0.3l0.2,2C102,115.7,101.3,115.8,100.7,115.9z
				 M104.5,115.5l-0.1-2c0.3,0,0.7,0,1,0h1v2h-1C105.2,115.5,104.8,115.5,104.5,115.5z M164.8,115.5h-0.3v-2h0.3c0.5,0,1.1,0,1.6,0
				l0.1,2C166,115.5,165.4,115.5,164.8,115.5z M162.5,115.5h-2v-2h2V115.5z M158.5,115.5h-2v-2h2V115.5z M154.5,115.5h-2v-2h2V115.5
				z M150.5,115.5h-2v-2h2V115.5z M146.5,115.5h-2v-2h2V115.5z M142.5,115.5h-2v-2h2V115.5z M138.5,115.5h-2v-2h2V115.5z
				 M134.5,115.5h-2v-2h2V115.5z M130.5,115.5h-2v-2h2V115.5z M126.5,115.5h-2v-2h2V115.5z M122.5,115.5h-2v-2h2V115.5z
				 M118.5,115.5h-2v-2h2V115.5z M114.5,115.5h-2v-2h2V115.5z M110.5,115.5h-2v-2h2V115.5z M168.6,115.2l-0.3-2
				c0.6-0.1,1.3-0.2,1.9-0.3l0.4,2C170,115,169.3,115.1,168.6,115.2z M172.7,114.3l-0.6-1.9c0.6-0.2,1.2-0.4,1.8-0.6l0.7,1.9
				C174,113.9,173.3,114.1,172.7,114.3z M176.5,112.9l-0.9-1.8c0.6-0.3,1.1-0.6,1.7-0.9l1,1.7C177.8,112.2,177.2,112.6,176.5,112.9z
				 M180.1,110.8l-1.1-1.7c0.5-0.4,1-0.7,1.6-1.1l1.2,1.6C181.3,110,180.7,110.4,180.1,110.8z M183.4,108.2l-1.4-1.5
				c0.5-0.4,0.9-0.9,1.4-1.4l1.5,1.4C184.4,107.2,183.9,107.7,183.4,108.2z M186.2,105.2l-1.6-1.2c0.4-0.5,0.8-1,1.1-1.5l1.7,1.1
				C187.1,104.1,186.6,104.6,186.2,105.2z M188.5,101.7l-1.7-1c0.3-0.6,0.6-1.1,0.9-1.7l1.8,0.9
				C189.2,100.5,188.9,101.1,188.5,101.7z M190.3,98l-1.9-0.7c0.2-0.6,0.4-1.2,0.6-1.8L191,96C190.8,96.7,190.6,97.4,190.3,98z
				 M191.5,94l-2-0.4c0.1-0.6,0.3-1.3,0.3-1.9l2,0.3C191.8,92.7,191.7,93.4,191.5,94z M192.1,89.9l-2-0.1c0-0.5,0.1-1.1,0.1-1.6
				v-0.3h2v0.3C192.1,88.7,192.1,89.3,192.1,89.9z M192.1,85.9h-2v-0.4c0-0.6,0-1.1,0.1-1.7l2,0.1c0,0.5,0,1,0,1.6V85.9z M192.4,82
				l-2-0.3c0.1-0.7,0.2-1.4,0.4-2l2,0.4C192.6,80.7,192.5,81.4,192.4,82z M193.2,78.3l-1.9-0.6c0.2-0.7,0.4-1.3,0.7-2l1.9,0.7
				C193.6,77,193.4,77.6,193.2,78.3z M194.6,74.7l-1.8-0.9c0.3-0.6,0.6-1.2,1-1.8l1.7,1C195.1,73.5,194.8,74.1,194.6,74.7z
				 M196.5,71.3l-1.7-1.1c0.4-0.6,0.8-1.1,1.2-1.7l1.6,1.2C197.2,70.3,196.8,70.8,196.5,71.3z M267.3,71l-0.1-0.1l1.6-1.1l0.1,0.1
				L267.3,71z M266.1,69.4c-0.4-0.5-0.8-1-1.3-1.4l1.4-1.4c0.5,0.5,0.9,1,1.4,1.6L266.1,69.4z M198.9,68.3l-1.5-1.4
				c0.5-0.5,1-1,1.5-1.5l1.4,1.5C199.8,67.4,199.3,67.8,198.9,68.3z M263.4,66.6c-0.5-0.4-1-0.8-1.5-1.2l1.2-1.6
				c0.5,0.4,1.1,0.9,1.6,1.3L263.4,66.6z M201.7,65.7l-1.3-1.6c0.5-0.4,1.1-0.8,1.7-1.2l1.1,1.7C202.7,64.9,202.2,65.3,201.7,65.7z
				 M260.3,64.3c-0.5-0.4-1.1-0.7-1.6-1l1-1.8c0.6,0.3,1.2,0.7,1.8,1.1L260.3,64.3z M204.8,63.5l-1-1.7c0.6-0.3,1.2-0.7,1.8-1
				l0.9,1.8C206,62.9,205.4,63.2,204.8,63.5z M257,62.4c-0.6-0.3-1.2-0.5-1.8-0.7l0.7-1.9c0.6,0.2,1.3,0.5,1.9,0.8L257,62.4z
				 M208.3,61.9l-0.7-1.9c0.6-0.3,1.3-0.5,2-0.7l0.6,1.9C209.5,61.4,208.9,61.6,208.3,61.9z M253.4,61.1c-0.6-0.2-1.2-0.3-1.9-0.5
				l0.4-2c0.7,0.1,1.4,0.3,2,0.5L253.4,61.1z M212,60.8l-0.4-2c0.7-0.1,1.4-0.3,2-0.4l0.3,2C213.2,60.5,212.6,60.6,212,60.8z
				 M249.6,60.3c-0.6-0.1-1.3-0.1-1.9-0.2l0.1-2c0.7,0,1.4,0.1,2.1,0.2L249.6,60.3z M215.8,60.2l-0.1-2c0.6,0,1.2,0,1.8-0.1h0.2v2
				h-0.2C216.9,60.2,216.4,60.2,215.8,60.2z M245.7,60.2h-2v-2h2V60.2z M241.7,60.2h-2v-2h2V60.2z M237.7,60.2h-2v-2h2V60.2z
				 M233.7,60.2h-2v-2h2V60.2z M229.7,60.2h-2v-2h2V60.2z M225.7,60.2h-2v-2h2V60.2z M221.7,60.2h-2v-2h2V60.2z"/>
		</g>
		<g>
			<g>
				<g>
					<rect x="100.3" y="73" class="st2" width="76.5" height="103.6"/>
					<g>
						<path class="st1" d="M177.8,177.6H99.3V72h78.5V177.6z M101.3,175.6h74.5V74h-74.5V175.6z"/>
					</g>
				</g>
				<g>
					<path class="st1" d="M112.3,86.1c0,1.6-1.3,2.8-2.8,2.8c-1.6,0-2.8-1.3-2.8-2.8c0-1.6,1.3-2.8,2.8-2.8
						C111,83.3,112.3,84.6,112.3,86.1z"/>
				</g>
				<g>
					<rect x="118.4" y="85.1" class="st1" width="15.9" height="2"/>
				</g>
				<g>
					<rect x="137.2" y="85.1" class="st1" width="22.9" height="2"/>
				</g>
			</g>
			<g>
				<g>
					<rect x="116.2" y="95.2" class="st2" width="44.1" height="18.8"/>
					<g>
						<path class="st1" d="M161.3,115h-46.1V94.2h46.1V115z M117.2,113h42.1V96.2h-42.1V113z"/>
					</g>
				</g>
				<g>
					<rect x="116.2" y="95.2" class="st3" width="7.3" height="7.3"/>
					<path class="st1" d="M124.5,103.4h-9.3v-9.3h9.3V103.4z M117.2,101.4h5.3v-5.3h-5.3V101.4z"/>
				</g>
				<g>
					<rect x="128.6" y="99.5" class="st1" width="22.9" height="2"/>
				</g>
				<g>
					<rect x="128.6" y="103" class="st1" width="22.9" height="2"/>
				</g>
				<g>
					<rect x="128.6" y="106.5" class="st1" width="22.9" height="2"/>
				</g>
			</g>
			<g>
				<g>
					<rect x="116.2" y="121.5" class="st2" width="44.1" height="18.8"/>
					<g>
						<path class="st1" d="M161.3,141.4h-46.1v-20.8h46.1V141.4z M117.2,139.4h42.1v-16.8h-42.1V139.4z"/>
					</g>
				</g>
				<g>
					<rect x="116.2" y="121.5" class="st3" width="7.3" height="7.3"/>
					<path class="st1" d="M124.5,129.8h-9.3v-9.3h9.3V129.8z M117.2,127.8h5.3v-5.3h-5.3V127.8z"/>
				</g>
				<g>
					<rect x="128.6" y="125.8" class="st1" width="22.9" height="2"/>
				</g>
				<g>
					<rect x="128.6" y="129.3" class="st1" width="22.9" height="2"/>
				</g>
				<g>
					<rect x="128.6" y="132.9" class="st1" width="22.9" height="2"/>
				</g>
			</g>
			<g>
				<g>
					<rect x="116.2" y="147.9" class="st2" width="44.1" height="18.8"/>
					<g>
						<path class="st1" d="M161.3,167.7h-46.1v-20.8h46.1V167.7z M117.2,165.7h42.1v-16.8h-42.1V165.7z"/>
					</g>
				</g>
				<g>
					<rect x="116.2" y="147.9" class="st3" width="7.3" height="7.3"/>
					<path class="st1" d="M124.5,156.2h-9.3v-9.3h9.3V156.2z M117.2,154.2h5.3v-5.3h-5.3V154.2z"/>
				</g>
				<g>
					<rect x="128.6" y="152.2" class="st1" width="22.9" height="2"/>
				</g>
				<g>
					<rect x="128.6" y="155.7" class="st1" width="22.9" height="2"/>
				</g>
				<g>
					<rect x="128.6" y="159.2" class="st1" width="22.9" height="2"/>
				</g>
			</g>
		</g>
		<g>
			<g>
				<g>
					<g>
						<g>
							<g>
								<rect x="496" y="170.7" class="st2" width="122.1" height="84.2"/>
								<path class="st1" d="M619.1,255.9H495v-86.2h124.1V255.9z M497,253.9h120.1v-82.2H497V253.9z"/>
							</g>
							<g>
								<rect x="496" y="170.7" class="st2" width="122.1" height="84.2"/>
								<path class="st1" d="M619.1,255.9H495v-86.2h124.1V255.9z M497,253.9h120.1v-82.2H497V253.9z"/>
							</g>
						</g>
						<g>
							<rect x="501.4" y="176.1" class="st2" width="111.3" height="73.4"/>
							<path class="st1" d="M612.7,250.5H501.4c-0.6,0-1-0.4-1-1v-73.4c0-0.6,0.4-1,1-1h111.3c0.6,0,1,0.4,1,1v73.4
								C613.7,250.1,613.3,250.5,612.7,250.5z M502.4,248.5h109.3v-71.4H502.4V248.5z"/>
						</g>
						<g>
							<rect x="501.4" y="183" class="st1" width="111.3" height="2"/>
						</g>
						<g>
							<path class="st1" d="M534.9,181.1h-4v-2h4V181.1z M529.9,181.1h-4v-2h4V181.1z M524.9,181.1h-4v-2h4V181.1z M519.9,181.1h-4
								v-2h4V181.1z M514.9,181.1h-4v-2h4V181.1z M509.9,181.1h-4v-2h4V181.1z"/>
						</g>
						<g>
							<path class="st1" d="M607.4,181.1h-4v-2h4V181.1z M602.4,181.1h-4v-2h4V181.1z M597.4,181.1h-4v-2h4V181.1z M592.4,181.1h-4
								v-2h4V181.1z M587.4,181.1h-4v-2h4V181.1z M582.4,181.1h-4v-2h4V181.1z"/>
						</g>
						<g>
							<polygon class="st2" points="573.3,270.3 542.8,270.3 547.7,254.8 568.4,254.8 							"/>
							<path class="st1" d="M574.6,271.3h-33.2l5.5-17.5h22.2L574.6,271.3z M544.2,269.3h27.7l-4.3-13.5h-19.2L544.2,269.3z"/>
						</g>
						<g>
							<rect x="537.4" y="270.3" class="st2" width="41.2" height="5.2"/>
							<path class="st1" d="M579.7,276.5h-43.2v-7.2h43.2V276.5z M538.4,274.5h39.2v-3.2h-39.2V274.5z"/>
						</g>
					</g>
				</g>
				<g>
					<rect x="525.5" y="197.4" class="st3" width="28.1" height="8.1"/>
					<rect x="558.9" y="197.4" class="st3" width="28.1" height="8.1"/>
					<g>
						<rect x="525.9" y="209.1" class="st1" width="27.7" height="2"/>
					</g>
					<g>
						<rect x="525.9" y="213.6" class="st1" width="27.7" height="2"/>
					</g>
					<g>
						<rect x="525.9" y="218.2" class="st1" width="27.7" height="2"/>
					</g>
					<g>
						<rect x="525.9" y="222.8" class="st1" width="27.7" height="2"/>
					</g>
					<g>
						<rect x="525.9" y="227.4" class="st1" width="27.7" height="2"/>
					</g>
					<g>
						<rect x="525.9" y="232" class="st1" width="27.7" height="2"/>
					</g>
					<g>
						<rect x="559.1" y="209.1" class="st1" width="27.7" height="2"/>
					</g>
					<g>
						<rect x="559.1" y="213.6" class="st1" width="27.7" height="2"/>
					</g>
					<g>
						<rect x="559.1" y="218.2" class="st1" width="27.7" height="2"/>
					</g>
					<g>
						<rect x="559.1" y="222.8" class="st1" width="27.7" height="2"/>
					</g>
					<g>
						<rect x="559.1" y="227.4" class="st1" width="27.7" height="2"/>
					</g>
					<g>
						<rect x="559.1" y="232" class="st1" width="27.7" height="2"/>
					</g>
				</g>
			</g>
			<g>
				<g>
					<g>
						<rect x="531.6" y="262.1" class="st3" width="60.8" height="13.3"/>
						<g>
							<path class="st1" d="M593.4,276.5h-62.8v-15.3h62.8V276.5z M532.6,274.5h58.8v-11.3h-58.8V274.5z"/>
						</g>
					</g>
					<g>
						<polygon class="st3" points="531.6,262.1 531.6,268.8 531.6,275.5 521.3,275.5 511.1,268.8 521.3,262.1 						"/>
						<g>
							<path class="st1" d="M532.6,276.5H521l-11.8-7.7l11.8-7.7h11.5V276.5z M521.6,274.5h8.9v-11.3h-8.9l-8.7,5.7L521.6,274.5z"/>
						</g>
					</g>
					<g>
						<rect x="521.8" y="270" class="st1" width="70.6" height="2"/>
					</g>
					<g>
						<rect x="521.8" y="265.6" class="st1" width="70.6" height="2"/>
					</g>
					<g>
						<rect x="520.8" y="262.1" class="st1" width="2" height="13.3"/>
					</g>
					<g>
						<polygon class="st2" points="516.5,265.3 511.1,268.8 516.5,272.3 						"/>
						<path class="st1" d="M517.5,274.1l-8.2-5.3l8.2-5.3V274.1z M512.9,268.8l2.5,1.6v-3.3L512.9,268.8z"/>
					</g>
					<g>
						<rect x="533.2" y="262.1" class="st1" width="2" height="13.3"/>
					</g>
					<g>
						<rect x="535.9" y="262.1" class="st1" width="2" height="13.3"/>
					</g>
				</g>
				<g>
					<path class="st2" d="M605.7,270.5c0,2.7-2.2,4.9-4.9,4.9h-8.4v-13.3h8.4c2.7,0,4.9,2.2,4.9,4.9V270.5z"/>
					<g>
						<path class="st1" d="M600.8,276.5h-9.4v-15.3h9.4c3.3,0,5.9,2.7,5.9,5.9v3.5C606.7,273.8,604.1,276.5,600.8,276.5z
							 M593.4,274.5h7.4c2.2,0,3.9-1.8,3.9-3.9v-3.5c0-2.2-1.8-3.9-3.9-3.9h-7.4V274.5z"/>
					</g>
				</g>
			</g>
			<g>
				<g>
					<g>
						<rect x="487.3" y="204.1" class="st2" width="14.6" height="71.4"/>
						<path class="st1" d="M502.9,276.5h-16.6v-73.4h16.6V276.5z M488.3,274.5h12.6v-69.4h-12.6V274.5z"/>
					</g>
					<g>
						<path class="st1" d="M501.9,257.5h-14.6c-0.6,0-1-0.4-1-1c0-0.6,0.4-1,1-1h14.6c0.6,0,1,0.4,1,1
							C502.9,257.1,502.4,257.5,501.9,257.5z"/>
					</g>
					<circle class="st1" cx="494.6" cy="265.1" r="2.8"/>
					<rect x="491.8" y="215.9" class="st3" width="5.6" height="35.9"/>
					<g>
						<path class="st1" d="M501.9,212.7h-14.6c-0.6,0-1-0.4-1-1c0-0.6,0.4-1,1-1h14.6c0.6,0,1,0.4,1,1
							C502.9,212.3,502.4,212.7,501.9,212.7z"/>
					</g>
				</g>
				<g>
					<g>
						<rect x="508.3" y="204.1" class="st2" width="14.6" height="71.4"/>
						<path class="st1" d="M523.9,276.5h-16.6v-73.4h16.6V276.5z M509.3,274.5h12.6v-69.4h-12.6V274.5z"/>
					</g>
					<g>
						<path class="st1" d="M522.9,257.5h-14.6c-0.6,0-1-0.4-1-1c0-0.6,0.4-1,1-1h14.6c0.6,0,1,0.4,1,1
							C523.9,257.1,523.4,257.5,522.9,257.5z"/>
					</g>
					<path class="st1" d="M512.8,265.1c0-1.5,1.3-2.8,2.8-2.8s2.8,1.3,2.8,2.8c0,1.6-1.3,2.8-2.8,2.8S512.8,266.6,512.8,265.1z"/>
					<rect x="512.8" y="215.9" class="st3" width="5.6" height="35.9"/>
					<g>
						<path class="st1" d="M522.9,212.7h-14.6c-0.6,0-1-0.4-1-1c0-0.6,0.4-1,1-1h14.6c0.6,0,1,0.4,1,1
							C523.9,212.3,523.4,212.7,522.9,212.7z"/>
					</g>
				</g>
				<g>
					<g>
						<rect x="529.3" y="204.1" class="st2" width="14.6" height="71.4"/>
						<path class="st1" d="M544.9,276.5h-16.6v-73.4h16.6V276.5z M530.3,274.5h12.6v-69.4h-12.6V274.5z"/>
					</g>
					<g>
						<path class="st1" d="M543.9,257.5h-14.6c-0.6,0-1-0.4-1-1c0-0.6,0.4-1,1-1h14.6c0.6,0,1,0.4,1,1
							C544.9,257.1,544.4,257.5,543.9,257.5z"/>
					</g>
					<circle class="st1" cx="536.6" cy="265.1" r="2.8"/>
					<rect x="533.8" y="215.9" class="st3" width="5.6" height="35.9"/>
					<g>
						<path class="st1" d="M543.9,212.7h-14.6c-0.6,0-1-0.4-1-1c0-0.6,0.4-1,1-1h14.6c0.6,0,1,0.4,1,1
							C544.9,212.3,544.4,212.7,543.9,212.7z"/>
					</g>
				</g>
			</g>
		</g>
		<g>
			<g>
				<rect x="476.5" y="107.8" class="st2" width="85.3" height="18.7"/>
				<g>
					<path class="st1" d="M562.8,127.5h-87.3v-20.7h87.3V127.5z M477.5,125.5h83.3v-16.7h-83.3V125.5z"/>
				</g>
			</g>
			<g>
				<g>
					<rect x="502.5" y="118.4" class="st1" width="12.7" height="2"/>
				</g>
				<g>
					<g>
						<rect x="502.5" y="113.8" class="st1" width="12.7" height="2"/>
					</g>
					<g>
						<rect x="520.5" y="113.8" class="st1" width="26.7" height="2"/>
					</g>
					<g>
						<rect x="520.5" y="118.4" class="st1" width="26.7" height="2"/>
					</g>
				</g>
			</g>
			<g>
				<path class="st3" d="M490.4,121.3c-0.3,0-0.7-0.1-1-0.3l-8.1-6.7c-0.6-0.5-0.7-1.5-0.2-2.1c0.5-0.6,1.5-0.7,2.1-0.2l6.7,5.5
					l6.6-13.7c0.4-0.7,1.3-1.1,2-0.7c0.7,0.4,1.1,1.3,0.7,2l-7.4,15.4c-0.2,0.4-0.6,0.7-1,0.8C490.6,121.3,490.5,121.3,490.4,121.3z
					"/>
			</g>
		</g>
		<g>
			<g>
				<rect x="476.5" y="137.1" class="st2" width="85.3" height="18.7"/>
				<g>
					<path class="st1" d="M562.8,156.8h-87.3v-20.7h87.3V156.8z M477.5,154.8h83.3v-16.7h-83.3V154.8z"/>
				</g>
			</g>
			<g>
				<g>
					<rect x="502.5" y="147.8" class="st1" width="12.7" height="2"/>
				</g>
				<g>
					<g>
						<rect x="502.5" y="143.1" class="st1" width="12.7" height="2"/>
					</g>
					<g>
						<rect x="520.5" y="143.1" class="st1" width="26.7" height="2"/>
					</g>
					<g>
						<rect x="520.5" y="147.8" class="st1" width="26.7" height="2"/>
					</g>
				</g>
			</g>
			<g>
				<path class="st3" d="M490.4,150.6c-0.3,0-0.7-0.1-1-0.3l-8.1-6.7c-0.6-0.5-0.7-1.5-0.2-2.1c0.5-0.6,1.5-0.7,2.1-0.2l6.7,5.5
					l6.6-13.7c0.4-0.7,1.3-1.1,2-0.7c0.7,0.4,1.1,1.3,0.7,2l-7.4,15.4c-0.2,0.4-0.6,0.7-1,0.8C490.6,150.6,490.5,150.6,490.4,150.6z
					"/>
			</g>
		</g>
		<g>
			<path class="st1" d="M547.5,93.2c-2.2,0-4-1.8-4-4c0-2.2,1.8-4,4-4c2.2,0,4,1.8,4,4C551.5,91.4,549.7,93.2,547.5,93.2z
				 M547.5,87.2c-1.1,0-2,0.9-2,2c0,1.1,0.9,2,2,2s2-0.9,2-2C549.5,88.1,548.6,87.2,547.5,87.2z"/>
		</g>
		<g>
			<path class="st1" d="M308.5,103.5c-2.2,0-4-1.8-4-4c0-2.2,1.8-4,4-4c2.2,0,4,1.8,4,4C312.5,101.7,310.7,103.5,308.5,103.5z
				 M308.5,97.5c-1.1,0-2,0.9-2,2c0,1.1,0.9,2,2,2c1.1,0,2-0.9,2-2C310.5,98.4,309.6,97.5,308.5,97.5z"/>
		</g>
		<g>
			<path class="st1" d="M300.2,177.7c-2.2,0-4-1.8-4-4c0-2.2,1.8-4,4-4c2.2,0,4,1.8,4,4C304.2,175.9,302.4,177.7,300.2,177.7z
				 M300.2,171.7c-1.1,0-2,0.9-2,2c0,1.1,0.9,2,2,2c1.1,0,2-0.9,2-2C302.2,172.6,301.3,171.7,300.2,171.7z"/>
		</g>
		<g>
			<path class="st1" d="M92.4,186c-2.2,0-4-1.8-4-4c0-2.2,1.8-4,4-4c2.2,0,4,1.8,4,4C96.4,184.2,94.6,186,92.4,186z M92.4,180
				c-1.1,0-2,0.9-2,2c0,1.1,0.9,2,2,2c1.1,0,2-0.9,2-2C94.4,180.9,93.5,180,92.4,180z"/>
		</g>
		<g>
			<path class="st1" d="M548.2,49.1c-2.2,0-4-1.8-4-4c0-2.2,1.8-4,4-4s4,1.8,4,4C552.2,47.3,550.4,49.1,548.2,49.1z M548.2,43.1
				c-1.1,0-2,0.9-2,2s0.9,2,2,2c1.1,0,2-0.9,2-2S549.3,43.1,548.2,43.1z"/>
		</g>
		<g>
			<path class="st1" d="M339.4,75.6c-2.2,0-4-1.8-4-4c0-2.2,1.8-4,4-4c2.2,0,4,1.8,4,4C343.4,73.8,341.6,75.6,339.4,75.6z
				 M339.4,69.6c-1.1,0-2,0.9-2,2c0,1.1,0.9,2,2,2c1.1,0,2-0.9,2-2C341.4,70.5,340.5,69.6,339.4,69.6z"/>
		</g>
		<g>
			<path class="st1" d="M450.5,63.9l-5.4-5.4l5.4-5.4l5.4,5.4L450.5,63.9z M447.9,58.5l2.6,2.6l2.6-2.6l-2.6-2.6L447.9,58.5z"/>
		</g>
		<g>
			<path class="st1" d="M615.1,59.2l-5.4-5.4l5.4-5.4l5.4,5.4L615.1,59.2z M612.6,53.8l2.6,2.6l2.6-2.6l-2.6-2.6L612.6,53.8z"/>
		</g>
		<g>
			<rect x="91.1" y="86" class="st1" width="2.6" height="2.6"/>
			<rect x="91.1" y="81.3" class="st1" width="2.6" height="2.6"/>
			<rect x="91.1" y="76.5" class="st1" width="2.6" height="2.6"/>
		</g>
		<g>
			<g>
				<rect x="283.8" y="247" class="st4" width="2" height="9"/>
			</g>
			<g>
				<rect x="280.3" y="250.5" class="st4" width="9" height="2"/>
			</g>
		</g>
		<g>
			<g>
				<rect x="180.8" y="56.9" class="st1" width="2" height="9"/>
			</g>
			<g>
				<rect x="177.3" y="60.4" class="st1" width="9" height="2"/>
			</g>
		</g>
		<g>
			<g>
				<rect x="621.2" y="260.7" class="st1" width="2" height="9"/>
			</g>
			<g>
				<rect x="617.7" y="264.2" class="st1" width="9" height="2"/>
			</g>
		</g>
		<g>
			<g>
				<rect x="117.9" y="189.4" class="st1" width="2" height="9"/>
			</g>
			<g>
				<rect x="114.4" y="192.9" class="st1" width="9" height="2"/>
			</g>
		</g>
		<g>
			<polygon class="st1" points="301.2,163.8 299.2,163.8 299.2,108.8 242.2,108.8 242.2,145.8 240.2,145.8 240.2,106.8 301.2,106.8 
							"/>
		</g>
		<g>
			<g>
				<rect x="251.8" y="116.2" class="st1" width="7" height="2"/>
			</g>
			<g>
				<rect x="261.5" y="116.2" class="st1" width="30" height="2"/>
			</g>
		</g>
		<g>
			<g>
				<rect x="251.8" y="122.2" class="st1" width="7" height="2"/>
			</g>
			<g>
				<rect x="261.5" y="122.2" class="st1" width="30" height="2"/>
			</g>
		</g>
		<g>
			<g>
				<rect x="251.8" y="128.2" class="st1" width="7" height="2"/>
			</g>
			<g>
				<rect x="261.5" y="128.2" class="st1" width="30" height="2"/>
			</g>
		</g>
		<g>
			<g>
				<path class="st2" d="M286.4,107.1c0,7.3-6,13.3-13.3,13.3c-7.3,0-13.3-6-13.3-13.3c0-7.3,6-13.3,13.3-13.3
					C280.4,93.8,286.4,99.8,286.4,107.1z"/>
				<path class="st1" d="M273.1,121.4c-7.9,0-14.3-6.4-14.3-14.3c0-7.9,6.4-14.3,14.3-14.3c7.9,0,14.3,6.4,14.3,14.3
					C287.4,115,280.9,121.4,273.1,121.4z M273.1,94.8c-6.8,0-12.3,5.5-12.3,12.3c0,6.8,5.5,12.3,12.3,12.3c6.8,0,12.3-5.5,12.3-12.3
					C285.4,100.3,279.8,94.8,273.1,94.8z"/>
			</g>
			<g>
				<path class="st1" d="M269.6,105.4v2.1h2v1.1h-2v2.1h-1.1v-2.1h-2.1v-1.1h2.1v-2.1H269.6z"/>
				<path class="st1" d="M272.3,110.8L272.3,110.8c0-1.5,0.6-2.4,2.4-3.8c0.9-0.7,1.1-0.9,1.1-1.6c0-0.6-0.3-1-0.9-1
					c-0.7,0-1,0.5-1.1,1.2h-1.4c0.1-1.2,0.7-2.4,2.5-2.4c1.6,0,2.5,0.9,2.5,2.1c0,1-0.4,1.6-1.7,2.5c-0.9,0.6-1.3,1.2-1.5,1.6h3.4
					l-0.2,1.2H272.3z"/>
			</g>
		</g>
		<g>
			<g>
				<g>
					<path class="st2" d="M171,212.8v1.4c0,6.6,4.2,12,10.9,12.1v0h-58.4v0c-6.6-0.1-12-5.5-12-12.1v-1.4H171z"/>
					<g>
						<path class="st1" d="M181.9,227.3h-58.4c0,0-0.1,0-0.1,0c-7.1-0.1-12.9-6-12.9-13.1v-1.4c0-0.6,0.4-1,1-1H171c0.6,0,1,0.4,1,1
							v1.4c0,6.5,4.1,11,9.9,11.1c0.5,0,1,0.5,1,1C182.9,226.9,182.4,227.3,181.9,227.3z M123.5,225.3h51.9
							c-3.3-2.3-5.4-6.3-5.4-11.1v-0.4h-57.5v0.4C112.5,220.3,117.4,225.3,123.5,225.3C123.5,225.3,123.5,225.3,123.5,225.3z"/>
					</g>
				</g>
				<g>
					<path class="st3" d="M169.2,225.9v-82.9c0-6.6-14.9-12-21.6-12.1v0l58.6,0v0c6.6,0.1,10.8,5.5,10.8,12.1v82.9H169.2z"/>
					<g>
						<path class="st1" d="M218.1,226.9h-49.9v-83.9c0-5.7-14-11-20.6-11.1l-1,0v-2l1,0l59.6,0v0.1c6.3,0.6,10.8,5.9,10.8,13V226.9z
							 M170.2,224.9h45.9v-81.9c0-6.5-4-11-9.8-11.1l-0.3,0l-48.7,0c6.4,2.2,13,6.1,13,11.1V224.9z"/>
					</g>
				</g>
				<g>
					<path class="st2" d="M136.6,211.1v-68.1c0-6.6,5.3-12,12-12.1v0H206v0c-6.6,0.1-9.9,5.5-9.9,12.1v68.1
						c0,8.4-6.8,15.3-15.3,15.3c-17.8,0-55.5,0-55.5,0v-0.5C131.9,224,136.6,218.1,136.6,211.1z"/>
					<g>
						<path class="st1" d="M125.4,227.3c-0.3,0-0.5-0.1-0.7-0.3s-0.3-0.4-0.3-0.7v-0.5c0-0.5,0.3-0.8,0.7-1
							c6.2-1.7,10.5-7.3,10.5-13.8v-68.1c0-7.1,5.8-13,12.9-13.1c0,0,0.1,0,0.1,0H206c0.6,0,1,0.4,1,1c0,0.5-0.4,1-1,1
							c-6.5,0.1-8.9,5.8-8.9,11.1v68.1c0,9-7.3,16.3-16.3,16.3L125.4,227.3z M148.7,131.8C148.7,131.8,148.6,131.8,148.7,131.8
							c-6.1,0.1-11,5.1-11,11.1v68.1c0,6-3.3,11.5-8.5,14.3l51.7,0c7.9,0,14.3-6.4,14.3-14.3v-68.1c0-5,1.7-8.9,4.7-11.1H148.7z"/>
					</g>
				</g>
				<g>
					<g>
						<path class="st1" d="M186.7,190.8h-2v-2h2V190.8z M182.7,190.8h-10v-2h10V190.8z M170.7,190.8h-2v-2h2V190.8z M158.7,190.8h-2
							v-2h2V190.8z M154.7,190.8h-9.4v-2h9.4V190.8z"/>
					</g>
					<g>
						<path class="st1" d="M186.7,197.5h-2v-2h2V197.5z M182.7,197.5h-10v-2h10V197.5z M170.7,197.5h-2v-2h2V197.5z M158.7,197.5h-2
							v-2h2V197.5z M154.7,197.5h-9.4v-2h9.4V197.5z"/>
					</g>
					<g>
						<path class="st1" d="M186.7,204.2h-2v-2h2V204.2z M182.7,204.2h-10v-2h10V204.2z M170.7,204.2h-2v-2h2V204.2z M158.7,204.2h-2
							v-2h2V204.2z M154.7,204.2h-9.4v-2h9.4V204.2z"/>
					</g>
					<g>
						<rect x="145.6" y="189.7" class="st2" width="13.2" height="13.7"/>
						<path class="st1" d="M158.8,204.4h-13.2c-0.6,0-1-0.4-1-1v-13.7c0-0.6,0.4-1,1-1h13.2c0.6,0,1,0.4,1,1v13.7
							C159.8,203.9,159.4,204.4,158.8,204.4z M146.6,202.4h11.2v-11.7h-11.2V202.4z"/>
					</g>
				</g>
				<g>
					<rect x="145.5" y="146.1" class="st1" width="40.3" height="2"/>
				</g>
				<g>
					<rect x="145.5" y="152.8" class="st1" width="40.3" height="2"/>
				</g>
				<g>
					<rect x="145.5" y="159.6" class="st1" width="40.3" height="2"/>
				</g>
				<g>
					<rect x="145.5" y="166.3" class="st1" width="40.3" height="2"/>
				</g>
				<g>
					<rect x="145.5" y="173.1" class="st1" width="40.3" height="2"/>
				</g>
			</g>
			<g>
				<g>
					<rect x="108.5" y="212.8" class="st2" width="92.3" height="62.7"/>
					<path class="st1" d="M201.8,276.5h-94.3v-64.7h94.3V276.5z M109.5,274.5h90.3v-60.7h-90.3V274.5z"/>
				</g>
				<g>
					<g>
						<rect x="118.2" y="224" class="st1" width="9.6" height="7.9"/>
					</g>
					<g>
						<rect x="134" y="224" class="st1" width="9.6" height="7.9"/>
					</g>
					<g>
						<rect x="149.8" y="224" class="st1" width="9.6" height="7.9"/>
					</g>
					<g>
						<rect x="165.7" y="224" class="st4" width="9.6" height="7.9"/>
					</g>
					<g>
						<rect x="181.5" y="224" class="st4" width="9.6" height="7.9"/>
					</g>
					<g>
						<rect x="118.2" y="235.9" class="st1" width="9.6" height="7.9"/>
					</g>
					<g>
						<rect x="134" y="235.9" class="st3" width="9.6" height="7.9"/>
					</g>
					<g>
						<rect x="149.8" y="235.9" class="st3" width="9.6" height="7.9"/>
					</g>
					<g>
						<rect x="165.7" y="235.9" class="st3" width="9.6" height="7.9"/>
					</g>
					<g>
						<rect x="181.5" y="235.9" class="st4" width="9.6" height="7.9"/>
					</g>
					<g>
						<rect x="118.2" y="247.7" class="st1" width="9.6" height="7.9"/>
					</g>
					<g>
						<rect x="134" y="247.7" class="st1" width="9.6" height="7.9"/>
					</g>
					<g>
						<rect x="149.8" y="247.7" class="st3" width="9.6" height="7.9"/>
					</g>
					<g>
						<rect x="165.7" y="247.7" class="st3" width="9.6" height="7.9"/>
					</g>
					<g>
						<rect x="181.5" y="247.7" class="st4" width="9.6" height="7.9"/>
					</g>
					<g>
						<rect x="118.2" y="259.6" class="st1" width="9.6" height="7.9"/>
					</g>
					<g>
						<rect x="134" y="259.6" class="st1" width="9.6" height="7.9"/>
					</g>
					<g>
						<rect x="149.8" y="259.6" class="st1" width="9.6" height="7.9"/>
					</g>
					<g>
						<rect x="165.7" y="259.6" class="st4" width="9.6" height="7.9"/>
					</g>
					<g>
						<rect x="181.5" y="259.6" class="st4" width="9.6" height="7.9"/>
					</g>
				</g>
				<g>
					<g>
						<path class="st2" d="M118.2,220.5c-1.6,0-3-1.3-3-3v-9.7c0-1.6,1.3-3,3-3c1.6,0,3,1.3,3,3v9.7
							C121.2,219.2,119.8,220.5,118.2,220.5z"/>
						<path class="st1" d="M118.2,221.5c-2.2,0-4-1.8-4-4v-9.7c0-2.2,1.8-4,4-4s4,1.8,4,4v9.7C122.2,219.7,120.4,221.5,118.2,221.5z
							 M118.2,205.9c-1.1,0-2,0.9-2,2v9.7c0,1.1,0.9,2,2,2c1.1,0,2-0.9,2-2v-9.7C120.2,206.8,119.3,205.9,118.2,205.9z"/>
					</g>
				</g>
				<g>
					<g>
						<path class="st2" d="M191.1,220.5c-1.6,0-3-1.3-3-3v-9.7c0-1.6,1.3-3,3-3c1.6,0,3,1.3,3,3v9.7
							C194.1,219.2,192.8,220.5,191.1,220.5z"/>
						<path class="st1" d="M191.1,221.5c-2.2,0-4-1.8-4-4v-9.7c0-2.2,1.8-4,4-4c2.2,0,4,1.8,4,4v9.7
							C195.1,219.7,193.3,221.5,191.1,221.5z M191.1,205.9c-1.1,0-2,0.9-2,2v9.7c0,1.1,0.9,2,2,2c1.1,0,2-0.9,2-2v-9.7
							C193.1,206.8,192.2,205.9,191.1,205.9z"/>
					</g>
				</g>
			</g>
			<g>
				<g>
					<g>
						<polygon class="st2" points="164.8,184.5 164.8,275.5 233.7,275.5 233.7,188.7 225.7,184.5 						"/>
						<g>
							<path class="st1" d="M233.7,276.5h-68.8c-0.6,0-1-0.4-1-1v-91c0-0.6,0.4-1,1-1h60.9c0.2,0,0.3,0,0.5,0.1l7.9,4.2
								c0.3,0.2,0.5,0.5,0.5,0.9v86.8C234.7,276,234.2,276.5,233.7,276.5z M165.8,274.5h66.8v-85.2l-7.2-3.8h-59.6V274.5z"/>
						</g>
					</g>
					<g>
						<polygon class="st2" points="225.7,184.5 233.7,188.7 227.1,190.6 						"/>
						<g>
							<path class="st1" d="M227.1,191.6c-0.2,0-0.4,0-0.5-0.1c-0.2-0.1-0.4-0.4-0.5-0.6l-1.3-6.2c-0.1-0.4,0.1-0.8,0.4-1
								c0.3-0.2,0.7-0.3,1.1-0.1l7.9,4.2c0.4,0.2,0.6,0.6,0.5,1c0,0.4-0.3,0.7-0.7,0.9l-6.6,2C227.3,191.6,227.2,191.6,227.1,191.6z
								 M227.2,186.4l0.7,3l3.2-1L227.2,186.4z"/>
						</g>
					</g>
					<g>
						<rect x="172.2" y="195" class="st1" width="21.9" height="2"/>
					</g>
					<g>
						<rect x="207.8" y="257.1" class="st1" width="16" height="2"/>
					</g>
					<g>
						<rect x="213.7" y="261.3" class="st1" width="10.2" height="2"/>
					</g>
					<g>
						<rect x="172.2" y="202" class="st1" width="51.7" height="2"/>
					</g>
					<g>
						<path class="st1" d="M223.9,209.8h-2v-2h2V209.8z M219.9,209.8h-38v-2h38V209.8z M180.9,209.8h-2v-2h2V209.8z M176.9,209.8h-2
							v-2h2V209.8z"/>
					</g>
					<g>
						<path class="st1" d="M223.9,215.7h-2v-2h2V215.7z M219.9,215.7h-38v-2h38V215.7z M180.9,215.7h-2v-2h2V215.7z M176.9,215.7h-2
							v-2h2V215.7z"/>
					</g>
					<g>
						<path class="st1" d="M223.9,221.5h-2v-2h2V221.5z M219.9,221.5h-38v-2h38V221.5z M180.9,221.5h-2v-2h2V221.5z M176.9,221.5h-2
							v-2h2V221.5z"/>
					</g>
					<g>
						<path class="st1" d="M223.9,227.4h-2v-2h2V227.4z M219.9,227.4h-38v-2h38V227.4z M180.9,227.4h-2v-2h2V227.4z M176.9,227.4h-2
							v-2h2V227.4z"/>
					</g>
					<g>
						<path class="st1" d="M223.9,233.2h-2v-2h2V233.2z M219.9,233.2h-38v-2h38V233.2z M180.9,233.2h-2v-2h2V233.2z M176.9,233.2h-2
							v-2h2V233.2z"/>
					</g>
					<g>
						<path class="st1" d="M223.9,239h-2v-2h2V239z M219.9,239h-23v-2h23V239z M194.9,239h-2v-2h2V239z"/>
					</g>
					<g>
						<path class="st1" d="M223.9,244.9h-2v-2h2V244.9z M219.9,244.9h-23v-2h23V244.9z M194.9,244.9h-2v-2h2V244.9z"/>
					</g>
					<g>
						<path class="st1" d="M223.9,250.7h-2v-2h2V250.7z M219.9,250.7h-23v-2h23V250.7z M194.9,250.7h-2v-2h2V250.7z"/>
					</g>
				</g>
			</g>
		</g>
		<g>
			<g>
				<polygon class="st2" points="233.2,77.7 233.2,88.6 233.2,89.2 240,93.2 233.2,97.1 233.2,126.9 205.5,126.9 205.5,77.7 				"/>
				<g>
					<path class="st1" d="M234.2,127.9h-29.7V76.7h29.7v11.9l7.8,4.5l-7.8,4.5V127.9z M206.5,125.9h25.7V96.5l5.8-3.3l-5.8-3.3V78.7
						h-25.7V125.9z"/>
				</g>
			</g>
			<g>
				<path class="st1" d="M227.4,86.9h-16.7c-0.6,0-1-0.4-1-1c0-0.6,0.4-1,1-1h16.7c0.6,0,1,0.4,1,1
					C228.4,86.5,227.9,86.9,227.4,86.9z"/>
			</g>
			<g>
				<path class="st1" d="M227.4,91.5h-16.7c-0.6,0-1-0.4-1-1c0-0.6,0.4-1,1-1h16.7c0.6,0,1,0.4,1,1
					C228.4,91.1,227.9,91.5,227.4,91.5z"/>
			</g>
			<g>
				<path class="st1" d="M227.4,96.1h-16.7c-0.6,0-1-0.4-1-1c0-0.6,0.4-1,1-1h16.7c0.6,0,1,0.4,1,1
					C228.4,95.7,227.9,96.1,227.4,96.1z"/>
			</g>
			<g>
				<path class="st1" d="M227.4,100.7h-16.7c-0.6,0-1-0.4-1-1c0-0.6,0.4-1,1-1h16.7c0.6,0,1,0.4,1,1
					C228.4,100.2,227.9,100.7,227.4,100.7z"/>
			</g>
			<g>
				<path class="st1" d="M227.4,105.3h-16.7c-0.6,0-1-0.4-1-1c0-0.6,0.4-1,1-1h16.7c0.6,0,1,0.4,1,1
					C228.4,104.8,227.9,105.3,227.4,105.3z"/>
			</g>
			<g>
				<path class="st1" d="M227.4,109.9h-16.7c-0.6,0-1-0.4-1-1c0-0.6,0.4-1,1-1h16.7c0.6,0,1,0.4,1,1
					C228.4,109.4,227.9,109.9,227.4,109.9z"/>
			</g>
			<g>
				<path class="st1" d="M227.4,114.5h-16.7c-0.6,0-1-0.4-1-1c0-0.6,0.4-1,1-1h16.7c0.6,0,1,0.4,1,1
					C228.4,114,227.9,114.5,227.4,114.5z"/>
			</g>
			<g>
				<path class="st1" d="M227.4,119.1h-16.7c-0.6,0-1-0.4-1-1c0-0.6,0.4-1,1-1h16.7c0.6,0,1,0.4,1,1
					C228.4,118.6,227.9,119.1,227.4,119.1z"/>
			</g>
		</g>
		<g>
			<g>
				<polygon class="st2" points="125.8,235.5 74.3,235.5 74.3,257.5 83.5,257.5 86.5,262.7 89.5,257.5 125.8,257.5 				"/>
				<g>
					<path class="st1" d="M86.5,264.7l-3.6-6.2h-9.6v-24h53.4v24H90.1L86.5,264.7z M75.3,256.5h8.7l2.4,4.2l2.4-4.2h35.8v-20H75.3
						V256.5z"/>
				</g>
			</g>
			<g>
				<rect x="74.3" y="235.5" class="st1" width="8.5" height="8.5"/>
				<g>
					<path class="st1" d="M83.8,245H73.3v-10.5h10.5V245z M75.3,243h6.5v-6.5h-6.5V243z"/>
				</g>
			</g>
			<g>
				<rect x="88.7" y="240.7" class="st3" width="26.7" height="2"/>
			</g>
			<g>
				<rect x="88.7" y="244.8" class="st3" width="26.7" height="2"/>
			</g>
			<g>
				<rect x="88.7" y="248.9" class="st3" width="26.7" height="2"/>
			</g>
		</g>
		<g>
			<g>
				<path class="st1" d="M585.4,165.1l-2.9-5H575v-19h41.8v19h-28.4L585.4,165.1z M577,158h6.6l1.8,3l1.8-3h27.6v-15H577V158z"/>
			</g>
			<g>
				<path class="st1" d="M583.6,149.6H575V141h8.6V149.6z M577,147.6h4.6V143H577V147.6z"/>
			</g>
			<g>
				<rect x="587.1" y="145.8" class="st1" width="20.7" height="2"/>
			</g>
			<g>
				<rect x="587.1" y="149" class="st1" width="20.7" height="2"/>
			</g>
			<g>
				<rect x="587.1" y="152.2" class="st1" width="20.7" height="2"/>
			</g>
		</g>
		<g>
			<g>
				<g>
					<path class="st3" d="M585.6,70.5v12.7V88c0,4.7,2.9,8.9,7.3,10.5c0.1,0,0.3,0.1,0.4,0.1v4c-0.1,0-0.3,0.1-0.4,0.1
						c-4.4,1.6-7.3,5.8-7.3,10.5v4.8v12.7h22.1v-12.7v-4.8c0-4.7-2.9-8.9-7.3-10.5c-0.1,0-0.2-0.1-0.3-0.1v-4c0.1,0,0.2-0.1,0.3-0.1
						c4.4-1.6,7.3-5.8,7.3-10.5v-4.8V70.5H585.6z"/>
					<path class="st1" d="M608.6,131.8h-24.1v-18.5c0-5,3.1-9.5,7.7-11.4v-2.6c-4.6-1.8-7.7-6.4-7.7-11.4V69.5h24.1V88
						c0,5-3.1,9.5-7.7,11.4v2.6c4.6,1.9,7.7,6.4,7.7,11.4V131.8z M586.6,129.8h20.1v-16.5c0-4.3-2.7-8.1-6.7-9.6l-1-0.3v-5.5l1-0.3
						c4-1.5,6.7-5.3,6.7-9.6V71.5h-20.1V88c0,4.3,2.7,8.1,6.7,9.6c0.1,0,0.1,0,0.2,0.1l0.9,0.3v5.4l-0.8,0.3c-0.1,0-0.1,0-0.2,0.1
						c-4,1.5-6.7,5.3-6.7,9.6V129.8z"/>
				</g>
				<g>
					<rect x="582.8" y="67.2" class="st2" width="27.6" height="3.4"/>
					<g>
						<path class="st1" d="M611.4,71.5h-29.6v-5.4h29.6V71.5z M583.8,69.5h25.6v-1.4h-25.6V69.5z"/>
					</g>
				</g>
				<g>
					<rect x="582.8" y="130.8" class="st2" width="27.6" height="3.4"/>
					<g>
						<path class="st1" d="M611.4,135.2h-29.6v-5.4h29.6V135.2z M583.8,133.2h25.6v-1.4h-25.6V133.2z"/>
					</g>
				</g>
				<g>
					<g>
						<path class="st1" d="M593.3,87.2c0,0.6-0.5,1.1-1.1,1.1c-0.6,0-1.1-0.5-1.1-1.1s0.5-1.1,1.1-1.1
							C592.8,86.1,593.3,86.6,593.3,87.2z"/>
						<path class="st1" d="M597.3,87.2c0,0.6-0.5,1.1-1.1,1.1c-0.6,0-1.1-0.5-1.1-1.1s0.5-1.1,1.1-1.1
							C596.9,86.1,597.3,86.6,597.3,87.2z"/>
						<path class="st1" d="M601.4,87.2c0,0.6-0.5,1.1-1.1,1.1c-0.6,0-1.1-0.5-1.1-1.1s0.5-1.1,1.1-1.1
							C600.9,86.1,601.4,86.6,601.4,87.2z"/>
					</g>
					<g>
						<path class="st1" d="M597.3,94.4c0,0.6-0.5,1.1-1.1,1.1c-0.6,0-1.1-0.5-1.1-1.1c0-0.6,0.5-1.1,1.1-1.1
							C596.9,93.3,597.3,93.8,597.3,94.4z"/>
					</g>
					<g>
						<path class="st1" d="M603.1,83.5c0,0.6-0.5,1.1-1.1,1.1c-0.6,0-1.1-0.5-1.1-1.1c0-0.6,0.5-1.1,1.1-1.1
							C602.6,82.4,603.1,82.9,603.1,83.5z"/>
						<path class="st1" d="M591.6,83.5c0,0.6-0.5,1.1-1.1,1.1c-0.6,0-1.1-0.5-1.1-1.1c0-0.6,0.5-1.1,1.1-1.1
							C591.1,82.4,591.6,82.9,591.6,83.5z"/>
						<path class="st1" d="M595.4,83.5c0,0.6-0.5,1.1-1.1,1.1c-0.6,0-1.1-0.5-1.1-1.1c0-0.6,0.5-1.1,1.1-1.1
							C595,82.4,595.4,82.9,595.4,83.5z"/>
						<path class="st1" d="M599.3,83.5c0,0.6-0.5,1.1-1.1,1.1c-0.6,0-1.1-0.5-1.1-1.1c0-0.6,0.5-1.1,1.1-1.1
							C598.8,82.4,599.3,82.9,599.3,83.5z"/>
					</g>
					<g>
						<path class="st1" d="M603.1,90.8c0,0.6-0.5,1.1-1.1,1.1c-0.6,0-1.1-0.5-1.1-1.1c0-0.6,0.5-1.1,1.1-1.1
							C602.6,89.7,603.1,90.2,603.1,90.8z"/>
						<path class="st1" d="M591.6,90.8c0,0.6-0.5,1.1-1.1,1.1c-0.6,0-1.1-0.5-1.1-1.1c0-0.6,0.5-1.1,1.1-1.1
							C591.1,89.7,591.6,90.2,591.6,90.8z"/>
						<path class="st1" d="M595.4,90.8c0,0.6-0.5,1.1-1.1,1.1c-0.6,0-1.1-0.5-1.1-1.1c0-0.6,0.5-1.1,1.1-1.1
							C595,89.7,595.4,90.2,595.4,90.8z"/>
						<path class="st1" d="M599.3,90.8c0,0.6-0.5,1.1-1.1,1.1c-0.6,0-1.1-0.5-1.1-1.1c0-0.6,0.5-1.1,1.1-1.1
							C598.8,89.7,599.3,90.2,599.3,90.8z"/>
					</g>
				</g>
				<g>
					<g>
						<path class="st1" d="M593.3,124.1c0-0.6-0.5-1.1-1.1-1.1c-0.6,0-1.1,0.5-1.1,1.1c0,0.6,0.5,1.1,1.1,1.1
							C592.8,125.2,593.3,124.7,593.3,124.1z"/>
						<path class="st1" d="M597.3,124.1c0-0.6-0.5-1.1-1.1-1.1c-0.6,0-1.1,0.5-1.1,1.1c0,0.6,0.5,1.1,1.1,1.1
							C596.9,125.2,597.3,124.7,597.3,124.1z"/>
						<path class="st1" d="M601.4,124.1c0-0.6-0.5-1.1-1.1-1.1c-0.6,0-1.1,0.5-1.1,1.1c0,0.6,0.5,1.1,1.1,1.1
							C600.9,125.2,601.4,124.7,601.4,124.1z"/>
					</g>
					<g>
						<path class="st1" d="M597.3,116.8c0-0.6-0.5-1.1-1.1-1.1c-0.6,0-1.1,0.5-1.1,1.1c0,0.6,0.5,1.1,1.1,1.1
							C596.9,117.9,597.3,117.4,597.3,116.8z"/>
					</g>
					<g>
						<path class="st1" d="M603.1,127.7c0-0.6-0.5-1.1-1.1-1.1c-0.6,0-1.1,0.5-1.1,1.1c0,0.6,0.5,1.1,1.1,1.1
							C602.6,128.8,603.1,128.3,603.1,127.7z"/>
						<path class="st1" d="M591.6,127.7c0-0.6-0.5-1.1-1.1-1.1c-0.6,0-1.1,0.5-1.1,1.1c0,0.6,0.5,1.1,1.1,1.1
							C591.1,128.8,591.6,128.3,591.6,127.7z"/>
						<path class="st1" d="M595.4,127.7c0-0.6-0.5-1.1-1.1-1.1c-0.6,0-1.1,0.5-1.1,1.1c0,0.6,0.5,1.1,1.1,1.1
							C595,128.8,595.4,128.3,595.4,127.7z"/>
						<path class="st1" d="M599.3,127.7c0-0.6-0.5-1.1-1.1-1.1c-0.6,0-1.1,0.5-1.1,1.1c0,0.6,0.5,1.1,1.1,1.1
							C598.8,128.8,599.3,128.3,599.3,127.7z"/>
					</g>
					<g>
						<path class="st1" d="M603.1,120.5c0-0.6-0.5-1.1-1.1-1.1c-0.6,0-1.1,0.5-1.1,1.1c0,0.6,0.5,1.1,1.1,1.1
							C602.6,121.6,603.1,121.1,603.1,120.5z"/>
						<path class="st1" d="M591.6,120.5c0-0.6-0.5-1.1-1.1-1.1c-0.6,0-1.1,0.5-1.1,1.1c0,0.6,0.5,1.1,1.1,1.1
							C591.1,121.6,591.6,121.1,591.6,120.5z"/>
						<path class="st1" d="M595.4,120.5c0-0.6-0.5-1.1-1.1-1.1c-0.6,0-1.1,0.5-1.1,1.1c0,0.6,0.5,1.1,1.1,1.1
							C595,121.6,595.4,121.1,595.4,120.5z"/>
						<path class="st1" d="M599.3,120.5c0-0.6-0.5-1.1-1.1-1.1c-0.6,0-1.1,0.5-1.1,1.1c0,0.6,0.5,1.1,1.1,1.1
							C598.8,121.6,599.3,121.1,599.3,120.5z"/>
					</g>
				</g>
			</g>
		</g>
		<g>
			<path class="st5" d="M222.3,245.4c6.1,6.3,16.1,6.4,22.4,0.3c6.3-6.1,6.4-16.1,0.3-22.4c-6.1-6.3-16.2-6.4-22.4-0.3
				C216.3,229.1,216.2,239.1,222.3,245.4z"/>
			<g>
				<g>
					<path class="st2" d="M214.7,234.2c0.1-10.5,8.7-18.9,19.1-18.8c10.5,0.1,18.9,8.7,18.8,19.1c-0.1,9.6-7.3,17.5-16.6,18.7
						l-0.1,15.6l-4.3,0l0.1-15.5C222.1,252.2,214.6,244,214.7,234.2z M222.7,245c2.8,2.8,6.6,4.6,10.9,4.6
						c8.4,0.1,15.3-6.7,15.4-15.2c0.1-8.4-6.7-15.4-15.2-15.4c-8.4-0.1-15.4,6.7-15.4,15.2C218.3,238.4,220,242.2,222.7,245
						L222.7,245z"/>
				</g>
				<g>
					<g>
						<path class="st1" d="M236.9,269.7l-6.3-0.1l0.1-15.6c-9.9-1.4-17.1-9.8-17-19.9c0-5.3,2.2-10.3,6-14.1
							c3.8-3.7,8.8-5.7,14.2-5.7c11,0.1,19.9,9.1,19.8,20.1c-0.1,9.7-7.2,17.9-16.6,19.5L236.9,269.7z M232.6,267.7l2.3,0l0.1-15.4
							l0.9-0.1c8.9-1.1,15.6-8.7,15.7-17.7c0.1-9.9-7.9-18-17.8-18.1c-4.8,0-9.3,1.8-12.7,5.2c-3.4,3.4-5.3,7.9-5.4,12.7l0,0
							c-0.1,9.3,6.9,17.1,16.1,18l0.9,0.1L232.6,267.7z M233.6,250.6c0,0-0.1,0-0.1,0c-4.4,0-8.5-1.8-11.6-5l0,0
							c-3-3.1-4.6-7.2-4.6-11.5c0.1-8.9,7.4-16.2,16.3-16.2c0,0,0.1,0,0.1,0c9,0.1,16.2,7.4,16.2,16.4
							C249.9,243.4,242.6,250.6,233.6,250.6z M223.4,244.3c2.7,2.8,6.3,4.3,10.1,4.3c0,0,0.1,0,0.1,0c7.8,0,14.2-6.3,14.3-14.2
							c0.1-7.9-6.3-14.3-14.2-14.4c-7.9-0.1-14.3,6.3-14.4,14.2C219.3,238,220.8,241.6,223.4,244.3L223.4,244.3z"/>
					</g>
				</g>
			</g>
			<g>
				<polygon class="st3" points="228.3,275.5 228.3,264.8 225.6,264.8 225.6,260 241.7,260 241.7,264.8 239,264.8 239,275.5 				"/>
				<g>
					<path class="st1" d="M240,276.5h-12.8v-10.6h-2.7V259h18.1v6.9H240V276.5z M229.3,274.5h8.8v-10.6h2.7V261h-14.1v2.9h2.7V274.5
						z"/>
				</g>
			</g>
		</g>
		<g>
			<path class="st1" d="M326.1,119.8h-2v-1.3h2V119.8z M326.1,116.5h-2v-2h2V116.5z M326.1,112.5h-2v-2h2V112.5z M326.1,108.5h-2v-2
				h2V108.5z M326.1,104.5h-2v-2h2V104.5z M326.1,100.5h-2v-2h2V100.5z M326.1,96.5h-2v-2h2V96.5z M326.1,92.5h-2v-2h2V92.5z
				 M326.1,88.5h-2v-2h2V88.5z M326.1,84.5h-2v-2h2V84.5z M326.1,80.5h-2v-2h2V80.5z M324.1,76.7c-0.1-0.6-0.2-1.3-0.3-1.9l2-0.4
				c0.1,0.7,0.2,1.4,0.3,2.1L324.1,76.7z M323.3,72.9c-0.2-0.6-0.4-1.2-0.7-1.8l1.8-0.8c0.3,0.6,0.5,1.3,0.7,2L323.3,72.9z
				 M282.2,70.8l-1.9-0.6c0.2-0.7,0.5-1.3,0.8-2l1.8,0.8C282.6,69.6,282.4,70.2,282.2,70.8z M321.8,69.5c-0.3-0.5-0.7-1.1-1-1.6
				l1.6-1.2c0.4,0.6,0.8,1.2,1.1,1.8L321.8,69.5z M283.8,67.4l-1.7-1.1c0.4-0.6,0.8-1.2,1.2-1.7l1.6,1.3
				C284.5,66.3,284.1,66.8,283.8,67.4z M319.6,66.4c-0.4-0.5-0.9-0.9-1.3-1.4l1.4-1.5c0.5,0.5,1,1,1.5,1.5L319.6,66.4z M286.2,64.5
				l-1.4-1.4c0.5-0.5,1.1-1,1.6-1.4l1.2,1.6C287.1,63.6,286.6,64,286.2,64.5z M316.8,63.8c-0.5-0.4-1-0.7-1.6-1.1l1-1.7
				c0.6,0.4,1.2,0.8,1.7,1.2L316.8,63.8z M289.2,62.2l-1-1.7c0.6-0.4,1.2-0.7,1.9-0.9l0.8,1.8C290.3,61.6,289.7,61.9,289.2,62.2z
				 M313.6,61.9c-0.6-0.3-1.2-0.5-1.8-0.7l0.7-1.9c0.7,0.2,1.3,0.5,1.9,0.8L313.6,61.9z M292.6,60.7l-0.5-1.9
				c0.7-0.2,1.4-0.3,2.1-0.5l0.3,2C293.8,60.4,293.2,60.6,292.6,60.7z M310,60.6c-0.6-0.1-1.2-0.3-1.9-0.3l0.3-2
				c0.7,0.1,1.4,0.2,2.1,0.4L310,60.6z M296.3,60.2l-0.1-2c0.2,0,0.4,0,0.6,0h1.4v2h-1.4C296.6,60.2,296.5,60.2,296.3,60.2z
				 M306.2,60.2l-2,0v-2h1.6c0.2,0,0.3,0,0.5,0L306.2,60.2z M302.3,60.2h-2v-2h2V60.2z"/>
		</g>
		<g>
			<g>
				<circle class="st2" cx="270.7" cy="209.2" r="19.5"/>
				<path class="st1" d="M270.7,229.7c-11.3,0-20.5-9.2-20.5-20.5c0-11.3,9.2-20.5,20.5-20.5c11.3,0,20.5,9.2,20.5,20.5
					C291.2,220.5,282,229.7,270.7,229.7z M270.7,190.7c-10.2,0-18.5,8.3-18.5,18.5c0,10.2,8.3,18.5,18.5,18.5
					c10.2,0,18.5-8.3,18.5-18.5C289.2,199,280.9,190.7,270.7,190.7z"/>
			</g>
			<g>
				<rect x="269.7" y="189.7" class="st1" width="2" height="39"/>
			</g>
			<g>
				<path class="st1" d="M268.7,229.2c-7-12.4-7.1-27.3-0.4-39.9l1.8,0.9c-6.4,12-6.3,26.2,0.4,38L268.7,229.2z"/>
			</g>
			<g>
				<path class="st1" d="M272.8,229.2l-1.7-1c6.6-11.8,6.8-26,0.4-38l1.8-0.9C279.9,201.8,279.8,216.8,272.8,229.2z"/>
			</g>
			<g>
				<rect x="251.2" y="208.2" class="st1" width="39" height="2"/>
			</g>
			<g>
				<path class="st1" d="M270.7,206.5c-6.3,0-12.6-0.7-18.9-2l0.4-2c12.3,2.6,24.7,2.6,36.9,0l0.4,2
					C283.3,205.8,277,206.5,270.7,206.5z"/>
			</g>
			<g>
				<path class="st1" d="M252.3,216.1l-0.4-2c12.5-2.7,25.2-2.7,37.7,0l-0.4,2C276.9,213.5,264.5,213.5,252.3,216.1z"/>
			</g>
			<g>
				<path class="st1" d="M270.7,198.2c-4.4,0-8.7-1.1-12.6-3.4l1-1.7c7.2,4.2,16,4.2,23.2,0l1,1.7
					C279.4,197,275.1,198.2,270.7,198.2z"/>
			</g>
			<g>
				<path class="st1" d="M258.4,224.7l-1.1-1.7c8.2-5.2,18.7-5.2,26.9,0l-1.1,1.7C275.6,219.9,265.9,219.9,258.4,224.7z"/>
			</g>
			<g>
				<path class="st1" d="M266.3,229.2c-6.9-4.4-11-11.8-11-20c0-8.2,4.1-15.6,11-20l1.1,1.7c-6.3,4-10,10.8-10,18.3
					c0,7.5,3.8,14.3,10,18.3L266.3,229.2z"/>
			</g>
			<g>
				<path class="st1" d="M275.2,229.2l-1.1-1.7c6.3-4,10.1-10.9,10-18.3c0-7.5-3.8-14.3-10.1-18.3l1.1-1.7
					c6.9,4.3,11.1,11.8,11.1,20C286.1,217.3,282,224.8,275.2,229.2z"/>
			</g>
		</g>
		<g>
			<g>
				<path class="st3" d="M413.7,248.3c-4.5-5.5-13.4-6.9-33.3-0.8c-7.6,2.3-11.5-6.5-13.2-11.4l-21,4.1l-21-4.1
					c-1.7,4.9-5.6,13.7-13.2,11.4c-19.9-6.1-28.8-4.6-33.3,0.8c-12.8,15.5,26,10.8,25.7,18.1c-0.5,10.5,83,11.5,83.6,0
					C388.4,259.1,426.5,263.8,413.7,248.3z"/>
				<path class="st1" d="M347.1,275.7c-17.6,0-35.5-1.9-41.3-5.7c-1.6-1-2.4-2.2-2.3-3.6c0.1-2-6.3-3.1-11.4-4
					c-7.4-1.3-15-2.6-16.6-6.9c-0.8-2.2,0-4.7,2.5-7.8c5.4-6.5,15.7-6.9,34.3-1.2c6.2,1.9,9.9-4.8,12-10.8l0.3-0.8l21.7,4.3
					l21.7-4.3l0.3,0.8c2,6,5.8,12.7,12,10.8c18.7-5.7,29-5.4,34.3,1.2c2.5,3.1,3.4,5.6,2.6,7.8c-1.6,4.3-9.1,5.6-16.4,6.9
					c-5.1,0.9-11.5,2-11.6,4.1c-0.1,1.6-1.3,3-3.6,4.2C379.1,274,363.2,275.7,347.1,275.7z M291.3,244.6c-5.5,0-9.4,1.5-11.8,4.4
					c-2,2.4-2.7,4.4-2.2,5.8c1.2,3.3,8.6,4.5,15.1,5.7c7.1,1.2,13.2,2.3,13,6.1c0,0.7,0.8,1.4,1.4,1.8c10.8,7,64.6,7.4,77.7,0.7
					c1.1-0.6,2.5-1.5,2.5-2.5c0.2-3.7,6.2-4.7,13.2-5.9c6.4-1.1,13.7-2.4,14.9-5.6c0.5-1.5-0.2-3.4-2.2-5.9l0,0
					c-4.7-5.7-14.7-5.9-32.2-0.5c-4.2,1.3-9.9,0.3-14.1-11.2l-20.3,4l-20.3-4c-4.2,11.5-10,12.5-14.1,11.2
					C303.3,245.9,296.5,244.6,291.3,244.6z"/>
			</g>
			<g>
				<g>
					<g>
						<path class="st2" d="M396,251.3c-0.5,0.2-14.2,3.6-18.9,5.8c-8,3.7-31.8,14.7-38.5,20.3c-4.9,4.1-14.6,0.2-21.2,0.7
							c-0.9,0.1-1.8,0.5-2.5,1.1c-0.6,0.6-1.3,1.1-1.9,1.7c-1.8,1.5-2.3,4-1.2,6.1c0.3,0.7,0.7,1.3,1,2c1,1.9,3.1,2.9,5.2,2.4
							c2.1-0.5,4.4-1,4.9-1c4-0.6,7.6-2.5,11.5-3.5c1.4-0.4,2.7,1.2,4.1,0.8c1.5-0.4,3.3-2.7,4.8-3.1c8.8-2.3,17.5-4.7,21.4-5.8
							c12.7-3.8,22.1-2.3,36.4-12.4c2.5-1.8,7.5-3,9-5.8c1.8-3.3,1-8.8-2.3-10.8C404.2,247.4,400,249.9,396,251.3z"/>
						<path class="st1" d="M317,292.4c-2.1,0-4.1-1.1-5.1-3c-0.3-0.6-0.7-1.3-1-2c-1.3-2.5-0.7-5.5,1.4-7.3c0.7-0.6,1.3-1.1,1.9-1.7
							c0.9-0.8,2-1.3,3.1-1.3c2.4-0.2,5.1,0.2,7.9,0.6c4.8,0.7,9.9,1.3,12.7-1c6.8-5.7,30.8-16.8,38.7-20.5
							c3.9-1.8,13.5-4.4,17.5-5.4c0.8-0.2,1.3-0.4,1.5-0.4c0.7-0.2,1.4-0.5,2.1-0.8c3.5-1.4,7.2-2.9,10.7-0.8
							c3.9,2.3,4.7,8.5,2.7,12.1c-1.2,2.1-3.8,3.4-6.2,4.5c-1.2,0.6-2.3,1.1-3.1,1.6c-10.2,7.2-17.9,8.6-26,10.1
							c-3.4,0.6-6.9,1.3-10.7,2.4c-3.6,1.1-11.8,3.3-21.4,5.8c-0.6,0.2-1.3,0.8-2,1.4c-0.9,0.7-1.8,1.5-2.8,1.8
							c-1.1,0.3-2-0.1-2.8-0.5c-0.5-0.2-1-0.4-1.4-0.3c-1.5,0.4-3.1,1-4.6,1.5c-2.2,0.8-4.6,1.7-7,2c-0.3,0-1.4,0.3-4.9,1
							C317.8,292.4,317.4,292.4,317,292.4z M318.7,279.1c-0.4,0-0.8,0-1.2,0c-0.7,0.1-1.4,0.4-1.9,0.8c-0.6,0.6-1.3,1.1-2,1.7
							c-1.4,1.2-1.8,3.2-0.9,4.8c0.3,0.7,0.7,1.3,1,1.9c0.8,1.5,2.5,2.3,4.1,1.9c2.9-0.6,4.5-1,5-1.1c2.3-0.3,4.4-1.1,6.6-1.9
							c1.6-0.6,3.2-1.2,4.8-1.6c1-0.3,1.9,0.1,2.7,0.4c0.6,0.2,1.1,0.5,1.5,0.4c0.6-0.1,1.3-0.8,2-1.4c0.9-0.7,1.8-1.5,2.8-1.8
							c9.6-2.5,17.8-4.7,21.4-5.8c3.9-1.1,7.5-1.8,10.9-2.5c7.9-1.5,15.4-2.9,25.2-9.8c0.9-0.7,2.1-1.2,3.4-1.8
							c2.1-1,4.5-2.1,5.3-3.7c1.5-2.8,0.9-7.7-2-9.4c-2.7-1.6-5.7-0.3-9,1c-0.7,0.3-1.4,0.6-2.1,0.8c-0.1,0-0.4,0.1-1.6,0.4
							c-3.7,1-13.5,3.6-17.2,5.3c-7.8,3.6-31.7,14.6-38.3,20.2c-3.5,2.9-8.9,2.2-14.2,1.5C322.7,279.4,320.6,279.1,318.7,279.1z"/>
					</g>
				</g>
			</g>
			<g>
				<g>
					<path class="st1" d="M326,116.2c-1,8-0.9,16.8-2.6,24.6c-2.9,13.6,4.8,34.6,17.3,41.9c6.4,3.7,17.8,3.4,23.1-2.1
						c5.1-5.4,4.1-11.6,3.8-18.2c-0.4-8.9,0.8-18,0.8-27c0-4.3,0-8.6,0-12.8c0-10.5-2.5-20.9-13-25.7c-6.8-3.1-15.2-1.5-21.4,2.4
						C328.5,102.7,326.8,110,326,116.2z"/>
				</g>
			</g>
			<g>
				<path class="st2" d="M356.6,159.9l-2.7-27.5l-14.1,2.6l-2.6,25.1c-5.3,0.9-11.1,2.5-17.4,5.1l6.7,17.3l48.9-14.6
					C375.5,167.8,368.8,161.8,356.6,159.9z"/>
				<path class="st1" d="M326,183.6l-7.4-19.1l0.9-0.4c5.7-2.3,11.3-4,16.8-5l2.6-25.1l15.9-3l2.8,27.9c11.9,2.1,18.4,7.8,18.7,8.1
					l1.3,1.2L326,183.6z M321.2,165.7l6,15.5l46.2-13.7c-2.6-1.8-8.4-5.2-16.9-6.6l-0.8-0.1l-2.7-27.2l-12.2,2.3l-2.6,25.1l-0.8,0.1
					C332.1,161.9,326.6,163.5,321.2,165.7z"/>
			</g>
			<g>
				<g>
					<g>
						<g>
							<g>
								<path class="st2" d="M326,122.7c0.5,4,1.9,7.4,3,10.8c3,9.6,11.5,16.2,18.9,16.2c3,0,11.5-5.4,15-13.6c1.8-4.3,4-9.6,4.2-15
									c0.8-18.8-8.4-30-21.6-29.6C332.3,91.9,324,105.9,326,122.7z"/>
								<path class="st1" d="M347.9,150.7c-8.3,0-16.9-7.3-19.9-16.9c-0.3-0.8-0.5-1.6-0.8-2.5c-0.9-2.6-1.8-5.4-2.2-8.5l0,0
									c-1.2-10,1.1-19.3,6.4-25.4c3.7-4.3,8.6-6.7,14.1-6.9c5.9-0.2,11.1,1.8,15,5.8c5.4,5.4,8.1,14.2,7.6,24.8
									c-0.2,5.5-2.3,10.8-4.3,15.3C360.3,144.9,351.4,150.7,347.9,150.7z M327,122.6c0.3,2.9,1.2,5.6,2.1,8.1
									c0.3,0.8,0.6,1.7,0.8,2.5c2.7,8.7,10.6,15.5,18,15.5c2.5,0,10.8-5.2,14.1-13c1.9-4.4,3.9-9.5,4.1-14.6
									c0.4-10-2.1-18.3-7-23.3c-3.5-3.6-8.2-5.4-13.5-5.2c-4.9,0.1-9.3,2.3-12.7,6.2C328,104.4,325.8,113.1,327,122.6L327,122.6z"
									/>
							</g>
						</g>
					</g>
				</g>
			</g>
			<g>
				<g>
					<g>
						<g>
							<g>
								<path class="st1" d="M339.2,125.3c-0.3,1.1-1.3,1.6-2.8,1.3c-1.5-0.3-2.3-0.9-2-2.3c0.2-1.2,1.4-2.1,2.9-1.8
									C338.7,122.9,339.5,123.9,339.2,125.3z"/>
							</g>
						</g>
					</g>
				</g>
				<g>
					<g>
						<path class="st1" d="M331.2,120.4c-0.3-0.3-0.3-0.8,0.1-1.1l0,0c1.1-0.9,2.3-2,3.7-2l0,0c0.3,0,0.5,0,0.8,0.1l0,0
							c1.6,0.6,4.7,1.2,4.7,1.2h0c0.4,0.1,0.7,0.5,0.6,0.9l0,0c-0.1,0.4-0.5,0.7-0.9,0.6l0,0c0,0-3.1-0.6-4.9-1.3l0,0
							c-0.1,0-0.2,0-0.2,0l0,0c-0.5-0.1-1.6,0.7-2.7,1.7l0,0c-0.2,0.1-0.3,0.2-0.5,0.2l0,0C331.6,120.6,331.3,120.6,331.2,120.4
							L331.2,120.4z"/>
					</g>
				</g>
			</g>
			<g>
				<g>
					<g>
						<g>
							<g>
								<path class="st1" d="M352.8,125.3c0.3,1.1,1.3,1.6,2.8,1.3c1.5-0.3,2.3-0.9,2-2.3c-0.2-1.2-1.4-2.1-2.9-1.8
									C353.3,122.9,352.5,123.9,352.8,125.3z"/>
							</g>
						</g>
					</g>
				</g>
				<g>
					<g>
						<path class="st1" d="M359.7,120.4c-1-1-2.2-1.7-2.7-1.7l0,0c-0.1,0-0.2,0-0.2,0l0,0c-1.9,0.7-4.9,1.3-4.9,1.3l0,0v0
							c-0.4,0.1-0.9-0.2-0.9-0.6l0,0c-0.1-0.4,0.2-0.9,0.6-0.9l0,0c0,0,3.1-0.6,4.7-1.2l0,0c0.3-0.1,0.5-0.1,0.8-0.1l0,0
							c1.5,0,2.6,1.1,3.7,2l0,0c0.3,0.3,0.4,0.8,0.1,1.1l0,0c-0.2,0.2-0.4,0.3-0.6,0.3l0,0C360,120.6,359.8,120.6,359.7,120.4
							L359.7,120.4z"/>
					</g>
				</g>
			</g>
			<g>
				<g>
					<path class="st1" d="M345.8,135.3c0,0-2.8-0.1-2.9-2.8l0,0c0-0.6,0.1-1.3,0.5-2.1l0,0c0.1-0.3,0.5-0.5,0.8-0.3l0,0
						c0.3,0.1,0.5,0.5,0.3,0.8l0,0c-0.3,0.7-0.4,1.3-0.4,1.7l0,0c0,1.6,1.7,1.6,1.7,1.6l0,0c0.3,0,0.6,0.3,0.6,0.6l0,0
						C346.4,135,346.2,135.3,345.8,135.3L345.8,135.3C345.8,135.3,345.8,135.3,345.8,135.3L345.8,135.3z"/>
				</g>
			</g>
			<g>
				<g>
					<path class="st1" d="M346.6,143.2c-2.8,0-4.8-1.8-4.8-1.8l0,0c-0.3-0.3-0.4-0.8-0.1-1.1l0,0c0.3-0.3,0.8-0.4,1.1-0.1l0,0
						c0,0,0.4,0.3,1.1,0.7l0,0c0.7,0.4,1.6,0.7,2.7,0.7l0,0c1.1,0,2.4-0.4,3.8-1.6l0,0c0.3-0.3,0.8-0.3,1.1,0.1l0,0
						c0.3,0.3,0.3,0.8-0.1,1.1l0,0C349.8,142.7,348.1,143.2,346.6,143.2L346.6,143.2C346.6,143.2,346.6,143.2,346.6,143.2
						L346.6,143.2z"/>
				</g>
			</g>
			<g>
				<g>
					<g>
						<path class="st3" d="M332.6,161c0,0,14.1,16.2,30.1,0.2c0,0,9.2,2.3,12.8,5.9c0,0,4.3,2.8,4.3,20.1c0,0-7.1,4.2-11.9,4.2
							c0,0-4.9,24.3-4.3,32.5c0.3,3.2,3.6,12.1,3.6,12.1s-20.9,12.6-42,0c0,0,3.7-8.3,4-11.3c0.8-8.2-4.6-32.8-4.6-32.8
							s-12-0.3-12-4.5c0,0-0.2-17.7,5.9-21.8C321.9,163.5,332.6,161,332.6,161z"/>
						<path class="st1" d="M345.4,242.6c-6.4,0-13.5-1.4-20.7-5.7l-0.8-0.5l0.4-0.8c1-2.3,3.7-8.7,3.9-11c0.7-7.2-3.5-27.6-4.4-31.7
							c-3.2-0.2-12.1-1-12.1-5.5c0-0.7-0.1-18.3,6.4-22.6c3.4-2.2,13.9-4.7,14.3-4.8l0.6-0.1l0.4,0.5c0.1,0.1,5.9,6.7,14,6.9
							c5,0.2,10-2.1,14.6-6.7l0.4-0.4l0.5,0.1c0.4,0.1,9.4,2.4,13.2,6.1c0.8,0.6,4.7,4.4,4.7,20.8v0.6l-0.5,0.3
							c-0.3,0.2-6.7,3.9-11.6,4.3c-0.8,4.2-4.7,24.3-4.1,31.5c0.2,3,3.5,11.8,3.6,11.9l0.3,0.8l-0.7,0.4
							C367.6,237,358.1,242.6,345.4,242.6z M326.5,235.7c17.9,10.2,35.7,1.9,39.5,0c-0.8-2.3-3.2-8.9-3.4-11.6
							c-0.7-8.2,4.1-31.8,4.3-32.8l0.2-0.8h0.8c3.8,0,9.3-2.9,10.9-3.8C378.7,171,375,168,375,168l-0.1-0.1c-2.9-2.9-9.8-5-11.8-5.5
							c-4.9,4.8-10.2,7.1-15.7,6.9c-7.8-0.3-13.5-5.6-15-7.2c-2.2,0.5-10.4,2.6-13.1,4.4c-4.7,3.1-5.5,16.1-5.5,20.9
							c0,2.2,6.5,3.4,11,3.5l0.8,0l0.2,0.8c0.2,1,5.4,24.8,4.6,33.1C330,227.4,327.5,233.4,326.5,235.7z"/>
					</g>
				</g>
			</g>
			<g>
				<g>
					<path class="st1" d="M327,98.9c-8.4,12.9-7.2,35.4-7.8,47.5c-0.2,3.4-0.1,7,0.1,10.4c0.2,3.5,3.4,13.6,5.7,16.5
						c1.6,2,7,8.1,7,8.1s-4.9-21.9-5-22.9c-0.5-3.6-0.8-6.9-0.7-10.6c0.2-4.4,0.5-8.9,0.5-13.3c0-4.4-0.3-9.1,1.1-13.4
						c0.8-2.4,2.2-4.5,3.9-6.4c1.9-2.1,4.3-3.2,5.4-5.9c1-2.3,1.2-5,1.6-7.4c0.8,1.3,1.2,3,2.2,4.2c2.6,3,7.2,5.4,11,6.4
						c4.2,1.1,7.2,3.5,10.1,6.9c4.2,5,4.3,12.6,4.5,18.7c0.1,4.1,0.1,8.1-0.1,12.1c-0.1,1.7-4,31.8-3.3,32.1c0,0,4.9-5.8,6.8-9.3
						c2.1-3.8,5.3-16.5,5.3-22.3c0.1-17.3,2.6-39-8.8-53.2c-7.3-9-15.7-10-26.4-7.6C334.1,91,330,94.4,327,98.9z"/>
				</g>
			</g>
			<g>
				<g>
					<g>
						<path class="st2" d="M296.5,251.3c0.5,0.2,14.2,3.6,18.9,5.8c8,3.7,31.8,14.7,38.5,20.3c5.3,4.4,16.4-0.6,22.8,0.9
							c0.7,0.7,1.6,1.5,2.4,2.2c2,1.7,2.4,4.7,0.8,6.8c-0.5,0.6-0.9,1.3-1.4,1.8c-1.3,1.7-3.5,2.5-5.6,1.9c-1.5-0.4-3-0.8-3.6-0.9
							c-4-0.6-7.6-2.5-11.5-3.5c-1.4-0.4-2.7,1.2-4.1,0.8c-1.5-0.4-3.3-2.7-4.8-3.1c-8.8-2.3-17.5-4.7-21.4-5.8
							c-12.7-3.8-22.1-2.3-36.4-12.4c-2.5-1.8-7.5-3-9-5.8c-1.8-3.3-1-8.8,2.3-10.8C288.3,247.4,292.5,249.9,296.5,251.3z"/>
						<path class="st1" d="M374.5,292.3c-0.5,0-1.1-0.1-1.7-0.2c-2.5-0.7-3.2-0.8-3.4-0.9c-2.5-0.4-4.8-1.2-7-2
							c-1.5-0.6-3.1-1.1-4.6-1.5c-0.3-0.1-0.8,0.1-1.4,0.3c-0.8,0.3-1.7,0.7-2.8,0.5c-1-0.3-1.9-1-2.8-1.8c-0.7-0.6-1.5-1.2-2-1.4
							c-9.6-2.5-17.8-4.8-21.4-5.8c-3.8-1.1-7.3-1.8-10.7-2.4c-8.1-1.5-15.8-2.9-26-10.1c-0.8-0.6-1.9-1.1-3.1-1.6
							c-2.4-1.1-5-2.4-6.2-4.5c-2-3.6-1.2-9.8,2.7-12.1c3.5-2.1,7.2-0.6,10.7,0.8c0.7,0.3,1.4,0.6,2.1,0.8c0.1,0,0.7,0.2,1.5,0.4
							c4.1,1.1,13.6,3.6,17.5,5.4c7.9,3.6,31.9,14.7,38.7,20.5c2.8,2.4,7.8,1.7,12.7,1c3.6-0.5,7-1,9.7-0.3l0.3,0.1l0.2,0.2
							c0.7,0.7,1.6,1.5,2.4,2.1c2.4,2,2.8,5.6,1,8.2c-0.5,0.6-0.9,1.3-1.4,1.9C378.3,291.4,376.4,292.3,374.5,292.3z M357.6,285.7
							c0.2,0,0.4,0,0.7,0.1c1.6,0.4,3.3,1,4.8,1.6c2.2,0.8,4.4,1.6,6.6,1.9c0.3,0,1,0.2,3.7,0.9c1.7,0.5,3.4-0.1,4.5-1.5
							c0.4-0.6,0.9-1.2,1.3-1.8c1.2-1.7,0.9-4.1-0.7-5.5c-0.8-0.6-1.6-1.3-2.3-2c-2.4-0.5-5.5,0-8.7,0.4c-5.3,0.7-10.7,1.5-14.2-1.5
							c-6.6-5.6-30.5-16.6-38.3-20.2c-3.8-1.7-13.5-4.3-17.2-5.3c-1.2-0.3-1.5-0.4-1.6-0.4c-0.7-0.3-1.4-0.5-2.1-0.8
							c-3.2-1.3-6.3-2.5-9-1c-2.9,1.7-3.5,6.6-2,9.4c0.9,1.6,3.2,2.7,5.3,3.7c1.3,0.6,2.4,1.2,3.4,1.8c9.8,6.9,17.3,8.3,25.2,9.8
							c3.5,0.6,7,1.3,10.9,2.5c3.6,1.1,11.8,3.3,21.4,5.8c1,0.3,1.9,1,2.8,1.8c0.7,0.6,1.5,1.2,2,1.4c0.4,0.1,0.9-0.1,1.5-0.4
							C356.2,286,356.8,285.7,357.6,285.7z"/>
					</g>
				</g>
			</g>
		</g>
		<g>
			<g>
				<path class="st2" d="M391.1,251.7H298v-53.5c0-5.2,4.2-9.5,9.5-9.5h74.1c5.2,0,9.5,4.2,9.5,9.5V251.7z"/>
				<path class="st1" d="M391.1,252.7H298c-0.6,0-1-0.4-1-1v-53.5c0-5.8,4.7-10.5,10.5-10.5h74.1c5.8,0,10.5,4.7,10.5,10.5v53.5
					C392.1,252.3,391.6,252.7,391.1,252.7z M299,250.7h91.1v-52.5c0-4.7-3.8-8.5-8.5-8.5h-74.1c-4.7,0-8.5,3.8-8.5,8.5V250.7z"/>
			</g>
			<g>
				<path class="st2" d="M388.7,251.7h-88.4c-4.1,0-7.4-3.3-7.4-7.4v-0.9h103.1v0.9C396.1,248.4,392.8,251.7,388.7,251.7z"/>
				<path class="st1" d="M388.7,252.7h-88.4c-4.6,0-8.4-3.8-8.4-8.4v-0.9c0-0.6,0.4-1,1-1h103.1c0.6,0,1,0.4,1,1v0.9
					C397.1,248.9,393.3,252.7,388.7,252.7z M293.9,244.4c0.1,3.5,2.9,6.3,6.4,6.3h88.4c3.5,0,6.3-2.8,6.4-6.3H293.9z"/>
			</g>
			<g>
				
					<rect x="336.7" y="210.3" transform="matrix(0.7071 -0.7071 0.7071 0.7071 -53.282 307.4695)" class="st2" width="15.6" height="15.6"/>
				<path class="st1" d="M344.5,230.1c-0.3,0-0.5-0.1-0.7-0.3l-11-11c-0.4-0.4-0.4-1,0-1.4l11-11c0.4-0.4,1-0.4,1.4,0l11,11
					c0.4,0.4,0.4,1,0,1.4l-11,11C345,230,344.8,230.1,344.5,230.1z M334.9,218.1l9.6,9.6l9.6-9.6l-9.6-9.6L334.9,218.1z"/>
			</g>
			<g>
				
					<rect x="339.6" y="213.1" transform="matrix(0.7071 -0.7071 0.7071 0.7071 -53.2839 307.4609)" class="st2" width="9.8" height="9.8"/>
				<g>
					
						<rect x="339.6" y="213.1" transform="matrix(0.7071 -0.7071 0.7071 0.7071 -53.2839 307.4609)" class="st3" width="9.8" height="9.8"/>
					<path class="st1" d="M344.5,226c-0.3,0-0.5-0.1-0.7-0.3l-7-7c-0.4-0.4-0.4-1,0-1.4l7-7c0.2-0.2,0.4-0.3,0.7-0.3l0,0
						c0.3,0,0.5,0.1,0.7,0.3l7,7c0.4,0.4,0.4,1,0,1.4l-7,7C345,225.9,344.8,226,344.5,226z M339,218.1l5.5,5.5l5.5-5.5l-5.5-5.5
						L339,218.1z"/>
				</g>
			</g>
		</g>
		<g>
			<g>
				<path class="st2" d="M308.5,208.8c0,0.9-0.7,1.6-1.6,1.6h-10.6v-1.7c0-0.8,0.6-1.4,1.4-1.4h9.2
					C307.8,207.2,308.5,208,308.5,208.8L308.5,208.8z"/>
				<path class="st1" d="M306.9,211.4h-11.6v-2.7c0-1.3,1.1-2.4,2.4-2.4h9.2c1.4,0,2.6,1.2,2.6,2.6
					C309.5,210.3,308.3,211.4,306.9,211.4z M297.3,209.4h9.6c0.3,0,0.6-0.3,0.6-0.6c0-0.3-0.3-0.6-0.6-0.6h-9.2
					c-0.2,0-0.4,0.2-0.4,0.4V209.4z"/>
			</g>
			<g>
				<path class="st2" d="M309.6,212c0,0.9-0.7,1.6-1.6,1.6h-11.8v-3.2h11.8C308.9,210.4,309.6,211.1,309.6,212L309.6,212z"/>
				<path class="st1" d="M308.1,214.6h-12.8v-5.2h12.8c1.4,0,2.6,1.2,2.6,2.6C310.6,213.4,309.5,214.6,308.1,214.6z M297.3,212.6
					h10.8c0.3,0,0.6-0.3,0.6-0.6c0-0.3-0.3-0.6-0.6-0.6h-10.8V212.6z"/>
			</g>
			<g>
				<path class="st2" d="M310.4,215.2c0,0.9-0.7,1.6-1.6,1.6h-12.5v-3.2h12.5C309.7,213.6,310.4,214.3,310.4,215.2L310.4,215.2z"/>
				<path class="st1" d="M308.8,217.8h-13.5v-5.2h13.5c1.4,0,2.6,1.2,2.6,2.6C311.4,216.6,310.2,217.8,308.8,217.8z M297.3,215.8
					h11.5c0.3,0,0.6-0.3,0.6-0.6c0-0.3-0.3-0.6-0.6-0.6h-11.5V215.8z"/>
			</g>
			<g>
				<path class="st2" d="M306.8,218.4c0,0.9-0.7,1.6-1.6,1.6h-7.5c-0.8,0-1.4-0.6-1.4-1.4v-1.7h9
					C306.1,216.8,306.8,217.5,306.8,218.4L306.8,218.4z"/>
				<path class="st1" d="M305.2,221h-7.5c-1.3,0-2.4-1.1-2.4-2.4v-2.7h10c1.4,0,2.6,1.2,2.6,2.6C307.8,219.8,306.7,221,305.2,221z
					 M297.3,217.8v0.7c0,0.2,0.2,0.4,0.4,0.4h7.5c0.3,0,0.6-0.3,0.6-0.6c0-0.3-0.3-0.6-0.6-0.6H297.3z"/>
			</g>
		</g>
		<g>
			<g>
				<path class="st2" d="M381.1,208.8c0,0.9,0.7,1.6,1.6,1.6h10.6v-1.7c0-0.8-0.6-1.4-1.4-1.4h-9.2
					C381.8,207.2,381.1,208,381.1,208.8L381.1,208.8z"/>
				<path class="st1" d="M394.3,211.4h-11.6c-1.4,0-2.6-1.2-2.6-2.6c0-1.4,1.2-2.6,2.6-2.6h9.2c1.3,0,2.4,1.1,2.4,2.4V211.4z
					 M382.7,208.2c-0.3,0-0.6,0.3-0.6,0.6c0,0.3,0.3,0.6,0.6,0.6h9.6v-0.7c0-0.2-0.2-0.4-0.4-0.4H382.7z"/>
			</g>
			<g>
				<path class="st2" d="M380,212c0,0.9,0.7,1.6,1.6,1.6h11.8v-3.2h-11.8C380.7,210.4,380,211.1,380,212L380,212z"/>
				<path class="st1" d="M394.3,214.6h-12.8c-1.4,0-2.6-1.2-2.6-2.6c0-1.4,1.2-2.6,2.6-2.6h12.8V214.6z M381.6,211.4
					c-0.3,0-0.6,0.3-0.6,0.6c0,0.3,0.3,0.6,0.6,0.6h10.8v-1.2H381.6z"/>
			</g>
			<g>
				<path class="st2" d="M379.2,215.2c0,0.9,0.7,1.6,1.6,1.6h12.5v-3.2h-12.5C379.9,213.6,379.2,214.3,379.2,215.2L379.2,215.2z"/>
				<path class="st1" d="M394.3,217.8h-13.5c-1.4,0-2.6-1.2-2.6-2.6c0-1.4,1.2-2.6,2.6-2.6h13.5V217.8z M380.8,214.6
					c-0.3,0-0.6,0.3-0.6,0.6c0,0.3,0.3,0.6,0.6,0.6h11.5v-1.2H380.8z"/>
			</g>
			<g>
				<path class="st2" d="M382.8,218.4c0,0.9,0.7,1.6,1.6,1.6h7.5c0.8,0,1.4-0.6,1.4-1.4v-1.7h-9
					C383.5,216.8,382.8,217.5,382.8,218.4L382.8,218.4z"/>
				<path class="st1" d="M391.9,221h-7.5c-1.4,0-2.6-1.2-2.6-2.6c0-1.4,1.2-2.6,2.6-2.6h10v2.7C394.3,219.9,393.2,221,391.9,221z
					 M384.4,217.8c-0.3,0-0.6,0.3-0.6,0.6c0,0.3,0.3,0.6,0.6,0.6h7.5c0.2,0,0.4-0.2,0.4-0.4v-0.7H384.4z"/>
			</g>
		</g>
		<g>
			<path class="st1" d="M250.3,89.5l-5.4-5.4l5.4-5.4l5.4,5.4L250.3,89.5z M247.7,84.1l2.6,2.6l2.6-2.6l-2.6-2.6L247.7,84.1z"/>
		</g>
		<g>
			<path class="st1" d="M305.2,82c-3,0-5.5-2.5-5.5-5.5c0-3,2.5-5.5,5.5-5.5c3,0,5.5,2.5,5.5,5.5C310.7,79.6,308.2,82,305.2,82z
				 M305.2,73c-1.9,0-3.5,1.6-3.5,3.5c0,1.9,1.6,3.5,3.5,3.5c1.9,0,3.5-1.6,3.5-3.5C308.7,74.6,307.1,73,305.2,73z"/>
		</g>
		<g>
			<path class="st1" d="M388.8,112.6c-3,0-5.5-2.5-5.5-5.5c0-3,2.5-5.5,5.5-5.5s5.5,2.5,5.5,5.5
				C394.3,110.1,391.9,112.6,388.8,112.6z M388.8,103.6c-1.9,0-3.5,1.6-3.5,3.5c0,1.9,1.6,3.5,3.5,3.5c1.9,0,3.5-1.6,3.5-3.5
				C392.3,105.2,390.8,103.6,388.8,103.6z"/>
		</g>
		<g>
			<g>
				<rect x="511.4" y="36.7" class="st1" width="2" height="9"/>
			</g>
			<g>
				<rect x="507.9" y="40.2" class="st1" width="9" height="2"/>
			</g>
		</g>
		<g>
			<g>
				<circle class="st3" cx="274.9" cy="64.4" r="16.9"/>
				<path class="st1" d="M274.9,82.2c-9.8,0-17.9-8-17.9-17.9s8-17.9,17.9-17.9s17.9,8,17.9,17.9S284.7,82.2,274.9,82.2z
					 M274.9,48.5c-8.7,0-15.9,7.1-15.9,15.9s7.1,15.9,15.9,15.9s15.9-7.1,15.9-15.9S283.6,48.5,274.9,48.5z"/>
			</g>
			<g>
				<rect x="267" y="57.2" class="st1" width="15.7" height="2"/>
			</g>
			<g>
				<rect x="267" y="63.4" class="st1" width="15.7" height="2"/>
			</g>
			<g>
				<rect x="267" y="69.5" class="st1" width="15.7" height="2"/>
			</g>
		</g>
		<g>
			<g>
				<polygon class="st2" points="401.3,74.6 373,74.6 373,44.9 419.2,44.9 419.2,74.6 409.7,74.6 				"/>
				<path class="st1" d="M420.2,75.6H372V43.9h48.2V75.6z M374,73.6h44.2V45.9H374V73.6z"/>
			</g>
			<g>
				<rect x="379.4" y="51.8" class="st1" width="32.2" height="2"/>
			</g>
			<g>
				<rect x="379.4" y="56.3" class="st1" width="7.2" height="2"/>
			</g>
			<g>
				<rect x="388.8" y="56.3" class="st1" width="7.2" height="2"/>
			</g>
			<g>
				<rect x="398.2" y="56.3" class="st1" width="7.2" height="2"/>
			</g>
			<g>
				<rect x="379.4" y="59.6" class="st1" width="3.4" height="2"/>
			</g>
			<g>
				<rect x="385" y="59.6" class="st1" width="15" height="2"/>
			</g>
			<g>
				<rect x="379.4" y="62.9" class="st1" width="5.6" height="2"/>
			</g>
			<g>
				<rect x="387.2" y="62.9" class="st1" width="7.2" height="2"/>
			</g>
			<g>
				<rect x="396.6" y="62.9" class="st1" width="8.9" height="2"/>
			</g>
			<g>
				<rect x="379.4" y="66.3" class="st1" width="16.7" height="2"/>
			</g>
		</g>
		<g>
			<g>
				<path class="st1" d="M241.3,177.2l-2.9-5h-7.5v-19h41.8v19h-28.4L241.3,177.2z M232.9,170.2h6.6l1.8,3l1.8-3h27.6v-15h-37.8
					V170.2z"/>
			</g>
			<g>
				<path class="st1" d="M239.5,161.7h-8.6v-8.6h8.6V161.7z M232.9,159.7h4.6v-4.6h-4.6V159.7z"/>
			</g>
			<g>
				<rect x="243.1" y="157.9" class="st1" width="20.7" height="2"/>
			</g>
			<g>
				<rect x="243.1" y="161.1" class="st1" width="20.7" height="2"/>
			</g>
			<g>
				<rect x="243.1" y="164.3" class="st1" width="20.7" height="2"/>
			</g>
		</g>
		<g>
			<g>
				<path class="st1" d="M395.7,159.3l-2.9-5h-7.5v-19h41.8v19h-28.4L395.7,159.3z M387.3,152.3h6.6l1.8,3l1.8-3h27.6v-15h-37.8
					V152.3z"/>
			</g>
			<g>
				<path class="st1" d="M393.9,143.8h-8.6v-8.6h8.6V143.8z M387.3,141.8h4.6v-4.6h-4.6V141.8z"/>
			</g>
			<g>
				<rect x="397.4" y="140" class="st1" width="20.7" height="2"/>
			</g>
			<g>
				<rect x="397.4" y="143.2" class="st1" width="20.7" height="2"/>
			</g>
			<g>
				<rect x="397.4" y="146.4" class="st1" width="20.7" height="2"/>
			</g>
		</g>
		<g>
			<g>
				<g>
					<rect x="395.2" y="32.7" class="st3" width="13.4" height="41.1"/>
					<path class="st1" d="M409.6,74.8h-15.4V31.7h15.4V74.8z M396.2,72.8h11.4V33.7h-11.4V72.8z"/>
				</g>
				<g>
					<polygon class="st3" points="408.6,73.8 401.9,73.8 395.2,73.8 395.2,84.1 401.9,94.4 408.6,84.1 					"/>
					<path class="st1" d="M401.9,96.2l-7.7-11.8V72.8h15.4v11.6L401.9,96.2z M396.2,83.8l5.7,8.8l5.7-8.8v-9h-11.4V83.8z"/>
				</g>
				<g>
					<rect x="398.6" y="32.7" class="st1" width="2" height="50.9"/>
				</g>
				<g>
					<line class="st2" x1="404.1" y1="83.6" x2="404.1" y2="32.7"/>
					<rect x="403.1" y="32.7" class="st1" width="2" height="50.9"/>
				</g>
				<g>
					<rect x="395.2" y="82.6" class="st1" width="13.4" height="2"/>
				</g>
				<g>
					<polygon class="st2" points="405.4,89 401.9,94.4 398.4,89 					"/>
					<path class="st1" d="M401.9,96.2l-5.3-8.2h10.7L401.9,96.2z M400.2,90l1.7,2.5l1.7-2.5H400.2z"/>
				</g>
			</g>
			<g>
				<path class="st2" d="M395.2,25.8v6.9h13.4v-6.9c0-3.6-2.9-6.5-6.5-6.5h-0.4C398.1,19.3,395.2,22.2,395.2,25.8z"/>
				<path class="st1" d="M409.6,33.7h-15.4v-7.9c0-4.1,3.4-7.5,7.5-7.5h0.4c4.2,0,7.5,3.4,7.5,7.5V33.7z M396.2,31.7h11.4v-5.9
					c0-3-2.5-5.5-5.5-5.5h-0.4c-3,0-5.5,2.5-5.5,5.5V31.7z"/>
			</g>
		</g>
		<g>
			<g>
				<path class="st1" d="M339.4,58.7l-0.9-1.8c-0.7-1.4-1.8-2.1-3-2.8c-1-0.6-2-1.3-2.8-2.3c-2.1-2.9-1.4-6.3,0.6-7.8
					c1.5-1.2,4-1.4,6.1,0.7c2.2-2.1,4.6-1.9,6.1-0.7c2,1.6,2.7,4.9,0.6,7.8c-0.8,1.1-1.8,1.7-2.8,2.3c-1.2,0.7-2.3,1.4-3,2.8
					L339.4,58.7z M335.8,45c-0.5,0-0.9,0.2-1.3,0.5c-1.2,1-1.6,3.1-0.2,5.1c0.5,0.7,1.3,1.2,2.2,1.8c0.9,0.6,2,1.2,2.9,2.3
					c0.9-1,1.9-1.7,2.9-2.3c0.9-0.6,1.7-1,2.2-1.8c1.4-1.9,1-4.1-0.2-5.1c-1.1-0.9-2.5-0.5-3.8,0.9c-0.1,0.1-0.2,0.2-0.3,0.3
					l-0.8,1.2l-0.8-1.2c-0.1-0.1-0.2-0.2-0.3-0.3C337.5,45.5,336.6,45,335.8,45z"/>
			</g>
		</g>
		<g>
			<g>
				<path class="st1" d="M451.3,151.7l-0.9-1.8c-0.7-1.4-1.8-2.1-3-2.8c-1-0.6-2-1.3-2.8-2.3c-2.1-2.9-1.4-6.2,0.6-7.8
					c1.5-1.2,4-1.4,6.1,0.7c2.2-2.1,4.6-1.9,6.1-0.7c2,1.6,2.7,4.9,0.6,7.8c-0.8,1.1-1.8,1.7-2.8,2.3c-1.2,0.7-2.3,1.4-3,2.8
					L451.3,151.7z M447.7,138c-0.5,0-0.9,0.2-1.3,0.5c-1.2,1-1.6,3.1-0.2,5.1c0.5,0.8,1.3,1.2,2.2,1.8c1,0.6,2,1.2,2.9,2.3
					c0.9-1,1.9-1.7,2.9-2.3c0.9-0.6,1.7-1,2.2-1.8c1.4-1.9,1-4.1-0.2-5.1c-1.1-0.9-2.5-0.5-3.8,0.9c-0.1,0.1-0.2,0.2-0.3,0.3
					l-0.8,1.2l-0.8-1.2c-0.1-0.1-0.2-0.2-0.3-0.3C449.4,138.5,448.5,138,447.7,138z"/>
			</g>
		</g>
		<g>
			<g>
				<g>
					<g>
						<polygon class="st1" points="476.4,246.4 474.4,246.4 474.4,168.7 402.2,168.7 402.2,213.2 400.2,213.2 400.2,166.7 
							476.4,166.7 						"/>
					</g>
					<g>
						<rect x="401.2" y="176" class="st1" width="74.2" height="2"/>
					</g>
					<rect x="404.6" y="170.8" class="st3" width="3.1" height="3.1"/>
					<rect x="409.7" y="170.8" class="st3" width="3.1" height="3.1"/>
					<rect x="414.8" y="170.8" class="st3" width="3.1" height="3.1"/>
				</g>
			</g>
			<rect x="411.3" y="188.1" class="st3" width="10.8" height="10.8"/>
			<rect x="425.8" y="188.1" class="st3" width="10.8" height="10.8"/>
			<g>
				<rect x="442.9" y="189.1" class="st1" width="21.9" height="2"/>
			</g>
			<g>
				<rect x="442.9" y="193.5" class="st1" width="21.9" height="2"/>
			</g>
			<g>
				<rect x="442.9" y="197.9" class="st1" width="21.9" height="2"/>
			</g>
			<g>
				<rect x="421.3" y="204.3" class="st1" width="43.6" height="2"/>
			</g>
			<g>
				<rect x="411.3" y="209.9" class="st1" width="53.6" height="2"/>
			</g>
			<g>
				<rect x="411.3" y="215.5" class="st1" width="53.6" height="2"/>
			</g>
			<g>
				<rect x="411.3" y="221.1" class="st1" width="53.6" height="2"/>
			</g>
		</g>
		<g>
			<g>
				<g>
					<path class="st3" d="M426,109.3c0-4.9,5.4-8.9,12.1-8.9c6.7,0,12.1,4,12.1,8.9c0,3.3-2.4,6.1-6,7.6c0.9,2.9,2.8,4.8,2.8,4.8
						c-4.5,0.2-7.9-1.5-10.4-3.7C430.6,117.5,426,113.8,426,109.3z"/>
					<path class="st1" d="M446.3,122.7c-3.7,0-7.1-1.2-10.1-3.7c-6.4-0.7-11.2-4.8-11.2-9.7c0-5.4,5.9-9.9,13.1-9.9
						c7.2,0,13.1,4.4,13.1,9.9c0,3.3-2.2,6.3-5.7,8.1c0.9,2.2,2.2,3.6,2.2,3.6l1.5,1.6l-2.2,0.1
						C446.8,122.7,446.5,122.7,446.3,122.7z M438.1,101.4c-6.1,0-11.1,3.5-11.1,7.9c0,3.9,4.2,7.3,9.7,7.8l0.3,0l0.2,0.2
						c2.3,2,4.9,3.1,7.7,3.4c-0.6-0.9-1.2-2.1-1.7-3.5l-0.3-0.9l0.8-0.4c3.3-1.4,5.4-4,5.4-6.7C449.2,105,444.2,101.4,438.1,101.4z"
						/>
				</g>
				<g>
					<path class="st1" d="M441.3,109.1c0,0.8,0.7,1.5,1.5,1.5c0.8,0,1.5-0.7,1.5-1.5c0-0.8-0.7-1.5-1.5-1.5
						C442,107.6,441.3,108.2,441.3,109.1z"/>
					<path class="st1" d="M436.9,109.1c0,0.8,0.7,1.5,1.5,1.5c0.8,0,1.5-0.7,1.5-1.5c0-0.8-0.7-1.5-1.5-1.5
						C437.5,107.6,436.9,108.2,436.9,109.1z"/>
					<path class="st1" d="M432.5,109.1c0,0.8,0.7,1.5,1.5,1.5c0.8,0,1.5-0.7,1.5-1.5c0-0.8-0.7-1.5-1.5-1.5
						C433.1,107.6,432.5,108.2,432.5,109.1z"/>
				</g>
			</g>
			<g>
				<g>
					<path class="st2" d="M439.6,100.6c0-5.5-6-9.9-13.5-9.9c-7.5,0-13.5,4.4-13.5,9.9c0,3.6,2.7,6.8,6.7,8.5
						c-1,3.2-3.1,5.4-3.1,5.4c5,0.2,8.8-1.7,11.6-4.1C434.4,109.8,439.6,105.7,439.6,100.6z"/>
					<path class="st1" d="M416.9,115.5c-0.3,0-0.6,0-0.8,0l-2.2-0.1l1.5-1.6c0,0,1.6-1.7,2.6-4.2c-4-2-6.4-5.4-6.4-9
						c0-6,6.5-10.9,14.5-10.9c8,0,14.5,4.9,14.5,10.9c0,5.4-5.3,10-12.4,10.8C424.8,114.2,421.1,115.5,416.9,115.5z M426.1,91.8
						c-6.9,0-12.5,4-12.5,8.9c0,3.1,2.3,6,6.1,7.6l0.8,0.4l-0.3,0.9c-0.5,1.7-1.3,3-2,4c3.3-0.3,6.2-1.5,8.9-3.8l0.2-0.2l0.3,0
						c6.2-0.6,10.9-4.4,10.9-8.8C438.6,95.7,433,91.8,426.1,91.8z"/>
				</g>
				<g>
					<path class="st1" d="M422.5,100.4c0,0.9-0.7,1.6-1.6,1.6s-1.6-0.7-1.6-1.6s0.7-1.6,1.6-1.6S422.5,99.5,422.5,100.4z"/>
					<path class="st1" d="M427.4,100.4c0,0.9-0.7,1.6-1.6,1.6c-0.9,0-1.6-0.7-1.6-1.6s0.7-1.6,1.6-1.6
						C426.7,98.7,427.4,99.5,427.4,100.4z"/>
					<path class="st1" d="M432.3,100.4c0,0.9-0.7,1.6-1.6,1.6c-0.9,0-1.6-0.7-1.6-1.6s0.7-1.6,1.6-1.6
						C431.6,98.7,432.3,99.5,432.3,100.4z"/>
				</g>
			</g>
		</g>
		<g>
			<g>
				<path class="st2" d="M477,34.7c-0.2,0.2-0.3,0.4-0.5,0.6c-0.1-0.2-0.3-0.4-0.5-0.6c-5.8-6.7-12.9,1.3-8.1,7.8
					c2.3,3.1,6.5,3.5,8.6,7.7c2.1-4.2,6.4-4.6,8.6-7.7C489.9,36,482.8,27.9,477,34.7z"/>
				<path class="st1" d="M485.1,32.4c-2-1.6-5.4-2.1-8.6,1.4c-3.2-3.5-6.6-2.9-8.6-1.4c-2.7,2.1-3.7,6.7-0.8,10.7
					c1.1,1.5,2.5,2.4,3.9,3.3c1.8,1.1,3.5,2.1,4.6,4.3l0.9,1.8l0.9-1.8c1.1-2.2,2.8-3.2,4.5-4.3c1.4-0.9,2.9-1.8,4-3.3
					C488.8,39.1,487.8,34.5,485.1,32.4z M468.7,41.9c-2.2-3-1.5-6.4,0.4-8c0.6-0.5,1.4-0.8,2.2-0.8c1.2,0,2.6,0.6,3.9,2.2
					c0.2,0.2,0.3,0.4,0.4,0.5l0.8,1.2l0.8-1.2c0.1-0.2,0.3-0.4,0.4-0.5c1.1-1.3,2.2-1.9,3.2-2.1c1.1-0.2,2.1,0.1,2.9,0.7
					c1.9,1.5,2.6,5,0.4,8c-0.9,1.2-2.1,1.9-3.4,2.7c-1.5,0.9-3.1,1.9-4.4,3.7c-0.3-0.4-0.7-0.8-1-1.2c-1.1-1-2.3-1.8-3.4-2.5
					C470.8,43.8,469.6,43.1,468.7,41.9z"/>
			</g>
			<path class="st3" d="M476.5,48.3c-0.3-0.4-0.7-0.8-1-1.2c2.1-1.7,4.5-2.5,6-4.6c2.6-3.5,1.7-7.5-0.5-9.3c1.1-0.2,2.1,0.1,2.9,0.7
				c1.9,1.5,2.6,5,0.4,8c-0.9,1.2-2.1,1.9-3.4,2.7C479.4,45.5,477.8,46.6,476.5,48.3z"/>
		</g>
		<g>
			<path class="st1" d="M560.4,77.4L555,72l5.4-5.4l5.4,5.4L560.4,77.4z M557.8,72l2.6,2.6L563,72l-2.6-2.6L557.8,72z"/>
		</g>
		<g>
			<g>
				<polygon class="st2" points="528.7,64 477.3,64 477.3,86 486.4,86 489.4,91.2 492.4,86 528.7,86 				"/>
				<g>
					<path class="st1" d="M489.4,93.2l-3.6-6.2h-9.6V63h53.4v24H493L489.4,93.2z M478.3,85h8.7l2.4,4.2l2.4-4.2h35.8V65h-49.4V85z"
						/>
				</g>
			</g>
			<g>
				<rect x="477.3" y="64" class="st3" width="8.5" height="8.5"/>
				<g>
					<path class="st1" d="M486.8,73.5h-10.5V63h10.5V73.5z M478.3,71.5h6.5V65h-6.5V71.5z"/>
				</g>
			</g>
			<g>
				<rect x="491.7" y="69.2" class="st1" width="26.7" height="2"/>
			</g>
			<g>
				<rect x="491.7" y="73.3" class="st1" width="26.7" height="2"/>
			</g>
			<g>
				<rect x="491.7" y="77.4" class="st1" width="26.7" height="2"/>
			</g>
		</g>
		<g>
			<g>
				<path class="st1" d="M64.6,232.6l-0.9-1.8c-0.7-1.4-1.8-2.1-3-2.8c-1-0.6-2-1.3-2.8-2.3c-2.1-2.9-1.4-6.3,0.6-7.8
					c1.5-1.2,4-1.4,6.1,0.7c2.2-2.1,4.6-1.9,6.1-0.7c2,1.6,2.7,4.9,0.6,7.8c-0.8,1.1-1.8,1.7-2.8,2.3c-1.2,0.7-2.3,1.4-3,2.8
					L64.6,232.6z M61.1,218.9c-0.5,0-0.9,0.2-1.3,0.5c-1.2,1-1.6,3.1-0.2,5.1c0.5,0.7,1.3,1.2,2.2,1.8c0.9,0.6,2,1.2,2.9,2.3
					c0.9-1,1.9-1.7,2.9-2.3c0.9-0.6,1.7-1,2.2-1.8c1.4-1.9,1-4.1-0.2-5.1c-1.1-0.9-2.5-0.5-3.8,0.9c-0.1,0.1-0.2,0.2-0.3,0.3
					l-0.8,1.2l-0.8-1.2c-0.1-0.1-0.2-0.2-0.3-0.3C62.7,219.4,61.9,218.9,61.1,218.9z"/>
			</g>
		</g>
		<g>
			<g>
				<polygon class="st2" points="508.7,72.9 457.3,72.9 457.3,94.8 466.4,94.8 469.4,100.1 472.4,94.8 508.7,94.8 				"/>
				<g>
					<path class="st1" d="M469.4,102.1l-3.6-6.2h-9.6v-24h53.4v24H473L469.4,102.1z M458.3,93.8h8.7l2.4,4.2l2.4-4.2h35.8v-20h-49.4
						V93.8z"/>
				</g>
			</g>
			<g>
				<rect x="457.3" y="72.9" class="st3" width="8.5" height="8.5"/>
				<g>
					<path class="st1" d="M466.8,82.4h-10.5V71.9h10.5V82.4z M458.3,80.4h6.5v-6.5h-6.5V80.4z"/>
				</g>
			</g>
			<g>
				<rect x="471.7" y="78" class="st1" width="26.7" height="2"/>
			</g>
			<g>
				<rect x="471.7" y="82.1" class="st1" width="26.7" height="2"/>
			</g>
			<g>
				<rect x="471.7" y="86.3" class="st1" width="26.7" height="2"/>
			</g>
		</g>
	</g>
</g>
</svg>
