<?xml version="1.0" encoding="utf-8"?>
<!-- Generator: Adobe Illustrator 22.1.0, SVG Export Plug-In . SVG Version: 6.00 Build 0)  -->
<svg version="1.1" id="Layer_1" xmlns="http://www.w3.org/2000/svg" xmlns:xlink="http://www.w3.org/1999/xlink" x="0px" y="0px"
	 viewBox="0 0 700 420" style="enable-background:new 0 0 700 420;" xml:space="preserve">
<style type="text/css">
	.st0{fill:#E4E4E4;}
	.st1{fill:#403635;}
	.st2{fill:#FFFFFF;}
	.st3{fill:#BFDEFF;}
	.st4{fill:none;stroke:#403635;stroke-miterlimit:10;}
	.st5{opacity:0.1;fill:#FFFFFF;}
	.st6{fill:#FFCA08;}
</style>
<rect class="st0" width="700" height="420"/>
<g>
	<rect x="52.6" y="381.5" class="st1" width="594.7" height="2"/>
</g>
<g>
	<circle class="st1" cx="52.6" cy="382.5" r="5"/>
	<path class="st1" d="M52.6,388.5c-3.3,0-6-2.7-6-6s2.7-6,6-6s6,2.7,6,6S55.9,388.5,52.6,388.5z M52.6,378.5c-2.2,0-4,1.8-4,4
		c0,2.2,1.8,4,4,4c2.2,0,4-1.8,4-4C56.6,380.3,54.8,378.5,52.6,378.5z"/>
</g>
<g>
	<circle class="st1" cx="647.4" cy="382.5" r="5"/>
	<path class="st1" d="M647.4,388.5c-3.3,0-6-2.7-6-6s2.7-6,6-6s6,2.7,6,6S650.7,388.5,647.4,388.5z M647.4,378.5c-2.2,0-4,1.8-4,4
		c0,2.2,1.8,4,4,4c2.2,0,4-1.8,4-4C651.4,380.3,649.6,378.5,647.4,378.5z"/>
</g>
<g>
	<g>
		<path class="st1" d="M458.8,226.1c-0.5,0-1,0-1.5,0l0.1-2c0.5,0,1,0,1.5,0h0.5v2H458.8C458.8,226.1,458.8,226.1,458.8,226.1z
			 M542.1,226.1h-0.9v-2h0.9c0.4,0,0.7,0,1.1,0l0.1,2C542.9,226.1,542.5,226.1,542.1,226.1z M539.3,226.1h-2v-2h2V226.1z
			 M535.3,226.1h-2v-2h2V226.1z M531.3,226.1h-2v-2h2V226.1z M527.3,226.1h-2v-2h2V226.1z M523.3,226.1h-2v-2h2V226.1z M519.3,226.1
			h-2v-2h2V226.1z M515.3,226.1h-2v-2h2V226.1z M511.3,226.1h-2v-2h2V226.1z M507.3,226.1h-2v-2h2V226.1z M503.3,226.1h-2v-2h2
			V226.1z M499.3,226.1h-2v-2h2V226.1z M495.3,226.1h-2v-2h2V226.1z M491.3,226.1h-2v-2h2V226.1z M487.3,226.1h-2v-2h2V226.1z
			 M483.3,226.1h-2v-2h2V226.1z M479.3,226.1h-2v-2h2V226.1z M475.3,226.1h-2v-2h2V226.1z M471.3,226.1h-2v-2h2V226.1z M467.3,226.1
			h-2v-2h2V226.1z M463.3,226.1h-2v-2h2V226.1z M545.4,225.9l-0.2-2c0.6-0.1,1.3-0.2,1.9-0.3l0.4,2
			C546.8,225.7,546.1,225.8,545.4,225.9z M455.2,225.8c-0.7-0.1-1.4-0.2-2-0.4l0.4-2c0.6,0.1,1.3,0.2,1.9,0.3L455.2,225.8z
			 M549.5,225.1l-0.5-1.9c0.6-0.2,1.2-0.4,1.8-0.6l0.7,1.9C550.8,224.7,550.1,224.9,549.5,225.1z M451.1,225c-0.7-0.2-1.3-0.4-2-0.7
			l0.7-1.9c0.6,0.2,1.2,0.4,1.8,0.6L451.1,225z M553.4,223.7l-0.8-1.8c0.6-0.3,1.2-0.6,1.7-0.9l1,1.8
			C554.6,223.1,554,223.4,553.4,223.7z M447.2,223.5c-0.6-0.3-1.2-0.6-1.8-1l1-1.7c0.6,0.3,1.1,0.6,1.7,0.9L447.2,223.5z M557,221.7
			l-1.1-1.7c0.5-0.3,1.1-0.7,1.6-1.1l1.2,1.6C558.2,220.9,557.6,221.3,557,221.7z M443.6,221.5c-0.6-0.4-1.1-0.8-1.7-1.2l1.2-1.6
			c0.5,0.4,1,0.8,1.6,1.1L443.6,221.5z M560.3,219.2l-1.3-1.5c0.5-0.4,0.9-0.9,1.4-1.3l1.4,1.4C561.3,218.2,560.8,218.7,560.3,219.2
			z M440.4,218.9c-0.5-0.5-1-1-1.5-1.5l1.5-1.4c0.4,0.5,0.9,0.9,1.4,1.4L440.4,218.9z M563.2,216.2l-1.5-1.3c0.4-0.5,0.8-1,1.2-1.5
			l1.6,1.2C564.1,215.1,563.6,215.7,563.2,216.2z M437.5,215.9c-0.4-0.5-0.8-1.1-1.2-1.7l1.6-1.1c0.4,0.5,0.8,1.1,1.2,1.5
			L437.5,215.9z M565.6,212.8l-1.7-1c0.3-0.5,0.6-1.1,0.9-1.7l1.8,0.9C566.3,211.6,565.9,212.2,565.6,212.8z M435.2,212.5
			c-0.3-0.6-0.7-1.2-1-1.8l1.8-0.9c0.3,0.6,0.6,1.1,0.9,1.7L435.2,212.5z M567.5,209.1l-1.8-0.8c0.2-0.6,0.5-1.2,0.7-1.8l1.9,0.6
			C568,207.8,567.7,208.5,567.5,209.1z M433.4,208.7c-0.3-0.6-0.5-1.3-0.7-2l1.9-0.6c0.2,0.6,0.4,1.2,0.6,1.8L433.4,208.7z
			 M568.7,205.2l-1.9-0.5c0.1-0.6,0.3-1.3,0.4-1.9l2,0.3C569,203.8,568.9,204.5,568.7,205.2z M432.1,204.8c-0.2-0.7-0.3-1.4-0.4-2
			l2-0.3c0.1,0.6,0.2,1.3,0.4,1.9L432.1,204.8z M569.4,201.1l-2-0.2c0.1-0.6,0.1-1.3,0.1-1.9l2,0
			C569.5,199.7,569.4,200.4,569.4,201.1z M431.5,200.7c0-0.6-0.1-1.3-0.1-1.9v-0.1h2v0.1c0,0.6,0,1.2,0.1,1.8L431.5,200.7z
			 M569.5,197h-2v-2h2V197z M433.5,196.6h-2v-2h2V196.6z M354.8,194.4l-2-0.1l0.1-2l2,0.1L354.8,194.4z M597.5,194.2h-2v-1.6h2
			V194.2z M569.5,193h-2v-2h2V193z M433.5,192.6h-2v-2h2V192.6z M597.5,190.6h-2v-2h2V190.6z M355.1,190.4l-2-0.1l0.1-2l2,0.1
			L355.1,190.4z M569.5,189h-2v-2h2V189z M433.5,188.6h-2v-2h2V188.6z M597.5,186.6h-2v-2h2V186.6z M355.3,186.4l-2-0.1l0.1-2l2,0.1
			L355.3,186.4z M569.5,185h-2v-2h2V185z M431.5,184.6c0-0.7,0-1.3-0.1-1.9l2-0.1c0,0.6,0.1,1.3,0.1,2L431.5,184.6z M597.5,182.6h-2
			v-2h2V182.6z M355.6,182.5l-2-0.2c0.1-0.7,0.1-1.4,0.2-2.1l2,0.3C355.8,181.2,355.7,181.8,355.6,182.5z M569.5,181h-2v-2h2V181z
			 M431.2,180.8c-0.1-0.6-0.2-1.3-0.4-1.9l2-0.4c0.2,0.7,0.3,1.4,0.4,2L431.2,180.8z M356.2,178.7l-1.9-0.5c0.2-0.7,0.3-1.3,0.6-2
			l1.9,0.6C356.5,177.4,356.4,178,356.2,178.7z M597.5,178.6h-2v-2h2V178.6z M430.4,177c-0.2-0.6-0.4-1.2-0.6-1.8l1.9-0.7
			c0.3,0.6,0.5,1.3,0.7,2L430.4,177z M569.5,177h-2v-2h2V177z M357.4,175l-1.9-0.8c0.3-0.6,0.5-1.3,0.9-1.9l1.8,0.9
			C357.9,173.8,357.6,174.4,357.4,175z M597.5,174.6h-2v-2h2V174.6z M428.9,173.4c-0.3-0.6-0.6-1.1-0.9-1.7l1.7-1
			c0.3,0.6,0.7,1.2,1,1.8L428.9,173.4z M569.5,173h-2v-2h2V173z M359.1,171.6l-1.7-1c0.4-0.6,0.7-1.2,1.1-1.7l1.6,1.2
			C359.8,170.5,359.4,171,359.1,171.6z M597.5,170.6h-2v-2h2V170.6z M427,170.1c-0.4-0.5-0.8-1-1.2-1.5l1.6-1.3
			c0.4,0.5,0.9,1.1,1.2,1.7L427,170.1z M569.5,169h-2v-2h2V169z M361.3,168.4l-1.5-1.3c0.4-0.5,0.9-1.1,1.4-1.6l1.4,1.4
			C362.1,167.4,361.7,167.9,361.3,168.4z M424.6,167.1c-0.4-0.5-0.9-0.9-1.4-1.3l1.3-1.5c0.5,0.5,1,1,1.5,1.5L424.6,167.1z
			 M597.5,166.6h-2v-2h2V166.6z M364,165.6l-1.3-1.5c0.5-0.5,1.1-0.9,1.6-1.3l1.2,1.6C364.9,164.8,364.5,165.2,364,165.6z
			 M569.5,165h-2v-2h2V165z M421.8,164.5c-0.5-0.4-1-0.8-1.6-1.1l1.1-1.7c0.6,0.4,1.1,0.8,1.7,1.2L421.8,164.5z M367,163.3l-1.1-1.7
			c0.6-0.4,1.2-0.7,1.8-1.1l1,1.8C368.1,162.6,367.6,162.9,367,163.3z M597.5,162.6h-2v-2h2V162.6z M418.6,162.4
			c-0.6-0.3-1.1-0.6-1.7-0.9l0.8-1.8c0.6,0.3,1.2,0.6,1.8,0.9L418.6,162.4z M370.4,161.4l-0.8-1.8c0.6-0.3,1.3-0.6,1.9-0.8l0.7,1.9
			C371.6,160.9,371,161.2,370.4,161.4z M569.5,161h-2v-2h2V161z M415.1,160.8c-0.6-0.2-1.2-0.4-1.8-0.6l0.6-1.9
			c0.7,0.2,1.3,0.4,2,0.7L415.1,160.8z M374,160.1l-0.5-1.9c0.7-0.2,1.3-0.4,2-0.5l0.4,2C375.2,159.8,374.6,159.9,374,160.1z
			 M411.4,159.7c-0.6-0.1-1.3-0.2-1.9-0.3l0.3-2c0.7,0.1,1.4,0.2,2,0.3L411.4,159.7z M377.8,159.4l-0.2-2c0.7-0.1,1.4-0.1,2.1-0.2
			l0.1,2C379,159.2,378.4,159.3,377.8,159.4z M407.6,159.2c-0.5,0-0.9,0-1.4,0h-0.5v-2h0.5c0.5,0,1,0,1.5,0L407.6,159.2z
			 M403.6,159.2h-2v-2h2V159.2z M399.6,159.2h-2v-2h2V159.2z M395.6,159.2h-2v-2h2V159.2z M391.6,159.2h-2v-2h2V159.2z M387.6,159.2
			h-2v-2h2V159.2z M383.6,159.2h-2v-2h2V159.2z M597.5,158.6h-2v-2h2V158.6z M569.5,157h-2v-2h2V157z M597.5,154.6h-2v-2h2V154.6z
			 M569.5,153h-2v-1.2c0-0.3,0-0.6,0-0.9l2,0.1c0,0.3,0,0.5,0,0.8V153z M595.4,150.7c-0.1-0.6-0.2-1.2-0.3-1.8l1.9-0.5
			c0.2,0.7,0.3,1.4,0.4,2.1L595.4,150.7z M569.8,149.2l-1.9-0.5c0.2-0.7,0.4-1.4,0.7-2.1l1.8,0.8
			C570.1,148.1,569.9,148.6,569.8,149.2z M594.5,147.2c-0.3-0.6-0.6-1.1-0.9-1.6l1.7-1.1c0.4,0.6,0.8,1.2,1,1.9L594.5,147.2z
			 M571.2,145.9l-1.7-1.1c0.4-0.6,0.8-1.2,1.3-1.7l1.5,1.3C571.9,144.8,571.5,145.3,571.2,145.9z M592.4,144.1
			c-0.4-0.4-0.9-0.9-1.4-1.2l1.2-1.6c0.6,0.4,1.1,0.9,1.6,1.5L592.4,144.1z M573.6,143.1l-1.3-1.5c0.6-0.5,1.1-0.9,1.8-1.2l1,1.7
			C574.6,142.4,574.1,142.7,573.6,143.1z M589.6,141.9c-0.5-0.3-1.1-0.5-1.7-0.7l0.7-1.9c0.7,0.2,1.3,0.5,2,0.9L589.6,141.9z
			 M576.7,141.3l-0.7-1.9c0.7-0.3,1.4-0.5,2.1-0.6l0.4,2C577.9,140.9,577.3,141,576.7,141.3z M586.1,140.7c-0.6-0.1-1.2-0.2-1.8-0.2
			l0-2c0.7,0,1.4,0.1,2.1,0.2L586.1,140.7z M580.3,140.5l-0.1-2c0.2,0,0.4,0,0.6,0h1.5v2h-1.5C580.7,140.5,580.5,140.5,580.3,140.5z
			"/>
	</g>
	<g>
		<path class="st1" d="M80.1,327.5h-2v-2h2V327.5z M80.1,323.5h-2v-2h2V323.5z M80.1,319.5h-2v-2h2V319.5z M80.1,315.5h-2v-2h2
			V315.5z M80.1,311.5h-2v-2h2V311.5z M80.1,307.5h-2v-2h2V307.5z M80.1,303.5h-2v-2h2V303.5z M80.1,299.5h-2v-2h2V299.5z
			 M80.1,295.5h-2v-2h2V295.5z M80.1,291.5h-2v-2h2V291.5z M80.1,287.5h-2v-2h2V287.5z M80.1,283.5h-2v-2h2V283.5z M80.1,279.5h-2
			v-2h2V279.5z M80.1,275.5h-2v-2h2V275.5z M80.1,271.5h-2v-2h2V271.5z M80.1,267.5h-2v-2h2V267.5z M80.1,263.5h-2v-2h2V263.5z
			 M80.1,259.5h-2v-2h2V259.5z M80.1,255.5h-2v-2h2V255.5z M80.1,251.4h-2v-2h2V251.4z M80.2,247.5l-2,0c0-0.7,0-1.4,0.1-2.1l2,0.2
			C80.2,246.2,80.2,246.8,80.2,247.5z M80.5,243.6l-2-0.3c0.1-0.7,0.3-1.4,0.4-2l1.9,0.5C80.7,242.4,80.6,243,80.5,243.6z
			 M81.4,239.9l-1.9-0.6c0.2-0.6,0.5-1.3,0.7-1.9l1.8,0.8C81.8,238.7,81.6,239.3,81.4,239.9z M82.9,236.4l-1.8-0.9
			c0.3-0.6,0.7-1.2,1-1.8l1.7,1C83.5,235.2,83.2,235.8,82.9,236.4z M84.9,233.1l-1.6-1.2c0.4-0.6,0.8-1.1,1.3-1.6l1.5,1.3
			C85.7,232,85.3,232.5,84.9,233.1z M87.4,230.1l-1.4-1.4c0.5-0.5,1-1,1.5-1.4l1.3,1.5C88.3,229.2,87.8,229.7,87.4,230.1z
			 M90.3,227.6l-1.2-1.6c0.6-0.4,1.1-0.8,1.7-1.2l1.1,1.7C91.3,226.8,90.8,227.2,90.3,227.6z M93.5,225.5l-0.9-1.8
			c0.6-0.3,1.2-0.6,1.9-0.9l0.8,1.8C94.6,224.9,94,225.2,93.5,225.5z M97,224l-0.7-1.9c0.7-0.2,1.3-0.4,2-0.6l0.5,1.9
			C98.2,223.6,97.6,223.7,97,224z M100.7,223l-0.4-2c0.7-0.1,1.4-0.2,2.1-0.3l0.2,2C102,222.7,101.3,222.8,100.7,223z M104.5,222.5
			l-0.1-2c0.3,0,0.7,0,1,0h1v2h-1C105.2,222.5,104.8,222.5,104.5,222.5z M164.8,222.5h-0.3v-2h0.3c0.5,0,1.1,0,1.6,0l0.1,2
			C166,222.5,165.4,222.5,164.8,222.5z M162.5,222.5h-2v-2h2V222.5z M158.5,222.5h-2v-2h2V222.5z M154.5,222.5h-2v-2h2V222.5z
			 M150.5,222.5h-2v-2h2V222.5z M146.5,222.5h-2v-2h2V222.5z M142.5,222.5h-2v-2h2V222.5z M138.5,222.5h-2v-2h2V222.5z M134.5,222.5
			h-2v-2h2V222.5z M130.5,222.5h-2v-2h2V222.5z M126.5,222.5h-2v-2h2V222.5z M122.5,222.5h-2v-2h2V222.5z M118.5,222.5h-2v-2h2
			V222.5z M114.5,222.5h-2v-2h2V222.5z M110.5,222.5h-2v-2h2V222.5z M168.6,222.2l-0.3-2c0.6-0.1,1.3-0.2,1.9-0.3l0.4,2
			C170,222,169.3,222.1,168.6,222.2z M172.7,221.4l-0.6-1.9c0.6-0.2,1.2-0.4,1.8-0.6l0.7,1.9C174,220.9,173.3,221.2,172.7,221.4z
			 M176.5,219.9l-0.9-1.8c0.6-0.3,1.1-0.6,1.7-0.9l1,1.7C177.8,219.3,177.2,219.6,176.5,219.9z M180.1,217.8l-1.1-1.7
			c0.5-0.4,1-0.7,1.6-1.1l1.2,1.6C181.3,217,180.7,217.4,180.1,217.8z M183.4,215.2l-1.4-1.5c0.5-0.4,0.9-0.9,1.4-1.4l1.5,1.4
			C184.4,214.3,183.9,214.8,183.4,215.2z M186.2,212.2l-1.6-1.2c0.4-0.5,0.8-1,1.1-1.5l1.7,1.1C187.1,211.1,186.6,211.6,186.2,212.2
			z M188.5,208.8l-1.7-1c0.3-0.6,0.6-1.1,0.9-1.7l1.8,0.9C189.2,207.5,188.9,208.2,188.5,208.8z M190.3,205l-1.9-0.7
			c0.2-0.6,0.4-1.2,0.6-1.8l1.9,0.6C190.8,203.7,190.6,204.4,190.3,205z M191.5,201l-2-0.4c0.1-0.6,0.3-1.3,0.3-1.9l2,0.3
			C191.8,199.7,191.7,200.4,191.5,201z M192.1,196.9l-2-0.1c0-0.5,0.1-1.1,0.1-1.6v-0.3h2v0.3C192.1,195.8,192.1,196.4,192.1,196.9z
			 M192.1,192.9h-2v-0.4c0-0.6,0-1.1,0.1-1.7l2,0.1c0,0.5,0,1,0,1.6V192.9z M192.4,189l-2-0.3c0.1-0.7,0.2-1.4,0.4-2l2,0.4
			C192.6,187.8,192.5,188.4,192.4,189z M193.2,185.3l-1.9-0.6c0.2-0.7,0.4-1.3,0.7-2l1.9,0.7C193.6,184.1,193.4,184.7,193.2,185.3z
			 M194.6,181.7l-1.8-0.9c0.3-0.6,0.6-1.2,1-1.8l1.7,1C195.1,180.5,194.8,181.1,194.6,181.7z M196.5,178.3l-1.7-1.1
			c0.4-0.6,0.8-1.1,1.2-1.7l1.6,1.2C197.2,177.3,196.8,177.8,196.5,178.3z M267.3,178.1l-0.1-0.1l1.6-1.1l0.1,0.1L267.3,178.1z
			 M266.1,176.4c-0.4-0.5-0.8-1-1.3-1.4l1.4-1.4c0.5,0.5,0.9,1,1.4,1.6L266.1,176.4z M198.9,175.3l-1.5-1.4c0.5-0.5,1-1,1.5-1.5
			l1.4,1.5C199.8,174.4,199.3,174.9,198.9,175.3z M263.4,173.6c-0.5-0.4-1-0.8-1.5-1.2l1.2-1.6c0.5,0.4,1.1,0.9,1.6,1.3L263.4,173.6
			z M201.7,172.7l-1.3-1.6c0.5-0.4,1.1-0.8,1.7-1.2l1.1,1.7C202.7,171.9,202.2,172.3,201.7,172.7z M260.3,171.3
			c-0.5-0.4-1.1-0.7-1.6-1l1-1.8c0.6,0.3,1.2,0.7,1.8,1.1L260.3,171.3z M204.8,170.5l-1-1.7c0.6-0.3,1.2-0.7,1.8-1l0.9,1.8
			C206,169.9,205.4,170.2,204.8,170.5z M257,169.4c-0.6-0.3-1.2-0.5-1.8-0.7l0.7-1.9c0.6,0.2,1.3,0.5,1.9,0.8L257,169.4z
			 M208.3,168.9l-0.7-1.9c0.6-0.3,1.3-0.5,2-0.7l0.6,1.9C209.5,168.4,208.9,168.7,208.3,168.9z M253.4,168.1
			c-0.6-0.2-1.2-0.3-1.9-0.5l0.4-2c0.7,0.1,1.4,0.3,2,0.5L253.4,168.1z M212,167.8l-0.4-2c0.7-0.1,1.4-0.3,2-0.4l0.3,2
			C213.2,167.5,212.6,167.6,212,167.8z M249.6,167.4c-0.6-0.1-1.3-0.1-1.9-0.2l0.1-2c0.7,0,1.4,0.1,2.1,0.2L249.6,167.4z
			 M215.8,167.2l-0.1-2c0.6,0,1.2,0,1.8-0.1h0.2v2h-0.2C216.9,167.2,216.4,167.2,215.8,167.2z M245.7,167.2h-2v-2h2V167.2z
			 M241.7,167.2h-2v-2h2V167.2z M237.7,167.2h-2v-2h2V167.2z M233.7,167.2h-2v-2h2V167.2z M229.7,167.2h-2v-2h2V167.2z M225.7,167.2
			h-2v-2h2V167.2z M221.7,167.2h-2v-2h2V167.2z"/>
	</g>
	<g>
		<g>
			<g>
				<rect x="100.3" y="180.1" class="st2" width="76.5" height="103.6"/>
				<g>
					<path class="st1" d="M177.8,284.6H99.3V179.1h78.5V284.6z M101.3,282.6h74.5V181.1h-74.5V282.6z"/>
				</g>
			</g>
			<g>
				<path class="st1" d="M112.3,193.1c0,1.6-1.3,2.8-2.8,2.8c-1.6,0-2.8-1.3-2.8-2.8c0-1.6,1.3-2.8,2.8-2.8
					C111,190.3,112.3,191.6,112.3,193.1z"/>
			</g>
			<g>
				<rect x="118.4" y="192.2" class="st1" width="15.9" height="2"/>
			</g>
			<g>
				<rect x="137.2" y="192.2" class="st1" width="22.9" height="2"/>
			</g>
		</g>
		<g>
			<g>
				<rect x="116.2" y="202.2" class="st2" width="44.1" height="18.8"/>
				<g>
					<path class="st1" d="M161.3,222h-46.1v-20.8h46.1V222z M117.2,220h42.1v-16.8h-42.1V220z"/>
				</g>
			</g>
			<g>
				<rect x="116.2" y="202.2" class="st6" width="7.3" height="7.3"/>
				<path class="st1" d="M124.5,210.5h-9.3v-9.3h9.3V210.5z M117.2,208.5h5.3v-5.3h-5.3V208.5z"/>
			</g>
			<g>
				<rect x="128.6" y="206.5" class="st1" width="22.9" height="2"/>
			</g>
			<g>
				<rect x="128.6" y="210" class="st1" width="22.9" height="2"/>
			</g>
			<g>
				<rect x="128.6" y="213.5" class="st1" width="22.9" height="2"/>
			</g>
		</g>
		<g>
			<g>
				<rect x="116.2" y="228.6" class="st2" width="44.1" height="18.8"/>
				<g>
					<path class="st1" d="M161.3,248.4h-46.1v-20.8h46.1V248.4z M117.2,246.4h42.1v-16.8h-42.1V246.4z"/>
				</g>
			</g>
			<g>
				<rect x="116.2" y="228.6" class="st6" width="7.3" height="7.3"/>
				<path class="st1" d="M124.5,236.8h-9.3v-9.3h9.3V236.8z M117.2,234.8h5.3v-5.3h-5.3V234.8z"/>
			</g>
			<g>
				<rect x="128.6" y="232.8" class="st1" width="22.9" height="2"/>
			</g>
			<g>
				<rect x="128.6" y="236.4" class="st1" width="22.9" height="2"/>
			</g>
			<g>
				<rect x="128.6" y="239.9" class="st1" width="22.9" height="2"/>
			</g>
		</g>
		<g>
			<g>
				<rect x="116.2" y="254.9" class="st2" width="44.1" height="18.8"/>
				<g>
					<path class="st1" d="M161.3,274.8h-46.1v-20.8h46.1V274.8z M117.2,272.8h42.1v-16.8h-42.1V272.8z"/>
				</g>
			</g>
			<g>
				<rect x="116.2" y="254.9" class="st6" width="7.3" height="7.3"/>
				<path class="st1" d="M124.5,263.2h-9.3v-9.3h9.3V263.2z M117.2,261.2h5.3v-5.3h-5.3V261.2z"/>
			</g>
			<g>
				<rect x="128.6" y="259.2" class="st1" width="22.9" height="2"/>
			</g>
			<g>
				<rect x="128.6" y="262.7" class="st1" width="22.9" height="2"/>
			</g>
			<g>
				<rect x="128.6" y="266.3" class="st1" width="22.9" height="2"/>
			</g>
		</g>
	</g>
	<g>
		<g>
			<g>
				<g>
					<g>
						<g>
							<rect x="496" y="277.7" class="st2" width="122.1" height="84.2"/>
							<path class="st1" d="M619.1,362.9H495v-86.2h124.1V362.9z M497,360.9h120.1v-82.2H497V360.9z"/>
						</g>
						<g>
							<rect x="496" y="277.7" class="st2" width="122.1" height="84.2"/>
							<path class="st1" d="M619.1,362.9H495v-86.2h124.1V362.9z M497,360.9h120.1v-82.2H497V360.9z"/>
						</g>
					</g>
					<g>
						<rect x="501.4" y="283.1" class="st2" width="111.3" height="73.4"/>
						<path class="st1" d="M612.7,357.5H501.4c-0.6,0-1-0.4-1-1v-73.4c0-0.6,0.4-1,1-1h111.3c0.6,0,1,0.4,1,1v73.4
							C613.7,357.1,613.3,357.5,612.7,357.5z M502.4,355.5h109.3v-71.4H502.4V355.5z"/>
					</g>
					<g>
						<rect x="501.4" y="290" class="st1" width="111.3" height="2"/>
					</g>
					<g>
						<path class="st1" d="M534.9,288.1h-4v-2h4V288.1z M529.9,288.1h-4v-2h4V288.1z M524.9,288.1h-4v-2h4V288.1z M519.9,288.1h-4
							v-2h4V288.1z M514.9,288.1h-4v-2h4V288.1z M509.9,288.1h-4v-2h4V288.1z"/>
					</g>
					<g>
						<path class="st1" d="M607.4,288.1h-4v-2h4V288.1z M602.4,288.1h-4v-2h4V288.1z M597.4,288.1h-4v-2h4V288.1z M592.4,288.1h-4
							v-2h4V288.1z M587.4,288.1h-4v-2h4V288.1z M582.4,288.1h-4v-2h4V288.1z"/>
					</g>
					<g>
						<polygon class="st2" points="573.3,377.3 542.8,377.3 547.7,361.8 568.4,361.8 						"/>
						<path class="st1" d="M574.6,378.3h-33.2l5.5-17.5h22.2L574.6,378.3z M544.2,376.3h27.7l-4.3-13.5h-19.2L544.2,376.3z"/>
					</g>
					<g>
						<rect x="537.4" y="377.3" class="st2" width="41.2" height="5.2"/>
						<path class="st1" d="M579.7,383.5h-43.2v-7.2h43.2V383.5z M538.4,381.5h39.2v-3.2h-39.2V381.5z"/>
					</g>
				</g>
			</g>
			<g>
				<rect x="525.5" y="304.5" class="st6" width="28.1" height="8.1"/>
				<rect x="558.9" y="304.5" class="st6" width="28.1" height="8.1"/>
				<g>
					<rect x="525.9" y="316.1" class="st1" width="27.7" height="2"/>
				</g>
				<g>
					<rect x="525.9" y="320.7" class="st1" width="27.7" height="2"/>
				</g>
				<g>
					<rect x="525.9" y="325.2" class="st1" width="27.7" height="2"/>
				</g>
				<g>
					<rect x="525.9" y="329.8" class="st1" width="27.7" height="2"/>
				</g>
				<g>
					<rect x="525.9" y="334.4" class="st1" width="27.7" height="2"/>
				</g>
				<g>
					<rect x="525.9" y="339" class="st1" width="27.7" height="2"/>
				</g>
				<g>
					<rect x="559.1" y="316.1" class="st1" width="27.7" height="2"/>
				</g>
				<g>
					<rect x="559.1" y="320.7" class="st1" width="27.7" height="2"/>
				</g>
				<g>
					<rect x="559.1" y="325.2" class="st1" width="27.7" height="2"/>
				</g>
				<g>
					<rect x="559.1" y="329.8" class="st1" width="27.7" height="2"/>
				</g>
				<g>
					<rect x="559.1" y="334.4" class="st1" width="27.7" height="2"/>
				</g>
				<g>
					<rect x="559.1" y="339" class="st1" width="27.7" height="2"/>
				</g>
			</g>
		</g>
		<g>
			<g>
				<g>
					<rect x="531.6" y="369.2" class="st6" width="60.8" height="13.3"/>
					<g>
						<path class="st1" d="M593.4,383.5h-62.8v-15.3h62.8V383.5z M532.6,381.5h58.8v-11.3h-58.8V381.5z"/>
					</g>
				</g>
				<g>
					<polygon class="st6" points="531.6,369.2 531.6,375.8 531.6,382.5 521.3,382.5 511.1,375.8 521.3,369.2 					"/>
					<g>
						<path class="st1" d="M532.6,383.5H521l-11.8-7.7l11.8-7.7h11.5V383.5z M521.6,381.5h8.9v-11.3h-8.9l-8.7,5.7L521.6,381.5z"/>
					</g>
				</g>
				<g>
					<rect x="521.8" y="377.1" class="st1" width="70.6" height="2"/>
				</g>
				<g>
					<rect x="521.8" y="372.6" class="st1" width="70.6" height="2"/>
				</g>
				<g>
					<rect x="520.8" y="369.2" class="st1" width="2" height="13.3"/>
				</g>
				<g>
					<polygon class="st2" points="516.5,372.3 511.1,375.8 516.5,379.3 					"/>
					<path class="st1" d="M517.5,381.2l-8.2-5.3l8.2-5.3V381.2z M512.9,375.8l2.5,1.6v-3.3L512.9,375.8z"/>
				</g>
				<g>
					<rect x="533.2" y="369.2" class="st1" width="2" height="13.3"/>
				</g>
				<g>
					<rect x="535.9" y="369.2" class="st1" width="2" height="13.3"/>
				</g>
			</g>
			<g>
				<path class="st2" d="M605.7,377.6c0,2.7-2.2,4.9-4.9,4.9h-8.4v-13.3h8.4c2.7,0,4.9,2.2,4.9,4.9V377.6z"/>
				<g>
					<path class="st1" d="M600.8,383.5h-9.4v-15.3h9.4c3.3,0,5.9,2.7,5.9,5.9v3.5C606.7,380.8,604.1,383.5,600.8,383.5z
						 M593.4,381.5h7.4c2.2,0,3.9-1.8,3.9-3.9v-3.5c0-2.2-1.8-3.9-3.9-3.9h-7.4V381.5z"/>
				</g>
			</g>
		</g>
		<g>
			<g>
				<g>
					<rect x="487.3" y="311.1" class="st2" width="14.6" height="71.4"/>
					<path class="st1" d="M502.9,383.5h-16.6v-73.4h16.6V383.5z M488.3,381.5h12.6v-69.4h-12.6V381.5z"/>
				</g>
				<g>
					<path class="st1" d="M501.9,364.5h-14.6c-0.6,0-1-0.4-1-1s0.4-1,1-1h14.6c0.6,0,1,0.4,1,1S502.4,364.5,501.9,364.5z"/>
				</g>
				<circle class="st1" cx="494.6" cy="372.1" r="2.8"/>
				<rect x="491.8" y="323" class="st6" width="5.6" height="35.9"/>
				<g>
					<path class="st1" d="M501.9,319.8h-14.6c-0.6,0-1-0.4-1-1c0-0.6,0.4-1,1-1h14.6c0.6,0,1,0.4,1,1
						C502.9,319.3,502.4,319.8,501.9,319.8z"/>
				</g>
			</g>
			<g>
				<g>
					<rect x="508.3" y="311.1" class="st2" width="14.6" height="71.4"/>
					<path class="st1" d="M523.9,383.5h-16.6v-73.4h16.6V383.5z M509.3,381.5h12.6v-69.4h-12.6V381.5z"/>
				</g>
				<g>
					<path class="st1" d="M522.9,364.5h-14.6c-0.6,0-1-0.4-1-1s0.4-1,1-1h14.6c0.6,0,1,0.4,1,1S523.4,364.5,522.9,364.5z"/>
				</g>
				<path class="st1" d="M512.8,372.1c0-1.5,1.3-2.8,2.8-2.8s2.8,1.3,2.8,2.8c0,1.6-1.3,2.8-2.8,2.8S512.8,373.7,512.8,372.1z"/>
				<rect x="512.8" y="323" class="st6" width="5.6" height="35.9"/>
				<g>
					<path class="st1" d="M522.9,319.8h-14.6c-0.6,0-1-0.4-1-1c0-0.6,0.4-1,1-1h14.6c0.6,0,1,0.4,1,1
						C523.9,319.3,523.4,319.8,522.9,319.8z"/>
				</g>
			</g>
			<g>
				<g>
					<rect x="529.3" y="311.1" class="st2" width="14.6" height="71.4"/>
					<path class="st1" d="M544.9,383.5h-16.6v-73.4h16.6V383.5z M530.3,381.5h12.6v-69.4h-12.6V381.5z"/>
				</g>
				<g>
					<path class="st1" d="M543.9,364.5h-14.6c-0.6,0-1-0.4-1-1s0.4-1,1-1h14.6c0.6,0,1,0.4,1,1S544.4,364.5,543.9,364.5z"/>
				</g>
				<circle class="st1" cx="536.6" cy="372.1" r="2.8"/>
				<rect x="533.8" y="323" class="st6" width="5.6" height="35.9"/>
				<g>
					<path class="st1" d="M543.9,319.8h-14.6c-0.6,0-1-0.4-1-1c0-0.6,0.4-1,1-1h14.6c0.6,0,1,0.4,1,1
						C544.9,319.3,544.4,319.8,543.9,319.8z"/>
				</g>
			</g>
		</g>
	</g>
	<g>
		<g>
			<rect x="476.5" y="214.8" class="st2" width="85.3" height="18.7"/>
			<g>
				<path class="st1" d="M562.8,234.5h-87.3v-20.7h87.3V234.5z M477.5,232.5h83.3v-16.7h-83.3V232.5z"/>
			</g>
		</g>
		<g>
			<g>
				<rect x="502.5" y="225.5" class="st1" width="12.7" height="2"/>
			</g>
			<g>
				<g>
					<rect x="502.5" y="220.8" class="st1" width="12.7" height="2"/>
				</g>
				<g>
					<rect x="520.5" y="220.8" class="st1" width="26.7" height="2"/>
				</g>
				<g>
					<rect x="520.5" y="225.5" class="st1" width="26.7" height="2"/>
				</g>
			</g>
		</g>
		<g>
			<path class="st6" d="M490.4,228.3c-0.3,0-0.7-0.1-1-0.3l-8.1-6.7c-0.6-0.5-0.7-1.5-0.2-2.1c0.5-0.6,1.5-0.7,2.1-0.2l6.7,5.5
				l6.6-13.7c0.4-0.7,1.3-1.1,2-0.7c0.7,0.4,1.1,1.3,0.7,2l-7.4,15.4c-0.2,0.4-0.6,0.7-1,0.8C490.6,228.3,490.5,228.3,490.4,228.3z"
				/>
		</g>
	</g>
	<g>
		<g>
			<rect x="476.5" y="244.1" class="st2" width="85.3" height="18.7"/>
			<g>
				<path class="st1" d="M562.8,263.8h-87.3v-20.7h87.3V263.8z M477.5,261.8h83.3v-16.7h-83.3V261.8z"/>
			</g>
		</g>
		<g>
			<g>
				<rect x="502.5" y="254.8" class="st1" width="12.7" height="2"/>
			</g>
			<g>
				<g>
					<rect x="502.5" y="250.2" class="st1" width="12.7" height="2"/>
				</g>
				<g>
					<rect x="520.5" y="250.2" class="st1" width="26.7" height="2"/>
				</g>
				<g>
					<rect x="520.5" y="254.8" class="st1" width="26.7" height="2"/>
				</g>
			</g>
		</g>
		<g>
			<path class="st6" d="M490.4,257.7c-0.3,0-0.7-0.1-1-0.3l-8.1-6.7c-0.6-0.5-0.7-1.5-0.2-2.1c0.5-0.6,1.5-0.7,2.1-0.2l6.7,5.5
				l6.6-13.7c0.4-0.7,1.3-1.1,2-0.7c0.7,0.4,1.1,1.3,0.7,2l-7.4,15.4c-0.2,0.4-0.6,0.7-1,0.8C490.6,257.6,490.5,257.7,490.4,257.7z"
				/>
		</g>
	</g>
	<g>
		<path class="st1" d="M547.5,200.2c-2.2,0-4-1.8-4-4c0-2.2,1.8-4,4-4c2.2,0,4,1.8,4,4C551.5,198.4,549.7,200.2,547.5,200.2z
			 M547.5,194.2c-1.1,0-2,0.9-2,2c0,1.1,0.9,2,2,2s2-0.9,2-2C549.5,195.1,548.6,194.2,547.5,194.2z"/>
	</g>
	<g>
		<path class="st1" d="M308.5,210.5c-2.2,0-4-1.8-4-4c0-2.2,1.8-4,4-4c2.2,0,4,1.8,4,4C312.5,208.7,310.7,210.5,308.5,210.5z
			 M308.5,204.5c-1.1,0-2,0.9-2,2c0,1.1,0.9,2,2,2s2-0.9,2-2C310.5,205.4,309.6,204.5,308.5,204.5z"/>
	</g>
	<g>
		<path class="st1" d="M300.2,284.7c-2.2,0-4-1.8-4-4c0-2.2,1.8-4,4-4c2.2,0,4,1.8,4,4C304.2,282.9,302.4,284.7,300.2,284.7z
			 M300.2,278.7c-1.1,0-2,0.9-2,2c0,1.1,0.9,2,2,2s2-0.9,2-2C302.2,279.6,301.3,278.7,300.2,278.7z"/>
	</g>
	<g>
		<path class="st1" d="M92.4,293c-2.2,0-4-1.8-4-4c0-2.2,1.8-4,4-4c2.2,0,4,1.8,4,4C96.4,291.2,94.6,293,92.4,293z M92.4,287
			c-1.1,0-2,0.9-2,2c0,1.1,0.9,2,2,2c1.1,0,2-0.9,2-2C94.4,287.9,93.5,287,92.4,287z"/>
	</g>
	<g>
		<path class="st1" d="M548.2,156.1c-2.2,0-4-1.8-4-4c0-2.2,1.8-4,4-4s4,1.8,4,4C552.2,154.3,550.4,156.1,548.2,156.1z M548.2,150.1
			c-1.1,0-2,0.9-2,2c0,1.1,0.9,2,2,2s2-0.9,2-2C550.2,151,549.3,150.1,548.2,150.1z"/>
	</g>
	<g>
		<path class="st1" d="M339.4,182.6c-2.2,0-4-1.8-4-4c0-2.2,1.8-4,4-4c2.2,0,4,1.8,4,4C343.4,180.8,341.6,182.6,339.4,182.6z
			 M339.4,176.6c-1.1,0-2,0.9-2,2s0.9,2,2,2c1.1,0,2-0.9,2-2S340.5,176.6,339.4,176.6z"/>
	</g>
	<g>
		<path class="st1" d="M450.5,170.9l-5.4-5.4l5.4-5.4l5.4,5.4L450.5,170.9z M447.9,165.5l2.6,2.6l2.6-2.6l-2.6-2.6L447.9,165.5z"/>
	</g>
	<g>
		<path class="st1" d="M615.1,166.3l-5.4-5.4l5.4-5.4l5.4,5.4L615.1,166.3z M612.6,160.8l2.6,2.6l2.6-2.6l-2.6-2.6L612.6,160.8z"/>
	</g>
	<g>
		<rect x="91.1" y="193" class="st1" width="2.6" height="2.6"/>
		<rect x="91.1" y="188.3" class="st1" width="2.6" height="2.6"/>
		<rect x="91.1" y="183.5" class="st1" width="2.6" height="2.6"/>
	</g>
	<g>
		<g>
			<rect x="283.8" y="354" class="st3" width="2" height="9"/>
		</g>
		<g>
			<rect x="280.3" y="357.5" class="st3" width="9" height="2"/>
		</g>
	</g>
	<g>
		<g>
			<rect x="180.8" y="163.9" class="st1" width="2" height="9"/>
		</g>
		<g>
			<rect x="177.3" y="167.4" class="st1" width="9" height="2"/>
		</g>
	</g>
	<g>
		<g>
			<rect x="621.2" y="367.7" class="st1" width="2" height="9"/>
		</g>
		<g>
			<rect x="617.7" y="371.2" class="st1" width="9" height="2"/>
		</g>
	</g>
	<g>
		<g>
			<rect x="117.9" y="296.4" class="st1" width="2" height="9"/>
		</g>
		<g>
			<rect x="114.4" y="299.9" class="st1" width="9" height="2"/>
		</g>
	</g>
	<g>
		<polygon class="st1" points="301.2,270.8 299.2,270.8 299.2,215.8 242.2,215.8 242.2,252.8 240.2,252.8 240.2,213.8 301.2,213.8 
					"/>
	</g>
	<g>
		<g>
			<rect x="251.8" y="223.2" class="st1" width="7" height="2"/>
		</g>
		<g>
			<rect x="261.5" y="223.2" class="st1" width="30" height="2"/>
		</g>
	</g>
	<g>
		<g>
			<rect x="251.8" y="229.2" class="st1" width="7" height="2"/>
		</g>
		<g>
			<rect x="261.5" y="229.2" class="st1" width="30" height="2"/>
		</g>
	</g>
	<g>
		<g>
			<rect x="251.8" y="235.2" class="st1" width="7" height="2"/>
		</g>
		<g>
			<rect x="261.5" y="235.2" class="st1" width="30" height="2"/>
		</g>
	</g>
	<g>
		<g>
			<path class="st2" d="M286.4,214.1c0,7.3-6,13.3-13.3,13.3c-7.3,0-13.3-6-13.3-13.3c0-7.3,6-13.3,13.3-13.3
				C280.4,200.8,286.4,206.8,286.4,214.1z"/>
			<path class="st1" d="M273.1,228.4c-7.9,0-14.3-6.4-14.3-14.3c0-7.9,6.4-14.3,14.3-14.3c7.9,0,14.3,6.4,14.3,14.3
				C287.4,222,280.9,228.4,273.1,228.4z M273.1,201.8c-6.8,0-12.3,5.5-12.3,12.3c0,6.8,5.5,12.3,12.3,12.3c6.8,0,12.3-5.5,12.3-12.3
				C285.4,207.4,279.8,201.8,273.1,201.8z"/>
		</g>
		<g>
			<path class="st1" d="M269.6,212.4v2.1h2v1.1h-2v2.1h-1.1v-2.1h-2.1v-1.1h2.1v-2.1H269.6z"/>
			<path class="st1" d="M272.3,217.8L272.3,217.8c0-1.5,0.6-2.4,2.4-3.8c0.9-0.7,1.1-0.9,1.1-1.6c0-0.6-0.3-1-0.9-1
				c-0.7,0-1,0.5-1.1,1.2h-1.4c0.1-1.2,0.7-2.4,2.5-2.4c1.6,0,2.5,0.9,2.5,2.1c0,1-0.4,1.6-1.7,2.5c-0.9,0.6-1.3,1.2-1.5,1.6h3.4
				l-0.2,1.2H272.3z"/>
		</g>
	</g>
	<g>
		<g>
			<g>
				<path class="st2" d="M171,319.8v1.4c0,6.6,4.2,12,10.9,12.1v0h-58.4v0c-6.6-0.1-12-5.5-12-12.1v-1.4H171z"/>
				<g>
					<path class="st1" d="M181.9,334.3h-58.4c0,0-0.1,0-0.1,0c-7.1-0.1-12.9-6-12.9-13.1v-1.4c0-0.6,0.4-1,1-1H171c0.6,0,1,0.4,1,1
						v1.4c0,6.5,4.1,11,9.9,11.1c0.5,0,1,0.5,1,1C182.9,333.9,182.4,334.3,181.9,334.3z M123.5,332.3h51.9
						c-3.3-2.3-5.4-6.3-5.4-11.1v-0.4h-57.5v0.4C112.5,327.3,117.4,332.3,123.5,332.3C123.5,332.3,123.5,332.3,123.5,332.3z"/>
				</g>
			</g>
			<g>
				<path class="st6" d="M169.2,332.9V250c0-6.6-14.9-12-21.6-12.1v0l58.6,0v0c6.6,0.1,10.8,5.5,10.8,12.1v82.9H169.2z"/>
				<g>
					<path class="st1" d="M218.1,333.9h-49.9V250c0-5.7-14-11-20.6-11.1l-1,0v-2l1,0l59.6,0v0.1c6.3,0.6,10.8,5.9,10.8,13V333.9z
						 M170.2,331.9h45.9V250c0-6.5-4-11-9.8-11.1l-0.3,0l-48.7,0c6.4,2.2,13,6.1,13,11.1V331.9z"/>
				</g>
			</g>
			<g>
				<path class="st2" d="M136.6,318.1V250c0-6.6,5.3-12,12-12.1v0H206v0c-6.6,0.1-9.9,5.5-9.9,12.1v68.1c0,8.4-6.8,15.3-15.3,15.3
					c-17.8,0-55.5,0-55.5,0v-0.5C131.9,331,136.6,325.1,136.6,318.1z"/>
				<g>
					<path class="st1" d="M125.4,334.3c-0.3,0-0.5-0.1-0.7-0.3s-0.3-0.4-0.3-0.7v-0.5c0-0.5,0.3-0.8,0.7-1
						c6.2-1.7,10.5-7.3,10.5-13.8V250c0-7.1,5.8-13,12.9-13.1c0,0,0.1,0,0.1,0H206c0.6,0,1,0.4,1,1c0,0.5-0.4,1-1,1
						c-6.5,0.1-8.9,5.8-8.9,11.1v68.1c0,9-7.3,16.3-16.3,16.3L125.4,334.3z M148.7,238.9C148.7,238.9,148.6,238.9,148.7,238.9
						c-6.1,0.1-11,5.1-11,11.1v68.1c0,6-3.3,11.5-8.5,14.3l51.7,0c7.9,0,14.3-6.4,14.3-14.3V250c0-5,1.7-8.9,4.7-11.1H148.7z"/>
				</g>
			</g>
			<g>
				<g>
					<path class="st1" d="M186.7,297.8h-2v-2h2V297.8z M182.7,297.8h-10v-2h10V297.8z M170.7,297.8h-2v-2h2V297.8z M158.7,297.8h-2
						v-2h2V297.8z M154.7,297.8h-9.4v-2h9.4V297.8z"/>
				</g>
				<g>
					<path class="st1" d="M186.7,304.5h-2v-2h2V304.5z M182.7,304.5h-10v-2h10V304.5z M170.7,304.5h-2v-2h2V304.5z M158.7,304.5h-2
						v-2h2V304.5z M154.7,304.5h-9.4v-2h9.4V304.5z"/>
				</g>
				<g>
					<path class="st1" d="M186.7,311.2h-2v-2h2V311.2z M182.7,311.2h-10v-2h10V311.2z M170.7,311.2h-2v-2h2V311.2z M158.7,311.2h-2
						v-2h2V311.2z M154.7,311.2h-9.4v-2h9.4V311.2z"/>
				</g>
				<g>
					<rect x="145.6" y="296.7" class="st2" width="13.2" height="13.7"/>
					<path class="st1" d="M158.8,311.4h-13.2c-0.6,0-1-0.4-1-1v-13.7c0-0.6,0.4-1,1-1h13.2c0.6,0,1,0.4,1,1v13.7
						C159.8,311,159.4,311.4,158.8,311.4z M146.6,309.4h11.2v-11.7h-11.2V309.4z"/>
				</g>
			</g>
			<g>
				<rect x="145.5" y="253.1" class="st1" width="40.3" height="2"/>
			</g>
			<g>
				<rect x="145.5" y="259.8" class="st1" width="40.3" height="2"/>
			</g>
			<g>
				<rect x="145.5" y="266.6" class="st1" width="40.3" height="2"/>
			</g>
			<g>
				<rect x="145.5" y="273.3" class="st1" width="40.3" height="2"/>
			</g>
			<g>
				<rect x="145.5" y="280.1" class="st1" width="40.3" height="2"/>
			</g>
		</g>
		<g>
			<g>
				<rect x="108.5" y="319.8" class="st2" width="92.3" height="62.7"/>
				<path class="st1" d="M201.8,383.5h-94.3v-64.7h94.3V383.5z M109.5,381.5h90.3v-60.7h-90.3V381.5z"/>
			</g>
			<g>
				<g>
					<rect x="118.2" y="331" class="st1" width="9.6" height="7.9"/>
				</g>
				<g>
					<rect x="134" y="331" class="st1" width="9.6" height="7.9"/>
				</g>
				<g>
					<rect x="149.8" y="331" class="st1" width="9.6" height="7.9"/>
				</g>
				<g>
					<rect x="165.7" y="331" class="st3" width="9.6" height="7.9"/>
				</g>
				<g>
					<rect x="181.5" y="331" class="st3" width="9.6" height="7.9"/>
				</g>
				<g>
					<rect x="118.2" y="342.9" class="st1" width="9.6" height="7.9"/>
				</g>
				<g>
					<rect x="134" y="342.9" class="st6" width="9.6" height="7.9"/>
				</g>
				<g>
					<rect x="149.8" y="342.9" class="st6" width="9.6" height="7.9"/>
				</g>
				<g>
					<rect x="165.7" y="342.9" class="st6" width="9.6" height="7.9"/>
				</g>
				<g>
					<rect x="181.5" y="342.9" class="st3" width="9.6" height="7.9"/>
				</g>
				<g>
					<rect x="118.2" y="354.8" class="st1" width="9.6" height="7.9"/>
				</g>
				<g>
					<rect x="134" y="354.8" class="st1" width="9.6" height="7.9"/>
				</g>
				<g>
					<rect x="149.8" y="354.8" class="st6" width="9.6" height="7.9"/>
				</g>
				<g>
					<rect x="165.7" y="354.8" class="st6" width="9.6" height="7.9"/>
				</g>
				<g>
					<rect x="181.5" y="354.8" class="st3" width="9.6" height="7.9"/>
				</g>
				<g>
					<rect x="118.2" y="366.6" class="st1" width="9.6" height="7.9"/>
				</g>
				<g>
					<rect x="134" y="366.6" class="st1" width="9.6" height="7.9"/>
				</g>
				<g>
					<rect x="149.8" y="366.6" class="st1" width="9.6" height="7.9"/>
				</g>
				<g>
					<rect x="165.7" y="366.6" class="st3" width="9.6" height="7.9"/>
				</g>
				<g>
					<rect x="181.5" y="366.6" class="st3" width="9.6" height="7.9"/>
				</g>
			</g>
			<g>
				<g>
					<path class="st2" d="M118.2,327.5c-1.6,0-3-1.3-3-3v-9.7c0-1.6,1.3-3,3-3c1.6,0,3,1.3,3,3v9.7
						C121.2,326.2,119.8,327.5,118.2,327.5z"/>
					<path class="st1" d="M118.2,328.5c-2.2,0-4-1.8-4-4v-9.7c0-2.2,1.8-4,4-4c2.2,0,4,1.8,4,4v9.7
						C122.2,326.7,120.4,328.5,118.2,328.5z M118.2,312.9c-1.1,0-2,0.9-2,2v9.7c0,1.1,0.9,2,2,2c1.1,0,2-0.9,2-2v-9.7
						C120.2,313.8,119.3,312.9,118.2,312.9z"/>
				</g>
			</g>
			<g>
				<g>
					<path class="st2" d="M191.1,327.5c-1.6,0-3-1.3-3-3v-9.7c0-1.6,1.3-3,3-3c1.6,0,3,1.3,3,3v9.7
						C194.1,326.2,192.8,327.5,191.1,327.5z"/>
					<path class="st1" d="M191.1,328.5c-2.2,0-4-1.8-4-4v-9.7c0-2.2,1.8-4,4-4c2.2,0,4,1.8,4,4v9.7
						C195.1,326.7,193.3,328.5,191.1,328.5z M191.1,312.9c-1.1,0-2,0.9-2,2v9.7c0,1.1,0.9,2,2,2c1.1,0,2-0.9,2-2v-9.7
						C193.1,313.8,192.2,312.9,191.1,312.9z"/>
				</g>
			</g>
		</g>
		<g>
			<g>
				<g>
					<polygon class="st2" points="164.8,291.5 164.8,382.5 233.7,382.5 233.7,295.7 225.7,291.5 					"/>
					<g>
						<path class="st1" d="M233.7,383.5h-68.8c-0.6,0-1-0.4-1-1v-91c0-0.6,0.4-1,1-1h60.9c0.2,0,0.3,0,0.5,0.1l7.9,4.2
							c0.3,0.2,0.5,0.5,0.5,0.9v86.8C234.7,383.1,234.2,383.5,233.7,383.5z M165.8,381.5h66.8v-85.2l-7.2-3.8h-59.6V381.5z"/>
					</g>
				</g>
				<g>
					<polygon class="st2" points="225.7,291.5 233.7,295.7 227.1,297.7 					"/>
					<g>
						<path class="st1" d="M227.1,298.7c-0.2,0-0.4,0-0.5-0.1c-0.2-0.1-0.4-0.4-0.5-0.6l-1.3-6.2c-0.1-0.4,0.1-0.8,0.4-1
							c0.3-0.2,0.7-0.3,1.1-0.1l7.9,4.2c0.4,0.2,0.6,0.6,0.5,1c0,0.4-0.3,0.7-0.7,0.9l-6.6,2C227.3,298.7,227.2,298.7,227.1,298.7z
							 M227.2,293.4l0.7,3l3.2-1L227.2,293.4z"/>
					</g>
				</g>
				<g>
					<rect x="172.2" y="302" class="st1" width="21.9" height="2"/>
				</g>
				<g>
					<rect x="207.8" y="364.1" class="st1" width="16" height="2"/>
				</g>
				<g>
					<rect x="213.7" y="368.3" class="st1" width="10.2" height="2"/>
				</g>
				<g>
					<rect x="172.2" y="309" class="st1" width="51.7" height="2"/>
				</g>
				<g>
					<path class="st1" d="M223.9,316.8h-2v-2h2V316.8z M219.9,316.8h-38v-2h38V316.8z M180.9,316.8h-2v-2h2V316.8z M176.9,316.8h-2
						v-2h2V316.8z"/>
				</g>
				<g>
					<path class="st1" d="M223.9,322.7h-2v-2h2V322.7z M219.9,322.7h-38v-2h38V322.7z M180.9,322.7h-2v-2h2V322.7z M176.9,322.7h-2
						v-2h2V322.7z"/>
				</g>
				<g>
					<path class="st1" d="M223.9,328.5h-2v-2h2V328.5z M219.9,328.5h-38v-2h38V328.5z M180.9,328.5h-2v-2h2V328.5z M176.9,328.5h-2
						v-2h2V328.5z"/>
				</g>
				<g>
					<path class="st1" d="M223.9,334.4h-2v-2h2V334.4z M219.9,334.4h-38v-2h38V334.4z M180.9,334.4h-2v-2h2V334.4z M176.9,334.4h-2
						v-2h2V334.4z"/>
				</g>
				<g>
					<path class="st1" d="M223.9,340.2h-2v-2h2V340.2z M219.9,340.2h-38v-2h38V340.2z M180.9,340.2h-2v-2h2V340.2z M176.9,340.2h-2
						v-2h2V340.2z"/>
				</g>
				<g>
					<path class="st1" d="M223.9,346.1h-2v-2h2V346.1z M219.9,346.1h-23v-2h23V346.1z M194.9,346.1h-2v-2h2V346.1z"/>
				</g>
				<g>
					<path class="st1" d="M223.9,351.9h-2v-2h2V351.9z M219.9,351.9h-23v-2h23V351.9z M194.9,351.9h-2v-2h2V351.9z"/>
				</g>
				<g>
					<path class="st1" d="M223.9,357.7h-2v-2h2V357.7z M219.9,357.7h-23v-2h23V357.7z M194.9,357.7h-2v-2h2V357.7z"/>
				</g>
			</g>
		</g>
	</g>
	<g>
		<g>
			<polygon class="st2" points="233.2,184.8 233.2,195.6 233.2,196.3 240,200.2 233.2,204.1 233.2,234 205.5,234 205.5,184.8 			"/>
			<g>
				<path class="st1" d="M234.2,235h-29.7v-51.2h29.7v11.9l7.8,4.5l-7.8,4.5V235z M206.5,233h25.7v-29.4l5.8-3.3l-5.8-3.3v-11.1
					h-25.7V233z"/>
			</g>
		</g>
		<g>
			<path class="st1" d="M227.4,193.9h-16.7c-0.6,0-1-0.4-1-1c0-0.6,0.4-1,1-1h16.7c0.6,0,1,0.4,1,1
				C228.4,193.5,227.9,193.9,227.4,193.9z"/>
		</g>
		<g>
			<path class="st1" d="M227.4,198.5h-16.7c-0.6,0-1-0.4-1-1c0-0.6,0.4-1,1-1h16.7c0.6,0,1,0.4,1,1
				C228.4,198.1,227.9,198.5,227.4,198.5z"/>
		</g>
		<g>
			<path class="st1" d="M227.4,203.1h-16.7c-0.6,0-1-0.4-1-1c0-0.6,0.4-1,1-1h16.7c0.6,0,1,0.4,1,1
				C228.4,202.7,227.9,203.1,227.4,203.1z"/>
		</g>
		<g>
			<path class="st1" d="M227.4,207.7h-16.7c-0.6,0-1-0.4-1-1c0-0.6,0.4-1,1-1h16.7c0.6,0,1,0.4,1,1
				C228.4,207.3,227.9,207.7,227.4,207.7z"/>
		</g>
		<g>
			<path class="st1" d="M227.4,212.3h-16.7c-0.6,0-1-0.4-1-1c0-0.6,0.4-1,1-1h16.7c0.6,0,1,0.4,1,1
				C228.4,211.9,227.9,212.3,227.4,212.3z"/>
		</g>
		<g>
			<path class="st1" d="M227.4,216.9h-16.7c-0.6,0-1-0.4-1-1s0.4-1,1-1h16.7c0.6,0,1,0.4,1,1S227.9,216.9,227.4,216.9z"/>
		</g>
		<g>
			<path class="st1" d="M227.4,221.5h-16.7c-0.6,0-1-0.4-1-1c0-0.6,0.4-1,1-1h16.7c0.6,0,1,0.4,1,1
				C228.4,221,227.9,221.5,227.4,221.5z"/>
		</g>
		<g>
			<path class="st1" d="M227.4,226.1h-16.7c-0.6,0-1-0.4-1-1s0.4-1,1-1h16.7c0.6,0,1,0.4,1,1S227.9,226.1,227.4,226.1z"/>
		</g>
	</g>
	<g>
		<g>
			<polygon class="st2" points="125.8,342.6 74.3,342.6 74.3,364.5 83.5,364.5 86.5,369.8 89.5,364.5 125.8,364.5 			"/>
			<g>
				<path class="st1" d="M86.5,371.8l-3.6-6.2h-9.6v-24h53.4v24H90.1L86.5,371.8z M75.3,363.5h8.7l2.4,4.2l2.4-4.2h35.8v-20H75.3
					V363.5z"/>
			</g>
		</g>
		<g>
			<rect x="74.3" y="342.6" class="st1" width="8.5" height="8.5"/>
			<g>
				<path class="st1" d="M83.8,352.1H73.3v-10.5h10.5V352.1z M75.3,350.1h6.5v-6.5h-6.5V350.1z"/>
			</g>
		</g>
		<g>
			<rect x="88.7" y="347.7" class="st6" width="26.7" height="2"/>
		</g>
		<g>
			<rect x="88.7" y="351.8" class="st6" width="26.7" height="2"/>
		</g>
		<g>
			<rect x="88.7" y="356" class="st6" width="26.7" height="2"/>
		</g>
	</g>
	<g>
		<g>
			<path class="st1" d="M585.4,272.1l-2.9-5H575v-19h41.8v19h-28.4L585.4,272.1z M577,265h6.6l1.8,3l1.8-3h27.6v-15H577V265z"/>
		</g>
		<g>
			<path class="st1" d="M583.6,256.6H575V248h8.6V256.6z M577,254.6h4.6V250H577V254.6z"/>
		</g>
		<g>
			<rect x="587.1" y="252.8" class="st1" width="20.7" height="2"/>
		</g>
		<g>
			<rect x="587.1" y="256" class="st1" width="20.7" height="2"/>
		</g>
		<g>
			<rect x="587.1" y="259.2" class="st1" width="20.7" height="2"/>
		</g>
	</g>
	<g>
		<g>
			<g>
				<path class="st6" d="M585.6,177.6v12.7v4.8c0,4.7,2.9,8.9,7.3,10.5c0.1,0,0.3,0.1,0.4,0.1v4c-0.1,0-0.3,0.1-0.4,0.1
					c-4.4,1.6-7.3,5.8-7.3,10.5v4.8v12.7h22.1v-12.7v-4.8c0-4.7-2.9-8.9-7.3-10.5c-0.1,0-0.2-0.1-0.3-0.1v-4c0.1,0,0.2-0.1,0.3-0.1
					c4.4-1.6,7.3-5.8,7.3-10.5v-4.8v-12.7H585.6z"/>
				<path class="st1" d="M608.6,238.8h-24.1v-18.5c0-5,3.1-9.5,7.7-11.4v-2.6c-4.6-1.8-7.7-6.4-7.7-11.4v-18.5h24.1V195
					c0,5-3.1,9.5-7.7,11.4v2.6c4.6,1.9,7.7,6.4,7.7,11.4V238.8z M586.6,236.8h20.1v-16.5c0-4.3-2.7-8.1-6.7-9.6l-1-0.3V205l1-0.3
					c4-1.5,6.7-5.3,6.7-9.6v-16.5h-20.1V195c0,4.3,2.7,8.1,6.7,9.6c0.1,0,0.1,0,0.2,0.1l0.9,0.3v5.4l-0.8,0.3c-0.1,0-0.1,0-0.2,0.1
					c-4,1.5-6.7,5.3-6.7,9.6V236.8z"/>
			</g>
			<g>
				<rect x="582.8" y="174.2" class="st2" width="27.6" height="3.4"/>
				<g>
					<path class="st1" d="M611.4,178.6h-29.6v-5.4h29.6V178.6z M583.8,176.6h25.6v-1.4h-25.6V176.6z"/>
				</g>
			</g>
			<g>
				<rect x="582.8" y="237.8" class="st2" width="27.6" height="3.4"/>
				<g>
					<path class="st1" d="M611.4,242.2h-29.6v-5.4h29.6V242.2z M583.8,240.2h25.6v-1.4h-25.6V240.2z"/>
				</g>
			</g>
			<g>
				<g>
					<path class="st1" d="M593.3,194.2c0,0.6-0.5,1.1-1.1,1.1c-0.6,0-1.1-0.5-1.1-1.1c0-0.6,0.5-1.1,1.1-1.1
						C592.8,193.1,593.3,193.6,593.3,194.2z"/>
					<path class="st1" d="M597.3,194.2c0,0.6-0.5,1.1-1.1,1.1c-0.6,0-1.1-0.5-1.1-1.1c0-0.6,0.5-1.1,1.1-1.1
						C596.9,193.1,597.3,193.6,597.3,194.2z"/>
					<path class="st1" d="M601.4,194.2c0,0.6-0.5,1.1-1.1,1.1c-0.6,0-1.1-0.5-1.1-1.1c0-0.6,0.5-1.1,1.1-1.1
						C600.9,193.1,601.4,193.6,601.4,194.2z"/>
				</g>
				<g>
					<path class="st1" d="M597.3,201.5c0,0.6-0.5,1.1-1.1,1.1c-0.6,0-1.1-0.5-1.1-1.1c0-0.6,0.5-1.1,1.1-1.1
						C596.9,200.4,597.3,200.9,597.3,201.5z"/>
				</g>
				<g>
					<path class="st1" d="M603.1,190.6c0,0.6-0.5,1.1-1.1,1.1c-0.6,0-1.1-0.5-1.1-1.1c0-0.6,0.5-1.1,1.1-1.1
						C602.6,189.5,603.1,190,603.1,190.6z"/>
					<path class="st1" d="M591.6,190.6c0,0.6-0.5,1.1-1.1,1.1c-0.6,0-1.1-0.5-1.1-1.1c0-0.6,0.5-1.1,1.1-1.1
						C591.1,189.5,591.6,190,591.6,190.6z"/>
					<path class="st1" d="M595.4,190.6c0,0.6-0.5,1.1-1.1,1.1c-0.6,0-1.1-0.5-1.1-1.1c0-0.6,0.5-1.1,1.1-1.1
						C595,189.5,595.4,190,595.4,190.6z"/>
					<path class="st1" d="M599.3,190.6c0,0.6-0.5,1.1-1.1,1.1c-0.6,0-1.1-0.5-1.1-1.1c0-0.6,0.5-1.1,1.1-1.1
						C598.8,189.5,599.3,190,599.3,190.6z"/>
				</g>
				<g>
					<path class="st1" d="M603.1,197.8c0,0.6-0.5,1.1-1.1,1.1c-0.6,0-1.1-0.5-1.1-1.1c0-0.6,0.5-1.1,1.1-1.1
						C602.6,196.7,603.1,197.2,603.1,197.8z"/>
					<path class="st1" d="M591.6,197.8c0,0.6-0.5,1.1-1.1,1.1c-0.6,0-1.1-0.5-1.1-1.1c0-0.6,0.5-1.1,1.1-1.1
						C591.1,196.7,591.6,197.2,591.6,197.8z"/>
					<path class="st1" d="M595.4,197.8c0,0.6-0.5,1.1-1.1,1.1c-0.6,0-1.1-0.5-1.1-1.1c0-0.6,0.5-1.1,1.1-1.1
						C595,196.7,595.4,197.2,595.4,197.8z"/>
					<path class="st1" d="M599.3,197.8c0,0.6-0.5,1.1-1.1,1.1c-0.6,0-1.1-0.5-1.1-1.1c0-0.6,0.5-1.1,1.1-1.1
						C598.8,196.7,599.3,197.2,599.3,197.8z"/>
				</g>
			</g>
			<g>
				<g>
					<path class="st1" d="M593.3,231.1c0-0.6-0.5-1.1-1.1-1.1c-0.6,0-1.1,0.5-1.1,1.1c0,0.6,0.5,1.1,1.1,1.1
						C592.8,232.2,593.3,231.7,593.3,231.1z"/>
					<path class="st1" d="M597.3,231.1c0-0.6-0.5-1.1-1.1-1.1c-0.6,0-1.1,0.5-1.1,1.1c0,0.6,0.5,1.1,1.1,1.1
						C596.9,232.2,597.3,231.7,597.3,231.1z"/>
					<path class="st1" d="M601.4,231.1c0-0.6-0.5-1.1-1.1-1.1c-0.6,0-1.1,0.5-1.1,1.1c0,0.6,0.5,1.1,1.1,1.1
						C600.9,232.2,601.4,231.7,601.4,231.1z"/>
				</g>
				<g>
					<path class="st1" d="M597.3,223.9c0-0.6-0.5-1.1-1.1-1.1c-0.6,0-1.1,0.5-1.1,1.1c0,0.6,0.5,1.1,1.1,1.1
						C596.9,224.9,597.3,224.5,597.3,223.9z"/>
				</g>
				<g>
					<path class="st1" d="M603.1,234.8c0-0.6-0.5-1.1-1.1-1.1c-0.6,0-1.1,0.5-1.1,1.1c0,0.6,0.5,1.1,1.1,1.1
						C602.6,235.8,603.1,235.4,603.1,234.8z"/>
					<path class="st1" d="M591.6,234.8c0-0.6-0.5-1.1-1.1-1.1c-0.6,0-1.1,0.5-1.1,1.1c0,0.6,0.5,1.1,1.1,1.1
						C591.1,235.8,591.6,235.4,591.6,234.8z"/>
					<path class="st1" d="M595.4,234.8c0-0.6-0.5-1.1-1.1-1.1c-0.6,0-1.1,0.5-1.1,1.1c0,0.6,0.5,1.1,1.1,1.1
						C595,235.8,595.4,235.4,595.4,234.8z"/>
					<path class="st1" d="M599.3,234.8c0-0.6-0.5-1.1-1.1-1.1c-0.6,0-1.1,0.5-1.1,1.1c0,0.6,0.5,1.1,1.1,1.1
						C598.8,235.8,599.3,235.4,599.3,234.8z"/>
				</g>
				<g>
					<path class="st1" d="M603.1,227.5c0-0.6-0.5-1.1-1.1-1.1c-0.6,0-1.1,0.5-1.1,1.1c0,0.6,0.5,1.1,1.1,1.1
						C602.6,228.6,603.1,228.1,603.1,227.5z"/>
					<path class="st1" d="M591.6,227.5c0-0.6-0.5-1.1-1.1-1.1c-0.6,0-1.1,0.5-1.1,1.1c0,0.6,0.5,1.1,1.1,1.1
						C591.1,228.6,591.6,228.1,591.6,227.5z"/>
					<path class="st1" d="M595.4,227.5c0-0.6-0.5-1.1-1.1-1.1c-0.6,0-1.1,0.5-1.1,1.1c0,0.6,0.5,1.1,1.1,1.1
						C595,228.6,595.4,228.1,595.4,227.5z"/>
					<path class="st1" d="M599.3,227.5c0-0.6-0.5-1.1-1.1-1.1c-0.6,0-1.1,0.5-1.1,1.1c0,0.6,0.5,1.1,1.1,1.1
						C598.8,228.6,599.3,228.1,599.3,227.5z"/>
				</g>
			</g>
		</g>
	</g>
	<g>
		<path class="st5" d="M222.3,352.4c6.1,6.3,16.1,6.4,22.4,0.3c6.3-6.1,6.4-16.1,0.3-22.4c-6.1-6.3-16.2-6.4-22.4-0.3
			C216.3,336.1,216.2,346.1,222.3,352.4z"/>
		<g>
			<g>
				<path class="st2" d="M214.7,341.2c0.1-10.5,8.7-18.9,19.1-18.8c10.5,0.1,18.9,8.7,18.8,19.1c-0.1,9.6-7.3,17.5-16.6,18.7
					l-0.1,15.6l-4.3,0l0.1-15.5C222.1,359.3,214.6,351.1,214.7,341.2z M222.7,352c2.8,2.8,6.6,4.6,10.9,4.6
					c8.4,0.1,15.3-6.7,15.4-15.2c0.1-8.4-6.7-15.4-15.2-15.4c-8.4-0.1-15.4,6.7-15.4,15.2C218.3,345.4,220,349.2,222.7,352
					L222.7,352z"/>
			</g>
			<g>
				<g>
					<path class="st1" d="M236.9,376.7l-6.3-0.1l0.1-15.6c-9.9-1.4-17.1-9.8-17-19.9c0-5.3,2.2-10.3,6-14.1
						c3.8-3.7,8.8-5.7,14.2-5.7c11,0.1,19.9,9.1,19.8,20.1c-0.1,9.7-7.2,17.9-16.6,19.5L236.9,376.7z M232.6,374.7l2.3,0l0.1-15.4
						l0.9-0.1c8.9-1.1,15.6-8.7,15.7-17.7c0.1-9.9-7.9-18-17.8-18.1c-4.8,0-9.3,1.8-12.7,5.2c-3.4,3.4-5.3,7.9-5.4,12.7l0,0
						c-0.1,9.3,6.9,17.1,16.1,18l0.9,0.1L232.6,374.7z M233.6,357.7c0,0-0.1,0-0.1,0c-4.4,0-8.5-1.8-11.6-5l0,0
						c-3-3.1-4.6-7.2-4.6-11.5c0.1-8.9,7.4-16.2,16.3-16.2c0,0,0.1,0,0.1,0c9,0.1,16.2,7.4,16.2,16.4
						C249.9,350.4,242.6,357.7,233.6,357.7z M223.4,351.3c2.7,2.8,6.3,4.3,10.1,4.3c0,0,0.1,0,0.1,0c7.8,0,14.2-6.3,14.3-14.2
						c0.1-7.9-6.3-14.3-14.2-14.4c-7.9-0.1-14.3,6.3-14.4,14.2C219.3,345,220.8,348.6,223.4,351.3L223.4,351.3z"/>
				</g>
			</g>
		</g>
		<g>
			<polygon class="st6" points="228.3,382.5 228.3,371.9 225.6,371.9 225.6,367 241.7,367 241.7,371.9 239,371.9 239,382.5 			"/>
			<g>
				<path class="st1" d="M240,383.5h-12.8v-10.6h-2.7V366h18.1v6.9H240V383.5z M229.3,381.5h8.8v-10.6h2.7V368h-14.1v2.9h2.7V381.5z
					"/>
			</g>
		</g>
	</g>
	<g>
		<path class="st1" d="M326.1,226.8h-2v-1.3h2V226.8z M326.1,223.6h-2v-2h2V223.6z M326.1,219.6h-2v-2h2V219.6z M326.1,215.6h-2v-2
			h2V215.6z M326.1,211.6h-2v-2h2V211.6z M326.1,207.6h-2v-2h2V207.6z M326.1,203.6h-2v-2h2V203.6z M326.1,199.6h-2v-2h2V199.6z
			 M326.1,195.6h-2v-2h2V195.6z M326.1,191.6h-2v-2h2V191.6z M326.1,187.6h-2v-2h2V187.6z M324.1,183.7c-0.1-0.6-0.2-1.3-0.3-1.9
			l2-0.4c0.1,0.7,0.2,1.4,0.3,2.1L324.1,183.7z M323.3,180c-0.2-0.6-0.4-1.2-0.7-1.8l1.8-0.8c0.3,0.6,0.5,1.3,0.7,2L323.3,180z
			 M282.2,177.8l-1.9-0.6c0.2-0.7,0.5-1.3,0.8-2l1.8,0.8C282.6,176.6,282.4,177.2,282.2,177.8z M321.8,176.5c-0.3-0.5-0.7-1.1-1-1.6
			l1.6-1.2c0.4,0.6,0.8,1.2,1.1,1.8L321.8,176.5z M283.8,174.4l-1.7-1.1c0.4-0.6,0.8-1.2,1.2-1.7l1.6,1.3
			C284.5,173.3,284.1,173.9,283.8,174.4z M319.6,173.4c-0.4-0.5-0.9-0.9-1.3-1.4l1.4-1.5c0.5,0.5,1,1,1.5,1.5L319.6,173.4z
			 M286.2,171.5l-1.4-1.4c0.5-0.5,1.1-1,1.6-1.4l1.2,1.6C287.1,170.6,286.6,171,286.2,171.5z M316.8,170.8c-0.5-0.4-1-0.7-1.6-1.1
			l1-1.7c0.6,0.4,1.2,0.8,1.7,1.2L316.8,170.8z M289.2,169.2l-1-1.7c0.6-0.4,1.2-0.7,1.9-0.9l0.8,1.8
			C290.3,168.6,289.7,168.9,289.2,169.2z M313.6,168.9c-0.6-0.3-1.2-0.5-1.8-0.7l0.7-1.9c0.7,0.2,1.3,0.5,1.9,0.8L313.6,168.9z
			 M292.6,167.8l-0.5-1.9c0.7-0.2,1.4-0.3,2.1-0.5l0.3,2C293.8,167.5,293.2,167.6,292.6,167.8z M310,167.7c-0.6-0.1-1.2-0.3-1.9-0.3
			l0.3-2c0.7,0.1,1.4,0.2,2.1,0.4L310,167.7z M296.3,167.2l-0.1-2c0.2,0,0.4,0,0.6,0h1.4v2h-1.4
			C296.6,167.2,296.5,167.2,296.3,167.2z M306.2,167.2l-2,0v-2h1.6c0.2,0,0.3,0,0.5,0L306.2,167.2z M302.3,167.2h-2v-2h2V167.2z"/>
	</g>
	<g>
		<g>
			<circle class="st2" cx="270.7" cy="316.2" r="19.5"/>
			<path class="st1" d="M270.7,336.8c-11.3,0-20.5-9.2-20.5-20.5c0-11.3,9.2-20.5,20.5-20.5c11.3,0,20.5,9.2,20.5,20.5
				C291.2,327.5,282,336.8,270.7,336.8z M270.7,297.7c-10.2,0-18.5,8.3-18.5,18.5c0,10.2,8.3,18.5,18.5,18.5
				c10.2,0,18.5-8.3,18.5-18.5C289.2,306,280.9,297.7,270.7,297.7z"/>
		</g>
		<g>
			<rect x="269.7" y="296.7" class="st1" width="2" height="39"/>
		</g>
		<g>
			<path class="st1" d="M268.7,336.2c-7-12.4-7.1-27.3-0.4-39.9l1.8,0.9c-6.4,12-6.3,26.2,0.4,38L268.7,336.2z"/>
		</g>
		<g>
			<path class="st1" d="M272.8,336.2l-1.7-1c6.6-11.8,6.8-26,0.4-38l1.8-0.9C279.9,308.9,279.8,323.8,272.8,336.2z"/>
		</g>
		<g>
			<rect x="251.2" y="315.2" class="st1" width="39" height="2"/>
		</g>
		<g>
			<path class="st1" d="M270.7,313.5c-6.3,0-12.6-0.7-18.9-2l0.4-2c12.3,2.6,24.7,2.6,36.9,0l0.4,2
				C283.3,312.8,277,313.5,270.7,313.5z"/>
		</g>
		<g>
			<path class="st1" d="M252.3,323.1l-0.4-2c12.5-2.7,25.2-2.7,37.7,0l-0.4,2C276.9,320.5,264.5,320.5,252.3,323.1z"/>
		</g>
		<g>
			<path class="st1" d="M270.7,305.2c-4.4,0-8.7-1.1-12.6-3.4l1-1.7c7.2,4.2,16,4.2,23.2,0l1,1.7
				C279.4,304.1,275.1,305.2,270.7,305.2z"/>
		</g>
		<g>
			<path class="st1" d="M258.4,331.7l-1.1-1.7c8.2-5.2,18.7-5.2,26.9,0l-1.1,1.7C275.6,326.9,265.9,326.9,258.4,331.7z"/>
		</g>
		<g>
			<path class="st1" d="M266.3,336.2c-6.9-4.4-11-11.8-11-20c0-8.2,4.1-15.6,11-20l1.1,1.7c-6.3,4-10,10.8-10,18.3
				c0,7.5,3.8,14.3,10,18.3L266.3,336.2z"/>
		</g>
		<g>
			<path class="st1" d="M275.2,336.2l-1.1-1.7c6.3-4,10.1-10.9,10-18.3c0-7.5-3.8-14.3-10.1-18.3l1.1-1.7c6.9,4.3,11.1,11.8,11.1,20
				C286.1,324.4,282,331.8,275.2,336.2z"/>
		</g>
	</g>
	<g>
		<g>
			<path class="st6" d="M413.7,355.3c-4.5-5.5-13.4-6.9-33.3-0.8c-7.6,2.3-11.5-6.5-13.2-11.4l-21,4.1l-21-4.1
				c-1.7,4.9-5.6,13.7-13.2,11.4c-19.9-6.1-28.8-4.6-33.3,0.8c-12.8,15.5,26,10.8,25.7,18.1c-0.5,10.5,83,11.5,83.6,0
				C388.4,366.2,426.5,370.9,413.7,355.3z"/>
			<path class="st1" d="M347.1,382.7c-17.6,0-35.5-1.9-41.3-5.7c-1.6-1-2.4-2.2-2.3-3.6c0.1-2-6.3-3.1-11.4-4
				c-7.4-1.3-15-2.6-16.6-6.9c-0.8-2.2,0-4.7,2.5-7.8c5.4-6.5,15.7-6.9,34.3-1.2c6.2,1.9,9.9-4.8,12-10.8l0.3-0.8l21.7,4.3l21.7-4.3
				l0.3,0.8c2,6,5.8,12.7,12,10.8c18.7-5.7,29-5.4,34.3,1.2c2.5,3.1,3.4,5.6,2.6,7.8c-1.6,4.3-9.1,5.6-16.4,6.9
				c-5.1,0.9-11.5,2-11.6,4.1c-0.1,1.6-1.3,3-3.6,4.2C379.1,381.1,363.2,382.7,347.1,382.7z M291.3,351.6c-5.5,0-9.4,1.5-11.8,4.4
				c-2,2.4-2.7,4.4-2.2,5.8c1.2,3.3,8.6,4.5,15.1,5.7c7.1,1.2,13.2,2.3,13,6.1c0,0.7,0.8,1.4,1.4,1.8c10.8,7,64.6,7.4,77.7,0.7
				c1.1-0.6,2.5-1.5,2.5-2.5c0.2-3.7,6.2-4.7,13.2-5.9c6.4-1.1,13.7-2.4,14.9-5.6c0.5-1.5-0.2-3.4-2.2-5.9l0,0
				c-4.7-5.7-14.7-5.9-32.2-0.5c-4.2,1.3-9.9,0.3-14.1-11.2l-20.3,4l-20.3-4c-4.2,11.5-10,12.5-14.1,11.2
				C303.3,352.9,296.5,351.6,291.3,351.6z"/>
		</g>
		<g>
			<g>
				<g>
					<path class="st2" d="M396,358.3c-0.5,0.2-14.2,3.6-18.9,5.8c-8,3.7-31.8,14.7-38.5,20.3c-4.9,4.1-14.6,0.2-21.2,0.7
						c-0.9,0.1-1.8,0.5-2.5,1.1c-0.6,0.6-1.3,1.1-1.9,1.7c-1.8,1.5-2.3,4-1.2,6.1c0.3,0.7,0.7,1.3,1,2c1,1.9,3.1,2.9,5.2,2.4
						c2.1-0.5,4.4-1,4.9-1c4-0.6,7.6-2.5,11.5-3.5c1.4-0.4,2.7,1.2,4.1,0.8c1.5-0.4,3.3-2.7,4.8-3.1c8.8-2.3,17.5-4.7,21.4-5.8
						c12.7-3.8,22.1-2.3,36.4-12.4c2.5-1.8,7.5-3,9-5.8c1.8-3.3,1-8.8-2.3-10.8C404.2,354.4,400,356.9,396,358.3z"/>
					<path class="st1" d="M317,399.4c-2.1,0-4.1-1.1-5.1-3c-0.3-0.6-0.7-1.3-1-2c-1.3-2.5-0.7-5.5,1.4-7.3c0.7-0.6,1.3-1.1,1.9-1.7
						c0.9-0.8,2-1.3,3.1-1.3c2.4-0.2,5.1,0.2,7.9,0.6c4.8,0.7,9.9,1.3,12.7-1c6.8-5.7,30.8-16.8,38.7-20.5
						c3.9-1.8,13.5-4.4,17.5-5.4c0.8-0.2,1.3-0.4,1.5-0.4c0.7-0.2,1.4-0.5,2.1-0.8c3.5-1.4,7.2-2.9,10.7-0.8
						c3.9,2.3,4.7,8.5,2.7,12.1c-1.2,2.1-3.8,3.4-6.2,4.5c-1.2,0.6-2.3,1.1-3.1,1.6c-10.2,7.2-17.9,8.6-26,10.1
						c-3.4,0.6-6.9,1.3-10.7,2.4c-3.6,1.1-11.8,3.3-21.4,5.8c-0.6,0.2-1.3,0.8-2,1.4c-0.9,0.7-1.8,1.5-2.8,1.8
						c-1.1,0.3-2-0.1-2.8-0.5c-0.5-0.2-1-0.4-1.4-0.3c-1.5,0.4-3.1,1-4.6,1.5c-2.2,0.8-4.6,1.7-7,2c-0.3,0-1.4,0.3-4.9,1
						C317.8,399.4,317.4,399.4,317,399.4z M318.7,386.1c-0.4,0-0.8,0-1.2,0c-0.7,0.1-1.4,0.4-1.9,0.8c-0.6,0.6-1.3,1.1-2,1.7
						c-1.4,1.2-1.8,3.2-0.9,4.8c0.3,0.7,0.7,1.3,1,1.9c0.8,1.5,2.5,2.3,4.1,1.9c2.9-0.6,4.5-1,5-1.1c2.3-0.3,4.4-1.1,6.6-1.9
						c1.6-0.6,3.2-1.2,4.8-1.6c1-0.3,1.9,0.1,2.7,0.4c0.6,0.2,1.1,0.5,1.5,0.4c0.6-0.1,1.3-0.8,2-1.4c0.9-0.7,1.8-1.5,2.8-1.8
						c9.6-2.5,17.8-4.7,21.4-5.8c3.9-1.1,7.5-1.8,10.9-2.5c7.9-1.5,15.4-2.9,25.2-9.8c0.9-0.7,2.1-1.2,3.4-1.8
						c2.1-1,4.5-2.1,5.3-3.7c1.5-2.8,0.9-7.7-2-9.4c-2.7-1.6-5.7-0.3-9,1c-0.7,0.3-1.4,0.6-2.1,0.8c-0.1,0-0.4,0.1-1.6,0.4
						c-3.7,1-13.5,3.6-17.2,5.3c-7.8,3.6-31.7,14.6-38.3,20.2c-3.5,2.9-8.9,2.2-14.2,1.5C322.7,386.4,320.6,386.1,318.7,386.1z"/>
				</g>
			</g>
		</g>
		<g>
			<g>
				<path class="st1" d="M326,223.2c-1,8-0.9,16.8-2.6,24.6c-2.9,13.6,4.8,34.6,17.3,41.9c6.4,3.7,17.8,3.4,23.1-2.1
					c5.1-5.4,4.1-11.6,3.8-18.2c-0.4-8.9,0.8-18,0.8-27c0-4.3,0-8.6,0-12.8c0-10.5-2.5-20.9-13-25.7c-6.8-3.1-15.2-1.5-21.4,2.4
					C328.5,209.8,326.8,217,326,223.2z"/>
			</g>
		</g>
		<g>
			<path class="st2" d="M356.6,266.9l-2.7-27.5l-14.1,2.6l-2.6,25.1c-5.3,0.9-11.1,2.5-17.4,5.1l6.7,17.3l48.9-14.6
				C375.5,274.9,368.8,268.8,356.6,266.9z"/>
			<path class="st1" d="M326,290.6l-7.4-19.1l0.9-0.4c5.7-2.3,11.3-4,16.8-5l2.6-25.1l15.9-3l2.8,27.9c11.9,2.1,18.4,7.8,18.7,8.1
				l1.3,1.2L326,290.6z M321.2,272.7l6,15.5l46.2-13.7c-2.6-1.8-8.4-5.2-16.9-6.6l-0.8-0.1l-2.7-27.2l-12.2,2.3l-2.6,25.1l-0.8,0.1
				C332.1,268.9,326.6,270.5,321.2,272.7z"/>
		</g>
		<g>
			<g>
				<g>
					<g>
						<g>
							<path class="st2" d="M326,229.7c0.5,4,1.9,7.4,3,10.8c3,9.6,11.5,16.2,18.9,16.2c3,0,11.5-5.4,15-13.6c1.8-4.3,4-9.6,4.2-15
								c0.8-18.8-8.4-30-21.6-29.6C332.3,198.9,324,212.9,326,229.7z"/>
							<path class="st1" d="M347.9,257.7c-8.3,0-16.9-7.3-19.9-16.9c-0.3-0.8-0.5-1.6-0.8-2.5c-0.9-2.6-1.8-5.4-2.2-8.5l0,0
								c-1.2-10,1.1-19.3,6.4-25.4c3.7-4.3,8.6-6.7,14.1-6.9c5.9-0.2,11.1,1.8,15,5.8c5.4,5.4,8.1,14.2,7.6,24.8
								c-0.2,5.5-2.3,10.8-4.3,15.3C360.3,251.9,351.4,257.7,347.9,257.7z M327,229.6c0.3,2.9,1.2,5.6,2.1,8.1
								c0.3,0.8,0.6,1.7,0.8,2.5c2.7,8.7,10.6,15.5,18,15.5c2.5,0,10.8-5.2,14.1-13c1.9-4.4,3.9-9.5,4.1-14.6
								c0.4-10-2.1-18.3-7-23.3c-3.5-3.6-8.2-5.4-13.5-5.2c-4.9,0.1-9.3,2.3-12.7,6.2C328,211.4,325.8,220.1,327,229.6L327,229.6z"
								/>
						</g>
					</g>
				</g>
			</g>
		</g>
		<g>
			<g>
				<g>
					<g>
						<g>
							<path class="st1" d="M339.2,232.4c-0.3,1.1-1.3,1.6-2.8,1.3c-1.5-0.3-2.3-0.9-2-2.3c0.2-1.2,1.4-2.1,2.9-1.8
								C338.7,229.9,339.5,230.9,339.2,232.4z"/>
						</g>
					</g>
				</g>
			</g>
			<g>
				<g>
					<path class="st1" d="M331.2,227.4c-0.3-0.3-0.3-0.8,0.1-1.1l0,0c1.1-0.9,2.3-2,3.7-2l0,0c0.3,0,0.5,0,0.8,0.1l0,0
						c1.6,0.6,4.7,1.2,4.7,1.2h0c0.4,0.1,0.7,0.5,0.6,0.9l0,0c-0.1,0.4-0.5,0.7-0.9,0.6l0,0c0,0-3.1-0.6-4.9-1.3l0,0
						c-0.1,0-0.2,0-0.2,0l0,0c-0.5-0.1-1.6,0.7-2.7,1.7l0,0c-0.2,0.1-0.3,0.2-0.5,0.2l0,0C331.6,227.7,331.3,227.6,331.2,227.4
						L331.2,227.4z"/>
				</g>
			</g>
		</g>
		<g>
			<g>
				<g>
					<g>
						<g>
							<path class="st1" d="M352.8,232.4c0.3,1.1,1.3,1.6,2.8,1.3c1.5-0.3,2.3-0.9,2-2.3c-0.2-1.2-1.4-2.1-2.9-1.8
								C353.3,229.9,352.5,230.9,352.8,232.4z"/>
						</g>
					</g>
				</g>
			</g>
			<g>
				<g>
					<path class="st1" d="M359.7,227.5c-1-1-2.2-1.7-2.7-1.7l0,0c-0.1,0-0.2,0-0.2,0l0,0c-1.9,0.7-4.9,1.3-4.9,1.3l0,0v0
						c-0.4,0.1-0.9-0.2-0.9-0.6l0,0c-0.1-0.4,0.2-0.9,0.6-0.9l0,0c0,0,3.1-0.6,4.7-1.2l0,0c0.3-0.1,0.5-0.1,0.8-0.1l0,0
						c1.5,0,2.6,1.1,3.7,2l0,0c0.3,0.3,0.4,0.8,0.1,1.1l0,0c-0.2,0.2-0.4,0.3-0.6,0.3l0,0C360,227.7,359.8,227.6,359.7,227.5
						L359.7,227.5z"/>
				</g>
			</g>
		</g>
		<g>
			<g>
				<path class="st1" d="M345.8,242.3c0,0-2.8-0.1-2.9-2.8l0,0c0-0.6,0.1-1.3,0.5-2.1l0,0c0.1-0.3,0.5-0.5,0.8-0.3l0,0
					c0.3,0.1,0.5,0.5,0.3,0.8l0,0c-0.3,0.7-0.4,1.3-0.4,1.7l0,0c0,1.6,1.7,1.6,1.7,1.6l0,0c0.3,0,0.6,0.3,0.6,0.6l0,0
					C346.4,242,346.2,242.3,345.8,242.3L345.8,242.3C345.8,242.3,345.8,242.3,345.8,242.3L345.8,242.3z"/>
			</g>
		</g>
		<g>
			<g>
				<path class="st1" d="M346.6,250.2c-2.8,0-4.8-1.8-4.8-1.8l0,0c-0.3-0.3-0.4-0.8-0.1-1.1l0,0c0.3-0.3,0.8-0.4,1.1-0.1l0,0
					c0,0,0.4,0.3,1.1,0.7l0,0c0.7,0.4,1.6,0.7,2.7,0.7l0,0c1.1,0,2.4-0.4,3.8-1.6l0,0c0.3-0.3,0.8-0.3,1.1,0.1l0,0
					c0.3,0.3,0.3,0.8-0.1,1.1l0,0C349.8,249.7,348.1,250.2,346.6,250.2L346.6,250.2C346.6,250.2,346.6,250.2,346.6,250.2
					L346.6,250.2z"/>
			</g>
		</g>
		<g>
			<g>
				<g>
					<path class="st6" d="M332.6,268c0,0,14.1,16.2,30.1,0.2c0,0,9.2,2.3,12.8,5.9c0,0,4.3,2.8,4.3,20.1c0,0-7.1,4.2-11.9,4.2
						c0,0-4.9,24.3-4.3,32.5c0.3,3.2,3.6,12.1,3.6,12.1s-20.9,12.6-42,0c0,0,3.7-8.3,4-11.3c0.8-8.2-4.6-32.8-4.6-32.8
						s-12-0.3-12-4.5c0,0-0.2-17.7,5.9-21.8C321.9,270.5,332.6,268,332.6,268z"/>
					<path class="st1" d="M345.4,349.6c-6.4,0-13.5-1.4-20.7-5.7l-0.8-0.5l0.4-0.8c1-2.3,3.7-8.7,3.9-11c0.7-7.2-3.5-27.6-4.4-31.7
						c-3.2-0.2-12.1-1-12.1-5.5c0-0.7-0.1-18.3,6.4-22.6c3.4-2.2,13.9-4.7,14.3-4.8l0.6-0.1l0.4,0.5c0.1,0.1,5.9,6.7,14,6.9
						c5,0.2,10-2.1,14.6-6.7l0.4-0.4l0.5,0.1c0.4,0.1,9.4,2.4,13.2,6.1c0.8,0.6,4.7,4.4,4.7,20.8v0.6l-0.5,0.3
						c-0.3,0.2-6.7,3.9-11.6,4.3c-0.8,4.2-4.7,24.3-4.1,31.5c0.2,3,3.5,11.8,3.6,11.9l0.3,0.8l-0.7,0.4
						C367.6,344,358.1,349.6,345.4,349.6z M326.5,342.7c17.9,10.2,35.7,1.9,39.5,0c-0.8-2.3-3.2-8.9-3.4-11.6
						c-0.7-8.2,4.1-31.8,4.3-32.8l0.2-0.8h0.8c3.8,0,9.3-2.9,10.9-3.8C378.7,278,375,275,375,275l-0.1-0.1c-2.9-2.9-9.8-5-11.8-5.5
						c-4.9,4.8-10.2,7.1-15.7,6.9c-7.8-0.3-13.5-5.6-15-7.2c-2.2,0.5-10.4,2.6-13.1,4.4c-4.7,3.1-5.5,16.1-5.5,20.9
						c0,2.2,6.5,3.4,11,3.5l0.8,0l0.2,0.8c0.2,1,5.4,24.8,4.6,33.1C330,334.4,327.5,340.5,326.5,342.7z"/>
				</g>
			</g>
		</g>
		<g>
			<g>
				<path class="st1" d="M327,206c-8.4,12.9-7.2,35.4-7.8,47.5c-0.2,3.4-0.1,7,0.1,10.4c0.2,3.5,3.4,13.6,5.7,16.5
					c1.6,2,7,8.1,7,8.1s-4.9-21.9-5-22.9c-0.5-3.6-0.8-6.9-0.7-10.6c0.2-4.4,0.5-8.9,0.5-13.3c0-4.4-0.3-9.1,1.1-13.4
					c0.8-2.4,2.2-4.5,3.9-6.4c1.9-2.1,4.3-3.2,5.4-5.9c1-2.3,1.2-5,1.6-7.4c0.8,1.3,1.2,3,2.2,4.2c2.6,3,7.2,5.4,11,6.4
					c4.2,1.1,7.2,3.5,10.1,6.9c4.2,5,4.3,12.6,4.5,18.7c0.1,4.1,0.1,8.1-0.1,12.1c-0.1,1.7-4,31.8-3.3,32.1c0,0,4.9-5.8,6.8-9.3
					c2.1-3.8,5.3-16.5,5.3-22.3c0.1-17.3,2.6-39-8.8-53.2c-7.3-9-15.7-10-26.4-7.6C334.1,198,330,201.4,327,206z"/>
			</g>
		</g>
		<g>
			<g>
				<g>
					<path class="st2" d="M296.5,358.3c0.5,0.2,14.2,3.6,18.9,5.8c8,3.7,31.8,14.7,38.5,20.3c5.3,4.4,16.4-0.6,22.8,0.9
						c0.7,0.7,1.6,1.5,2.4,2.2c2,1.7,2.4,4.7,0.8,6.8c-0.5,0.6-0.9,1.3-1.4,1.8c-1.3,1.7-3.5,2.5-5.6,1.9c-1.5-0.4-3-0.8-3.6-0.9
						c-4-0.6-7.6-2.5-11.5-3.5c-1.4-0.4-2.7,1.2-4.1,0.8c-1.5-0.4-3.3-2.7-4.8-3.1c-8.8-2.3-17.5-4.7-21.4-5.8
						c-12.7-3.8-22.1-2.3-36.4-12.4c-2.5-1.8-7.5-3-9-5.8c-1.8-3.3-1-8.8,2.3-10.8C288.3,354.4,292.5,356.9,296.5,358.3z"/>
					<path class="st1" d="M374.5,399.3c-0.5,0-1.1-0.1-1.7-0.2c-2.5-0.7-3.2-0.8-3.4-0.9c-2.5-0.4-4.8-1.2-7-2
						c-1.5-0.6-3.1-1.1-4.6-1.5c-0.3-0.1-0.8,0.1-1.4,0.3c-0.8,0.3-1.7,0.7-2.8,0.5c-1-0.3-1.9-1-2.8-1.8c-0.7-0.6-1.5-1.2-2-1.4
						c-9.6-2.5-17.8-4.8-21.4-5.8c-3.8-1.1-7.3-1.8-10.7-2.4c-8.1-1.5-15.8-2.9-26-10.1c-0.8-0.6-1.9-1.1-3.1-1.6
						c-2.4-1.1-5-2.4-6.2-4.5c-2-3.6-1.2-9.8,2.7-12.1c3.5-2.1,7.2-0.6,10.7,0.8c0.7,0.3,1.4,0.6,2.1,0.8c0.1,0,0.7,0.2,1.5,0.4
						c4.1,1.1,13.6,3.6,17.5,5.4c7.9,3.6,31.9,14.7,38.7,20.5c2.8,2.4,7.8,1.7,12.7,1c3.6-0.5,7-1,9.7-0.3l0.3,0.1l0.2,0.2
						c0.7,0.7,1.6,1.5,2.4,2.1c2.4,2,2.8,5.6,1,8.2c-0.5,0.6-0.9,1.3-1.4,1.9C378.3,398.4,376.4,399.3,374.5,399.3z M357.6,392.7
						c0.2,0,0.4,0,0.7,0.1c1.6,0.4,3.3,1,4.8,1.6c2.2,0.8,4.4,1.6,6.6,1.9c0.3,0,1,0.2,3.7,0.9c1.7,0.5,3.4-0.1,4.5-1.5
						c0.4-0.6,0.9-1.2,1.3-1.8c1.2-1.7,0.9-4.1-0.7-5.5c-0.8-0.6-1.6-1.3-2.3-2c-2.4-0.5-5.5,0-8.7,0.4c-5.3,0.7-10.7,1.5-14.2-1.5
						c-6.6-5.6-30.5-16.6-38.3-20.2c-3.8-1.7-13.5-4.3-17.2-5.3c-1.2-0.3-1.5-0.4-1.6-0.4c-0.7-0.3-1.4-0.5-2.1-0.8
						c-3.2-1.3-6.3-2.5-9-1c-2.9,1.7-3.5,6.6-2,9.4c0.9,1.6,3.2,2.7,5.3,3.7c1.3,0.6,2.4,1.2,3.4,1.8c9.8,6.9,17.3,8.3,25.2,9.8
						c3.5,0.6,7,1.3,10.9,2.5c3.6,1.1,11.8,3.3,21.4,5.8c1,0.3,1.9,1,2.8,1.8c0.7,0.6,1.5,1.2,2,1.4c0.4,0.1,0.9-0.1,1.5-0.4
						C356.2,393,356.8,392.7,357.6,392.7z"/>
				</g>
			</g>
		</g>
	</g>
	<g>
		<g>
			<path class="st2" d="M391.1,358.7H298v-53.5c0-5.2,4.2-9.5,9.5-9.5h74.1c5.2,0,9.5,4.2,9.5,9.5V358.7z"/>
			<path class="st1" d="M391.1,359.7H298c-0.6,0-1-0.4-1-1v-53.5c0-5.8,4.7-10.5,10.5-10.5h74.1c5.8,0,10.5,4.7,10.5,10.5v53.5
				C392.1,359.3,391.6,359.7,391.1,359.7z M299,357.7h91.1v-52.5c0-4.7-3.8-8.5-8.5-8.5h-74.1c-4.7,0-8.5,3.8-8.5,8.5V357.7z"/>
		</g>
		<g>
			<path class="st2" d="M388.7,358.7h-88.4c-4.1,0-7.4-3.3-7.4-7.4v-0.9h103.1v0.9C396.1,355.4,392.8,358.7,388.7,358.7z"/>
			<path class="st1" d="M388.7,359.7h-88.4c-4.6,0-8.4-3.8-8.4-8.4v-0.9c0-0.6,0.4-1,1-1h103.1c0.6,0,1,0.4,1,1v0.9
				C397.1,356,393.3,359.7,388.7,359.7z M293.9,351.5c0.1,3.5,2.9,6.3,6.4,6.3h88.4c3.5,0,6.3-2.8,6.4-6.3H293.9z"/>
		</g>
		<g>
			
				<rect x="336.7" y="317.3" transform="matrix(0.7071 -0.7071 0.7071 0.7071 -128.9565 338.8148)" class="st2" width="15.6" height="15.6"/>
			<path class="st1" d="M344.5,337.1c-0.3,0-0.5-0.1-0.7-0.3l-11-11c-0.4-0.4-0.4-1,0-1.4l11-11c0.4-0.4,1-0.4,1.4,0l11,11
				c0.4,0.4,0.4,1,0,1.4l-11,11C345,337,344.8,337.1,344.5,337.1z M334.9,325.1l9.6,9.6l9.6-9.6l-9.6-9.6L334.9,325.1z"/>
		</g>
		<g>
			
				<rect x="339.6" y="320.2" transform="matrix(0.7071 -0.7071 0.7071 0.7071 -128.9568 338.8047)" class="st2" width="9.8" height="9.8"/>
			<g>
				
					<rect x="339.6" y="320.2" transform="matrix(0.7071 -0.7071 0.7071 0.7071 -128.9568 338.8047)" class="st6" width="9.8" height="9.8"/>
				<path class="st1" d="M344.5,333c-0.3,0-0.5-0.1-0.7-0.3l-7-7c-0.4-0.4-0.4-1,0-1.4l7-7c0.2-0.2,0.4-0.3,0.7-0.3l0,0
					c0.3,0,0.5,0.1,0.7,0.3l7,7c0.4,0.4,0.4,1,0,1.4l-7,7C345,332.9,344.8,333,344.5,333z M339,325.1l5.5,5.5l5.5-5.5l-5.5-5.5
					L339,325.1z"/>
			</g>
		</g>
	</g>
	<g>
		<g>
			<path class="st2" d="M308.5,315.8c0,0.9-0.7,1.6-1.6,1.6h-10.6v-1.7c0-0.8,0.6-1.4,1.4-1.4h9.2
				C307.8,314.3,308.5,315,308.5,315.8L308.5,315.8z"/>
			<path class="st1" d="M306.9,318.4h-11.6v-2.7c0-1.3,1.1-2.4,2.4-2.4h9.2c1.4,0,2.6,1.2,2.6,2.6S308.3,318.4,306.9,318.4z
				 M297.3,316.4h9.6c0.3,0,0.6-0.3,0.6-0.6c0-0.3-0.3-0.6-0.6-0.6h-9.2c-0.2,0-0.4,0.2-0.4,0.4V316.4z"/>
		</g>
		<g>
			<path class="st2" d="M309.6,319c0,0.9-0.7,1.6-1.6,1.6h-11.8v-3.2h11.8C308.9,317.4,309.6,318.2,309.6,319L309.6,319z"/>
			<path class="st1" d="M308.1,321.6h-12.8v-5.2h12.8c1.4,0,2.6,1.2,2.6,2.6C310.6,320.5,309.5,321.6,308.1,321.6z M297.3,319.6
				h10.8c0.3,0,0.6-0.3,0.6-0.6c0-0.3-0.3-0.6-0.6-0.6h-10.8V319.6z"/>
		</g>
		<g>
			<path class="st2" d="M310.4,322.2c0,0.9-0.7,1.6-1.6,1.6h-12.5v-3.2h12.5C309.7,320.6,310.4,321.3,310.4,322.2L310.4,322.2z"/>
			<path class="st1" d="M308.8,324.8h-13.5v-5.2h13.5c1.4,0,2.6,1.2,2.6,2.6C311.4,323.6,310.2,324.8,308.8,324.8z M297.3,322.8
				h11.5c0.3,0,0.6-0.3,0.6-0.6c0-0.3-0.3-0.6-0.6-0.6h-11.5V322.8z"/>
		</g>
		<g>
			<path class="st2" d="M306.8,325.4c0,0.9-0.7,1.6-1.6,1.6h-7.5c-0.8,0-1.4-0.6-1.4-1.4v-1.7h9
				C306.1,323.8,306.8,324.5,306.8,325.4L306.8,325.4z"/>
			<path class="st1" d="M305.2,328h-7.5c-1.3,0-2.4-1.1-2.4-2.4v-2.7h10c1.4,0,2.6,1.2,2.6,2.6S306.7,328,305.2,328z M297.3,324.8
				v0.7c0,0.2,0.2,0.4,0.4,0.4h7.5c0.3,0,0.6-0.3,0.6-0.6c0-0.3-0.3-0.6-0.6-0.6H297.3z"/>
		</g>
	</g>
	<g>
		<g>
			<path class="st2" d="M381.1,315.8c0,0.9,0.7,1.6,1.6,1.6h10.6v-1.7c0-0.8-0.6-1.4-1.4-1.4h-9.2
				C381.8,314.3,381.1,315,381.1,315.8L381.1,315.8z"/>
			<path class="st1" d="M394.3,318.4h-11.6c-1.4,0-2.6-1.2-2.6-2.6s1.2-2.6,2.6-2.6h9.2c1.3,0,2.4,1.1,2.4,2.4V318.4z M382.7,315.3
				c-0.3,0-0.6,0.3-0.6,0.6c0,0.3,0.3,0.6,0.6,0.6h9.6v-0.7c0-0.2-0.2-0.4-0.4-0.4H382.7z"/>
		</g>
		<g>
			<path class="st2" d="M380,319c0,0.9,0.7,1.6,1.6,1.6h11.8v-3.2h-11.8C380.7,317.4,380,318.2,380,319L380,319z"/>
			<path class="st1" d="M394.3,321.6h-12.8c-1.4,0-2.6-1.2-2.6-2.6c0-1.4,1.2-2.6,2.6-2.6h12.8V321.6z M381.6,318.4
				c-0.3,0-0.6,0.3-0.6,0.6c0,0.3,0.3,0.6,0.6,0.6h10.8v-1.2H381.6z"/>
		</g>
		<g>
			<path class="st2" d="M379.2,322.2c0,0.9,0.7,1.6,1.6,1.6h12.5v-3.2h-12.5C379.9,320.6,379.2,321.3,379.2,322.2L379.2,322.2z"/>
			<path class="st1" d="M394.3,324.8h-13.5c-1.4,0-2.6-1.2-2.6-2.6c0-1.4,1.2-2.6,2.6-2.6h13.5V324.8z M380.8,321.6
				c-0.3,0-0.6,0.3-0.6,0.6c0,0.3,0.3,0.6,0.6,0.6h11.5v-1.2H380.8z"/>
		</g>
		<g>
			<path class="st2" d="M382.8,325.4c0,0.9,0.7,1.6,1.6,1.6h7.5c0.8,0,1.4-0.6,1.4-1.4v-1.7h-9C383.5,323.8,382.8,324.5,382.8,325.4
				L382.8,325.4z"/>
			<path class="st1" d="M391.9,328h-7.5c-1.4,0-2.6-1.2-2.6-2.6s1.2-2.6,2.6-2.6h10v2.7C394.3,326.9,393.2,328,391.9,328z
				 M384.4,324.8c-0.3,0-0.6,0.3-0.6,0.6c0,0.3,0.3,0.6,0.6,0.6h7.5c0.2,0,0.4-0.2,0.4-0.4v-0.7H384.4z"/>
		</g>
	</g>
	<g>
		<path class="st1" d="M250.3,196.5l-5.4-5.4l5.4-5.4l5.4,5.4L250.3,196.5z M247.7,191.1l2.6,2.6l2.6-2.6l-2.6-2.6L247.7,191.1z"/>
	</g>
	<g>
		<path class="st1" d="M305.2,189c-3,0-5.5-2.5-5.5-5.5c0-3,2.5-5.5,5.5-5.5c3,0,5.5,2.5,5.5,5.5C310.7,186.6,308.2,189,305.2,189z
			 M305.2,180c-1.9,0-3.5,1.6-3.5,3.5c0,1.9,1.6,3.5,3.5,3.5c1.9,0,3.5-1.6,3.5-3.5C308.7,181.6,307.1,180,305.2,180z"/>
	</g>
	<g>
		<path class="st1" d="M388.8,219.6c-3,0-5.5-2.5-5.5-5.5s2.5-5.5,5.5-5.5s5.5,2.5,5.5,5.5S391.9,219.6,388.8,219.6z M388.8,210.6
			c-1.9,0-3.5,1.6-3.5,3.5s1.6,3.5,3.5,3.5s3.5-1.6,3.5-3.5S390.8,210.6,388.8,210.6z"/>
	</g>
	<g>
		<g>
			<rect x="511.4" y="143.7" class="st1" width="2" height="9"/>
		</g>
		<g>
			<rect x="507.9" y="147.2" class="st1" width="9" height="2"/>
		</g>
	</g>
	<g>
		<g>
			<circle class="st6" cx="274.9" cy="171.4" r="16.9"/>
			<path class="st1" d="M274.9,189.2c-9.8,0-17.9-8-17.9-17.9s8-17.9,17.9-17.9c9.8,0,17.9,8,17.9,17.9S284.7,189.2,274.9,189.2z
				 M274.9,155.5c-8.7,0-15.9,7.1-15.9,15.9c0,8.7,7.1,15.9,15.9,15.9c8.7,0,15.9-7.1,15.9-15.9
				C290.7,162.6,283.6,155.5,274.9,155.5z"/>
		</g>
		<g>
			<rect x="267" y="164.3" class="st1" width="15.7" height="2"/>
		</g>
		<g>
			<rect x="267" y="170.4" class="st1" width="15.7" height="2"/>
		</g>
		<g>
			<rect x="267" y="176.5" class="st1" width="15.7" height="2"/>
		</g>
	</g>
	<g>
		<g>
			<polygon class="st2" points="401.3,181.6 373,181.6 373,151.9 419.2,151.9 419.2,181.6 409.7,181.6 			"/>
			<path class="st1" d="M420.2,182.6H372v-31.6h48.2V182.6z M374,180.6h44.2v-27.6H374V180.6z"/>
		</g>
		<g>
			<rect x="379.4" y="158.9" class="st1" width="32.2" height="2"/>
		</g>
		<g>
			<rect x="379.4" y="163.3" class="st1" width="7.2" height="2"/>
		</g>
		<g>
			<rect x="388.8" y="163.3" class="st1" width="7.2" height="2"/>
		</g>
		<g>
			<rect x="398.2" y="163.3" class="st1" width="7.2" height="2"/>
		</g>
		<g>
			<rect x="379.4" y="166.6" class="st1" width="3.4" height="2"/>
		</g>
		<g>
			<rect x="385" y="166.6" class="st1" width="15" height="2"/>
		</g>
		<g>
			<rect x="379.4" y="170" class="st1" width="5.6" height="2"/>
		</g>
		<g>
			<rect x="387.2" y="170" class="st1" width="7.2" height="2"/>
		</g>
		<g>
			<rect x="396.6" y="170" class="st1" width="8.9" height="2"/>
		</g>
		<g>
			<rect x="379.4" y="173.3" class="st1" width="16.7" height="2"/>
		</g>
	</g>
	<g>
		<g>
			<path class="st1" d="M241.3,284.2l-2.9-5h-7.5v-19h41.8v19h-28.4L241.3,284.2z M232.9,277.2h6.6l1.8,3l1.8-3h27.6v-15h-37.8
				V277.2z"/>
		</g>
		<g>
			<path class="st1" d="M239.5,268.8h-8.6v-8.6h8.6V268.8z M232.9,266.8h4.6v-4.6h-4.6V266.8z"/>
		</g>
		<g>
			<rect x="243.1" y="265" class="st1" width="20.7" height="2"/>
		</g>
		<g>
			<rect x="243.1" y="268.1" class="st1" width="20.7" height="2"/>
		</g>
		<g>
			<rect x="243.1" y="271.3" class="st1" width="20.7" height="2"/>
		</g>
	</g>
	<g>
		<g>
			<path class="st1" d="M395.7,266.3l-2.9-5h-7.5v-19h41.8v19h-28.4L395.7,266.3z M387.3,259.3h6.6l1.8,3l1.8-3h27.6v-15h-37.8
				V259.3z"/>
		</g>
		<g>
			<path class="st1" d="M393.9,250.9h-8.6v-8.6h8.6V250.9z M387.3,248.9h4.6v-4.6h-4.6V248.9z"/>
		</g>
		<g>
			<rect x="397.4" y="247.1" class="st1" width="20.7" height="2"/>
		</g>
		<g>
			<rect x="397.4" y="250.2" class="st1" width="20.7" height="2"/>
		</g>
		<g>
			<rect x="397.4" y="253.4" class="st1" width="20.7" height="2"/>
		</g>
	</g>
	<g>
		<g>
			<g>
				<rect x="395.2" y="139.7" class="st6" width="13.4" height="41.1"/>
				<path class="st1" d="M409.6,181.8h-15.4v-43.1h15.4V181.8z M396.2,179.8h11.4v-39.1h-11.4V179.8z"/>
			</g>
			<g>
				<polygon class="st6" points="408.6,180.8 401.9,180.8 395.2,180.8 395.2,191.1 401.9,201.4 408.6,191.1 				"/>
				<path class="st1" d="M401.9,203.2l-7.7-11.8v-11.6h15.4v11.6L401.9,203.2z M396.2,190.8l5.7,8.8l5.7-8.8v-9h-11.4V190.8z"/>
			</g>
			<g>
				<rect x="398.6" y="139.7" class="st1" width="2" height="50.9"/>
			</g>
			<g>
				<line class="st2" x1="404.1" y1="190.6" x2="404.1" y2="139.7"/>
				<rect x="403.1" y="139.7" class="st1" width="2" height="50.9"/>
			</g>
			<g>
				<rect x="395.2" y="189.6" class="st1" width="13.4" height="2"/>
			</g>
			<g>
				<polygon class="st2" points="405.4,196 401.9,201.4 398.4,196 				"/>
				<path class="st1" d="M401.9,203.2l-5.3-8.2h10.7L401.9,203.2z M400.2,197l1.7,2.5l1.7-2.5H400.2z"/>
			</g>
		</g>
		<g>
			<path class="st2" d="M395.2,132.8v6.9h13.4v-6.9c0-3.6-2.9-6.5-6.5-6.5h-0.4C398.1,126.3,395.2,129.2,395.2,132.8z"/>
			<path class="st1" d="M409.6,140.7h-15.4v-7.9c0-4.1,3.4-7.5,7.5-7.5h0.4c4.2,0,7.5,3.4,7.5,7.5V140.7z M396.2,138.7h11.4v-5.9
				c0-3-2.5-5.5-5.5-5.5h-0.4c-3,0-5.5,2.5-5.5,5.5V138.7z"/>
		</g>
	</g>
	<g>
		<g>
			<path class="st1" d="M339.4,165.7l-0.9-1.8c-0.7-1.4-1.8-2.1-3-2.8c-1-0.6-2-1.3-2.8-2.3c-2.1-2.9-1.4-6.3,0.6-7.8
				c1.5-1.2,4-1.4,6.1,0.7c2.2-2.1,4.6-1.9,6.1-0.7c2,1.6,2.7,4.9,0.6,7.8c-0.8,1.1-1.8,1.7-2.8,2.3c-1.2,0.7-2.3,1.4-3,2.8
				L339.4,165.7z M335.8,152c-0.5,0-0.9,0.2-1.3,0.5c-1.2,1-1.6,3.1-0.2,5.1c0.5,0.7,1.3,1.2,2.2,1.8c0.9,0.6,2,1.2,2.9,2.3
				c0.9-1,1.9-1.7,2.9-2.3c0.9-0.6,1.7-1,2.2-1.8c1.4-1.9,1-4.1-0.2-5.1c-1.1-0.9-2.5-0.5-3.8,0.9c-0.1,0.1-0.2,0.2-0.3,0.3
				l-0.8,1.2l-0.8-1.2c-0.1-0.1-0.2-0.2-0.3-0.3C337.5,152.5,336.6,152,335.8,152z"/>
		</g>
	</g>
	<g>
		<g>
			<path class="st1" d="M451.3,258.7l-0.9-1.8c-0.7-1.4-1.8-2.1-3-2.8c-1-0.6-2-1.3-2.8-2.3c-2.1-2.9-1.4-6.2,0.6-7.8
				c1.5-1.2,4-1.4,6.1,0.7c2.2-2.1,4.6-1.9,6.1-0.7c2,1.6,2.7,4.9,0.6,7.8c-0.8,1.1-1.8,1.7-2.8,2.3c-1.2,0.7-2.3,1.4-3,2.8
				L451.3,258.7z M447.7,245c-0.5,0-0.9,0.2-1.3,0.5c-1.2,1-1.6,3.1-0.2,5.1c0.5,0.8,1.3,1.2,2.2,1.8c1,0.6,2,1.2,2.9,2.3
				c0.9-1,1.9-1.7,2.9-2.3c0.9-0.6,1.7-1,2.2-1.8c1.4-1.9,1-4.1-0.2-5.1c-1.1-0.9-2.5-0.5-3.8,0.9c-0.1,0.1-0.2,0.2-0.3,0.3
				l-0.8,1.2l-0.8-1.2c-0.1-0.1-0.2-0.2-0.3-0.3C449.4,245.5,448.5,245,447.7,245z"/>
		</g>
	</g>
	<g>
		<g>
			<g>
				<g>
					<polygon class="st1" points="476.4,353.4 474.4,353.4 474.4,275.7 402.2,275.7 402.2,320.2 400.2,320.2 400.2,273.7 
						476.4,273.7 					"/>
				</g>
				<g>
					<rect x="401.2" y="283" class="st1" width="74.2" height="2"/>
				</g>
				<rect x="404.6" y="277.8" class="st6" width="3.1" height="3.1"/>
				<rect x="409.7" y="277.8" class="st6" width="3.1" height="3.1"/>
				<rect x="414.8" y="277.8" class="st6" width="3.1" height="3.1"/>
			</g>
		</g>
		<rect x="411.3" y="295.1" class="st6" width="10.8" height="10.8"/>
		<rect x="425.8" y="295.1" class="st6" width="10.8" height="10.8"/>
		<g>
			<rect x="442.9" y="296.1" class="st1" width="21.9" height="2"/>
		</g>
		<g>
			<rect x="442.9" y="300.5" class="st1" width="21.9" height="2"/>
		</g>
		<g>
			<rect x="442.9" y="304.9" class="st1" width="21.9" height="2"/>
		</g>
		<g>
			<rect x="421.3" y="311.3" class="st1" width="43.6" height="2"/>
		</g>
		<g>
			<rect x="411.3" y="316.9" class="st1" width="53.6" height="2"/>
		</g>
		<g>
			<rect x="411.3" y="322.5" class="st1" width="53.6" height="2"/>
		</g>
		<g>
			<rect x="411.3" y="328.1" class="st1" width="53.6" height="2"/>
		</g>
	</g>
	<g>
		<g>
			<g>
				<path class="st6" d="M426,216.3c0-4.9,5.4-8.9,12.1-8.9s12.1,4,12.1,8.9c0,3.3-2.4,6.1-6,7.6c0.9,2.9,2.8,4.8,2.8,4.8
					c-4.5,0.2-7.9-1.5-10.4-3.7C430.6,224.5,426,220.8,426,216.3z"/>
				<path class="st1" d="M446.3,229.8c-3.7,0-7.1-1.2-10.1-3.7c-6.4-0.7-11.2-4.8-11.2-9.7c0-5.4,5.9-9.9,13.1-9.9
					c7.2,0,13.1,4.4,13.1,9.9c0,3.3-2.2,6.3-5.7,8.1c0.9,2.2,2.2,3.6,2.2,3.6l1.5,1.6l-2.2,0.1C446.8,229.8,446.5,229.8,446.3,229.8
					z M438.1,208.5c-6.1,0-11.1,3.5-11.1,7.9c0,3.9,4.2,7.3,9.7,7.8l0.3,0l0.2,0.2c2.3,2,4.9,3.1,7.7,3.4c-0.6-0.9-1.2-2.1-1.7-3.5
					l-0.3-0.9l0.8-0.4c3.3-1.4,5.4-4,5.4-6.7C449.2,212,444.2,208.5,438.1,208.5z"/>
			</g>
			<g>
				<path class="st1" d="M441.3,216.1c0,0.8,0.7,1.5,1.5,1.5c0.8,0,1.5-0.7,1.5-1.5c0-0.8-0.7-1.5-1.5-1.5
					C442,214.6,441.3,215.3,441.3,216.1z"/>
				<path class="st1" d="M436.9,216.1c0,0.8,0.7,1.5,1.5,1.5c0.8,0,1.5-0.7,1.5-1.5c0-0.8-0.7-1.5-1.5-1.5
					C437.5,214.6,436.9,215.3,436.9,216.1z"/>
				<path class="st1" d="M432.5,216.1c0,0.8,0.7,1.5,1.5,1.5s1.5-0.7,1.5-1.5c0-0.8-0.7-1.5-1.5-1.5S432.5,215.3,432.5,216.1z"/>
			</g>
		</g>
		<g>
			<g>
				<path class="st2" d="M439.6,207.7c0-5.5-6-9.9-13.5-9.9c-7.5,0-13.5,4.4-13.5,9.9c0,3.6,2.7,6.8,6.7,8.5c-1,3.2-3.1,5.4-3.1,5.4
					c5,0.2,8.8-1.7,11.6-4.1C434.4,216.8,439.6,212.7,439.6,207.7z"/>
				<path class="st1" d="M416.9,222.6c-0.3,0-0.6,0-0.8,0l-2.2-0.1l1.5-1.6c0,0,1.6-1.7,2.6-4.2c-4-2-6.4-5.4-6.4-9
					c0-6,6.5-10.9,14.5-10.9c8,0,14.5,4.9,14.5,10.9c0,5.4-5.3,10-12.4,10.8C424.8,221.2,421.1,222.6,416.9,222.6z M426.1,198.8
					c-6.9,0-12.5,4-12.5,8.9c0,3.1,2.3,6,6.1,7.6l0.8,0.4l-0.3,0.9c-0.5,1.7-1.3,3-2,4c3.3-0.3,6.2-1.5,8.9-3.8l0.2-0.2l0.3,0
					c6.2-0.6,10.9-4.4,10.9-8.8C438.6,202.8,433,198.8,426.1,198.8z"/>
			</g>
			<g>
				<path class="st1" d="M422.5,207.4c0,0.9-0.7,1.6-1.6,1.6s-1.6-0.7-1.6-1.6s0.7-1.6,1.6-1.6S422.5,206.5,422.5,207.4z"/>
				<path class="st1" d="M427.4,207.4c0,0.9-0.7,1.6-1.6,1.6c-0.9,0-1.6-0.7-1.6-1.6s0.7-1.6,1.6-1.6
					C426.7,205.8,427.4,206.5,427.4,207.4z"/>
				<path class="st1" d="M432.3,207.4c0,0.9-0.7,1.6-1.6,1.6c-0.9,0-1.6-0.7-1.6-1.6s0.7-1.6,1.6-1.6
					C431.6,205.8,432.3,206.5,432.3,207.4z"/>
			</g>
		</g>
	</g>
	<g>
		<g>
			<path class="st2" d="M477,141.7c-0.2,0.2-0.3,0.4-0.5,0.6c-0.1-0.2-0.3-0.4-0.5-0.6c-5.8-6.7-12.9,1.3-8.1,7.8
				c2.3,3.1,6.5,3.5,8.6,7.7c2.1-4.2,6.4-4.6,8.6-7.7C489.9,143,482.8,135,477,141.7z"/>
			<path class="st1" d="M485.1,139.4c-2-1.6-5.4-2.1-8.6,1.4c-3.2-3.5-6.6-2.9-8.6-1.4c-2.7,2.1-3.7,6.7-0.8,10.7
				c1.1,1.5,2.5,2.4,3.9,3.3c1.8,1.1,3.5,2.1,4.6,4.3l0.9,1.8l0.9-1.8c1.1-2.2,2.8-3.2,4.5-4.3c1.4-0.9,2.9-1.8,4-3.3
				C488.8,146.1,487.8,141.5,485.1,139.4z M468.7,148.9c-2.2-3-1.5-6.4,0.4-8c0.6-0.5,1.4-0.8,2.2-0.8c1.2,0,2.6,0.6,3.9,2.2
				c0.2,0.2,0.3,0.4,0.4,0.5l0.8,1.2l0.8-1.2c0.1-0.2,0.3-0.4,0.4-0.5c1.1-1.3,2.2-1.9,3.2-2.1c1.1-0.2,2.1,0.1,2.9,0.7
				c1.9,1.5,2.6,5,0.4,8c-0.9,1.2-2.1,1.9-3.4,2.7c-1.5,0.9-3.1,1.9-4.4,3.7c-0.3-0.4-0.7-0.8-1-1.2c-1.1-1-2.3-1.8-3.4-2.5
				C470.8,150.8,469.6,150.1,468.7,148.9z"/>
		</g>
		<path class="st6" d="M476.5,155.3c-0.3-0.4-0.7-0.8-1-1.2c2.1-1.7,4.5-2.5,6-4.6c2.6-3.5,1.7-7.5-0.5-9.3c1.1-0.2,2.1,0.1,2.9,0.7
			c1.9,1.5,2.6,5,0.4,8c-0.9,1.2-2.1,1.9-3.4,2.7C479.4,152.6,477.8,153.6,476.5,155.3z"/>
	</g>
	<g>
		<path class="st1" d="M560.4,184.4L555,179l5.4-5.4l5.4,5.4L560.4,184.4z M557.8,179l2.6,2.6l2.6-2.6l-2.6-2.6L557.8,179z"/>
	</g>
	<g>
		<g>
			<polygon class="st2" points="528.7,171 477.3,171 477.3,193 486.4,193 489.4,198.3 492.4,193 528.7,193 			"/>
			<g>
				<path class="st1" d="M489.4,200.3l-3.6-6.2h-9.6v-24h53.4v24H493L489.4,200.3z M478.3,192h8.7l2.4,4.2l2.4-4.2h35.8v-20h-49.4
					V192z"/>
			</g>
		</g>
		<g>
			<rect x="477.3" y="171" class="st6" width="8.5" height="8.5"/>
			<g>
				<path class="st1" d="M486.8,180.5h-10.5V170h10.5V180.5z M478.3,178.5h6.5V172h-6.5V178.5z"/>
			</g>
		</g>
		<g>
			<rect x="491.7" y="176.2" class="st1" width="26.7" height="2"/>
		</g>
		<g>
			<rect x="491.7" y="180.3" class="st1" width="26.7" height="2"/>
		</g>
		<g>
			<rect x="491.7" y="184.4" class="st1" width="26.7" height="2"/>
		</g>
	</g>
	<g>
		<g>
			<path class="st1" d="M64.6,339.7l-0.9-1.8c-0.7-1.4-1.8-2.1-3-2.8c-1-0.6-2-1.3-2.8-2.3c-2.1-2.9-1.4-6.3,0.6-7.8
				c1.5-1.2,4-1.4,6.1,0.7c2.2-2.1,4.6-1.9,6.1-0.7c2,1.6,2.7,4.9,0.6,7.8c-0.8,1.1-1.8,1.7-2.8,2.3c-1.2,0.7-2.3,1.4-3,2.8
				L64.6,339.7z M61.1,326c-0.5,0-0.9,0.2-1.3,0.5c-1.2,1-1.6,3.1-0.2,5.1c0.5,0.7,1.3,1.2,2.2,1.8c0.9,0.6,2,1.2,2.9,2.3
				c0.9-1,1.9-1.7,2.9-2.3c0.9-0.6,1.7-1,2.2-1.8c1.4-1.9,1-4.1-0.2-5.1c-1.1-0.9-2.5-0.5-3.8,0.9c-0.1,0.1-0.2,0.2-0.3,0.3
				l-0.8,1.2l-0.8-1.2c-0.1-0.1-0.2-0.2-0.3-0.3C62.7,326.4,61.9,326,61.1,326z"/>
		</g>
	</g>
	<g>
		<g>
			<polygon class="st2" points="508.7,179.9 457.3,179.9 457.3,201.9 466.4,201.9 469.4,207.1 472.4,201.9 508.7,201.9 			"/>
			<g>
				<path class="st1" d="M469.4,209.1l-3.6-6.2h-9.6v-24h53.4v24H473L469.4,209.1z M458.3,200.9h8.7l2.4,4.2l2.4-4.2h35.8v-20h-49.4
					V200.9z"/>
			</g>
		</g>
		<g>
			<rect x="457.3" y="179.9" class="st6" width="8.5" height="8.5"/>
			<g>
				<path class="st1" d="M466.8,189.4h-10.5v-10.5h10.5V189.4z M458.3,187.4h6.5v-6.5h-6.5V187.4z"/>
			</g>
		</g>
		<g>
			<rect x="471.7" y="185" class="st1" width="26.7" height="2"/>
		</g>
		<g>
			<rect x="471.7" y="189.2" class="st1" width="26.7" height="2"/>
		</g>
		<g>
			<rect x="471.7" y="193.3" class="st1" width="26.7" height="2"/>
		</g>
	</g>
</g>
</svg>
